o right
v 0.016071 0.275255 0.209150
v 0.020578 0.273823 0.206064
v 0.017302 0.278383 0.206351
v 0.013014 0.279188 0.209209
v 0.025389 0.280906 0.198621
v 0.024800 0.281150 0.192601
v 0.018203 0.287206 0.196529
v 0.019983 0.286892 0.201195
v 0.009909 0.282059 0.209460
v 0.014783 0.283089 0.207503
v 0.008160 0.281717 0.208844
v 0.002125 0.277616 0.209871
v 0.005044 0.279953 0.210856
v -0.000538 0.276442 0.212975
v 0.002451 0.272983 0.207803
v -0.000632 0.271889 0.214871
v 0.010915 0.262456 0.214789
v 0.016916 0.260739 0.218534
v 0.012212 0.263989 0.225382
v 0.006967 0.265825 0.220964
v 0.021978 0.263016 0.227638
v 0.016503 0.263844 0.226299
v 0.020624 0.259940 0.219732
v 0.025401 0.259549 0.221003
v 0.023062 0.270889 0.210840
v 0.027467 0.269439 0.207564
v 0.024697 0.270207 0.206836
v 0.020388 0.271853 0.209642
v 0.005141 0.284285 0.204145
v 0.007087 0.278398 0.201986
v 0.006572 0.279106 0.205740
v 0.006487 0.285933 0.205932
v 0.040462 0.267034 0.201203
v 0.042392 0.262185 0.197161
v 0.040018 0.262542 0.195493
v 0.039013 0.266847 0.199626
v 0.032088 0.270561 0.189987
v 0.034003 0.264905 0.188983
v 0.029912 0.260757 0.184514
v 0.026525 0.265420 0.185411
v 0.028751 0.276601 0.191091
v 0.024896 0.272799 0.186542
v 0.021281 0.278505 0.188846
v 0.015379 0.284917 0.193341
v 0.047254 0.260168 0.201309
v 0.046434 0.263390 0.204795
v -0.005805 0.296882 0.226702
v -0.003444 0.297047 0.228334
v -0.002887 0.294896 0.227297
v -0.005400 0.295129 0.225962
v 0.045943 0.254363 0.208875
v 0.043041 0.250347 0.210343
v 0.045482 0.249125 0.207727
v 0.047489 0.252826 0.205827
v 0.043037 0.256689 0.212668
v 0.039422 0.252448 0.213272
v -0.010748 0.295958 0.230365
v -0.009882 0.296695 0.228161
v -0.010038 0.294021 0.227829
v -0.010807 0.292695 0.230051
v 0.008623 0.279628 0.211249
v 0.012648 0.277490 0.212232
v 0.003891 0.282626 0.217463
v 0.007408 0.280426 0.215871
v 0.004826 0.280153 0.213496
v 0.001618 0.281441 0.215319
v 0.017842 0.276127 0.220649
v 0.020982 0.272741 0.216191
v 0.017591 0.273790 0.214854
v 0.013785 0.277975 0.219198
v 0.027889 0.272996 0.219092
v 0.023971 0.275771 0.223107
v 0.028344 0.275822 0.223988
v 0.030462 0.274444 0.220885
v 0.015877 0.279326 0.229892
v 0.013568 0.280240 0.231953
v 0.015390 0.280361 0.232862
v 0.017589 0.278964 0.230448
v 0.047279 0.247305 0.205366
v 0.047999 0.251134 0.202805
v 0.032595 0.264741 0.229481
v 0.037523 0.266377 0.227618
v 0.035661 0.270296 0.233742
v 0.030707 0.266817 0.235002
v 0.038345 0.248229 0.209796
v 0.041486 0.246389 0.207998
v -0.009774 0.295269 0.233158
v -0.009935 0.292136 0.232909
v 0.017336 0.272306 0.188132
v 0.012168 0.281116 0.192228
v 0.021392 0.265225 0.186049
v 0.024060 0.260080 0.185921
v 0.026356 0.256296 0.184624
v 0.008499 0.280792 0.219022
v 0.016376 0.274355 0.212117
v 0.025689 0.270474 0.212264
v 0.039087 0.272901 0.219755
v 0.041657 0.270528 0.215338
v 0.036955 0.272075 0.214408
v 0.035495 0.273597 0.218383
v 0.039764 0.269896 0.226852
v 0.038507 0.273235 0.225466
v 0.036952 0.275936 0.228912
v 0.037927 0.273063 0.231176
v 0.003610 0.284278 0.200334
v 0.007539 0.277506 0.198849
v 0.048111 0.258948 0.206731
v 0.048747 0.257315 0.203374
v 0.048532 0.254096 0.200532
v 0.034046 0.268848 0.204016
v 0.037898 0.266615 0.198366
v 0.036558 0.267795 0.197280
v 0.032811 0.268973 0.203399
v 0.026437 0.274654 0.202944
v 0.030757 0.275205 0.197160
v 0.022404 0.279900 0.204061
v 0.037577 0.262927 0.192329
v 0.041877 0.259499 0.191671
v 0.038591 0.259865 0.188806
v 0.045053 0.257818 0.195033
v 0.047789 0.256365 0.198141
v 0.043632 0.243066 0.206452
v 0.035111 0.259842 0.186696
v 0.015201 0.290634 0.201908
v 0.011234 0.293224 0.202117
v 0.010667 0.291374 0.205548
v 0.014611 0.288528 0.205969
v -0.002977 0.277078 0.216783
v -0.001041 0.280128 0.215390
v 0.001874 0.279075 0.211969
v 0.039292 0.268719 0.206357
v 0.044238 0.266333 0.208773
v 0.004670 0.283143 0.220891
v -0.010102 0.289873 0.229168
v -0.009440 0.291076 0.226662
v -0.005872 0.283057 0.221350
v -0.006427 0.281501 0.224287
v 0.002435 0.283127 0.226316
v 0.003260 0.284374 0.222874
v 0.002186 0.284813 0.224177
v 0.002168 0.284862 0.227463
v 0.019991 0.279672 0.232587
v 0.021857 0.278519 0.230605
v 0.004041 0.271133 0.226430
v -0.001583 0.269725 0.222467
v 0.002051 0.267201 0.217400
v 0.021332 0.275047 0.221962
v 0.018611 0.277726 0.226184
v 0.020587 0.277601 0.226938
v 0.008468 0.281144 0.221509
v 0.005538 0.282596 0.223881
v 0.007903 0.281412 0.224459
v 0.010819 0.279999 0.222358
v 0.039909 0.262371 0.222124
v 0.042446 0.266392 0.221635
v -0.008098 0.296930 0.226698
v -0.008025 0.294718 0.226217
v 0.024486 0.272057 0.217675
v 0.006747 0.264605 0.212248
v 0.028314 0.270484 0.213467
v 0.022607 0.271267 0.236654
v 0.024762 0.275522 0.235491
v 0.023087 0.277460 0.236725
v 0.021401 0.275463 0.238627
v -0.000833 0.290918 0.231763
v -0.000509 0.292513 0.229393
v -0.001257 0.294324 0.229996
v -0.001716 0.293215 0.232720
v 0.002219 0.284437 0.220076
v 0.000007 0.283465 0.217843
v -0.000854 0.285717 0.220128
v 0.000976 0.285651 0.222247
v -0.002665 0.282127 0.217864
v -0.003673 0.284477 0.219763
v -0.002896 0.289320 0.233749
v -0.006460 0.288629 0.233622
v -0.002896 0.280856 0.229536
v -0.000224 0.283524 0.229984
v 0.028228 0.255017 0.215352
v 0.033279 0.255275 0.217109
v 0.030535 0.260451 0.222507
v 0.027920 0.264324 0.228973
v 0.025059 0.268129 0.235191
v 0.019172 0.265725 0.234296
v 0.034483 0.260624 0.223022
v 0.003517 0.278633 0.227632
v 0.000172 0.275485 0.226738
v 0.003186 0.275386 0.227841
v 0.031824 0.271359 0.214870
v -0.007498 0.292198 0.224965
v 0.023402 0.251040 0.194411
v 0.027462 0.248240 0.199552
v 0.024867 0.251152 0.201417
v 0.020735 0.254572 0.195650
v -0.001997 0.293400 0.226410
v -0.004571 0.293382 0.224509
v 0.024681 0.279365 0.231867
v 0.022430 0.279919 0.233564
v 0.023166 0.279783 0.234909
v 0.026392 0.280679 0.233569
v 0.036112 0.255124 0.217445
v 0.035485 0.274929 0.235806
v 0.030445 0.270977 0.237474
v 0.035475 0.250869 0.212532
v 0.031130 0.250610 0.211008
v 0.033387 0.247839 0.207724
v 0.012953 0.269869 0.232246
v 0.024322 0.255930 0.214263
v 0.027711 0.251591 0.209808
v 0.030382 0.248076 0.206209
v 0.031970 0.245064 0.203771
v 0.035361 0.245355 0.205717
v -0.008849 0.289274 0.231709
v -0.007125 0.292011 0.235228
v 0.037331 0.241908 0.203872
v 0.033408 0.242126 0.201697
v 0.023650 0.253285 0.207688
v 0.019478 0.254938 0.205219
v 0.020512 0.256658 0.212497
v 0.015799 0.258759 0.210251
v 0.007414 0.266850 0.230830
v -0.004665 0.301584 0.235926
v -0.004143 0.295723 0.235250
v -0.002253 0.296092 0.233318
v -0.002801 0.301852 0.235113
v -0.003681 0.292345 0.234740
v -0.006973 0.295131 0.235299
v 0.011274 0.262243 0.206203
v 0.005526 0.282176 0.226669
v 0.015642 0.260185 0.198902
v 0.006329 0.269423 0.203373
v 0.010788 0.269158 0.197815
v 0.019501 0.259013 0.190920
v 0.014466 0.266627 0.190727
v 0.025092 0.252051 0.188251
v 0.022417 0.255062 0.190250
v 0.010834 0.274360 0.192731
v -0.004590 0.302324 0.228528
v -0.002347 0.301990 0.230132
v 0.025634 0.248049 0.192552
v 0.018471 0.284809 0.205344
v 0.034213 0.269800 0.210207
v 0.031522 0.269643 0.209269
v 0.043055 0.268817 0.212753
v 0.037925 0.270299 0.210833
v -0.007137 0.302342 0.228251
v 0.012609 0.280468 0.233626
v 0.013875 0.279933 0.233133
v 0.013957 0.290604 0.197848
v 0.010701 0.292834 0.198310
v 0.005436 0.289127 0.196049
v 0.008063 0.291611 0.196248
v 0.011123 0.288338 0.194877
v 0.008475 0.285603 0.194020
v 0.034976 0.269124 0.204685
v 0.036459 0.268953 0.205574
v 0.041539 0.259218 0.217070
v 0.044127 0.263898 0.216336
v -0.004386 0.279751 0.219401
v -0.003382 0.273962 0.219490
v -0.004687 0.277502 0.222163
v -0.005063 0.279689 0.226921
v 0.003856 0.281621 0.227901
v 0.001588 0.280839 0.227719
v 0.034258 0.271703 0.197167
v 0.029998 0.270903 0.202805
v 0.012607 0.286120 0.207900
v 0.009052 0.288588 0.207262
v 0.014793 0.278631 0.223583
v 0.009666 0.274986 0.234162
v 0.006022 0.272865 0.232807
v 0.011793 0.280265 0.226843
v -0.009824 0.302198 0.231364
v -0.008746 0.302442 0.229255
v -0.003406 0.275320 0.224773
v 0.024855 0.278105 0.227654
v 0.013256 0.273622 0.233584
v 0.011638 0.278160 0.234635
v 0.036886 0.275775 0.232596
v 0.029231 0.245048 0.197106
v -0.001647 0.296919 0.230805
v -0.001402 0.301630 0.232266
v -0.006705 0.301083 0.235791
v -0.009125 0.301063 0.234052
v 0.045280 0.261883 0.211368
v 0.029789 0.269327 0.208790
v 0.007650 0.280602 0.195219
v 0.003932 0.285852 0.197545
v 0.010082 0.281050 0.228549
v 0.026279 0.272606 0.236676
v 0.017941 0.270521 0.237290
v 0.016833 0.275083 0.239632
v 0.014128 0.277084 0.237927
v 0.013441 0.279926 0.235567
v -0.006301 0.304321 0.236032
v -0.008567 0.304186 0.234529
v -0.009313 0.305298 0.231937
v -0.008561 0.305268 0.229898
v -0.006720 0.304586 0.228760
v -0.004322 0.305036 0.236177
v -0.002717 0.305301 0.235355
v -0.001364 0.303910 0.232796
v -0.003623 0.307893 0.236032
v -0.005896 0.309460 0.236172
v -0.007761 0.313081 0.230589
v -0.008720 0.310321 0.231880
v -0.008444 0.311611 0.232540
v -0.007506 0.314094 0.231850
v -0.006563 0.316752 0.232024
v -0.006860 0.316117 0.230371
v -0.007795 0.310219 0.234406
v -0.006713 0.313722 0.233981
v -0.005223 0.313355 0.235371
v -0.004553 0.316344 0.234999
v -0.005968 0.316742 0.233909
v -0.006212 0.311065 0.235664
v -0.008041 0.308882 0.234618
v -0.005780 0.318367 0.231070
v -0.006115 0.318370 0.232359
v -0.005297 0.318356 0.233612
v -0.004321 0.319666 0.232882
v -0.008073 0.308157 0.229779
v -0.007189 0.312700 0.229474
v -0.005625 0.315607 0.229599
v -0.004600 0.317900 0.230324
v -0.005212 0.312586 0.229085
v -0.004287 0.315103 0.229473
v -0.003209 0.316863 0.230231
v -0.003297 0.312435 0.229511
v -0.002844 0.314741 0.229921
v -0.004516 0.306050 0.229244
v -0.006548 0.306372 0.228806
v -0.002312 0.316192 0.230064
v -0.003173 0.319420 0.232377
v -0.003815 0.312067 0.235875
v -0.003001 0.315754 0.234760
v -0.002690 0.311623 0.235494
v -0.001842 0.315311 0.234708
v -0.002937 0.318351 0.234555
v -0.004233 0.317903 0.234451
v -0.004306 0.303791 0.229014
v -0.002017 0.303601 0.230773
v -0.002136 0.305597 0.231086
v -0.001477 0.312068 0.230851
v -0.001258 0.306146 0.232869
v -0.002105 0.308003 0.235011
v -0.001473 0.311898 0.234592
v -0.000821 0.311823 0.233158
v -0.001024 0.314787 0.233983
v -0.000920 0.314427 0.232800
v -0.001423 0.314615 0.230992
v -0.001226 0.316951 0.233051
v -0.002010 0.317875 0.233947
v -0.002176 0.317882 0.231657
v -0.000931 0.316085 0.232503
v -0.001811 0.316462 0.231292
v 0.005649 0.297342 0.235338
v 0.008544 0.296945 0.236656
v 0.007767 0.294044 0.236336
v 0.005395 0.294654 0.235272
v 0.001035 0.296917 0.240544
v 0.002025 0.297555 0.237686
v 0.001098 0.294585 0.237893
v 0.000529 0.293684 0.241238
v 0.002608 0.295888 0.243419
v 0.002333 0.292512 0.243940
v 0.000630 0.290620 0.240190
v 0.001394 0.291491 0.236793
v 0.003000 0.281760 0.230631
v 0.002791 0.279894 0.233495
v 0.011257 0.282639 0.232083
v 0.011388 0.282417 0.233732
v 0.003784 0.297585 0.235918
v 0.003195 0.294838 0.236085
v 0.010411 0.291271 0.238666
v 0.009986 0.291927 0.236149
v 0.009808 0.294035 0.237561
v 0.009986 0.293576 0.240288
v 0.006243 0.282929 0.228818
v 0.008937 0.282530 0.230201
v 0.004430 0.282762 0.229248
v 0.009423 0.290360 0.241825
v 0.006772 0.289430 0.243779
v 0.008039 0.279507 0.238013
v 0.010340 0.281172 0.237289
v 0.003011 0.292283 0.234817
v 0.007871 0.292429 0.234582
v 0.005448 0.292620 0.233799
v 0.002998 0.289298 0.242301
v 0.006449 0.292952 0.245012
v 0.009844 0.303464 0.242442
v 0.009279 0.296682 0.242998
v 0.010365 0.296864 0.240652
v 0.011460 0.303732 0.240560
v 0.009075 0.293301 0.243163
v 0.006525 0.296176 0.244251
v 0.008229 0.305191 0.235042
v 0.011100 0.304764 0.236388
v 0.006073 0.305570 0.235341
v 0.004712 0.278588 0.236485
v 0.003032 0.304361 0.239692
v 0.004322 0.305201 0.236662
v 0.010404 0.296875 0.238285
v 0.012154 0.304370 0.238475
v 0.007740 0.303367 0.243188
v 0.004279 0.303029 0.242309
v 0.008311 0.306858 0.242644
v 0.005336 0.306942 0.241867
v 0.004053 0.307970 0.239214
v 0.005346 0.307990 0.236500
v 0.006789 0.307617 0.235275
v 0.010356 0.306938 0.241952
v 0.011883 0.307027 0.240312
v 0.012230 0.306185 0.238136
v 0.012040 0.310664 0.240445
v 0.010181 0.311680 0.241214
v 0.008837 0.317574 0.233628
v 0.007461 0.314930 0.235177
v 0.007901 0.315572 0.236252
v 0.009320 0.317835 0.234863
v 0.005962 0.312865 0.237551
v 0.006874 0.313840 0.237937
v 0.008031 0.313146 0.239826
v 0.009512 0.315807 0.238100
v 0.011393 0.314959 0.239248
v 0.012629 0.317683 0.238077
v 0.010742 0.318514 0.236975
v 0.009910 0.313387 0.240375
v 0.010386 0.319538 0.234491
v 0.010856 0.320037 0.233230
v 0.007054 0.311800 0.240642
v 0.005888 0.310220 0.235973
v 0.007892 0.314337 0.233918
v 0.009687 0.317260 0.232335
v 0.012176 0.319691 0.232396
v 0.009561 0.313796 0.232949
v 0.011145 0.316684 0.231810
v 0.013124 0.318577 0.232286
v 0.011675 0.313150 0.232683
v 0.013158 0.315992 0.231953
v 0.009342 0.308019 0.234770
v 0.007296 0.308912 0.234658
v 0.013680 0.317404 0.232223
v 0.012567 0.321035 0.234957
v 0.013849 0.320479 0.233730
v 0.011855 0.320262 0.235628
v 0.012340 0.314376 0.239344
v 0.013652 0.317329 0.237569
v 0.013612 0.313906 0.238626
v 0.014731 0.317126 0.236747
v 0.014087 0.319695 0.236368
v 0.013204 0.319738 0.236647
v 0.008756 0.306838 0.235382
v 0.011215 0.306201 0.236555
v 0.011650 0.307359 0.235992
v 0.013740 0.312648 0.234068
v 0.012823 0.307681 0.237748
v 0.012924 0.309603 0.239283
v 0.014371 0.313091 0.237812
v 0.014727 0.312741 0.235985
v 0.015699 0.316580 0.236434
v 0.015662 0.315383 0.235350
v 0.014817 0.315346 0.233102
v 0.015820 0.318913 0.235095
v 0.014944 0.319573 0.235781
v 0.014414 0.319426 0.233304
v 0.015949 0.317404 0.234498
v 0.014837 0.317729 0.232991
v 0.016549 0.293912 0.235330
v 0.019562 0.293154 0.235365
v 0.019328 0.291553 0.235941
v 0.016355 0.292166 0.236151
v 0.014904 0.295451 0.241449
v 0.014297 0.295528 0.238965
v 0.013349 0.293105 0.239917
v 0.013517 0.292254 0.242805
v 0.017496 0.295730 0.242598
v 0.015887 0.291565 0.245027
v 0.012888 0.288786 0.242614
v 0.012930 0.290367 0.239851
v 0.013432 0.282268 0.236903
v 0.013502 0.280831 0.239813
v 0.015068 0.294899 0.236778
v 0.014594 0.292968 0.237548
v 0.022781 0.289399 0.238384
v 0.021653 0.289791 0.236470
v 0.021759 0.291488 0.237038
v 0.022653 0.291503 0.238986
v 0.016744 0.281803 0.233178
v 0.019347 0.280978 0.233568
v 0.014762 0.282884 0.234565
v 0.022076 0.288987 0.241849
v 0.019497 0.288276 0.244749
v 0.020251 0.280073 0.241386
v 0.022088 0.280732 0.239015
v 0.014287 0.290751 0.237560
v 0.019249 0.289875 0.235310
v 0.016431 0.290468 0.235653
v 0.015540 0.287853 0.244157
v 0.020080 0.291845 0.244521
v 0.024464 0.302170 0.237117
v 0.022796 0.294121 0.241012
v 0.023136 0.293228 0.238082
v 0.025159 0.301209 0.235202
v 0.022419 0.291972 0.241871
v 0.020807 0.294707 0.242831
v 0.019271 0.300914 0.231504
v 0.021919 0.299958 0.231880
v 0.017661 0.301445 0.233013
v 0.015878 0.279560 0.241729
v 0.021985 0.281185 0.235610
v 0.017418 0.303138 0.236457
v 0.017057 0.302349 0.234418
v 0.021992 0.292849 0.236434
v 0.024394 0.300292 0.233307
v 0.022566 0.302551 0.238467
v 0.019460 0.302765 0.238588
v 0.023843 0.305420 0.236543
v 0.020798 0.305955 0.236450
v 0.018769 0.306240 0.234491
v 0.018182 0.305090 0.232683
v 0.018565 0.303924 0.231437
v 0.025441 0.304493 0.234953
v 0.025647 0.303345 0.233282
v 0.024181 0.301554 0.232541
v 0.026484 0.305616 0.232795
v 0.025275 0.308090 0.233656
v 0.023091 0.312170 0.225873
v 0.021799 0.310413 0.228299
v 0.022203 0.310804 0.228568
v 0.023540 0.312638 0.226479
v 0.020701 0.309209 0.231691
v 0.021515 0.309878 0.231194
v 0.022960 0.309539 0.232629
v 0.024468 0.311401 0.229878
v 0.026820 0.309412 0.230144
v 0.027359 0.310891 0.227926
v 0.025534 0.312867 0.227705
v 0.025141 0.308784 0.232662
v 0.024694 0.313480 0.225544
v 0.024008 0.313996 0.224542
v 0.022349 0.308914 0.233807
v 0.019100 0.307559 0.230519
v 0.020978 0.309656 0.227235
v 0.022077 0.311416 0.224517
v 0.023939 0.312492 0.223165
v 0.021256 0.308103 0.226263
v 0.022490 0.309922 0.223974
v 0.024135 0.310845 0.222719
v 0.022083 0.306917 0.225912
v 0.023379 0.308607 0.223991
v 0.020067 0.303640 0.229893
v 0.019162 0.305536 0.229996
v 0.024478 0.309721 0.223008
v 0.026523 0.313992 0.224937
v 0.026970 0.312416 0.223265
v 0.026149 0.313365 0.225980
v 0.027268 0.308520 0.230290
v 0.028416 0.310406 0.227413
v 0.027550 0.307276 0.229637
v 0.028955 0.309224 0.226846
v 0.028412 0.312251 0.225939
v 0.027760 0.312271 0.226397
v 0.019831 0.302281 0.231117
v 0.022115 0.301318 0.231396
v 0.022105 0.302504 0.230179
v 0.024113 0.306016 0.225912
v 0.024243 0.302460 0.231099
v 0.026284 0.304548 0.231256
v 0.027142 0.306281 0.228458
v 0.026124 0.305884 0.226955
v 0.028468 0.308131 0.226009
v 0.027154 0.307494 0.225499
v 0.025189 0.307548 0.223960
v 0.028153 0.309855 0.224478
v 0.028845 0.311147 0.225051
v 0.026536 0.310763 0.222842
v 0.027298 0.308842 0.224227
v 0.026052 0.309425 0.223021
v 0.021169 0.280997 0.234330
v 0.029387 0.291320 0.234346
v 0.031361 0.290472 0.233849
v 0.031480 0.290218 0.234761
v 0.029319 0.290354 0.235338
v 0.029467 0.293889 0.239725
v 0.028455 0.293404 0.237549
v 0.027498 0.291464 0.239852
v 0.028375 0.291583 0.242155
v 0.031853 0.293376 0.240846
v 0.031247 0.291229 0.242848
v 0.028000 0.288891 0.242207
v 0.027007 0.289139 0.239935
v 0.026370 0.279995 0.236989
v 0.027466 0.278127 0.238735
v 0.036220 0.279143 0.233725
v 0.034586 0.279743 0.231244
v 0.034284 0.283674 0.233675
v 0.035686 0.282504 0.235500
v 0.028618 0.292436 0.235674
v 0.027851 0.290871 0.237118
v 0.035634 0.289016 0.237195
v 0.033749 0.289241 0.235420
v 0.033433 0.289618 0.234748
v 0.035566 0.289746 0.235736
v 0.031753 0.280677 0.230718
v 0.029050 0.280435 0.231626
v 0.029154 0.282797 0.232574
v 0.031799 0.284376 0.233209
v 0.027008 0.282249 0.234429
v 0.035725 0.289025 0.239541
v 0.034132 0.289025 0.242292
v 0.034988 0.279203 0.239072
v 0.035932 0.280495 0.237296
v 0.027507 0.289777 0.237760
v 0.031421 0.289416 0.235179
v 0.029202 0.290125 0.235995
v 0.030783 0.288400 0.243103
v 0.034513 0.291096 0.241049
v 0.037122 0.294393 0.232826
v 0.036476 0.291301 0.236748
v 0.035737 0.290157 0.234574
v 0.036598 0.293350 0.231893
v 0.035905 0.290458 0.238054
v 0.035075 0.292708 0.238901
v 0.030292 0.293915 0.230762
v 0.032778 0.292700 0.230813
v 0.029577 0.295105 0.231588
v 0.030715 0.277613 0.239785
v 0.031013 0.297467 0.234225
v 0.029779 0.296667 0.232519
v 0.033480 0.290064 0.233777
v 0.035032 0.292543 0.231280
v 0.036268 0.295876 0.234086
v 0.033490 0.297100 0.235323
v 0.036745 0.297258 0.231206
v 0.034000 0.298900 0.232227
v 0.031303 0.298750 0.231113
v 0.030224 0.297143 0.230605
v 0.029932 0.295648 0.230099
v 0.037313 0.295073 0.230483
v 0.036681 0.293795 0.229988
v 0.035089 0.292854 0.229969
v 0.037497 0.295514 0.227965
v 0.036856 0.297768 0.227356
v 0.032025 0.297210 0.221882
v 0.031650 0.297574 0.224408
v 0.032169 0.298078 0.224281
v 0.032259 0.297838 0.221883
v 0.031822 0.298711 0.227446
v 0.032503 0.298864 0.226571
v 0.034144 0.298987 0.227544
v 0.034303 0.298546 0.224299
v 0.036777 0.297148 0.224091
v 0.036607 0.297133 0.221610
v 0.034460 0.298346 0.222014
v 0.036254 0.298240 0.226511
v 0.032832 0.297927 0.220268
v 0.032410 0.297666 0.219396
v 0.034142 0.299339 0.228925
v 0.030425 0.297002 0.227957
v 0.030873 0.296551 0.223962
v 0.031412 0.296393 0.220852
v 0.032604 0.296514 0.218606
v 0.030745 0.295207 0.224357
v 0.031253 0.295074 0.220768
v 0.032524 0.295061 0.218934
v 0.031424 0.293681 0.224616
v 0.031977 0.293889 0.221376
v 0.031115 0.293715 0.228339
v 0.030350 0.295249 0.228139
v 0.032820 0.294308 0.219731
v 0.034463 0.297831 0.218798
v 0.034440 0.296267 0.218079
v 0.034590 0.298076 0.219808
v 0.037333 0.296652 0.224165
v 0.037211 0.296458 0.221098
v 0.037641 0.295364 0.224276
v 0.037233 0.295296 0.220967
v 0.036371 0.296951 0.219110
v 0.035898 0.297612 0.220200
v 0.030819 0.293840 0.229487
v 0.032801 0.293011 0.229866
v 0.033185 0.292997 0.228606
v 0.033295 0.292871 0.224882
v 0.035458 0.292948 0.228591
v 0.036893 0.294074 0.228317
v 0.037002 0.294069 0.224521
v 0.035646 0.293037 0.224649
v 0.036663 0.294206 0.220878
v 0.035386 0.293211 0.221320
v 0.033550 0.293013 0.221554
v 0.035545 0.294781 0.219032
v 0.036076 0.295705 0.218777
v 0.034273 0.295057 0.218617
v 0.034892 0.293973 0.219552
v 0.033923 0.294053 0.219618
v 0.036092 0.278783 0.235759
v 0.000458 0.291205 0.203014
v 0.001521 0.290917 0.205614
v 0.007295 0.297161 0.205639
v 0.005318 0.294551 0.207708
v 0.007169 0.298535 0.202273
v 0.004127 0.296798 0.198022
v 0.006296 0.297753 0.199486
v 0.003347 0.292425 0.207230
v 0.000378 0.292106 0.200327
v 0.001918 0.294311 0.197838
v -0.003087 0.296607 0.200861
v -0.000708 0.298759 0.198651
v 0.002388 0.301044 0.198929
v 0.005186 0.301063 0.200781
v 0.006340 0.300892 0.202842
v -0.001442 0.294524 0.204150
v -0.000009 0.294139 0.206541
v 0.002539 0.294978 0.208059
v -0.003498 0.298329 0.206472
v -0.003787 0.303900 0.207330
v 0.001902 0.312936 0.209380
v 0.002701 0.310004 0.207172
v 0.001222 0.310022 0.207202
v 0.000546 0.312799 0.208979
v 0.001936 0.307921 0.205004
v 0.000887 0.308042 0.205641
v -0.001394 0.306189 0.205821
v -0.002027 0.309012 0.207636
v -0.002968 0.305277 0.207554
v -0.003394 0.306832 0.209568
v -0.002583 0.311560 0.209548
v -0.000884 0.314285 0.210097
v -0.002904 0.313627 0.211173
v 0.000355 0.314565 0.211186
v -0.002454 0.306235 0.204357
v 0.004535 0.305634 0.203580
v 0.004414 0.308961 0.207236
v 0.003326 0.311900 0.210167
v 0.001321 0.313664 0.212351
v 0.005382 0.307345 0.208368
v 0.003946 0.309816 0.211189
v 0.001938 0.311093 0.213227
v 0.004972 0.305502 0.209779
v 0.003413 0.307983 0.212082
v 0.006106 0.300304 0.206032
v 0.006417 0.302998 0.204274
v 0.002022 0.309484 0.213201
v -0.002649 0.314342 0.212512
v -0.001548 0.313233 0.213842
v -0.003784 0.305145 0.210186
v -0.004221 0.309253 0.211207
v -0.004044 0.308067 0.212187
v -0.003269 0.303237 0.210889
v -0.003668 0.307007 0.213273
v -0.004088 0.311333 0.213127
v -0.004105 0.311674 0.211701
v 0.006607 0.299032 0.205483
v 0.005035 0.296590 0.207536
v 0.004217 0.297850 0.207845
v 0.003015 0.303021 0.210788
v 0.001511 0.296871 0.208909
v -0.001489 0.297223 0.207979
v -0.001923 0.302100 0.211744
v 0.000407 0.301836 0.211771
v -0.002051 0.306118 0.213897
v -0.000485 0.305845 0.213813
v 0.001874 0.306712 0.213228
v -0.001758 0.308990 0.214487
v -0.003277 0.310140 0.214244
v -0.000252 0.310901 0.214315
v -0.000617 0.307936 0.214184
v 0.000622 0.309018 0.213913
v 0.035342 0.277443 0.230153
v 0.032318 0.278720 0.228950
v 0.034570 0.277055 0.227197
v 0.036640 0.274710 0.224012
v 0.040477 0.271578 0.221812
v 0.033630 0.274921 0.222497
v 0.031292 0.277258 0.225987
v 0.028115 0.278995 0.229239
v 0.032440 0.272947 0.217870
f 2 3 1
f 1 3 4
f 5 6 8
f 8 6 7
f 9 4 10
f 10 4 3
f 12 13 11
f 11 13 9
f 14 12 16
f 16 12 15
f 18 19 17
f 17 19 20
f 22 23 21
f 21 23 24
f 26 27 25
f 25 27 28
f 30 31 29
f 29 31 32
f 33 34 36
f 36 34 35
f 37 38 40
f 40 38 39
f 41 42 6
f 6 42 43
f 6 43 7
f 7 43 44
f 45 34 46
f 46 34 33
f 48 49 47
f 47 49 50
f 52 53 51
f 51 53 54
f 56 52 55
f 55 52 51
f 58 59 57
f 57 59 60
f 61 62 4
f 4 62 1
f 64 65 63
f 63 65 66
f 68 69 67
f 67 69 70
f 72 73 71
f 71 73 74
f 76 77 75
f 75 77 78
f 53 79 54
f 54 79 80
f 82 83 81
f 81 83 84
f 85 86 52
f 52 86 53
f 57 60 87
f 87 60 88
f 89 90 43
f 43 90 44
f 43 42 89
f 89 42 91
f 40 39 92
f 92 39 93
f 94 70 64
f 64 70 69
f 13 61 9
f 9 61 4
f 25 28 69
f 69 28 95
f 96 25 68
f 68 25 69
f 98 99 97
f 97 99 100
f 101 102 104
f 104 102 103
f 106 30 105
f 105 30 29
f 51 54 107
f 107 54 108
f 54 80 108
f 108 80 109
f 111 112 110
f 110 112 113
f 115 5 114
f 114 5 116
f 115 41 5
f 5 41 6
f 36 35 111
f 111 35 117
f 35 118 117
f 117 118 119
f 34 120 35
f 35 120 118
f 34 45 120
f 120 45 121
f 125 126 124
f 124 126 127
f 128 129 14
f 14 129 130
f 33 131 46
f 46 131 132
f 133 94 63
f 63 94 64
f 134 135 137
f 137 135 136
f 139 140 138
f 138 140 141
f 77 142 78
f 78 142 143
f 144 145 20
f 20 145 146
f 148 149 147
f 147 149 72
f 151 152 150
f 150 152 153
f 82 101 83
f 83 101 104
f 101 82 155
f 155 82 154
f 156 157 58
f 58 157 59
f 158 68 147
f 147 68 67
f 159 146 15
f 15 146 16
f 68 158 96
f 96 158 160
f 129 66 130
f 130 66 65
f 162 163 161
f 161 163 164
f 166 167 165
f 165 167 168
f 170 171 169
f 169 171 172
f 174 171 173
f 173 171 170
f 176 177 175
f 175 177 178
f 180 181 179
f 179 181 24
f 182 183 21
f 21 183 184
f 81 185 82
f 82 185 154
f 186 187 188
f 188 187 144
f 158 71 160
f 160 71 189
f 190 135 157
f 157 135 59
f 169 172 139
f 139 172 140
f 147 72 158
f 158 72 71
f 192 193 191
f 191 193 194
f 167 166 49
f 49 166 195
f 196 190 50
f 50 190 157
f 197 198 200
f 200 198 199
f 21 24 182
f 182 24 181
f 146 159 20
f 20 159 17
f 182 181 81
f 81 181 185
f 201 185 180
f 180 185 181
f 202 203 83
f 83 203 84
f 205 206 204
f 204 206 85
f 207 22 184
f 184 22 21
f 179 24 208
f 208 24 23
f 208 209 179
f 179 209 205
f 209 210 205
f 205 210 206
f 212 206 211
f 211 206 210
f 179 205 180
f 180 205 204
f 213 176 88
f 88 176 214
f 86 85 212
f 212 85 206
f 193 217 218
f 217 219 218
f 218 219 220
f 219 18 220
f 220 18 17
f 19 221 20
f 20 221 144
f 222 223 225
f 225 223 224
f 175 226 176
f 176 226 214
f 227 87 214
f 214 87 88
f 220 17 228
f 228 17 159
f 134 213 60
f 60 213 88
f 138 229 151
f 151 229 152
f 193 192 210
f 210 192 211
f 230 194 218
f 218 194 193
f 231 232 228
f 228 232 230
f 233 234 91
f 91 234 89
f 235 236 93
f 93 236 92
f 230 232 234
f 234 232 237
f 47 238 48
f 48 238 239
f 240 191 235
f 235 191 236
f 5 8 116
f 116 8 241
f 242 243 189
f 189 243 160
f 244 245 98
f 98 245 99
f 156 246 47
f 47 246 238
f 76 247 77
f 77 247 248
f 250 125 249
f 249 125 124
f 252 253 251
f 251 253 254
f 111 110 36
f 36 110 255
f 256 33 255
f 255 33 36
f 257 258 154
f 154 258 155
f 63 169 133
f 133 169 139
f 66 170 63
f 63 170 169
f 173 170 129
f 129 170 66
f 129 128 173
f 173 128 259
f 128 260 259
f 259 260 261
f 213 134 262
f 262 134 137
f 263 264 186
f 186 264 187
f 112 265 113
f 113 265 266
f 11 267 268
f 234 233 230
f 230 233 194
f 153 269 70
f 70 269 67
f 175 178 165
f 165 178 141
f 150 153 94
f 94 153 70
f 271 221 270
f 270 221 207
f 269 153 272
f 272 153 152
f 121 45 109
f 109 45 108
f 47 50 156
f 156 50 157
f 57 273 58
f 58 273 274
f 145 275 260
f 260 275 261
f 276 149 143
f 143 149 78
f 148 269 75
f 75 269 272
f 207 277 270
f 270 277 278
f 195 196 49
f 49 196 50
f 59 135 60
f 60 135 134
f 83 104 202
f 202 104 279
f 149 148 78
f 78 148 75
f 247 278 248
f 248 278 277
f 183 182 84
f 84 182 81
f 48 239 281
f 281 239 282
f 227 223 283
f 283 223 222
f 223 226 224
f 224 226 168
f 281 282 224
f 224 282 225
f 165 168 175
f 175 168 226
f 264 263 138
f 138 263 229
f 14 16 128
f 128 16 260
f 220 228 218
f 218 228 230
f 87 227 284
f 284 227 283
f 260 16 145
f 145 16 146
f 244 98 258
f 258 98 155
f 58 274 156
f 156 274 246
f 107 285 51
f 51 285 55
f 243 286 160
f 160 286 96
f 234 237 89
f 89 237 90
f 46 132 107
f 107 132 285
f 253 252 249
f 249 252 250
f 286 26 96
f 96 26 25
f 106 105 287
f 287 105 288
f 272 152 289
f 289 152 229
f 138 151 139
f 139 151 133
f 183 290 161
f 161 290 162
f 291 292 277
f 277 292 293
f 151 150 133
f 133 150 94
f 262 275 177
f 177 275 187
f 144 187 145
f 145 187 275
f 273 57 284
f 284 57 87
f 174 136 190
f 190 136 135
f 111 117 112
f 112 117 38
f 117 119 38
f 38 119 123
f 112 38 265
f 265 38 37
f 287 288 254
f 254 288 251
f 228 159 231
f 231 159 15
f 223 227 226
f 226 227 214
f 147 67 148
f 148 67 269
f 224 168 281
f 281 168 167
f 199 163 200
f 200 163 162
f 45 46 108
f 108 46 107
f 281 167 48
f 48 167 49
f 161 164 291
f 291 164 292
f 38 123 39
f 293 294 277
f 277 294 248
f 284 283 296
f 296 283 295
f 284 296 273
f 273 296 297
f 274 273 298
f 298 273 297
f 246 274 299
f 299 274 298
f 283 222 295
f 295 222 300
f 222 225 300
f 300 225 301
f 301 225 302
f 302 225 282
f 303 304 300
f 300 304 295
f 306 307 305
f 305 307 308
f 309 310 308
f 308 310 305
f 308 307 312
f 312 307 311
f 313 314 312
f 312 314 315
f 311 316 312
f 312 316 313
f 317 304 311
f 311 304 316
f 315 309 312
f 312 309 308
f 318 319 321
f 321 319 320
f 319 318 309
f 309 318 310
f 311 307 317
f 317 307 306
f 306 297 317
f 317 297 296
f 306 322 297
f 297 322 298
f 305 323 306
f 306 323 322
f 323 305 324
f 324 305 310
f 304 317 295
f 295 317 296
f 318 325 310
f 310 325 324
f 323 324 326
f 326 324 327
f 324 325 327
f 327 325 328
f 326 327 329
f 329 327 330
f 329 331 326
f 326 331 332
f 333 330 328
f 328 330 327
f 323 326 322
f 322 326 332
f 322 332 298
f 298 332 299
f 325 318 334
f 334 318 321
f 313 316 335
f 335 316 304
f 335 336 313
f 313 336 314
f 304 303 335
f 335 303 337
f 336 335 338
f 338 335 337
f 336 339 314
f 314 339 340
f 246 299 238
f 238 299 341
f 239 342 282
f 282 342 302
f 342 239 341
f 341 239 238
f 341 331 342
f 342 331 343
f 331 329 343
f 343 329 344
f 342 343 302
f 302 343 345
f 341 299 331
f 331 299 332
f 346 301 345
f 345 301 302
f 346 303 301
f 301 303 300
f 347 337 346
f 346 337 303
f 347 346 348
f 348 346 345
f 349 347 350
f 350 347 348
f 343 344 345
f 345 344 348
f 344 351 348
f 348 351 350
f 337 347 338
f 338 347 349
f 353 338 352
f 352 338 349
f 352 355 354
f 354 355 356
f 352 349 355
f 355 349 350
f 352 354 353
f 353 354 334
f 353 334 339
f 339 334 321
f 339 336 353
f 353 336 338
f 329 330 344
f 344 330 351
f 356 351 333
f 333 351 330
f 356 355 351
f 351 355 350
f 354 356 328
f 328 356 333
f 328 325 354
f 354 325 334
f 309 315 319
f 319 315 320
f 320 340 321
f 321 340 339
f 320 315 340
f 340 315 314
f 137 136 261
f 261 136 259
f 140 166 141
f 141 166 165
f 172 171 195
f 195 171 196
f 171 174 196
f 196 174 190
f 178 177 264
f 264 177 187
f 172 195 140
f 140 195 166
f 137 261 262
f 262 261 275
f 178 264 141
f 141 264 138
f 262 177 213
f 213 177 176
f 136 174 259
f 259 174 173
f 358 359 357
f 357 359 360
f 362 363 361
f 361 363 364
f 361 364 365
f 365 364 366
f 367 368 370
f 370 368 369
f 76 371 247
f 247 371 372
f 373 374 362
f 362 374 363
f 376 377 375
f 375 377 378
f 289 229 380
f 380 229 379
f 381 379 263
f 263 379 229
f 383 384 382
f 382 384 385
f 386 368 374
f 374 368 363
f 76 289 371
f 371 289 380
f 377 376 359
f 359 376 387
f 388 386 360
f 360 386 374
f 389 383 366
f 366 383 390
f 392 393 391
f 391 393 394
f 383 382 390
f 390 382 395
f 396 365 390
f 390 365 366
f 389 366 367
f 367 366 364
f 357 397 358
f 358 397 398
f 373 399 357
f 357 399 397
f 389 367 400
f 400 367 370
f 382 385 375
f 375 385 372
f 357 360 373
f 373 360 374
f 361 401 362
f 362 401 402
f 387 388 359
f 359 388 360
f 363 368 364
f 364 368 367
f 358 398 403
f 403 398 404
f 396 392 405
f 405 392 391
f 392 395 393
f 393 395 378
f 393 403 394
f 394 403 404
f 375 378 382
f 382 378 395
f 365 396 406
f 406 396 405
f 362 402 373
f 373 402 399
f 271 270 400
f 400 270 384
f 401 361 406
f 406 361 365
f 381 369 386
f 386 369 368
f 392 396 395
f 395 396 390
f 393 378 403
f 403 378 377
f 403 377 358
f 358 377 359
f 406 405 408
f 408 405 407
f 406 408 401
f 401 408 409
f 401 409 402
f 402 409 410
f 402 410 399
f 399 410 411
f 405 391 407
f 407 391 412
f 391 394 412
f 412 394 413
f 394 404 413
f 413 404 414
f 415 416 412
f 412 416 407
f 418 419 417
f 417 419 420
f 421 422 418
f 418 422 419
f 419 422 424
f 424 422 423
f 425 426 424
f 424 426 427
f 423 428 424
f 424 428 425
f 427 420 424
f 424 420 419
f 420 429 417
f 417 429 430
f 423 422 431
f 431 422 421
f 421 409 431
f 431 409 408
f 421 432 409
f 409 432 410
f 418 433 421
f 421 433 432
f 434 433 417
f 417 433 418
f 431 416 423
f 423 416 428
f 416 431 407
f 407 431 408
f 435 434 430
f 430 434 417
f 433 434 436
f 436 434 437
f 434 435 437
f 437 435 438
f 436 437 439
f 439 437 440
f 439 441 436
f 436 441 442
f 438 443 437
f 437 443 440
f 436 442 433
f 433 442 432
f 432 442 410
f 410 442 411
f 435 430 445
f 445 430 444
f 430 429 444
f 444 429 446
f 425 428 447
f 447 428 416
f 426 425 448
f 448 425 447
f 416 415 447
f 447 415 449
f 447 449 448
f 448 449 450
f 451 452 448
f 448 452 426
f 446 452 444
f 444 452 451
f 399 411 397
f 397 411 453
f 398 454 404
f 404 454 414
f 454 398 453
f 453 398 397
f 453 441 454
f 454 441 455
f 441 439 455
f 455 439 456
f 454 455 414
f 414 455 457
f 441 453 442
f 442 453 411
f 458 413 457
f 457 413 414
f 458 415 413
f 413 415 412
f 458 459 415
f 415 459 449
f 459 458 460
f 460 458 457
f 461 459 462
f 462 459 460
f 455 456 457
f 457 456 460
f 456 463 460
f 460 463 462
f 459 461 449
f 449 461 450
f 465 450 464
f 464 450 461
f 464 467 466
f 466 467 468
f 464 461 467
f 467 461 462
f 464 466 465
f 465 466 445
f 465 445 451
f 451 445 444
f 451 448 465
f 465 448 450
f 439 440 456
f 456 440 463
f 468 463 443
f 443 463 440
f 468 467 463
f 463 467 462
f 466 468 438
f 438 468 443
f 438 435 466
f 466 435 445
f 420 427 429
f 429 427 446
f 446 427 452
f 452 427 426
f 370 369 188
f 188 369 186
f 371 376 372
f 372 376 375
f 380 379 387
f 387 379 388
f 379 381 388
f 388 381 386
f 385 384 278
f 278 384 270
f 380 387 371
f 371 387 376
f 400 370 271
f 271 370 188
f 385 278 372
f 372 278 247
f 400 384 389
f 389 384 383
f 369 381 186
f 186 381 263
f 221 271 144
f 144 271 188
f 221 19 207
f 207 19 22
f 19 18 22
f 22 18 23
f 18 219 23
f 23 219 208
f 469 470 472
f 472 470 471
f 474 475 473
f 473 475 476
f 473 476 477
f 477 476 478
f 480 481 479
f 479 481 482
f 483 484 474
f 474 484 475
f 486 487 485
f 485 487 488
f 489 490 77
f 77 490 142
f 491 489 248
f 248 489 77
f 493 494 492
f 492 494 495
f 496 480 484
f 484 480 475
f 486 497 487
f 487 497 471
f 498 496 472
f 472 496 484
f 499 493 478
f 478 493 500
f 501 502 504
f 504 502 503
f 493 492 500
f 500 492 505
f 506 477 500
f 500 477 478
f 499 478 479
f 479 478 476
f 469 507 470
f 470 507 508
f 483 509 469
f 469 509 507
f 479 482 499
f 499 482 510
f 492 495 485
f 485 495 511
f 483 469 484
f 484 469 472
f 473 512 474
f 474 512 513
f 497 498 471
f 471 498 472
f 475 480 476
f 476 480 479
f 470 508 514
f 514 508 515
f 506 502 516
f 516 502 501
f 503 502 488
f 488 502 505
f 514 515 503
f 503 515 504
f 485 488 492
f 492 488 505
f 477 506 517
f 517 506 516
f 474 513 483
f 483 513 509
f 510 292 494
f 494 292 164
f 512 473 517
f 517 473 477
f 491 481 496
f 496 481 480
f 502 506 505
f 505 506 500
f 503 488 514
f 514 488 487
f 514 487 470
f 470 487 471
f 517 516 519
f 519 516 518
f 517 519 512
f 512 519 520
f 512 520 513
f 513 520 521
f 513 521 509
f 509 521 522
f 516 501 518
f 518 501 523
f 501 504 523
f 523 504 524
f 524 504 525
f 525 504 515
f 526 527 523
f 523 527 518
f 529 530 528
f 528 530 531
f 532 533 529
f 529 533 530
f 530 533 535
f 535 533 534
f 536 537 535
f 535 537 538
f 534 539 535
f 535 539 536
f 538 531 535
f 535 531 530
f 540 541 531
f 531 541 528
f 533 532 534
f 534 532 542
f 532 520 542
f 542 520 519
f 532 543 520
f 520 543 521
f 529 544 532
f 532 544 543
f 544 529 545
f 545 529 528
f 534 542 539
f 539 542 527
f 527 542 518
f 518 542 519
f 541 546 528
f 528 546 545
f 547 544 548
f 548 544 545
f 546 549 545
f 545 549 548
f 550 547 551
f 551 547 548
f 547 550 553
f 553 550 552
f 549 554 548
f 548 554 551
f 544 547 543
f 543 547 553
f 543 553 521
f 521 553 522
f 546 541 556
f 556 541 555
f 541 540 555
f 555 540 557
f 536 539 558
f 558 539 527
f 537 536 559
f 559 536 558
f 527 526 558
f 558 526 560
f 559 558 561
f 561 558 560
f 559 562 537
f 537 562 563
f 557 563 555
f 555 563 562
f 509 522 507
f 507 522 564
f 508 565 515
f 515 565 525
f 565 508 564
f 564 508 507
f 564 552 565
f 565 552 566
f 552 550 566
f 566 550 567
f 565 566 525
f 525 566 568
f 564 522 552
f 552 522 553
f 569 524 568
f 568 524 525
f 569 526 524
f 524 526 523
f 570 560 569
f 569 560 526
f 570 569 571
f 571 569 568
f 572 570 573
f 573 570 571
f 566 567 568
f 568 567 571
f 567 574 571
f 571 574 573
f 570 572 560
f 560 572 561
f 576 561 575
f 575 561 572
f 575 578 577
f 577 578 579
f 575 572 578
f 578 572 573
f 575 577 576
f 576 577 556
f 576 556 562
f 562 556 555
f 562 559 576
f 576 559 561
f 550 551 567
f 567 551 574
f 579 574 554
f 554 574 551
f 579 578 574
f 574 578 573
f 579 554 577
f 577 554 549
f 549 546 577
f 577 546 556
f 531 538 540
f 540 538 557
f 557 538 563
f 563 538 537
f 481 294 482
f 482 294 293
f 580 486 511
f 511 486 485
f 490 489 497
f 497 489 498
f 489 491 498
f 498 491 496
f 163 495 164
f 164 495 494
f 580 490 486
f 486 490 497
f 482 293 510
f 510 293 292
f 495 163 511
f 511 163 199
f 494 493 510
f 510 493 499
f 481 491 294
f 294 491 248
f 582 583 581
f 581 583 584
f 586 587 585
f 585 587 588
f 585 588 589
f 589 588 590
f 592 593 591
f 591 593 594
f 595 596 598
f 598 596 597
f 599 600 586
f 586 600 587
f 601 602 604
f 604 602 603
f 605 606 608
f 608 606 607
f 609 607 200
f 200 607 606
f 610 611 613
f 613 611 612
f 600 614 587
f 587 614 592
f 596 605 597
f 597 605 608
f 602 615 603
f 603 615 583
f 616 614 584
f 584 614 600
f 611 618 617
f 617 618 590
f 620 621 619
f 619 621 622
f 610 623 611
f 611 623 618
f 624 589 618
f 618 589 590
f 617 590 591
f 591 590 588
f 581 625 582
f 582 625 626
f 599 627 581
f 581 627 625
f 591 594 617
f 617 594 628
f 601 610 598
f 598 610 613
f 581 584 599
f 599 584 600
f 585 629 586
f 586 629 630
f 615 616 583
f 583 616 584
f 587 592 588
f 588 592 591
f 582 626 631
f 631 626 632
f 624 620 633
f 633 620 619
f 621 620 604
f 604 620 623
f 631 632 621
f 621 632 622
f 610 601 623
f 623 601 604
f 589 624 634
f 634 624 633
f 586 630 599
f 599 630 627
f 203 202 628
f 628 202 612
f 629 585 634
f 634 585 589
f 609 593 614
f 614 593 592
f 620 624 623
f 623 624 618
f 631 621 603
f 603 621 604
f 582 631 583
f 583 631 603
f 634 633 636
f 636 633 635
f 634 636 629
f 629 636 637
f 629 637 630
f 630 637 638
f 630 638 627
f 627 638 639
f 633 619 635
f 635 619 640
f 619 622 640
f 640 622 641
f 641 622 642
f 642 622 632
f 644 635 643
f 643 635 640
f 645 646 648
f 648 646 647
f 649 650 646
f 646 650 647
f 647 650 652
f 652 650 651
f 652 653 655
f 655 653 654
f 651 656 652
f 652 656 653
f 655 648 652
f 652 648 647
f 648 657 645
f 645 657 658
f 650 649 651
f 651 649 659
f 649 637 659
f 659 637 636
f 649 660 637
f 637 660 638
f 661 660 646
f 646 660 649
f 662 661 645
f 645 661 646
f 651 659 656
f 656 659 644
f 644 659 635
f 635 659 636
f 663 662 658
f 658 662 645
f 664 661 665
f 665 661 662
f 663 666 662
f 662 666 665
f 667 664 668
f 668 664 665
f 664 667 670
f 670 667 669
f 666 671 665
f 665 671 668
f 661 664 660
f 660 664 670
f 660 670 638
f 638 670 639
f 658 672 663
f 663 672 673
f 658 657 672
f 672 657 674
f 653 656 675
f 675 656 644
f 653 675 654
f 654 675 676
f 675 644 677
f 677 644 643
f 676 675 678
f 678 675 677
f 679 680 676
f 676 680 654
f 674 680 672
f 672 680 679
f 627 639 625
f 625 639 681
f 626 682 632
f 632 682 642
f 681 682 625
f 625 682 626
f 669 683 681
f 681 683 682
f 667 684 669
f 669 684 683
f 682 683 642
f 642 683 685
f 681 639 669
f 669 639 670
f 686 641 685
f 685 641 642
f 641 686 640
f 640 686 643
f 686 687 643
f 643 687 677
f 687 686 688
f 688 686 685
f 689 687 690
f 690 687 688
f 683 684 685
f 685 684 688
f 684 691 688
f 688 691 690
f 687 689 677
f 677 689 678
f 693 678 692
f 692 678 689
f 692 695 694
f 694 695 696
f 692 689 695
f 695 689 690
f 692 694 693
f 693 694 673
f 693 673 679
f 679 673 672
f 679 676 693
f 693 676 678
f 684 667 691
f 691 667 668
f 696 691 671
f 671 691 668
f 696 695 691
f 691 695 690
f 694 696 666
f 666 696 671
f 666 663 694
f 694 663 673
f 648 655 657
f 657 655 674
f 674 655 680
f 680 655 654
f 593 162 594
f 594 162 290
f 598 597 601
f 601 597 602
f 615 608 616
f 616 608 607
f 607 609 616
f 616 609 614
f 697 595 613
f 613 595 598
f 597 608 602
f 602 608 615
f 594 290 628
f 628 290 203
f 628 612 617
f 617 612 611
f 593 609 162
f 162 609 200
f 105 29 698
f 698 29 699
f 268 126 701
f 701 126 700
f 126 125 700
f 700 125 702
f 252 703 250
f 250 703 704
f 32 268 705
f 705 268 701
f 288 105 706
f 706 105 698
f 29 32 699
f 699 32 705
f 707 251 706
f 706 251 288
f 250 704 125
f 125 704 702
f 703 252 707
f 707 252 251
f 706 708 707
f 707 708 709
f 707 709 703
f 703 709 710
f 703 710 704
f 704 710 711
f 704 711 702
f 702 711 712
f 706 698 708
f 708 698 713
f 698 699 713
f 713 699 714
f 699 705 714
f 714 705 715
f 717 708 716
f 716 708 713
f 719 720 718
f 718 720 721
f 722 723 719
f 719 723 720
f 724 725 723
f 723 725 720
f 724 726 725
f 725 726 727
f 728 721 725
f 725 721 720
f 721 728 729
f 729 728 730
f 729 731 721
f 721 731 718
f 724 723 732
f 732 723 722
f 722 710 732
f 732 710 709
f 722 733 710
f 710 733 711
f 719 734 722
f 722 734 733
f 734 719 735
f 735 719 718
f 724 732 726
f 726 732 717
f 717 732 708
f 708 732 709
f 731 736 718
f 718 736 735
f 737 734 738
f 738 734 735
f 736 739 735
f 735 739 738
f 740 737 741
f 741 737 738
f 737 740 743
f 743 740 742
f 739 744 738
f 738 744 741
f 734 737 733
f 733 737 743
f 733 743 711
f 711 743 712
f 736 731 746
f 746 731 745
f 731 729 745
f 745 729 730
f 727 726 747
f 747 726 717
f 748 727 749
f 749 727 747
f 747 717 750
f 750 717 716
f 749 747 751
f 751 747 750
f 749 752 748
f 748 752 753
f 730 753 745
f 745 753 752
f 728 725 748
f 748 725 727
f 730 728 753
f 753 728 748
f 700 702 754
f 754 702 712
f 705 701 715
f 715 701 755
f 754 755 700
f 700 755 701
f 742 756 754
f 754 756 755
f 740 757 742
f 742 757 756
f 755 756 715
f 715 756 758
f 754 712 742
f 742 712 743
f 759 714 758
f 758 714 715
f 714 759 713
f 713 759 716
f 759 760 716
f 716 760 750
f 760 759 761
f 761 759 758
f 762 760 763
f 763 760 761
f 756 757 758
f 758 757 761
f 757 764 761
f 761 764 763
f 760 762 750
f 750 762 751
f 766 751 765
f 765 751 762
f 767 765 769
f 769 765 768
f 765 762 768
f 768 762 763
f 765 767 766
f 766 767 746
f 766 746 752
f 752 746 745
f 752 749 766
f 766 749 751
f 757 740 764
f 764 740 741
f 769 764 744
f 744 764 741
f 769 768 764
f 764 768 763
f 767 769 739
f 739 769 744
f 739 736 767
f 767 736 746
f 219 217 208
f 208 217 209
f 209 217 210
f 210 217 193
f 198 580 199
f 199 580 511
f 76 75 289
f 289 75 272
f 277 207 291
f 291 207 184
f 290 183 203
f 203 183 84
f 490 580 142
f 142 580 198
f 142 198 143
f 143 198 197
f 149 276 72
f 72 276 73
f 104 103 279
f 279 103 770
f 770 596 279
f 279 596 595
f 605 596 771
f 771 596 770
f 771 770 772
f 772 770 103
f 772 103 773
f 773 103 102
f 155 774 101
f 101 774 102
f 773 102 97
f 97 102 774
f 775 773 100
f 100 773 97
f 773 775 772
f 772 775 776
f 772 776 771
f 771 776 777
f 200 606 197
f 197 606 777
f 189 71 778
f 778 71 74
f 97 774 98
f 98 774 155
f 183 161 184
f 184 161 291
f 777 276 197
f 197 276 143
f 777 606 771
f 771 606 605
f 613 612 697
f 697 612 202
f 595 697 279
f 279 697 202
f 73 276 776
f 776 276 777
f 776 775 73
f 73 775 74
f 100 778 775
f 775 778 74
f 778 100 189
f 189 100 99
f 245 242 99
f 99 242 189
f 131 33 256
f 28 1 95
f 95 1 62
f 27 2 28
f 28 2 1
f 265 115 266
f 266 115 114
f 95 62 69
f 69 62 64
f 62 61 64
f 64 61 65
f 61 13 65
f 65 13 130
f 13 12 130
f 130 12 14
f 31 11 32
f 32 11 268
f 15 12 31
f 31 12 11
f 31 30 15
f 15 30 231
f 30 106 231
f 231 106 232
f 287 237 106
f 106 237 232
f 254 90 287
f 287 90 237
f 253 44 254
f 254 44 90
f 253 249 44
f 44 249 7
f 267 127 268
f 268 127 126
f 10 3 241
f 241 3 116
f 3 2 116
f 116 2 114
f 2 27 114
f 114 27 266
f 27 26 266
f 266 26 113
f 26 286 113
f 113 286 110
f 286 243 110
f 110 243 255
f 243 242 255
f 255 242 256
f 242 245 256
f 256 245 131
f 245 244 131
f 131 244 132
f 265 37 115
f 115 37 41
f 41 37 42
f 42 37 40
f 92 91 40
f 40 91 42
f 236 233 92
f 92 233 91
f 191 194 236
f 236 194 233
f 258 285 244
f 244 285 132
f 257 55 258
f 258 55 285
f 257 154 201
f 201 154 185
f 56 201 204
f 204 201 180
f 55 257 56
f 56 257 201
f 204 85 56
f 56 85 52
f 86 122 53
f 53 122 79
f 212 215 86
f 86 215 122
f 211 216 212
f 212 216 215
f 192 280 211
f 211 280 216
f 191 240 192
f 192 240 280
f 249 124 7
f 7 124 8
f 124 127 8
f 8 127 241
f 127 267 241
f 241 267 10
f 10 267 9
f 9 267 11
