o left
v -0.152971 0.387997 0.212850
v -0.148246 0.385712 0.213293
v -0.152011 0.386571 0.218051
v -0.156426 0.389008 0.216926
v -0.142061 0.382821 0.222778
v -0.140859 0.377342 0.225489
v -0.148532 0.380161 0.230753
v -0.148075 0.384768 0.228417
v -0.159788 0.389204 0.220168
v -0.154987 0.388328 0.222339
v -0.161316 0.387319 0.221150
v -0.166732 0.386079 0.216211
v -0.164289 0.389119 0.217171
v -0.169736 0.388045 0.213215
v -0.165581 0.382077 0.213203
v -0.169545 0.387022 0.208316
v -0.158060 0.384566 0.199094
v -0.152921 0.387851 0.195076
v -0.158798 0.393950 0.194731
v -0.163100 0.390422 0.199055
v -0.149812 0.397125 0.191829
v -0.154893 0.395471 0.193668
v -0.149537 0.389089 0.193438
v -0.145116 0.390826 0.192041
v -0.145988 0.388622 0.207189
v -0.141044 0.386247 0.207410
v -0.143851 0.385666 0.208905
v -0.148486 0.387647 0.209008
v -0.162836 0.382081 0.227449
v -0.160389 0.379687 0.221307
v -0.161889 0.383122 0.220452
v -0.161996 0.384570 0.228063
v -0.126790 0.382243 0.207750
v -0.123827 0.376691 0.205826
v -0.125815 0.375114 0.207225
v -0.127892 0.380708 0.208531
v -0.132832 0.373247 0.217117
v -0.130378 0.370037 0.212959
v -0.133134 0.363023 0.212298
v -0.136809 0.365287 0.215574
v -0.136535 0.375867 0.221743
v -0.138828 0.369173 0.221011
v -0.142988 0.371903 0.225022
v -0.150144 0.375456 0.230459
v -0.119840 0.379892 0.201468
v -0.121535 0.384287 0.202267
v -0.185188 0.410610 0.216542
v -0.183399 0.412641 0.215735
v -0.181900 0.410692 0.215327
v -0.184017 0.409014 0.216045
v -0.122434 0.382474 0.192588
v -0.125382 0.380850 0.188649
v -0.122383 0.378576 0.188889
v -0.120207 0.379501 0.192865
v -0.126196 0.386210 0.192718
v -0.129636 0.383622 0.189097
v -0.189859 0.410323 0.212348
v -0.189038 0.409781 0.214627
v -0.188027 0.407651 0.213247
v -0.188593 0.407909 0.210663
v -0.160780 0.390486 0.215983
v -0.156834 0.391185 0.213056
v -0.167402 0.397213 0.215128
v -0.162783 0.394926 0.213860
v -0.164914 0.392242 0.215375
v -0.169015 0.394124 0.215524
v -0.153338 0.398463 0.206609
v -0.149176 0.393566 0.205951
v -0.152271 0.392378 0.207879
v -0.157083 0.397512 0.209291
v -0.143076 0.397483 0.203994
v -0.147878 0.401552 0.204488
v -0.143836 0.403253 0.203707
v -0.141030 0.400295 0.204011
v -0.157511 0.407612 0.204362
v -0.160693 0.409649 0.203646
v -0.159053 0.410910 0.202876
v -0.155997 0.408261 0.203462
v -0.120048 0.376042 0.188539
v -0.119002 0.376252 0.193090
v -0.140059 0.401708 0.191430
v -0.135013 0.402372 0.193374
v -0.138139 0.408834 0.193119
v -0.142889 0.406648 0.190322
v -0.129753 0.378278 0.187554
v -0.126210 0.376462 0.186767
v -0.189187 0.412011 0.209975
v -0.187987 0.409683 0.208325
v -0.146155 0.367925 0.220335
v -0.152821 0.372381 0.227727
v -0.141466 0.364615 0.215093
v -0.138791 0.362607 0.211093
v -0.136259 0.359945 0.208788
v -0.162453 0.398057 0.212339
v -0.152966 0.390189 0.210053
v -0.143669 0.390062 0.205794
v -0.132314 0.400214 0.202686
v -0.128751 0.395782 0.202901
v -0.133210 0.394969 0.205022
v -0.135557 0.398784 0.204253
v -0.132927 0.404306 0.196461
v -0.134129 0.404957 0.200018
v -0.136625 0.409158 0.200435
v -0.135746 0.409198 0.196750
v -0.163212 0.378103 0.229026
v -0.159062 0.376515 0.221787
v -0.120086 0.383722 0.197398
v -0.118683 0.380264 0.197842
v -0.118145 0.376176 0.196763
v -0.133822 0.384491 0.208209
v -0.128729 0.379469 0.209065
v -0.129934 0.379146 0.210692
v -0.135039 0.384081 0.208781
v -0.142131 0.385194 0.215140
v -0.136300 0.381486 0.217521
v -0.146703 0.386391 0.220326
v -0.127521 0.372363 0.209415
v -0.123017 0.370718 0.206714
v -0.125611 0.367940 0.208843
v -0.120555 0.373125 0.203185
v -0.118466 0.375369 0.200027
v -0.123630 0.373815 0.184696
v -0.128559 0.365469 0.210189
v -0.152623 0.384747 0.232647
v -0.155924 0.384444 0.236027
v -0.157651 0.386697 0.233076
v -0.154452 0.387467 0.229123
v -0.173158 0.391144 0.211108
v -0.171579 0.392566 0.214412
v -0.167465 0.389415 0.215769
v -0.129083 0.387057 0.206424
v -0.124655 0.388669 0.202730
v -0.167615 0.400436 0.213360
v -0.186531 0.405770 0.209877
v -0.186009 0.405234 0.212531
v -0.178787 0.397868 0.211525
v -0.179283 0.398625 0.208371
v -0.171426 0.403961 0.209576
v -0.170347 0.402490 0.212673
v -0.172156 0.403440 0.211834
v -0.172853 0.405685 0.209628
v -0.154466 0.411263 0.202125
v -0.151928 0.409117 0.202541
v -0.167327 0.397085 0.200690
v -0.171319 0.391703 0.202185
v -0.167072 0.387301 0.202692
v -0.150163 0.399649 0.204712
v -0.153860 0.404099 0.204877
v -0.152120 0.405098 0.204164
v -0.163111 0.400276 0.211186
v -0.167105 0.402555 0.211102
v -0.164348 0.402763 0.209756
v -0.160805 0.400676 0.209488
v -0.131435 0.396269 0.192723
v -0.129078 0.398686 0.196069
v -0.187304 0.409735 0.216193
v -0.186237 0.407862 0.215195
v -0.146043 0.395112 0.204269
v -0.161676 0.382711 0.202757
v -0.141356 0.391566 0.204900
v -0.151741 0.408946 0.193022
v -0.149734 0.411227 0.196771
v -0.152404 0.413252 0.197029
v -0.154250 0.412815 0.194205
v -0.178873 0.411533 0.210018
v -0.178724 0.411174 0.212797
v -0.180654 0.412685 0.213153
v -0.181039 0.413442 0.210363
v -0.170918 0.400192 0.214455
v -0.172288 0.397166 0.215076
v -0.174690 0.400241 0.214780
v -0.173293 0.402226 0.213531
v -0.174687 0.395644 0.213779
v -0.176920 0.398374 0.213868
v -0.180531 0.410907 0.207210
v -0.183472 0.409013 0.206202
v -0.176708 0.402762 0.204740
v -0.175169 0.405610 0.206695
v -0.141056 0.384421 0.191060
v -0.136516 0.386997 0.189900
v -0.140459 0.393557 0.191598
v -0.144354 0.400100 0.191678
v -0.148493 0.406455 0.191842
v -0.153884 0.403118 0.190745
v -0.136778 0.394873 0.191156
v -0.169609 0.402949 0.205568
v -0.171703 0.398679 0.203626
v -0.169288 0.400762 0.202968
v -0.138275 0.393901 0.204572
v -0.184325 0.405581 0.214794
v -0.141042 0.364423 0.199502
v -0.138156 0.367826 0.194106
v -0.141215 0.370435 0.195701
v -0.143976 0.366875 0.201846
v -0.179820 0.409243 0.215350
v -0.181979 0.407126 0.216351
v -0.149631 0.411306 0.201924
v -0.152410 0.412603 0.201234
v -0.152116 0.413815 0.199954
v -0.148382 0.414029 0.201445
v -0.133839 0.387749 0.189369
v -0.139272 0.412848 0.194556
v -0.144033 0.410729 0.191409
v -0.133246 0.381346 0.188491
v -0.137151 0.379097 0.189474
v -0.134135 0.375386 0.188773
v -0.160033 0.402815 0.195573
v -0.144677 0.383268 0.192734
v -0.140271 0.377984 0.191244
v -0.136754 0.373685 0.190059
v -0.134546 0.370374 0.188767
v -0.131662 0.372796 0.187659
v -0.185606 0.407478 0.207698
v -0.185803 0.412009 0.206889
v -0.129179 0.369801 0.185659
v -0.132554 0.367368 0.187357
v -0.143853 0.376403 0.194166
v -0.147412 0.374524 0.197181
v -0.148047 0.381499 0.194626
v -0.152242 0.379920 0.198005
v -0.164436 0.398552 0.194690
v -0.187813 0.419918 0.212189
v -0.184630 0.415656 0.209433
v -0.182759 0.415555 0.211436
v -0.186101 0.420404 0.213251
v -0.182783 0.413269 0.207967
v -0.186986 0.414194 0.208631
v -0.155883 0.377521 0.203505
v -0.167690 0.404837 0.208965
v -0.149776 0.371472 0.205072
v -0.160609 0.377393 0.211890
v -0.154819 0.373646 0.213921
v -0.144138 0.365198 0.207704
v -0.149159 0.367282 0.214522
v -0.138101 0.360316 0.203495
v -0.141158 0.363080 0.204898
v -0.153908 0.370581 0.221050
v -0.186870 0.416085 0.218478
v -0.184980 0.417715 0.217358
v -0.138374 0.361701 0.197921
v -0.150809 0.387424 0.224947
v -0.134901 0.389759 0.205623
v -0.137343 0.388412 0.206220
v -0.126757 0.393011 0.202750
v -0.131422 0.391272 0.205410
v -0.189118 0.414921 0.218342
v -0.162394 0.410890 0.202352
v -0.160691 0.410652 0.202365
v -0.152497 0.380711 0.234537
v -0.155262 0.380722 0.237157
v -0.159863 0.375946 0.235193
v -0.157324 0.377652 0.237181
v -0.154264 0.376339 0.234003
v -0.156595 0.373944 0.232061
v -0.133000 0.385182 0.207998
v -0.131700 0.386003 0.207263
v -0.128685 0.390820 0.192629
v -0.126221 0.393355 0.196685
v -0.175965 0.394794 0.210885
v -0.173296 0.391345 0.206930
v -0.176152 0.395325 0.207371
v -0.177927 0.399682 0.205479
v -0.169832 0.405205 0.207487
v -0.172036 0.403172 0.206983
v -0.132613 0.380725 0.214241
v -0.138062 0.384272 0.211154
v -0.157058 0.388506 0.225799
v -0.159890 0.387082 0.229805
v -0.157064 0.401685 0.207389
v -0.164641 0.406617 0.197779
v -0.167550 0.403550 0.197302
v -0.160867 0.404772 0.207201
v -0.191929 0.415602 0.215376
v -0.190757 0.414947 0.217366
v -0.174786 0.396188 0.204255
v -0.148196 0.406981 0.203787
v -0.160447 0.406166 0.197602
v -0.163311 0.409613 0.199874
v -0.137344 0.411730 0.197657
v -0.135763 0.364441 0.192658
v -0.182166 0.414836 0.213981
v -0.184300 0.419148 0.215587
v -0.189413 0.418691 0.211715
v -0.191288 0.416713 0.212681
v -0.123962 0.388492 0.197555
v -0.138949 0.387546 0.206385
v -0.158020 0.373427 0.226822
v -0.161904 0.375855 0.231624
v -0.163264 0.406703 0.206882
v -0.148056 0.410355 0.193679
v -0.156444 0.407856 0.192126
v -0.158811 0.412027 0.193442
v -0.161211 0.411803 0.196518
v -0.161651 0.412324 0.200318
v -0.190479 0.421172 0.213479
v -0.192166 0.419298 0.214266
v -0.192837 0.418226 0.216848
v -0.191870 0.417343 0.218542
v -0.189812 0.416983 0.219315
v -0.189096 0.422609 0.214024
v -0.187634 0.423020 0.215047
v -0.185421 0.421137 0.216469
v -0.189635 0.424802 0.215868
v -0.192328 0.424950 0.216336
v -0.194599 0.423412 0.222640
v -0.194455 0.421856 0.219884
v -0.194871 0.423207 0.220155
v -0.194987 0.424913 0.222263
v -0.195343 0.427230 0.223771
v -0.195098 0.425742 0.224693
v -0.194008 0.423597 0.217937
v -0.194495 0.426217 0.220451
v -0.193279 0.427428 0.219332
v -0.193916 0.429537 0.221439
v -0.195145 0.428553 0.222348
v -0.193206 0.425600 0.217639
v -0.193706 0.422737 0.216945
v -0.195218 0.428133 0.225565
v -0.195710 0.428715 0.224503
v -0.195186 0.429762 0.223603
v -0.194764 0.430661 0.225060
v -0.192627 0.419466 0.220398
v -0.193780 0.422786 0.223397
v -0.193698 0.425522 0.225183
v -0.193885 0.427928 0.226053
v -0.191959 0.423358 0.223913
v -0.192298 0.425690 0.225176
v -0.192220 0.427782 0.225722
v -0.190296 0.424342 0.223757
v -0.190954 0.426330 0.224803
v -0.188583 0.419273 0.220102
v -0.190401 0.418330 0.220367
v -0.191111 0.427622 0.225591
v -0.193595 0.430712 0.225459
v -0.191565 0.427457 0.218373
v -0.192262 0.429681 0.221501
v -0.190334 0.427445 0.218576
v -0.191052 0.429877 0.221439
v -0.193275 0.431338 0.223157
v -0.194202 0.430411 0.222820
v -0.187373 0.417575 0.218980
v -0.185553 0.419470 0.217816
v -0.186611 0.421069 0.218711
v -0.188748 0.425652 0.222721
v -0.186346 0.422862 0.217727
v -0.188187 0.424972 0.216957
v -0.189247 0.427658 0.219625
v -0.188440 0.427083 0.220830
v -0.190006 0.429466 0.221826
v -0.189587 0.428591 0.222587
v -0.189811 0.427466 0.224058
v -0.190961 0.430300 0.223786
v -0.192182 0.431079 0.223491
v -0.191965 0.429721 0.225298
v -0.190244 0.429540 0.223761
v -0.190987 0.428718 0.224823
v -0.174782 0.423621 0.211175
v -0.172268 0.425097 0.209879
v -0.171588 0.422096 0.208712
v -0.173800 0.421229 0.209971
v -0.179707 0.423542 0.206479
v -0.178552 0.423179 0.209188
v -0.178162 0.420768 0.207852
v -0.179032 0.421426 0.204648
v -0.178575 0.424708 0.203717
v -0.177682 0.422452 0.201869
v -0.177928 0.418820 0.203793
v -0.176634 0.417970 0.207018
v -0.171441 0.407442 0.205320
v -0.172137 0.407883 0.201877
v -0.163961 0.411035 0.204806
v -0.164375 0.411973 0.203389
v -0.176695 0.423236 0.210773
v -0.176039 0.420959 0.209442
v -0.168635 0.421765 0.205200
v -0.168575 0.420731 0.207613
v -0.170050 0.423571 0.207662
v -0.170389 0.424573 0.205109
v -0.168035 0.407772 0.207381
v -0.165562 0.408991 0.206233
v -0.169895 0.407656 0.206985
v -0.170032 0.422405 0.202173
v -0.172659 0.421839 0.200084
v -0.168071 0.411817 0.198118
v -0.166014 0.413049 0.199867
v -0.174863 0.418069 0.209115
v -0.170242 0.419480 0.209169
v -0.172394 0.418523 0.210002
v -0.175899 0.419816 0.201318
v -0.174364 0.424802 0.200951
v -0.175455 0.433185 0.207717
v -0.172870 0.427774 0.204196
v -0.171559 0.427483 0.206370
v -0.173901 0.433539 0.209578
v -0.171733 0.425313 0.202503
v -0.175412 0.426680 0.202882
v -0.176319 0.431234 0.214987
v -0.173935 0.432824 0.213738
v -0.178372 0.430536 0.214802
v -0.170777 0.409447 0.198572
v -0.181163 0.429642 0.210329
v -0.179912 0.429809 0.213426
v -0.171037 0.426623 0.208463
v -0.173299 0.433734 0.211712
v -0.177372 0.432384 0.206936
v -0.180049 0.430233 0.207478
v -0.178321 0.435136 0.208903
v -0.180789 0.433478 0.209413
v -0.181939 0.432736 0.212144
v -0.180477 0.432580 0.214684
v -0.178893 0.432670 0.215769
v -0.176588 0.435991 0.209630
v -0.175139 0.436403 0.211216
v -0.174079 0.435229 0.212873
v -0.177016 0.439496 0.212248
v -0.179147 0.439527 0.211824
v -0.182784 0.441553 0.220228
v -0.182566 0.439086 0.218040
v -0.182703 0.440101 0.217205
v -0.182693 0.442347 0.219144
v -0.182854 0.437213 0.215196
v -0.182712 0.438595 0.215147
v -0.181554 0.439175 0.213281
v -0.181680 0.441647 0.215606
v -0.179777 0.442300 0.214401
v -0.180188 0.444879 0.216180
v -0.182118 0.444207 0.217338
v -0.180213 0.440532 0.212919
v -0.182720 0.444194 0.219957
v -0.182461 0.444522 0.221320
v -0.181625 0.437795 0.212240
v -0.181257 0.434581 0.215886
v -0.181728 0.438511 0.219061
v -0.181766 0.441447 0.221405
v -0.181094 0.444773 0.222105
v -0.179954 0.438739 0.219886
v -0.180196 0.441664 0.221828
v -0.179681 0.444388 0.221980
v -0.177852 0.439330 0.220080
v -0.178171 0.442257 0.221638
v -0.177042 0.434331 0.216546
v -0.179207 0.433914 0.216801
v -0.178570 0.443752 0.221777
v -0.181791 0.446703 0.219991
v -0.180290 0.446663 0.221105
v -0.182032 0.445870 0.219110
v -0.178684 0.442397 0.214249
v -0.179082 0.445049 0.216643
v -0.177317 0.442521 0.214838
v -0.177992 0.445260 0.217443
v -0.179922 0.446852 0.218379
v -0.180720 0.446473 0.218069
v -0.176847 0.433093 0.215458
v -0.174649 0.434246 0.214280
v -0.174954 0.435407 0.215340
v -0.176039 0.440389 0.218794
v -0.174415 0.436800 0.213872
v -0.175574 0.438831 0.213034
v -0.176169 0.442070 0.215429
v -0.175491 0.441507 0.217068
v -0.176855 0.445265 0.217667
v -0.176131 0.444013 0.218399
v -0.176576 0.442947 0.220484
v -0.177920 0.446859 0.219521
v -0.179080 0.447076 0.218966
v -0.179192 0.446038 0.221283
v -0.176922 0.445574 0.219727
v -0.177871 0.444842 0.221188
v -0.162558 0.425679 0.208527
v -0.159563 0.426046 0.208144
v -0.159038 0.424096 0.206998
v -0.162053 0.423776 0.207206
v -0.165523 0.428139 0.203137
v -0.165739 0.427196 0.205501
v -0.165734 0.425002 0.204175
v -0.165700 0.425381 0.201179
v -0.163546 0.429792 0.202110
v -0.163659 0.426398 0.199018
v -0.165380 0.422527 0.199785
v -0.165274 0.422622 0.203011
v -0.162381 0.414867 0.200744
v -0.162815 0.415384 0.197438
v -0.164489 0.426368 0.207398
v -0.164244 0.424518 0.206251
v -0.155596 0.424068 0.203274
v -0.156264 0.422967 0.205189
v -0.156986 0.425315 0.205811
v -0.156479 0.426418 0.204029
v -0.158353 0.413037 0.203149
v -0.155754 0.413163 0.202043
v -0.160768 0.414363 0.202911
v -0.156836 0.425255 0.200166
v -0.159545 0.425102 0.197451
v -0.156749 0.417447 0.195121
v -0.154610 0.416983 0.197349
v -0.163763 0.422328 0.205267
v -0.158318 0.421814 0.206249
v -0.161251 0.421783 0.206598
v -0.163046 0.423363 0.197954
v -0.159910 0.427900 0.199255
v -0.159608 0.436985 0.208857
v -0.157782 0.429806 0.203103
v -0.156843 0.428423 0.205652
v -0.158444 0.436192 0.210588
v -0.157306 0.427932 0.201629
v -0.160146 0.430215 0.201544
v -0.163083 0.432767 0.213913
v -0.160365 0.433072 0.213419
v -0.164811 0.432704 0.212493
v -0.160843 0.416129 0.194852
v -0.153965 0.415158 0.200312
v -0.166024 0.434668 0.209482
v -0.165849 0.433451 0.211288
v -0.157436 0.427098 0.207041
v -0.158544 0.434732 0.212187
v -0.161502 0.436763 0.207586
v -0.164329 0.435730 0.207404
v -0.161520 0.439336 0.209943
v -0.164371 0.438392 0.209887
v -0.166185 0.437495 0.211748
v -0.166170 0.436099 0.213333
v -0.165246 0.435147 0.214476
v -0.159779 0.439240 0.211468
v -0.159003 0.438304 0.213056
v -0.159309 0.435868 0.213464
v -0.159571 0.440805 0.213749
v -0.161789 0.442353 0.212928
v -0.166327 0.444695 0.220160
v -0.166273 0.442530 0.217814
v -0.166159 0.443091 0.217545
v -0.166194 0.445355 0.219579
v -0.166264 0.440940 0.214559
v -0.166032 0.441938 0.214989
v -0.164551 0.442422 0.213731
v -0.164527 0.444829 0.216345
v -0.161494 0.444379 0.216278
v -0.161984 0.445971 0.218393
v -0.164585 0.446658 0.218447
v -0.162375 0.442923 0.213803
v -0.165723 0.446674 0.220518
v -0.166630 0.446701 0.221466
v -0.164569 0.441538 0.212724
v -0.166779 0.438673 0.215543
v -0.166581 0.441427 0.218798
v -0.166810 0.443479 0.221477
v -0.165930 0.445383 0.222851
v -0.165588 0.440196 0.219752
v -0.165686 0.442417 0.222057
v -0.164895 0.444070 0.223346
v -0.164291 0.439562 0.220124
v -0.164245 0.441735 0.222104
v -0.163912 0.435600 0.216048
v -0.165712 0.436866 0.215957
v -0.164001 0.443296 0.223126
v -0.164504 0.448055 0.221186
v -0.163378 0.446946 0.222913
v -0.164437 0.447356 0.220142
v -0.160638 0.443822 0.216195
v -0.160849 0.446079 0.218995
v -0.159803 0.442847 0.216842
v -0.159824 0.445299 0.219623
v -0.161938 0.447629 0.220362
v -0.162483 0.447319 0.219861
v -0.163320 0.434227 0.214687
v -0.160912 0.434509 0.214426
v -0.161649 0.435695 0.215865
v -0.162199 0.439914 0.220238
v -0.159826 0.436848 0.215121
v -0.159246 0.439762 0.215179
v -0.159697 0.441766 0.217947
v -0.160412 0.440870 0.219336
v -0.159716 0.444093 0.220417
v -0.160518 0.442844 0.220843
v -0.162224 0.441823 0.222254
v -0.160961 0.445407 0.221868
v -0.161035 0.446888 0.221310
v -0.162874 0.445308 0.223370
v -0.161162 0.444068 0.222075
v -0.162556 0.443889 0.223188
v -0.154250 0.414019 0.201264
v -0.146267 0.428270 0.205824
v -0.144230 0.428045 0.205972
v -0.144070 0.426704 0.204620
v -0.146079 0.426342 0.204520
v -0.147907 0.431048 0.200892
v -0.148256 0.430126 0.203085
v -0.148917 0.427813 0.201102
v -0.148586 0.428628 0.198783
v -0.145846 0.431512 0.199553
v -0.146099 0.429267 0.197684
v -0.148588 0.426308 0.197960
v -0.148910 0.425463 0.200292
v -0.148313 0.416115 0.198088
v -0.147734 0.415822 0.195288
v -0.138609 0.414686 0.198716
v -0.139857 0.413116 0.201476
v -0.140677 0.418299 0.201557
v -0.139653 0.418664 0.199067
v -0.147517 0.429149 0.204769
v -0.147855 0.426884 0.203418
v -0.140364 0.425921 0.201139
v -0.141620 0.425290 0.203200
v -0.142135 0.426778 0.204213
v -0.140561 0.427742 0.202828
v -0.142613 0.413026 0.202710
v -0.145368 0.412810 0.202256
v -0.145399 0.415766 0.202927
v -0.142886 0.418048 0.202819
v -0.147712 0.416262 0.201634
v -0.140789 0.426825 0.199154
v -0.142932 0.427536 0.196864
v -0.140960 0.418018 0.194321
v -0.139749 0.418106 0.196341
v -0.148018 0.425104 0.202532
v -0.143706 0.425037 0.203972
v -0.146008 0.425051 0.204008
v -0.146190 0.426860 0.196593
v -0.142832 0.429639 0.198393
v -0.140344 0.434502 0.206272
v -0.140534 0.430411 0.202215
v -0.140592 0.429202 0.204386
v -0.140412 0.433678 0.207402
v -0.140779 0.428792 0.200695
v -0.142560 0.431548 0.200447
v -0.145867 0.432399 0.209548
v -0.143317 0.431990 0.209267
v -0.146988 0.433124 0.208666
v -0.145024 0.416782 0.193485
v -0.146835 0.435417 0.205654
v -0.147476 0.434489 0.207586
v -0.142286 0.428354 0.205626
v -0.141398 0.432581 0.208381
v -0.141714 0.435479 0.205085
v -0.144701 0.435817 0.204251
v -0.141521 0.437690 0.207377
v -0.144624 0.437880 0.206546
v -0.146928 0.437259 0.208060
v -0.147285 0.435633 0.209183
v -0.146920 0.434301 0.210080
v -0.140269 0.436265 0.208435
v -0.140404 0.435137 0.209326
v -0.141358 0.433655 0.209870
v -0.140316 0.437892 0.210736
v -0.141747 0.439977 0.210559
v -0.146323 0.440504 0.216363
v -0.146612 0.439447 0.214098
v -0.146358 0.440097 0.213864
v -0.146342 0.441115 0.216040
v -0.146658 0.438990 0.210980
v -0.146174 0.439752 0.211476
v -0.144685 0.439993 0.210378
v -0.144596 0.441291 0.213287
v -0.141807 0.441110 0.213759
v -0.142085 0.442293 0.215926
v -0.144508 0.442361 0.215294
v -0.142550 0.440596 0.211217
v -0.145968 0.442197 0.217277
v -0.146298 0.442189 0.218210
v -0.144718 0.439658 0.209205
v -0.147236 0.436801 0.211393
v -0.146934 0.438505 0.214999
v -0.146592 0.440069 0.217664
v -0.145716 0.441686 0.219359
v -0.146471 0.437096 0.215160
v -0.146194 0.438937 0.218319
v -0.145163 0.440270 0.219727
v -0.145260 0.435887 0.215388
v -0.145039 0.437884 0.218163
v -0.145314 0.433875 0.211930
v -0.146590 0.435123 0.211793
v -0.144555 0.439377 0.219315
v -0.144510 0.443386 0.218337
v -0.143966 0.442426 0.219696
v -0.144430 0.443230 0.217328
v -0.141074 0.440811 0.213815
v -0.141279 0.442143 0.216615
v -0.140288 0.439727 0.214207
v -0.140806 0.441220 0.217254
v -0.142377 0.443195 0.218229
v -0.143008 0.443104 0.217029
v -0.145452 0.433246 0.210871
v -0.143349 0.432975 0.210338
v -0.143190 0.433796 0.211560
v -0.143311 0.435689 0.215172
v -0.141239 0.434626 0.211256
v -0.140389 0.436253 0.210935
v -0.140456 0.438218 0.214535
v -0.141334 0.436791 0.214982
v -0.140947 0.440095 0.217864
v -0.141761 0.438587 0.218048
v -0.143312 0.437621 0.218169
v -0.142313 0.441119 0.219382
v -0.142183 0.442208 0.219120
v -0.143615 0.441071 0.219768
v -0.142587 0.439940 0.219356
v -0.143483 0.439602 0.219381
v -0.139047 0.415795 0.196873
v -0.166829 0.381728 0.235859
v -0.166416 0.384178 0.234394
v -0.160159 0.387720 0.239112
v -0.162959 0.388147 0.236255
v -0.159266 0.385091 0.241678
v -0.161267 0.379924 0.242433
v -0.159426 0.382096 0.242176
v -0.164854 0.386473 0.234748
v -0.165986 0.379605 0.237747
v -0.163570 0.378452 0.240473
v -0.169620 0.381461 0.243051
v -0.166227 0.380607 0.245287
v -0.162790 0.382513 0.246450
v -0.160570 0.384520 0.244645
v -0.159984 0.386424 0.243374
v -0.168900 0.383656 0.238982
v -0.168032 0.385767 0.237243
v -0.165754 0.387834 0.236944
v -0.170867 0.387152 0.241829
v -0.169863 0.391031 0.245494
v -0.162740 0.398641 0.249151
v -0.162222 0.395052 0.248032
v -0.163564 0.394987 0.248439
v -0.163916 0.398192 0.249614
v -0.162964 0.391894 0.248082
v -0.164038 0.392414 0.248014
v -0.166647 0.391257 0.247167
v -0.166915 0.394618 0.248365
v -0.168654 0.392044 0.245998
v -0.169057 0.394723 0.246066
v -0.167189 0.397831 0.249233
v -0.165151 0.399997 0.250459
v -0.167325 0.400402 0.249878
v -0.164175 0.401006 0.249750
v -0.167665 0.389792 0.248737
v -0.160779 0.389507 0.246576
v -0.160839 0.394560 0.246836
v -0.161760 0.398679 0.247605
v -0.163675 0.401389 0.248161
v -0.160472 0.394536 0.244820
v -0.161777 0.398239 0.245353
v -0.163797 0.400555 0.245668
v -0.161522 0.394573 0.242811
v -0.162855 0.397818 0.243686
v -0.160830 0.389000 0.240986
v -0.159695 0.388779 0.243732
v -0.164061 0.399562 0.244507
v -0.167249 0.401799 0.249630
v -0.166736 0.402140 0.247794
v -0.169932 0.394163 0.244667
v -0.169552 0.397575 0.247091
v -0.169820 0.397587 0.245717
v -0.170055 0.393622 0.242743
v -0.169959 0.397799 0.244235
v -0.169311 0.400358 0.247526
v -0.168956 0.399516 0.248527
v -0.160569 0.388089 0.240679
v -0.162967 0.388628 0.238131
v -0.163585 0.389028 0.238709
v -0.164092 0.393868 0.241011
v -0.166701 0.389042 0.238031
v -0.169366 0.387964 0.239524
v -0.169245 0.393753 0.241043
v -0.167062 0.393750 0.240228
v -0.168808 0.397799 0.242773
v -0.167384 0.397637 0.242186
v -0.164825 0.397883 0.242514
v -0.167992 0.400042 0.244456
v -0.169068 0.400503 0.245820
v -0.166115 0.401145 0.245494
v -0.167103 0.399199 0.243547
v -0.165634 0.399725 0.244138
v -0.138640 0.410871 0.200745
v -0.141458 0.410171 0.202698
v -0.138647 0.408057 0.202438
v -0.135728 0.404273 0.202096
v -0.131313 0.401419 0.200417
v -0.138328 0.402557 0.203298
v -0.141530 0.406479 0.203544
v -0.145580 0.409663 0.202989
v -0.138392 0.397373 0.204226
f 4 3 1
f 1 3 2
f 5 8 6
f 6 8 7
f 9 10 4
f 4 10 3
f 9 13 11
f 11 13 12
f 14 16 12
f 12 16 15
f 20 19 17
f 17 19 18
f 24 23 21
f 21 23 22
f 28 27 25
f 25 27 26
f 32 31 29
f 29 31 30
f 33 36 34
f 34 36 35
f 37 40 38
f 38 40 39
f 41 6 42
f 42 6 43
f 6 7 43
f 43 7 44
f 45 46 34
f 34 46 33
f 50 49 47
f 47 49 48
f 54 53 51
f 51 53 52
f 51 52 55
f 55 52 56
f 60 59 57
f 57 59 58
f 1 62 4
f 4 62 61
f 66 65 63
f 63 65 64
f 70 69 67
f 67 69 68
f 74 73 71
f 71 73 72
f 78 77 75
f 75 77 76
f 80 79 54
f 54 79 53
f 84 83 81
f 81 83 82
f 85 52 86
f 86 52 53
f 88 60 87
f 87 60 57
f 44 90 43
f 43 90 89
f 91 42 89
f 89 42 43
f 93 39 92
f 92 39 40
f 69 70 64
f 64 70 94
f 4 61 9
f 9 61 13
f 25 69 28
f 28 69 95
f 69 25 68
f 68 25 96
f 100 99 97
f 97 99 98
f 101 104 102
f 102 104 103
f 29 30 105
f 105 30 106
f 108 54 107
f 107 54 51
f 109 80 108
f 108 80 54
f 113 112 110
f 110 112 111
f 116 5 114
f 114 5 115
f 115 5 41
f 41 5 6
f 36 111 35
f 35 111 117
f 35 117 118
f 118 117 119
f 34 35 120
f 120 35 118
f 34 120 45
f 45 120 121
f 127 126 124
f 124 126 125
f 130 129 14
f 14 129 128
f 132 131 46
f 46 131 33
f 64 94 63
f 63 94 133
f 134 137 135
f 135 137 136
f 141 140 138
f 138 140 139
f 143 142 78
f 78 142 77
f 144 20 145
f 145 20 146
f 72 149 147
f 147 149 148
f 153 152 150
f 150 152 151
f 104 101 83
f 83 101 82
f 101 155 82
f 82 155 154
f 59 157 58
f 58 157 156
f 67 68 147
f 147 68 158
f 159 15 146
f 146 15 16
f 160 158 96
f 96 158 68
f 65 66 130
f 130 66 129
f 164 163 161
f 161 163 162
f 168 167 165
f 165 167 166
f 172 171 169
f 169 171 170
f 170 171 173
f 173 171 174
f 178 177 175
f 175 177 176
f 24 181 179
f 179 181 180
f 184 183 21
f 21 183 182
f 154 185 82
f 82 185 81
f 186 188 187
f 187 188 144
f 189 71 160
f 160 71 158
f 59 135 157
f 157 135 190
f 140 172 139
f 139 172 169
f 71 72 158
f 158 72 147
f 194 193 191
f 191 193 192
f 167 49 166
f 166 49 195
f 157 190 50
f 50 190 196
f 197 200 198
f 198 200 199
f 181 24 182
f 182 24 21
f 17 159 20
f 20 159 146
f 185 181 81
f 81 181 182
f 181 185 180
f 180 185 201
f 84 203 83
f 83 203 202
f 85 206 204
f 204 206 205
f 21 22 184
f 184 22 207
f 23 24 208
f 208 24 179
f 205 209 179
f 179 209 208
f 206 210 205
f 205 210 209
f 210 206 211
f 211 206 212
f 204 205 180
f 180 205 179
f 213 88 176
f 176 88 214
f 206 85 212
f 212 85 86
f 193 218 217
f 220 219 218
f 218 219 217
f 17 18 220
f 220 18 219
f 144 221 20
f 20 221 19
f 222 225 223
f 223 225 224
f 214 226 176
f 176 226 175
f 88 87 214
f 214 87 227
f 159 17 228
f 228 17 220
f 134 60 213
f 213 60 88
f 152 229 151
f 151 229 138
f 211 192 210
f 210 192 193
f 193 194 218
f 218 194 230
f 230 232 228
f 228 232 231
f 89 234 91
f 91 234 233
f 235 93 236
f 236 93 92
f 237 232 234
f 234 232 230
f 239 238 48
f 48 238 47
f 236 191 235
f 235 191 240
f 241 8 116
f 116 8 5
f 160 243 189
f 189 243 242
f 99 245 98
f 98 245 244
f 238 246 47
f 47 246 156
f 248 247 77
f 77 247 76
f 124 125 249
f 249 125 250
f 254 253 251
f 251 253 252
f 111 36 110
f 110 36 255
f 256 255 33
f 33 255 36
f 257 154 258
f 258 154 155
f 139 169 133
f 133 169 63
f 66 63 170
f 170 63 169
f 66 170 129
f 129 170 173
f 259 128 173
f 173 128 129
f 261 260 259
f 259 260 128
f 213 262 134
f 134 262 137
f 187 264 186
f 186 264 263
f 266 265 113
f 113 265 112
f 11 268 267
f 194 233 230
f 230 233 234
f 67 269 70
f 70 269 153
f 141 178 165
f 165 178 175
f 70 153 94
f 94 153 150
f 207 221 270
f 270 221 271
f 152 153 272
f 272 153 269
f 108 45 109
f 109 45 121
f 157 50 156
f 156 50 47
f 274 273 58
f 58 273 57
f 261 275 260
f 260 275 145
f 78 149 143
f 143 149 276
f 272 269 75
f 75 269 148
f 278 277 270
f 270 277 207
f 50 196 49
f 49 196 195
f 59 60 135
f 135 60 134
f 83 202 104
f 104 202 279
f 75 148 78
f 78 148 149
f 277 278 248
f 248 278 247
f 81 182 84
f 84 182 183
f 282 239 281
f 281 239 48
f 222 223 283
f 283 223 227
f 168 226 224
f 224 226 223
f 225 282 224
f 224 282 281
f 226 168 175
f 175 168 165
f 229 263 138
f 138 263 264
f 260 16 128
f 128 16 14
f 220 218 228
f 228 218 230
f 283 227 284
f 284 227 87
f 146 16 145
f 145 16 260
f 155 98 258
f 258 98 244
f 246 274 156
f 156 274 58
f 55 285 51
f 51 285 107
f 96 286 160
f 160 286 243
f 90 237 89
f 89 237 234
f 285 132 107
f 107 132 46
f 253 249 252
f 252 249 250
f 25 26 96
f 96 26 286
f 288 105 287
f 287 105 106
f 229 152 289
f 289 152 272
f 138 139 151
f 151 139 133
f 162 290 161
f 161 290 183
f 293 292 277
f 277 292 291
f 94 150 133
f 133 150 151
f 262 177 275
f 275 177 187
f 275 187 145
f 145 187 144
f 273 284 57
f 57 284 87
f 135 136 190
f 190 136 174
f 111 112 117
f 117 112 38
f 117 38 119
f 119 38 123
f 37 38 265
f 265 38 112
f 251 288 254
f 254 288 287
f 15 159 231
f 231 159 228
f 214 227 226
f 226 227 223
f 269 67 148
f 148 67 147
f 167 168 281
f 281 168 224
f 162 163 200
f 200 163 199
f 107 46 108
f 108 46 45
f 49 167 48
f 48 167 281
f 292 164 291
f 291 164 161
f 38 39 123
f 248 294 277
f 277 294 293
f 284 296 283
f 283 296 295
f 297 296 273
f 273 296 284
f 274 298 273
f 273 298 297
f 246 299 274
f 274 299 298
f 283 295 222
f 222 295 300
f 222 300 225
f 225 300 301
f 301 302 225
f 225 302 282
f 303 300 304
f 304 300 295
f 308 307 305
f 305 307 306
f 305 310 308
f 308 310 309
f 308 312 307
f 307 312 311
f 315 314 312
f 312 314 313
f 313 316 312
f 312 316 311
f 316 304 311
f 311 304 317
f 315 312 309
f 309 312 308
f 318 321 319
f 319 321 320
f 319 309 318
f 318 309 310
f 311 317 307
f 307 317 306
f 296 297 317
f 317 297 306
f 306 297 322
f 322 297 298
f 305 306 323
f 323 306 322
f 310 305 324
f 324 305 323
f 296 317 295
f 295 317 304
f 318 310 325
f 325 310 324
f 327 324 326
f 326 324 323
f 324 327 325
f 325 327 328
f 330 327 329
f 329 327 326
f 332 331 326
f 326 331 329
f 327 330 328
f 328 330 333
f 323 322 326
f 326 322 332
f 299 332 298
f 298 332 322
f 325 334 318
f 318 334 321
f 304 316 335
f 335 316 313
f 335 313 336
f 336 313 314
f 337 303 335
f 335 303 304
f 336 338 335
f 335 338 337
f 336 314 339
f 339 314 340
f 341 299 238
f 238 299 246
f 302 342 282
f 282 342 239
f 238 239 341
f 341 239 342
f 341 342 331
f 331 342 343
f 331 343 329
f 329 343 344
f 345 343 302
f 302 343 342
f 332 299 331
f 331 299 341
f 346 345 301
f 301 345 302
f 300 303 301
f 301 303 346
f 303 337 346
f 346 337 347
f 347 348 346
f 346 348 345
f 349 350 347
f 347 350 348
f 348 344 345
f 345 344 343
f 344 348 351
f 351 348 350
f 337 338 347
f 347 338 349
f 349 338 352
f 352 338 353
f 356 355 354
f 354 355 352
f 350 349 355
f 355 349 352
f 352 353 354
f 354 353 334
f 321 334 339
f 339 334 353
f 338 336 353
f 353 336 339
f 351 330 344
f 344 330 329
f 356 333 351
f 351 333 330
f 356 351 355
f 355 351 350
f 354 328 356
f 356 328 333
f 334 325 354
f 354 325 328
f 320 315 319
f 319 315 309
f 320 321 340
f 340 321 339
f 314 315 340
f 340 315 320
f 137 261 136
f 136 261 259
f 165 166 141
f 141 166 140
f 196 171 195
f 195 171 172
f 190 174 196
f 196 174 171
f 187 177 264
f 264 177 178
f 166 195 140
f 140 195 172
f 275 261 262
f 262 261 137
f 138 264 141
f 141 264 178
f 262 213 177
f 177 213 176
f 173 174 259
f 259 174 136
f 360 359 357
f 357 359 358
f 364 363 361
f 361 363 362
f 366 364 365
f 365 364 361
f 367 370 368
f 368 370 369
f 372 371 247
f 247 371 76
f 363 374 362
f 362 374 373
f 378 377 375
f 375 377 376
f 289 380 229
f 229 380 379
f 229 379 263
f 263 379 381
f 385 384 382
f 382 384 383
f 363 368 374
f 374 368 386
f 76 371 289
f 289 371 380
f 377 359 376
f 376 359 387
f 374 386 360
f 360 386 388
f 389 366 383
f 383 366 390
f 394 393 391
f 391 393 392
f 383 390 382
f 382 390 395
f 366 365 390
f 390 365 396
f 364 366 367
f 367 366 389
f 398 397 358
f 358 397 357
f 397 399 357
f 357 399 373
f 389 400 367
f 367 400 370
f 372 385 375
f 375 385 382
f 374 360 373
f 373 360 357
f 402 401 362
f 362 401 361
f 360 388 359
f 359 388 387
f 363 364 368
f 368 364 367
f 404 398 403
f 403 398 358
f 391 392 405
f 405 392 396
f 378 395 393
f 393 395 392
f 393 394 403
f 403 394 404
f 395 378 382
f 382 378 375
f 405 396 406
f 406 396 365
f 399 402 373
f 373 402 362
f 384 270 400
f 400 270 271
f 401 406 361
f 361 406 365
f 368 369 386
f 386 369 381
f 390 396 395
f 395 396 392
f 377 378 403
f 403 378 393
f 359 377 358
f 358 377 403
f 406 408 405
f 405 408 407
f 409 408 401
f 401 408 406
f 410 409 402
f 402 409 401
f 411 410 399
f 399 410 402
f 405 407 391
f 391 407 412
f 391 412 394
f 394 412 413
f 414 404 413
f 413 404 394
f 415 412 416
f 416 412 407
f 420 419 417
f 417 419 418
f 419 422 418
f 418 422 421
f 419 424 422
f 422 424 423
f 427 426 424
f 424 426 425
f 425 428 424
f 424 428 423
f 427 424 420
f 420 424 419
f 420 417 429
f 429 417 430
f 423 431 422
f 422 431 421
f 408 409 431
f 431 409 421
f 421 409 432
f 432 409 410
f 418 421 433
f 433 421 432
f 434 417 433
f 433 417 418
f 428 416 423
f 423 416 431
f 408 431 407
f 407 431 416
f 417 434 430
f 430 434 435
f 437 434 436
f 436 434 433
f 434 437 435
f 435 437 438
f 440 437 439
f 439 437 436
f 442 441 436
f 436 441 439
f 438 437 443
f 443 437 440
f 432 442 433
f 433 442 436
f 411 442 410
f 410 442 432
f 435 445 430
f 430 445 444
f 430 444 429
f 429 444 446
f 416 428 447
f 447 428 425
f 426 448 425
f 425 448 447
f 449 415 447
f 447 415 416
f 450 449 448
f 448 449 447
f 426 452 448
f 448 452 451
f 446 444 452
f 452 444 451
f 453 411 397
f 397 411 399
f 414 454 404
f 404 454 398
f 397 398 453
f 453 398 454
f 453 454 441
f 441 454 455
f 441 455 439
f 439 455 456
f 457 455 414
f 414 455 454
f 441 442 453
f 453 442 411
f 458 457 413
f 413 457 414
f 412 415 413
f 413 415 458
f 458 415 459
f 459 415 449
f 459 460 458
f 458 460 457
f 461 462 459
f 459 462 460
f 460 456 457
f 457 456 455
f 456 460 463
f 463 460 462
f 450 461 449
f 449 461 459
f 461 450 464
f 464 450 465
f 468 467 466
f 466 467 464
f 462 461 467
f 467 461 464
f 464 465 466
f 466 465 445
f 444 445 451
f 451 445 465
f 450 448 465
f 465 448 451
f 463 440 456
f 456 440 439
f 468 443 463
f 463 443 440
f 468 463 467
f 467 463 462
f 466 438 468
f 468 438 443
f 445 435 466
f 466 435 438
f 446 427 429
f 429 427 420
f 426 427 452
f 452 427 446
f 370 188 369
f 369 188 186
f 375 376 372
f 372 376 371
f 388 379 387
f 387 379 380
f 386 381 388
f 388 381 379
f 270 384 278
f 278 384 385
f 376 387 371
f 371 387 380
f 400 271 370
f 370 271 188
f 247 278 372
f 372 278 385
f 400 389 384
f 384 389 383
f 263 381 186
f 186 381 369
f 221 144 271
f 271 144 188
f 22 19 207
f 207 19 221
f 23 18 22
f 22 18 19
f 208 219 23
f 23 219 18
f 469 472 470
f 470 472 471
f 476 475 473
f 473 475 474
f 478 476 477
f 477 476 473
f 482 481 479
f 479 481 480
f 475 484 474
f 474 484 483
f 488 487 485
f 485 487 486
f 142 490 77
f 77 490 489
f 77 489 248
f 248 489 491
f 495 494 492
f 492 494 493
f 475 480 484
f 484 480 496
f 471 497 487
f 487 497 486
f 484 496 472
f 472 496 498
f 499 478 493
f 493 478 500
f 501 504 502
f 502 504 503
f 493 500 492
f 492 500 505
f 478 477 500
f 500 477 506
f 476 478 479
f 479 478 499
f 508 507 470
f 470 507 469
f 507 509 469
f 469 509 483
f 510 482 499
f 499 482 479
f 511 495 485
f 485 495 492
f 483 484 469
f 469 484 472
f 513 512 474
f 474 512 473
f 472 498 471
f 471 498 497
f 475 476 480
f 480 476 479
f 515 508 514
f 514 508 470
f 501 502 516
f 516 502 506
f 503 488 502
f 502 488 505
f 504 515 503
f 503 515 514
f 505 488 492
f 492 488 485
f 516 506 517
f 517 506 477
f 509 513 483
f 483 513 474
f 510 494 292
f 292 494 164
f 512 517 473
f 473 517 477
f 480 481 496
f 496 481 491
f 500 506 505
f 505 506 502
f 487 488 514
f 514 488 503
f 471 487 470
f 470 487 514
f 517 519 516
f 516 519 518
f 520 519 512
f 512 519 517
f 521 520 513
f 513 520 512
f 522 521 509
f 509 521 513
f 516 518 501
f 501 518 523
f 501 523 504
f 504 523 524
f 524 525 504
f 504 525 515
f 526 523 527
f 527 523 518
f 531 530 528
f 528 530 529
f 530 533 529
f 529 533 532
f 530 535 533
f 533 535 534
f 538 537 535
f 535 537 536
f 536 539 535
f 535 539 534
f 538 535 531
f 531 535 530
f 528 541 531
f 531 541 540
f 542 532 534
f 534 532 533
f 519 520 542
f 542 520 532
f 532 520 543
f 543 520 521
f 529 532 544
f 544 532 543
f 528 529 545
f 545 529 544
f 534 539 542
f 542 539 527
f 519 542 518
f 518 542 527
f 541 528 546
f 546 528 545
f 547 548 544
f 544 548 545
f 548 549 545
f 545 549 546
f 550 551 547
f 547 551 548
f 547 553 550
f 550 553 552
f 549 548 554
f 554 548 551
f 544 543 547
f 547 543 553
f 522 553 521
f 521 553 543
f 546 556 541
f 541 556 555
f 541 555 540
f 540 555 557
f 527 539 558
f 558 539 536
f 537 559 536
f 536 559 558
f 560 526 558
f 558 526 527
f 559 561 558
f 558 561 560
f 559 537 562
f 562 537 563
f 557 555 563
f 563 555 562
f 564 522 507
f 507 522 509
f 525 565 515
f 515 565 508
f 507 508 564
f 564 508 565
f 564 565 552
f 552 565 566
f 552 566 550
f 550 566 567
f 568 566 525
f 525 566 565
f 553 522 552
f 552 522 564
f 569 568 524
f 524 568 525
f 523 526 524
f 524 526 569
f 526 560 569
f 569 560 570
f 570 571 569
f 569 571 568
f 572 573 570
f 570 573 571
f 571 567 568
f 568 567 566
f 567 571 574
f 574 571 573
f 561 572 560
f 560 572 570
f 572 561 575
f 575 561 576
f 579 578 577
f 577 578 575
f 573 572 578
f 578 572 575
f 575 576 577
f 577 576 556
f 555 556 562
f 562 556 576
f 561 559 576
f 576 559 562
f 574 551 567
f 567 551 550
f 579 554 574
f 574 554 551
f 579 574 578
f 578 574 573
f 549 554 577
f 577 554 579
f 556 546 577
f 577 546 549
f 557 538 540
f 540 538 531
f 537 538 563
f 563 538 557
f 293 294 482
f 482 294 481
f 485 486 511
f 511 486 580
f 498 489 497
f 497 489 490
f 496 491 498
f 498 491 489
f 163 164 495
f 495 164 494
f 580 486 490
f 490 486 497
f 292 293 510
f 510 293 482
f 199 163 511
f 511 163 495
f 499 493 510
f 510 493 494
f 248 491 294
f 294 491 481
f 584 583 581
f 581 583 582
f 588 587 585
f 585 587 586
f 590 588 589
f 589 588 585
f 594 593 591
f 591 593 592
f 595 598 596
f 596 598 597
f 587 600 586
f 586 600 599
f 601 604 602
f 602 604 603
f 605 608 606
f 606 608 607
f 606 607 200
f 200 607 609
f 610 613 611
f 611 613 612
f 600 587 614
f 614 587 592
f 596 597 605
f 605 597 608
f 583 615 603
f 603 615 602
f 600 614 584
f 584 614 616
f 590 618 617
f 617 618 611
f 622 621 619
f 619 621 620
f 618 623 611
f 611 623 610
f 590 589 618
f 618 589 624
f 588 590 591
f 591 590 617
f 626 625 582
f 582 625 581
f 625 627 581
f 581 627 599
f 628 594 617
f 617 594 591
f 601 598 610
f 610 598 613
f 600 584 599
f 599 584 581
f 630 629 586
f 586 629 585
f 584 616 583
f 583 616 615
f 587 588 592
f 592 588 591
f 632 626 631
f 631 626 582
f 619 620 633
f 633 620 624
f 621 604 620
f 620 604 623
f 622 632 621
f 621 632 631
f 610 623 601
f 601 623 604
f 633 624 634
f 634 624 589
f 627 630 599
f 599 630 586
f 612 202 628
f 628 202 203
f 629 634 585
f 585 634 589
f 592 593 614
f 614 593 609
f 618 624 623
f 623 624 620
f 631 603 621
f 621 603 604
f 582 583 631
f 631 583 603
f 634 636 633
f 633 636 635
f 637 636 629
f 629 636 634
f 638 637 630
f 630 637 629
f 639 638 627
f 627 638 630
f 633 635 619
f 619 635 640
f 619 640 622
f 622 640 641
f 641 642 622
f 622 642 632
f 640 635 643
f 643 635 644
f 645 648 646
f 646 648 647
f 647 650 646
f 646 650 649
f 647 652 650
f 650 652 651
f 652 655 653
f 653 655 654
f 653 656 652
f 652 656 651
f 655 652 648
f 648 652 647
f 648 645 657
f 657 645 658
f 659 649 651
f 651 649 650
f 636 637 659
f 659 637 649
f 649 637 660
f 660 637 638
f 649 660 646
f 646 660 661
f 662 645 661
f 661 645 646
f 651 656 659
f 659 656 644
f 636 659 635
f 635 659 644
f 645 662 658
f 658 662 663
f 664 665 661
f 661 665 662
f 665 666 662
f 662 666 663
f 667 668 664
f 664 668 665
f 664 670 667
f 667 670 669
f 666 665 671
f 671 665 668
f 661 660 664
f 664 660 670
f 639 670 638
f 638 670 660
f 673 672 663
f 663 672 658
f 658 672 657
f 657 672 674
f 644 656 675
f 675 656 653
f 676 675 654
f 654 675 653
f 675 677 644
f 644 677 643
f 676 678 675
f 675 678 677
f 654 680 676
f 676 680 679
f 674 672 680
f 680 672 679
f 681 639 625
f 625 639 627
f 642 682 632
f 632 682 626
f 681 625 682
f 682 625 626
f 682 683 681
f 681 683 669
f 683 684 669
f 669 684 667
f 685 683 642
f 642 683 682
f 670 639 669
f 669 639 681
f 686 685 641
f 641 685 642
f 641 640 686
f 686 640 643
f 686 643 687
f 687 643 677
f 687 688 686
f 686 688 685
f 689 690 687
f 687 690 688
f 688 684 685
f 685 684 683
f 684 688 691
f 691 688 690
f 678 689 677
f 677 689 687
f 689 678 692
f 692 678 693
f 696 695 694
f 694 695 692
f 690 689 695
f 695 689 692
f 692 693 694
f 694 693 673
f 672 673 679
f 679 673 693
f 678 676 693
f 693 676 679
f 684 691 667
f 667 691 668
f 696 671 691
f 691 671 668
f 696 691 695
f 695 691 690
f 694 666 696
f 696 666 671
f 673 663 694
f 694 663 666
f 674 655 657
f 657 655 648
f 654 655 680
f 680 655 674
f 290 162 594
f 594 162 593
f 598 601 597
f 597 601 602
f 615 616 608
f 608 616 607
f 614 609 616
f 616 609 607
f 598 595 613
f 613 595 697
f 597 602 608
f 608 602 615
f 203 290 628
f 628 290 594
f 628 617 612
f 612 617 611
f 200 609 162
f 162 609 593
f 699 29 698
f 698 29 105
f 268 701 126
f 126 701 700
f 126 700 125
f 125 700 702
f 704 703 250
f 250 703 252
f 32 705 268
f 268 705 701
f 698 105 706
f 706 105 288
f 29 699 32
f 32 699 705
f 707 706 251
f 251 706 288
f 702 704 125
f 125 704 250
f 703 707 252
f 252 707 251
f 709 708 707
f 707 708 706
f 710 709 703
f 703 709 707
f 711 710 704
f 704 710 703
f 712 711 702
f 702 711 704
f 706 708 698
f 698 708 713
f 698 713 699
f 699 713 714
f 715 705 714
f 714 705 699
f 713 708 716
f 716 708 717
f 721 720 718
f 718 720 719
f 720 723 719
f 719 723 722
f 720 725 723
f 723 725 724
f 727 726 725
f 725 726 724
f 728 725 721
f 721 725 720
f 730 728 729
f 729 728 721
f 718 731 721
f 721 731 729
f 724 732 723
f 723 732 722
f 709 710 732
f 732 710 722
f 722 710 733
f 733 710 711
f 719 722 734
f 734 722 733
f 718 719 735
f 735 719 734
f 724 726 732
f 732 726 717
f 709 732 708
f 708 732 717
f 731 718 736
f 736 718 735
f 737 738 734
f 734 738 735
f 738 739 735
f 735 739 736
f 740 741 737
f 737 741 738
f 737 743 740
f 740 743 742
f 739 738 744
f 744 738 741
f 734 733 737
f 737 733 743
f 712 743 711
f 711 743 733
f 736 746 731
f 731 746 745
f 731 745 729
f 729 745 730
f 717 726 747
f 747 726 727
f 748 749 727
f 727 749 747
f 747 750 717
f 717 750 716
f 749 751 747
f 747 751 750
f 749 748 752
f 752 748 753
f 730 745 753
f 753 745 752
f 727 725 748
f 748 725 728
f 748 728 753
f 753 728 730
f 700 754 702
f 702 754 712
f 705 715 701
f 701 715 755
f 754 700 755
f 755 700 701
f 755 756 754
f 754 756 742
f 756 757 742
f 742 757 740
f 758 756 715
f 715 756 755
f 743 712 742
f 742 712 754
f 759 758 714
f 714 758 715
f 714 713 759
f 759 713 716
f 759 716 760
f 760 716 750
f 760 761 759
f 759 761 758
f 762 763 760
f 760 763 761
f 761 757 758
f 758 757 756
f 757 761 764
f 764 761 763
f 751 762 750
f 750 762 760
f 762 751 765
f 765 751 766
f 767 769 765
f 765 769 768
f 763 762 768
f 768 762 765
f 765 766 767
f 767 766 746
f 745 746 752
f 752 746 766
f 751 749 766
f 766 749 752
f 757 764 740
f 740 764 741
f 769 744 764
f 764 744 741
f 769 764 768
f 768 764 763
f 767 739 769
f 769 739 744
f 746 736 767
f 767 736 739
f 209 217 208
f 208 217 219
f 209 210 217
f 217 210 193
f 511 580 199
f 199 580 198
f 76 289 75
f 75 289 272
f 184 207 291
f 291 207 277
f 84 183 203
f 203 183 290
f 198 580 142
f 142 580 490
f 142 143 198
f 198 143 197
f 73 276 72
f 72 276 149
f 104 279 103
f 103 279 770
f 770 279 596
f 596 279 595
f 605 771 596
f 596 771 770
f 771 772 770
f 770 772 103
f 772 773 103
f 103 773 102
f 102 774 101
f 101 774 155
f 773 97 102
f 102 97 774
f 97 773 100
f 100 773 775
f 773 772 775
f 775 772 776
f 772 771 776
f 776 771 777
f 200 197 606
f 606 197 777
f 74 71 778
f 778 71 189
f 155 774 98
f 98 774 97
f 291 161 184
f 184 161 183
f 143 276 197
f 197 276 777
f 605 606 771
f 771 606 777
f 202 612 697
f 697 612 613
f 595 279 697
f 697 279 202
f 73 776 276
f 276 776 777
f 776 73 775
f 775 73 74
f 74 778 775
f 775 778 100
f 778 189 100
f 100 189 99
f 189 242 99
f 99 242 245
f 131 256 33
f 62 1 95
f 95 1 28
f 1 2 28
f 28 2 27
f 114 115 266
f 266 115 265
f 95 69 62
f 62 69 64
f 65 61 64
f 64 61 62
f 130 13 65
f 65 13 61
f 14 12 130
f 130 12 13
f 268 11 32
f 32 11 31
f 15 31 12
f 12 31 11
f 231 30 15
f 15 30 31
f 232 106 231
f 231 106 30
f 232 237 106
f 106 237 287
f 237 90 287
f 287 90 254
f 90 44 254
f 254 44 253
f 7 249 44
f 44 249 253
f 126 127 268
f 268 127 267
f 116 3 241
f 241 3 10
f 114 2 116
f 116 2 3
f 266 27 114
f 114 27 2
f 113 26 266
f 266 26 27
f 110 286 113
f 113 286 26
f 255 243 110
f 110 243 286
f 256 242 255
f 255 242 243
f 131 245 256
f 256 245 242
f 132 244 131
f 131 244 245
f 41 37 115
f 115 37 265
f 41 42 37
f 37 42 40
f 42 91 40
f 40 91 92
f 91 233 92
f 92 233 236
f 233 194 236
f 236 194 191
f 132 285 244
f 244 285 258
f 285 55 258
f 258 55 257
f 185 154 201
f 201 154 257
f 180 201 204
f 204 201 56
f 55 56 257
f 257 56 201
f 204 56 85
f 85 56 52
f 79 122 53
f 53 122 86
f 122 215 86
f 86 215 212
f 215 216 212
f 212 216 211
f 216 280 211
f 211 280 192
f 191 192 240
f 240 192 280
f 8 124 7
f 7 124 249
f 241 127 8
f 8 127 124
f 10 267 241
f 241 267 127
f 10 9 267
f 267 9 11
