o pred
v 0.017646 0.026992 0.585119
v 0.013555 0.035452 0.580370
v 0.010035 0.028918 0.585736
v 0.014042 0.020085 0.588486
v -0.004907 0.042462 0.580554
v -0.012381 0.040281 0.574357
v -0.011118 0.030525 0.587478
v -0.005160 0.033314 0.592827
v 0.012467 0.013990 0.593679
v 0.007140 0.023094 0.594707
v 0.013385 0.009298 0.593662
v 0.020609 0.001964 0.587893
v 0.017514 0.006149 0.591423
v 0.025826 -0.002369 0.588878
v 0.022889 0.002102 0.579520
v 0.033763 -0.002224 0.585414
v 0.044462 0.018146 0.573886
v 0.050414 0.029019 0.577023
v 0.056630 0.019711 0.588649
v 0.049673 0.010281 0.584863
v 0.059694 0.038042 0.591844
v 0.057900 0.028006 0.590674
v 0.052828 0.036471 0.578375
v 0.054518 0.044741 0.579387
v 0.022874 0.040498 0.584042
v 0.019229 0.048441 0.579286
v 0.017423 0.042859 0.578415
v 0.020594 0.035635 0.583090
v 0.004476 0.006582 0.589586
v 0.007728 0.007734 0.579099
v 0.012428 0.006924 0.584823
v 0.005688 0.007233 0.594733
v 0.011186 0.070128 0.570678
v 0.011218 0.075040 0.558967
v 0.008983 0.069943 0.556831
v 0.008837 0.067121 0.567922
v -0.005334 0.051519 0.558501
v -0.001539 0.056487 0.550018
v -0.001977 0.050246 0.539169
v -0.004538 0.044057 0.547605
v -0.010082 0.046140 0.567170
v -0.011141 0.039519 0.557777
v -0.014088 0.033230 0.566993
v -0.012450 0.025355 0.580027
v 0.018491 0.084319 0.562162
v 0.019930 0.081666 0.571124
v 0.016518 -0.010790 0.623194
v 0.018844 -0.007353 0.626576
v 0.020596 -0.006116 0.622454
v 0.018097 -0.009328 0.619775
v 0.038299 0.084566 0.563813
v 0.045842 0.080363 0.559336
v 0.043006 0.085529 0.555945
v 0.034676 0.088747 0.559136
v 0.041531 0.077220 0.569525
v 0.047839 0.072101 0.563865
v 0.021214 -0.019650 0.623973
v 0.017748 -0.017933 0.622539
v 0.020500 -0.017363 0.618729
v 0.024429 -0.018489 0.619748
v 0.016838 0.012845 0.591968
v 0.019641 0.020474 0.590898
v 0.025618 0.004032 0.601855
v 0.023967 0.010139 0.597730
v 0.021859 0.006026 0.594326
v 0.023924 0.000805 0.597487
v 0.031128 0.029662 0.599713
v 0.028264 0.036163 0.591440
v 0.026624 0.030269 0.590855
v 0.028122 0.022352 0.599983
v 0.032423 0.047752 0.594529
v 0.034995 0.040160 0.602184
v 0.037525 0.047588 0.602410
v 0.035027 0.052150 0.597351
v 0.040057 0.024891 0.612241
v 0.040357 0.020471 0.615812
v 0.039822 0.022680 0.616923
v 0.040294 0.028063 0.612731
v 0.040152 0.089064 0.551422
v 0.031092 0.090363 0.553870
v 0.061579 0.055798 0.594675
v 0.055442 0.062761 0.594878
v 0.057866 0.059772 0.605927
v 0.064061 0.051832 0.602802
v 0.048129 0.071463 0.554625
v 0.047790 0.078067 0.551343
v 0.025237 -0.018756 0.626718
v 0.028594 -0.017791 0.622519
v -0.006434 0.025603 0.557833
v -0.009100 0.019271 0.573144
v -0.001828 0.033092 0.546906
v 0.003651 0.038675 0.538811
v 0.005649 0.043707 0.532861
v 0.027346 0.011927 0.601889
v 0.022513 0.028048 0.588035
v 0.024208 0.044763 0.585301
v 0.034190 0.066858 0.596052
v 0.029921 0.072380 0.590305
v 0.027283 0.063903 0.589950
v 0.032240 0.060624 0.594483
v 0.047731 0.066755 0.599261
v 0.042568 0.065218 0.601385
v 0.044783 0.060758 0.605875
v 0.050551 0.062598 0.606069
v -0.000469 0.005126 0.585773
v 0.003971 0.008673 0.574775
v 0.028977 0.085950 0.567649
v 0.025390 0.087928 0.561748
v 0.023748 0.089452 0.554372
v 0.013923 0.059236 0.574617
v 0.007008 0.065398 0.566002
v 0.004497 0.062494 0.565869
v 0.013001 0.057014 0.573868
v 0.007582 0.044584 0.576692
v -0.001159 0.051025 0.572160
v 0.004233 0.038118 0.584576
v 0.004205 0.064568 0.552853
v 0.006453 0.073551 0.548463
v 0.002605 0.066715 0.544819
v 0.011924 0.080720 0.551045
v 0.017901 0.086373 0.553372
v 0.046948 0.082705 0.545745
v 0.000148 0.059813 0.541621
v -0.006286 0.025149 0.599594
v -0.006804 0.017872 0.601718
v 0.000030 0.015701 0.603582
v 0.001537 0.023433 0.601942
v 0.029698 -0.006543 0.592496
v 0.024860 -0.003411 0.595303
v 0.021609 0.001027 0.590980
v 0.017723 0.069134 0.578205
v 0.023706 0.077307 0.578811
v 0.028822 0.005524 0.606343
v 0.027475 -0.018447 0.616442
v 0.022848 -0.016813 0.614976
v 0.028063 -0.011125 0.601269
v 0.033703 -0.013439 0.603224
v 0.034576 0.002941 0.613521
v 0.029603 0.004176 0.609605
v 0.030415 0.003636 0.611061
v 0.034521 0.002911 0.615445
v 0.040460 0.031475 0.616304
v 0.040868 0.035817 0.613124
v 0.050687 0.003812 0.598182
v 0.046533 -0.003708 0.590841
v 0.042852 0.002753 0.582144
v 0.033431 0.035833 0.600304
v 0.036513 0.030507 0.607603
v 0.037986 0.033955 0.608224
v 0.030265 0.011662 0.604931
v 0.032119 0.006802 0.609358
v 0.032849 0.010388 0.608469
v 0.031448 0.015981 0.605232
v 0.051224 0.068318 0.585255
v 0.043494 0.073284 0.590812
v 0.016107 -0.014555 0.622006
v 0.018170 -0.013591 0.618312
v 0.030468 0.042105 0.592314
v 0.037543 0.011252 0.574069
v 0.025759 0.048961 0.586370
v 0.057738 0.037585 0.613242
v 0.051347 0.040500 0.617240
v 0.049030 0.039000 0.620208
v 0.053484 0.035724 0.618906
v 0.030709 -0.003964 0.625163
v 0.026227 -0.003480 0.623789
v 0.024022 -0.003788 0.625795
v 0.028105 -0.004918 0.627760
v 0.026414 0.002754 0.605656
v 0.024399 -0.000798 0.601567
v 0.023792 -0.001693 0.604987
v 0.026858 0.001256 0.608585
v 0.025354 -0.005211 0.598403
v 0.024534 -0.006801 0.601618
v 0.034172 -0.007756 0.624731
v 0.034811 -0.013788 0.622159
v 0.041460 -0.008395 0.611662
v 0.038687 -0.003001 0.616067
v 0.051024 0.050999 0.567431
v 0.052509 0.060033 0.570561
v 0.056976 0.053814 0.582175
v 0.061619 0.048022 0.593946
v 0.062718 0.042172 0.605584
v 0.062832 0.032869 0.602072
v 0.056711 0.060195 0.582901
v 0.041898 0.001483 0.610597
v 0.045183 -0.002741 0.604472
v 0.046883 0.001228 0.606061
v 0.028359 0.054937 0.588617
v 0.020363 -0.013767 0.614909
v 0.025438 0.041932 0.537151
v 0.035440 0.050663 0.540442
v 0.034407 0.044912 0.545753
v 0.023422 0.035843 0.542956
v 0.021822 -0.005813 0.620357
v 0.019305 -0.008869 0.616646
v 0.041748 0.040665 0.615315
v 0.041410 0.036477 0.618667
v 0.042507 0.039491 0.620097
v 0.041513 0.042441 0.618261
v 0.052306 0.065099 0.570844
v 0.053161 0.059019 0.614029
v 0.060750 0.050753 0.611498
v 0.049302 0.065513 0.560418
v 0.048465 0.057345 0.557671
v 0.047651 0.062067 0.550730
v 0.058465 0.020344 0.605043
v 0.048142 0.043868 0.567582
v 0.045020 0.051113 0.557418
v 0.044246 0.056668 0.549224
v 0.045921 0.059744 0.542489
v 0.048367 0.066056 0.545648
v 0.031621 -0.016957 0.619386
v 0.031534 -0.014220 0.626285
v 0.047706 0.070622 0.539705
v 0.045514 0.062790 0.536712
v 0.040247 0.043465 0.556509
v 0.036798 0.034505 0.554106
v 0.044948 0.036906 0.565932
v 0.041153 0.027461 0.564344
v 0.059186 0.012730 0.597743
v 0.022371 -0.014366 0.639918
v 0.027959 -0.011318 0.632801
v 0.026039 -0.007137 0.631982
v 0.021397 -0.011250 0.640182
v 0.030979 -0.008863 0.628061
v 0.027989 -0.015419 0.630246
v 0.031059 0.018842 0.565237
v 0.034293 0.005797 0.612833
v 0.021705 0.024623 0.553568
v 0.019290 0.008805 0.570678
v 0.010884 0.013881 0.564079
v 0.011169 0.030769 0.542567
v 0.003911 0.020909 0.553384
v 0.015469 0.042380 0.531118
v 0.014921 0.036894 0.536417
v -0.001709 0.014935 0.565400
v 0.013152 -0.011733 0.632676
v 0.015683 -0.008611 0.635404
v 0.025819 0.046235 0.531754
v 0.002031 0.030582 0.595380
v 0.022715 0.059410 0.582190
v 0.021099 0.054777 0.580856
v 0.028346 0.075499 0.585987
v 0.023749 0.065830 0.584233
v 0.012165 -0.015854 0.630732
v 0.042987 0.019043 0.618380
v 0.042704 0.019861 0.617307
v -0.010763 0.023688 0.593407
v -0.011558 0.017671 0.596522
v -0.011264 0.008614 0.588063
v -0.013239 0.013357 0.592282
v -0.011708 0.019253 0.586243
v -0.009552 0.014445 0.581366
v 0.013986 0.060635 0.575536
v 0.015997 0.063663 0.576937
v 0.045669 0.073108 0.576692
v 0.038065 0.077565 0.583532
v 0.029912 -0.008539 0.596510
v 0.037214 -0.007069 0.591329
v 0.036208 -0.010223 0.596856
v 0.039329 -0.012061 0.605562
v 0.036882 0.002136 0.614326
v 0.039901 0.000288 0.612034
v 0.001451 0.057583 0.569696
v 0.010386 0.051271 0.574181
v 0.005442 0.017671 0.599165
v 0.004587 0.011782 0.600763
v 0.032695 0.023617 0.605284
v 0.054450 0.014529 0.613082
v 0.054449 0.008352 0.607076
v 0.035863 0.017879 0.610370
v 0.015670 -0.021430 0.632430
v 0.013086 -0.018945 0.630850
v 0.042072 -0.008074 0.598814
v 0.039138 0.041384 0.608676
v 0.054516 0.019807 0.613349
v 0.049850 0.017470 0.617758
v 0.048329 0.061105 0.610619
v 0.035479 0.054564 0.534282
v 0.022177 -0.005201 0.630272
v 0.018659 -0.007718 0.637622
v 0.022425 -0.017531 0.638039
v 0.020341 -0.020882 0.634619
v 0.032698 0.080426 0.575783
v 0.020625 0.052009 0.580248
v -0.003476 0.012259 0.576197
v -0.005952 0.005653 0.585493
v 0.037239 0.013847 0.612671
v 0.056928 0.043351 0.614249
v 0.058853 0.029506 0.611401
v 0.055572 0.027417 0.619580
v 0.052549 0.020720 0.620212
v 0.046385 0.018244 0.619707
v 0.019939 -0.017439 0.641562
v 0.017823 -0.021217 0.638385
v 0.013550 -0.022407 0.636465
v 0.011083 -0.020136 0.634884
v 0.011084 -0.016361 0.633829
v 0.019569 -0.014287 0.642918
v 0.018330 -0.011451 0.642999
v 0.016770 -0.008428 0.639705
v 0.016253 -0.013565 0.645743
v 0.014663 -0.017543 0.646549
v 0.004478 -0.021465 0.645035
v 0.009076 -0.022588 0.642667
v 0.008492 -0.021943 0.644754
v 0.005196 -0.021576 0.647720
v 0.002393 -0.021114 0.651416
v 0.001393 -0.020855 0.648820
v 0.012072 -0.020572 0.645068
v 0.008100 -0.020616 0.649451
v 0.010004 -0.017800 0.650715
v 0.006550 -0.017987 0.654681
v 0.004840 -0.020593 0.653636
v 0.012367 -0.018194 0.647492
v 0.013630 -0.021091 0.643625
v -0.000113 -0.020008 0.652481
v 0.000986 -0.020806 0.653949
v 0.002525 -0.019872 0.655710
v 0.000286 -0.018155 0.656574
v 0.008534 -0.020695 0.638200
v 0.003524 -0.020269 0.643787
v 0.000666 -0.018754 0.647823
v -0.000520 -0.017889 0.651461
v 0.002967 -0.017200 0.644002
v 0.001017 -0.016419 0.647430
v 0.000134 -0.015300 0.650546
v 0.003370 -0.013789 0.644606
v 0.001590 -0.013841 0.647821
v 0.009558 -0.013153 0.636185
v 0.008857 -0.016971 0.635849
v 0.000498 -0.013772 0.649800
v 0.000432 -0.016302 0.655596
v 0.011358 -0.014950 0.649814
v 0.006323 -0.014872 0.653787
v 0.011339 -0.013145 0.649395
v 0.006343 -0.013037 0.653217
v 0.003304 -0.015599 0.656947
v 0.004203 -0.017892 0.656142
v 0.012508 -0.012410 0.634595
v 0.015074 -0.009269 0.637062
v 0.012417 -0.009189 0.638309
v 0.005177 -0.010745 0.645824
v 0.014130 -0.008340 0.641014
v 0.014931 -0.011045 0.645345
v 0.010080 -0.011341 0.649326
v 0.008324 -0.010024 0.648168
v 0.006258 -0.011634 0.652445
v 0.005163 -0.011009 0.650970
v 0.002835 -0.011646 0.649134
v 0.002936 -0.012625 0.653789
v 0.003179 -0.014331 0.655496
v 0.000700 -0.014256 0.653319
v 0.003187 -0.011793 0.652518
v 0.001510 -0.012972 0.651562
v 0.029373 0.001799 0.634836
v 0.030473 0.007675 0.636590
v 0.032989 0.007295 0.634188
v 0.031677 0.002604 0.632678
v 0.037924 -0.005393 0.640658
v 0.033265 -0.004457 0.637246
v 0.036198 -0.004865 0.634508
v 0.042543 -0.004830 0.637517
v 0.042836 -0.001117 0.642992
v 0.047117 -0.000450 0.639464
v 0.045085 -0.004657 0.634100
v 0.038939 -0.004412 0.631992
v 0.041780 -0.000615 0.615827
v 0.048417 -0.000360 0.616739
v 0.038642 0.016573 0.618501
v 0.042335 0.017495 0.620375
v 0.030398 -0.001485 0.635001
v 0.033187 -0.001657 0.632667
v 0.039567 0.012924 0.635143
v 0.035893 0.011180 0.633585
v 0.034341 0.010912 0.635514
v 0.038166 0.012673 0.637362
v 0.034804 0.004849 0.615221
v 0.037141 0.011214 0.616481
v 0.037050 0.001446 0.615312
v 0.044437 0.011869 0.636882
v 0.048481 0.008021 0.637688
v 0.053820 0.011292 0.621764
v 0.049756 0.015502 0.622714
v 0.035190 -0.002171 0.630763
v 0.033829 0.006916 0.632492
v 0.033084 0.001957 0.630852
v 0.048567 0.000423 0.635975
v 0.045874 0.007193 0.641436
v 0.031280 0.009441 0.651668
v 0.038692 0.010877 0.644247
v 0.035577 0.012429 0.641446
v 0.028369 0.011898 0.649817
v 0.041715 0.011474 0.639747
v 0.041695 0.006233 0.645232
v 0.021112 0.003751 0.644116
v 0.022498 0.009058 0.645715
v 0.021443 -0.000067 0.644441
v 0.053284 0.004028 0.618389
v 0.028620 -0.004567 0.648195
v 0.023876 -0.002800 0.645562
v 0.032503 0.011668 0.638250
v 0.024764 0.011742 0.647674
v 0.032946 0.005941 0.652222
v 0.033411 -0.000904 0.650269
v 0.028713 0.004872 0.655433
v 0.027913 -0.000954 0.653881
v 0.023749 -0.004465 0.651092
v 0.020566 -0.002263 0.647657
v 0.019316 0.000452 0.645884
v 0.027432 0.008751 0.654680
v 0.025405 0.011241 0.652672
v 0.023170 0.011360 0.648940
v 0.021949 0.010007 0.656397
v 0.021639 0.006364 0.658064
v 0.005717 0.002758 0.654575
v 0.010568 0.000378 0.653627
v 0.011188 0.001322 0.655655
v 0.006502 0.003138 0.656807
v 0.015959 -0.001981 0.654331
v 0.015225 -0.000161 0.655475
v 0.018075 0.001975 0.657162
v 0.012897 0.003864 0.658388
v 0.015069 0.007613 0.658679
v 0.010322 0.009276 0.660450
v 0.007948 0.005647 0.660125
v 0.018380 0.005259 0.657897
v 0.003799 0.005013 0.657974
v 0.002591 0.006245 0.656662
v 0.020759 0.000269 0.657288
v 0.017229 -0.001735 0.649376
v 0.009875 0.001323 0.651302
v 0.005076 0.004475 0.652559
v 0.002249 0.008337 0.655374
v 0.009547 0.004437 0.649616
v 0.005152 0.006960 0.651416
v 0.003314 0.009968 0.654037
v 0.010075 0.008483 0.648412
v 0.005985 0.010466 0.650755
v 0.018489 0.005005 0.645767
v 0.017383 0.001156 0.646443
v 0.004695 0.011013 0.652703
v 0.002492 0.008950 0.660088
v 0.002574 0.010912 0.657749
v 0.004028 0.007624 0.660071
v 0.015801 0.009273 0.658273
v 0.010169 0.011034 0.659437
v 0.015831 0.011493 0.656948
v 0.009632 0.012980 0.658208
v 0.005750 0.011418 0.660257
v 0.005987 0.010117 0.660595
v 0.019787 0.004179 0.645363
v 0.021537 0.008931 0.646680
v 0.020570 0.009444 0.646736
v 0.012083 0.012202 0.649868
v 0.022287 0.011739 0.649453
v 0.021892 0.011794 0.653935
v 0.015851 0.013213 0.655473
v 0.014212 0.013959 0.652830
v 0.009894 0.014471 0.657200
v 0.010383 0.014758 0.654592
v 0.007967 0.013272 0.651708
v 0.005806 0.013877 0.657756
v 0.005431 0.012638 0.659387
v 0.003346 0.011923 0.656265
v 0.006950 0.014699 0.655725
v 0.005087 0.012881 0.654103
v 0.026868 0.022440 0.632718
v 0.026847 0.028134 0.632412
v 0.028972 0.028298 0.630778
v 0.028900 0.022859 0.630743
v 0.034656 0.020766 0.641443
v 0.031090 0.019219 0.639002
v 0.033789 0.018989 0.636425
v 0.038366 0.020340 0.638335
v 0.035572 0.025282 0.643649
v 0.040867 0.025026 0.639635
v 0.042249 0.019673 0.635471
v 0.036873 0.018631 0.633588
v 0.044226 0.019072 0.622645
v 0.049772 0.020075 0.625533
v 0.028759 0.020016 0.635575
v 0.030861 0.020082 0.633267
v 0.033978 0.036356 0.631923
v 0.031268 0.033719 0.630027
v 0.029969 0.033353 0.632044
v 0.032484 0.035626 0.633794
v 0.037574 0.024450 0.617506
v 0.038890 0.030603 0.617832
v 0.039629 0.020275 0.619764
v 0.038738 0.036004 0.635060
v 0.044375 0.031515 0.636781
v 0.050985 0.034091 0.626497
v 0.046406 0.037459 0.624134
v 0.032785 0.019464 0.631090
v 0.029933 0.028474 0.628518
v 0.029963 0.022718 0.628830
v 0.044884 0.024368 0.636403
v 0.039129 0.031637 0.639703
v 0.022107 0.033924 0.648933
v 0.033261 0.035750 0.640057
v 0.029962 0.035853 0.635806
v 0.019969 0.034849 0.646272
v 0.035471 0.035987 0.637367
v 0.035632 0.031532 0.642975
v 0.016246 0.023727 0.641324
v 0.016551 0.028841 0.641234
v 0.018512 0.020842 0.642670
v 0.053027 0.025896 0.627107
v 0.041632 0.038136 0.620665
v 0.022313 0.020487 0.647871
v 0.020126 0.019806 0.644859
v 0.028002 0.033155 0.633637
v 0.017853 0.033349 0.643281
v 0.024541 0.030750 0.650532
v 0.025271 0.024710 0.650074
v 0.019825 0.030815 0.652567
v 0.020447 0.025209 0.652342
v 0.017967 0.020984 0.649932
v 0.016326 0.020199 0.646774
v 0.015096 0.021339 0.644373
v 0.017710 0.033881 0.650758
v 0.016097 0.034392 0.648025
v 0.016470 0.032740 0.643868
v 0.013802 0.034058 0.651316
v 0.013518 0.030725 0.654429
v 0.000555 0.023064 0.652865
v 0.005834 0.022260 0.651833
v 0.005995 0.022937 0.652716
v 0.000890 0.023720 0.654126
v 0.011831 0.022067 0.652301
v 0.010579 0.023093 0.652913
v 0.011995 0.025830 0.654373
v 0.006387 0.026455 0.656027
v 0.007332 0.031601 0.654179
v 0.002760 0.031279 0.655072
v 0.001555 0.026886 0.656727
v 0.011861 0.029722 0.654364
v -0.001815 0.024894 0.654940
v -0.002778 0.024046 0.654511
v 0.014198 0.025590 0.654449
v 0.011908 0.020403 0.648464
v 0.005305 0.021574 0.649553
v 0.000121 0.022691 0.650367
v -0.003241 0.024605 0.651249
v 0.004829 0.023026 0.646742
v 0.000140 0.023846 0.648130
v -0.002879 0.025647 0.649114
v 0.004617 0.025234 0.645229
v 0.000505 0.025937 0.646598
v 0.012900 0.024296 0.643269
v 0.012326 0.021587 0.645325
v -0.001825 0.026870 0.647916
v -0.003791 0.027719 0.656032
v -0.004517 0.029032 0.652486
v -0.002159 0.027304 0.655974
v 0.007908 0.033015 0.653361
v 0.001863 0.032970 0.653764
v 0.007839 0.034217 0.651577
v 0.001841 0.034431 0.652176
v -0.001633 0.031604 0.654979
v -0.000959 0.030798 0.655322
v 0.014948 0.024242 0.642543
v 0.015559 0.028855 0.642249
v 0.013666 0.028650 0.642757
v 0.004704 0.029298 0.644601
v 0.014427 0.032397 0.644172
v 0.012475 0.034374 0.648657
v 0.006986 0.034047 0.649109
v 0.005527 0.032634 0.646615
v 0.001750 0.034207 0.649958
v 0.002118 0.032887 0.648039
v 0.000687 0.029475 0.645927
v -0.001476 0.032531 0.650686
v -0.001916 0.032599 0.653107
v -0.003621 0.029313 0.649901
v -0.000832 0.031952 0.648772
v -0.002215 0.029400 0.648151
v 0.040160 0.035101 0.619096
v 0.028908 0.047263 0.635294
v 0.028156 0.050813 0.633749
v 0.029406 0.051302 0.632384
v 0.030175 0.047467 0.633158
v 0.036712 0.049099 0.640757
v 0.033634 0.046716 0.639758
v 0.035858 0.046036 0.636950
v 0.038952 0.048178 0.637488
v 0.037882 0.053061 0.640262
v 0.040113 0.052520 0.636768
v 0.040769 0.046596 0.634456
v 0.037190 0.044884 0.633340
v 0.045744 0.042422 0.622159
v 0.050725 0.045014 0.622396
v 0.043799 0.060493 0.616065
v 0.040520 0.056463 0.612882
v 0.036620 0.056724 0.620689
v 0.040484 0.060266 0.621426
v 0.030939 0.046069 0.637511
v 0.032614 0.045438 0.634910
v 0.033204 0.060183 0.630195
v 0.029851 0.056738 0.629360
v 0.029212 0.055156 0.631502
v 0.030821 0.059180 0.632193
v 0.038372 0.051188 0.613764
v 0.039739 0.047087 0.615295
v 0.036453 0.046158 0.618566
v 0.034687 0.051732 0.620945
v 0.039216 0.041442 0.620413
v 0.036885 0.060711 0.631956
v 0.041304 0.057833 0.633721
v 0.050634 0.059516 0.622768
v 0.045862 0.061101 0.621700
v 0.032914 0.044557 0.632501
v 0.029566 0.052390 0.630047
v 0.029852 0.047895 0.630999
v 0.043431 0.051579 0.634630
v 0.038245 0.057612 0.635772
v 0.026308 0.060201 0.641676
v 0.032602 0.060642 0.635992
v 0.029330 0.058716 0.633685
v 0.024456 0.059478 0.639971
v 0.034361 0.060327 0.633971
v 0.035692 0.058389 0.638963
v 0.023452 0.048433 0.640066
v 0.022785 0.053073 0.638379
v 0.025158 0.046857 0.641955
v 0.053606 0.051646 0.622711
v 0.029617 0.049281 0.646217
v 0.026975 0.047052 0.644479
v 0.027928 0.054662 0.633154
v 0.023008 0.057131 0.638464
v 0.028797 0.058647 0.644231
v 0.031206 0.054149 0.646133
v 0.025025 0.057672 0.647185
v 0.027558 0.053224 0.648387
v 0.025824 0.048169 0.647511
v 0.024450 0.046830 0.644877
v 0.023146 0.047094 0.642558
v 0.022988 0.059102 0.644360
v 0.021829 0.058585 0.642246
v 0.021420 0.056452 0.639864
v 0.019624 0.057881 0.646474
v 0.019718 0.055492 0.649427
v 0.011691 0.046297 0.649286
v 0.015605 0.046401 0.648346
v 0.015740 0.047010 0.649415
v 0.011880 0.046556 0.650278
v 0.020570 0.047564 0.648535
v 0.019386 0.048262 0.649138
v 0.020702 0.051063 0.649721
v 0.015907 0.050290 0.651511
v 0.014465 0.054503 0.650138
v 0.010650 0.053685 0.651591
v 0.012414 0.049991 0.652626
v 0.018643 0.054094 0.649894
v 0.009533 0.047004 0.651467
v 0.008316 0.046564 0.651277
v 0.022634 0.051566 0.649928
v 0.020819 0.046196 0.645245
v 0.014649 0.045559 0.646629
v 0.010012 0.045894 0.648144
v 0.006958 0.047239 0.649946
v 0.014649 0.046198 0.644483
v 0.009423 0.046420 0.646433
v 0.006743 0.047863 0.647948
v 0.014309 0.048187 0.642415
v 0.009458 0.047947 0.644853
v 0.020143 0.049133 0.640533
v 0.020342 0.047023 0.642685
v 0.007390 0.048606 0.646785
v 0.007225 0.049541 0.653157
v 0.005847 0.049911 0.650820
v 0.008810 0.049660 0.653332
v 0.014370 0.055641 0.649662
v 0.009645 0.054688 0.651061
v 0.013980 0.056764 0.648035
v 0.008930 0.055176 0.649297
v 0.007248 0.052753 0.652325
v 0.008634 0.052175 0.652763
v 0.021672 0.049043 0.640465
v 0.021352 0.052643 0.639371
v 0.019787 0.052783 0.640027
v 0.014027 0.051506 0.641797
v 0.019722 0.056309 0.641075
v 0.019672 0.057952 0.643789
v 0.013813 0.056427 0.645797
v 0.013609 0.054923 0.643510
v 0.008434 0.054633 0.647568
v 0.008827 0.053253 0.645358
v 0.009080 0.050636 0.644037
v 0.006286 0.052077 0.648778
v 0.006234 0.052543 0.650473
v 0.005985 0.050102 0.648778
v 0.006701 0.051673 0.647130
v 0.006907 0.050250 0.646820
v 0.046936 0.060405 0.618296
v -0.003152 -0.000277 0.597170
v 0.000591 0.000733 0.599779
v -0.005276 0.009287 0.611218
v -0.000492 0.005137 0.609290
v -0.011365 0.010616 0.609355
v -0.016292 0.006361 0.600967
v -0.014954 0.009769 0.605082
v 0.001462 0.001996 0.605131
v -0.008158 -0.000480 0.595521
v -0.014356 0.002484 0.596633
v -0.010544 -0.005300 0.601428
v -0.016150 -0.001890 0.602643
v -0.018189 0.002624 0.606394
v -0.016240 0.007343 0.609962
v -0.012946 0.009029 0.612323
v -0.004717 -0.002942 0.602746
v -0.001261 -0.001307 0.605458
v 0.000314 0.002025 0.609401
v -0.005084 -0.007050 0.609287
v -0.011619 -0.010622 0.615438
v -0.022265 -0.008026 0.628680
v -0.020636 -0.004519 0.623709
v -0.020577 -0.006937 0.623212
v -0.022675 -0.010111 0.627680
v -0.019591 -0.003602 0.618958
v -0.019578 -0.005809 0.619494
v -0.017006 -0.008482 0.617020
v -0.018918 -0.011756 0.621098
v -0.013412 -0.010944 0.617666
v -0.013593 -0.013393 0.620808
v -0.020576 -0.015156 0.625283
v -0.023768 -0.013714 0.629826
v -0.021892 -0.017905 0.629887
v -0.022795 -0.012018 0.632047
v -0.017473 -0.008044 0.615079
v -0.018527 0.002490 0.617101
v -0.019399 -0.001257 0.624321
v -0.020524 -0.005428 0.629858
v -0.020555 -0.010420 0.633077
v -0.016156 0.000592 0.625519
v -0.016828 -0.004196 0.629991
v -0.016226 -0.008704 0.632268
v -0.011771 0.000554 0.625946
v -0.013078 -0.004595 0.629621
v -0.008137 0.007459 0.615992
v -0.014369 0.006889 0.616686
v -0.014043 -0.007863 0.631113
v -0.020820 -0.017607 0.632324
v -0.017675 -0.015453 0.633496
v -0.010208 -0.013085 0.619787
v -0.015008 -0.016941 0.624698
v -0.011896 -0.016312 0.624930
v -0.007061 -0.011763 0.619082
v -0.009657 -0.015490 0.625638
v -0.015529 -0.018623 0.629367
v -0.017796 -0.018702 0.627597
v -0.007355 0.009217 0.613770
v -0.002421 0.006065 0.611995
v -0.003159 0.004935 0.614141
v -0.006710 -0.001613 0.624146
v -0.001001 0.000598 0.612864
v -0.002320 -0.003975 0.611126
v -0.005034 -0.009509 0.620113
v -0.004390 -0.005929 0.621904
v -0.008190 -0.012665 0.626600
v -0.008253 -0.009943 0.627096
v -0.010150 -0.006717 0.628816
v -0.011327 -0.013811 0.630262
v -0.012962 -0.016975 0.630269
v -0.014317 -0.012376 0.632535
v -0.010657 -0.011492 0.629545
v -0.012424 -0.009962 0.630849
v 0.043141 0.058865 0.609447
v 0.040257 0.053756 0.609467
v 0.042163 0.057489 0.605620
v 0.038831 0.061994 0.601380
v 0.038851 0.069460 0.596749
v 0.037015 0.057126 0.599554
v 0.040076 0.052552 0.604983
v 0.039889 0.047056 0.610480
v 0.032354 0.055928 0.592671
f 2 3 1
f 1 3 4
f 5 6 8
f 8 6 7
f 9 4 10
f 10 4 3
f 12 13 11
f 11 13 9
f 14 12 16
f 16 12 15
f 18 19 17
f 17 19 20
f 22 23 21
f 21 23 24
f 26 27 25
f 25 27 28
f 30 31 29
f 29 31 32
f 33 34 36
f 36 34 35
f 37 38 40
f 40 38 39
f 41 42 6
f 6 42 43
f 6 43 7
f 7 43 44
f 45 34 46
f 46 34 33
f 48 49 47
f 47 49 50
f 52 53 51
f 51 53 54
f 56 52 55
f 55 52 51
f 58 59 57
f 57 59 60
f 61 62 4
f 4 62 1
f 64 65 63
f 63 65 66
f 68 69 67
f 67 69 70
f 72 73 71
f 71 73 74
f 76 77 75
f 75 77 78
f 53 79 54
f 54 79 80
f 82 83 81
f 81 83 84
f 85 86 52
f 52 86 53
f 57 60 87
f 87 60 88
f 89 90 43
f 43 90 44
f 43 42 89
f 89 42 91
f 40 39 92
f 92 39 93
f 94 70 64
f 64 70 69
f 13 61 9
f 9 61 4
f 25 28 69
f 69 28 95
f 96 25 68
f 68 25 69
f 98 99 97
f 97 99 100
f 101 102 104
f 104 102 103
f 106 30 105
f 105 30 29
f 51 54 107
f 107 54 108
f 54 80 108
f 108 80 109
f 111 112 110
f 110 112 113
f 115 5 114
f 114 5 116
f 115 41 5
f 5 41 6
f 36 35 111
f 111 35 117
f 35 118 117
f 117 118 119
f 34 120 35
f 35 120 118
f 34 45 120
f 120 45 121
f 125 126 124
f 124 126 127
f 128 129 14
f 14 129 130
f 33 131 46
f 46 131 132
f 133 94 63
f 63 94 64
f 134 135 137
f 137 135 136
f 139 140 138
f 138 140 141
f 77 142 78
f 78 142 143
f 144 145 20
f 20 145 146
f 148 149 147
f 147 149 72
f 151 152 150
f 150 152 153
f 82 101 83
f 83 101 104
f 101 82 155
f 155 82 154
f 156 157 58
f 58 157 59
f 158 68 147
f 147 68 67
f 159 146 15
f 15 146 16
f 68 158 96
f 96 158 160
f 129 66 130
f 130 66 65
f 162 163 161
f 161 163 164
f 166 167 165
f 165 167 168
f 170 171 169
f 169 171 172
f 174 171 173
f 173 171 170
f 176 177 175
f 175 177 178
f 180 181 179
f 179 181 24
f 182 183 21
f 21 183 184
f 81 185 82
f 82 185 154
f 186 187 188
f 188 187 144
f 158 71 160
f 160 71 189
f 190 135 157
f 157 135 59
f 169 172 139
f 139 172 140
f 147 72 158
f 158 72 71
f 192 193 191
f 191 193 194
f 167 166 49
f 49 166 195
f 196 190 50
f 50 190 157
f 197 198 200
f 200 198 199
f 21 24 182
f 182 24 181
f 146 159 20
f 20 159 17
f 182 181 81
f 81 181 185
f 201 185 180
f 180 185 181
f 202 203 83
f 83 203 84
f 205 206 204
f 204 206 85
f 207 22 184
f 184 22 21
f 179 24 208
f 208 24 23
f 208 209 179
f 179 209 205
f 209 210 205
f 205 210 206
f 212 206 211
f 211 206 210
f 179 205 180
f 180 205 204
f 213 176 88
f 88 176 214
f 86 85 212
f 212 85 206
f 193 217 218
f 217 219 218
f 218 219 220
f 219 18 220
f 220 18 17
f 19 221 20
f 20 221 144
f 222 223 225
f 225 223 224
f 175 226 176
f 176 226 214
f 227 87 214
f 214 87 88
f 220 17 228
f 228 17 159
f 134 213 60
f 60 213 88
f 138 229 151
f 151 229 152
f 193 192 210
f 210 192 211
f 230 194 218
f 218 194 193
f 231 232 228
f 228 232 230
f 233 234 91
f 91 234 89
f 235 236 93
f 93 236 92
f 230 232 234
f 234 232 237
f 47 238 48
f 48 238 239
f 240 191 235
f 235 191 236
f 5 8 116
f 116 8 241
f 242 243 189
f 189 243 160
f 244 245 98
f 98 245 99
f 156 246 47
f 47 246 238
f 76 247 77
f 77 247 248
f 250 125 249
f 249 125 124
f 252 253 251
f 251 253 254
f 111 110 36
f 36 110 255
f 256 33 255
f 255 33 36
f 257 258 154
f 154 258 155
f 63 169 133
f 133 169 139
f 66 170 63
f 63 170 169
f 173 170 129
f 129 170 66
f 129 128 173
f 173 128 259
f 128 260 259
f 259 260 261
f 213 134 262
f 262 134 137
f 263 264 186
f 186 264 187
f 112 265 113
f 113 265 266
f 11 267 268
f 234 233 230
f 230 233 194
f 153 269 70
f 70 269 67
f 175 178 165
f 165 178 141
f 150 153 94
f 94 153 70
f 271 221 270
f 270 221 207
f 269 153 272
f 272 153 152
f 121 45 109
f 109 45 108
f 47 50 156
f 156 50 157
f 57 273 58
f 58 273 274
f 145 275 260
f 260 275 261
f 276 149 143
f 143 149 78
f 148 269 75
f 75 269 272
f 207 277 270
f 270 277 278
f 195 196 49
f 49 196 50
f 59 135 60
f 60 135 134
f 83 104 202
f 202 104 279
f 149 148 78
f 78 148 75
f 247 278 248
f 248 278 277
f 183 182 84
f 84 182 81
f 48 239 281
f 281 239 282
f 227 223 283
f 283 223 222
f 223 226 224
f 224 226 168
f 281 282 224
f 224 282 225
f 165 168 175
f 175 168 226
f 264 263 138
f 138 263 229
f 14 16 128
f 128 16 260
f 220 228 218
f 218 228 230
f 87 227 284
f 284 227 283
f 260 16 145
f 145 16 146
f 244 98 258
f 258 98 155
f 58 274 156
f 156 274 246
f 107 285 51
f 51 285 55
f 243 286 160
f 160 286 96
f 234 237 89
f 89 237 90
f 46 132 107
f 107 132 285
f 253 252 249
f 249 252 250
f 286 26 96
f 96 26 25
f 106 105 287
f 287 105 288
f 272 152 289
f 289 152 229
f 138 151 139
f 139 151 133
f 183 290 161
f 161 290 162
f 291 292 277
f 277 292 293
f 151 150 133
f 133 150 94
f 262 275 177
f 177 275 187
f 144 187 145
f 145 187 275
f 273 57 284
f 284 57 87
f 174 136 190
f 190 136 135
f 111 117 112
f 112 117 38
f 117 119 38
f 38 119 123
f 112 38 265
f 265 38 37
f 287 288 254
f 254 288 251
f 228 159 231
f 231 159 15
f 223 227 226
f 226 227 214
f 147 67 148
f 148 67 269
f 224 168 281
f 281 168 167
f 199 163 200
f 200 163 162
f 45 46 108
f 108 46 107
f 281 167 48
f 48 167 49
f 161 164 291
f 291 164 292
f 38 123 39
f 293 294 277
f 277 294 248
f 284 283 296
f 296 283 295
f 284 296 273
f 273 296 297
f 274 273 298
f 298 273 297
f 246 274 299
f 299 274 298
f 283 222 295
f 295 222 300
f 222 225 300
f 300 225 301
f 301 225 302
f 302 225 282
f 303 304 300
f 300 304 295
f 306 307 305
f 305 307 308
f 309 310 308
f 308 310 305
f 308 307 312
f 312 307 311
f 313 314 312
f 312 314 315
f 311 316 312
f 312 316 313
f 317 304 311
f 311 304 316
f 315 309 312
f 312 309 308
f 318 319 321
f 321 319 320
f 319 318 309
f 309 318 310
f 311 307 317
f 317 307 306
f 306 297 317
f 317 297 296
f 306 322 297
f 297 322 298
f 305 323 306
f 306 323 322
f 323 305 324
f 324 305 310
f 304 317 295
f 295 317 296
f 318 325 310
f 310 325 324
f 323 324 326
f 326 324 327
f 324 325 327
f 327 325 328
f 326 327 329
f 329 327 330
f 329 331 326
f 326 331 332
f 333 330 328
f 328 330 327
f 323 326 322
f 322 326 332
f 322 332 298
f 298 332 299
f 325 318 334
f 334 318 321
f 313 316 335
f 335 316 304
f 335 336 313
f 313 336 314
f 304 303 335
f 335 303 337
f 336 335 338
f 338 335 337
f 336 339 314
f 314 339 340
f 246 299 238
f 238 299 341
f 239 342 282
f 282 342 302
f 342 239 341
f 341 239 238
f 341 331 342
f 342 331 343
f 331 329 343
f 343 329 344
f 342 343 302
f 302 343 345
f 341 299 331
f 331 299 332
f 346 301 345
f 345 301 302
f 346 303 301
f 301 303 300
f 347 337 346
f 346 337 303
f 347 346 348
f 348 346 345
f 349 347 350
f 350 347 348
f 343 344 345
f 345 344 348
f 344 351 348
f 348 351 350
f 337 347 338
f 338 347 349
f 353 338 352
f 352 338 349
f 352 355 354
f 354 355 356
f 352 349 355
f 355 349 350
f 352 354 353
f 353 354 334
f 353 334 339
f 339 334 321
f 339 336 353
f 353 336 338
f 329 330 344
f 344 330 351
f 356 351 333
f 333 351 330
f 356 355 351
f 351 355 350
f 354 356 328
f 328 356 333
f 328 325 354
f 354 325 334
f 309 315 319
f 319 315 320
f 320 340 321
f 321 340 339
f 320 315 340
f 340 315 314
f 137 136 261
f 261 136 259
f 140 166 141
f 141 166 165
f 172 171 195
f 195 171 196
f 171 174 196
f 196 174 190
f 178 177 264
f 264 177 187
f 172 195 140
f 140 195 166
f 137 261 262
f 262 261 275
f 178 264 141
f 141 264 138
f 262 177 213
f 213 177 176
f 136 174 259
f 259 174 173
f 358 359 357
f 357 359 360
f 362 363 361
f 361 363 364
f 361 364 365
f 365 364 366
f 367 368 370
f 370 368 369
f 76 371 247
f 247 371 372
f 373 374 362
f 362 374 363
f 376 377 375
f 375 377 378
f 289 229 380
f 380 229 379
f 381 379 263
f 263 379 229
f 383 384 382
f 382 384 385
f 386 368 374
f 374 368 363
f 76 289 371
f 371 289 380
f 377 376 359
f 359 376 387
f 388 386 360
f 360 386 374
f 389 383 366
f 366 383 390
f 392 393 391
f 391 393 394
f 383 382 390
f 390 382 395
f 396 365 390
f 390 365 366
f 389 366 367
f 367 366 364
f 357 397 358
f 358 397 398
f 373 399 357
f 357 399 397
f 389 367 400
f 400 367 370
f 382 385 375
f 375 385 372
f 357 360 373
f 373 360 374
f 361 401 362
f 362 401 402
f 387 388 359
f 359 388 360
f 363 368 364
f 364 368 367
f 358 398 403
f 403 398 404
f 396 392 405
f 405 392 391
f 392 395 393
f 393 395 378
f 393 403 394
f 394 403 404
f 375 378 382
f 382 378 395
f 365 396 406
f 406 396 405
f 362 402 373
f 373 402 399
f 271 270 400
f 400 270 384
f 401 361 406
f 406 361 365
f 381 369 386
f 386 369 368
f 392 396 395
f 395 396 390
f 393 378 403
f 403 378 377
f 403 377 358
f 358 377 359
f 406 405 408
f 408 405 407
f 406 408 401
f 401 408 409
f 401 409 402
f 402 409 410
f 402 410 399
f 399 410 411
f 405 391 407
f 407 391 412
f 391 394 412
f 412 394 413
f 394 404 413
f 413 404 414
f 415 416 412
f 412 416 407
f 418 419 417
f 417 419 420
f 421 422 418
f 418 422 419
f 419 422 424
f 424 422 423
f 425 426 424
f 424 426 427
f 423 428 424
f 424 428 425
f 427 420 424
f 424 420 419
f 420 429 417
f 417 429 430
f 423 422 431
f 431 422 421
f 421 409 431
f 431 409 408
f 421 432 409
f 409 432 410
f 418 433 421
f 421 433 432
f 434 433 417
f 417 433 418
f 431 416 423
f 423 416 428
f 416 431 407
f 407 431 408
f 435 434 430
f 430 434 417
f 433 434 436
f 436 434 437
f 434 435 437
f 437 435 438
f 436 437 439
f 439 437 440
f 439 441 436
f 436 441 442
f 438 443 437
f 437 443 440
f 436 442 433
f 433 442 432
f 432 442 410
f 410 442 411
f 435 430 445
f 445 430 444
f 430 429 444
f 444 429 446
f 425 428 447
f 447 428 416
f 426 425 448
f 448 425 447
f 416 415 447
f 447 415 449
f 447 449 448
f 448 449 450
f 451 452 448
f 448 452 426
f 446 452 444
f 444 452 451
f 399 411 397
f 397 411 453
f 398 454 404
f 404 454 414
f 454 398 453
f 453 398 397
f 453 441 454
f 454 441 455
f 441 439 455
f 455 439 456
f 454 455 414
f 414 455 457
f 441 453 442
f 442 453 411
f 458 413 457
f 457 413 414
f 458 415 413
f 413 415 412
f 458 459 415
f 415 459 449
f 459 458 460
f 460 458 457
f 461 459 462
f 462 459 460
f 455 456 457
f 457 456 460
f 456 463 460
f 460 463 462
f 459 461 449
f 449 461 450
f 465 450 464
f 464 450 461
f 464 467 466
f 466 467 468
f 464 461 467
f 467 461 462
f 464 466 465
f 465 466 445
f 465 445 451
f 451 445 444
f 451 448 465
f 465 448 450
f 439 440 456
f 456 440 463
f 468 463 443
f 443 463 440
f 468 467 463
f 463 467 462
f 466 468 438
f 438 468 443
f 438 435 466
f 466 435 445
f 420 427 429
f 429 427 446
f 446 427 452
f 452 427 426
f 370 369 188
f 188 369 186
f 371 376 372
f 372 376 375
f 380 379 387
f 387 379 388
f 379 381 388
f 388 381 386
f 385 384 278
f 278 384 270
f 380 387 371
f 371 387 376
f 400 370 271
f 271 370 188
f 385 278 372
f 372 278 247
f 400 384 389
f 389 384 383
f 369 381 186
f 186 381 263
f 221 271 144
f 144 271 188
f 221 19 207
f 207 19 22
f 19 18 22
f 22 18 23
f 18 219 23
f 23 219 208
f 469 470 472
f 472 470 471
f 474 475 473
f 473 475 476
f 473 476 477
f 477 476 478
f 480 481 479
f 479 481 482
f 483 484 474
f 474 484 475
f 486 487 485
f 485 487 488
f 489 490 77
f 77 490 142
f 491 489 248
f 248 489 77
f 493 494 492
f 492 494 495
f 496 480 484
f 484 480 475
f 486 497 487
f 487 497 471
f 498 496 472
f 472 496 484
f 499 493 478
f 478 493 500
f 501 502 504
f 504 502 503
f 493 492 500
f 500 492 505
f 506 477 500
f 500 477 478
f 499 478 479
f 479 478 476
f 469 507 470
f 470 507 508
f 483 509 469
f 469 509 507
f 479 482 499
f 499 482 510
f 492 495 485
f 485 495 511
f 483 469 484
f 484 469 472
f 473 512 474
f 474 512 513
f 497 498 471
f 471 498 472
f 475 480 476
f 476 480 479
f 470 508 514
f 514 508 515
f 506 502 516
f 516 502 501
f 503 502 488
f 488 502 505
f 514 515 503
f 503 515 504
f 485 488 492
f 492 488 505
f 477 506 517
f 517 506 516
f 474 513 483
f 483 513 509
f 510 292 494
f 494 292 164
f 512 473 517
f 517 473 477
f 491 481 496
f 496 481 480
f 502 506 505
f 505 506 500
f 503 488 514
f 514 488 487
f 514 487 470
f 470 487 471
f 517 516 519
f 519 516 518
f 517 519 512
f 512 519 520
f 512 520 513
f 513 520 521
f 513 521 509
f 509 521 522
f 516 501 518
f 518 501 523
f 501 504 523
f 523 504 524
f 524 504 525
f 525 504 515
f 526 527 523
f 523 527 518
f 529 530 528
f 528 530 531
f 532 533 529
f 529 533 530
f 530 533 535
f 535 533 534
f 536 537 535
f 535 537 538
f 534 539 535
f 535 539 536
f 538 531 535
f 535 531 530
f 540 541 531
f 531 541 528
f 533 532 534
f 534 532 542
f 532 520 542
f 542 520 519
f 532 543 520
f 520 543 521
f 529 544 532
f 532 544 543
f 544 529 545
f 545 529 528
f 534 542 539
f 539 542 527
f 527 542 518
f 518 542 519
f 541 546 528
f 528 546 545
f 547 544 548
f 548 544 545
f 546 549 545
f 545 549 548
f 550 547 551
f 551 547 548
f 547 550 553
f 553 550 552
f 549 554 548
f 548 554 551
f 544 547 543
f 543 547 553
f 543 553 521
f 521 553 522
f 546 541 556
f 556 541 555
f 541 540 555
f 555 540 557
f 536 539 558
f 558 539 527
f 537 536 559
f 559 536 558
f 527 526 558
f 558 526 560
f 559 558 561
f 561 558 560
f 559 562 537
f 537 562 563
f 557 563 555
f 555 563 562
f 509 522 507
f 507 522 564
f 508 565 515
f 515 565 525
f 565 508 564
f 564 508 507
f 564 552 565
f 565 552 566
f 552 550 566
f 566 550 567
f 565 566 525
f 525 566 568
f 564 522 552
f 552 522 553
f 569 524 568
f 568 524 525
f 569 526 524
f 524 526 523
f 570 560 569
f 569 560 526
f 570 569 571
f 571 569 568
f 572 570 573
f 573 570 571
f 566 567 568
f 568 567 571
f 567 574 571
f 571 574 573
f 570 572 560
f 560 572 561
f 576 561 575
f 575 561 572
f 575 578 577
f 577 578 579
f 575 572 578
f 578 572 573
f 575 577 576
f 576 577 556
f 576 556 562
f 562 556 555
f 562 559 576
f 576 559 561
f 550 551 567
f 567 551 574
f 579 574 554
f 554 574 551
f 579 578 574
f 574 578 573
f 579 554 577
f 577 554 549
f 549 546 577
f 577 546 556
f 531 538 540
f 540 538 557
f 557 538 563
f 563 538 537
f 481 294 482
f 482 294 293
f 580 486 511
f 511 486 485
f 490 489 497
f 497 489 498
f 489 491 498
f 498 491 496
f 163 495 164
f 164 495 494
f 580 490 486
f 486 490 497
f 482 293 510
f 510 293 292
f 495 163 511
f 511 163 199
f 494 493 510
f 510 493 499
f 481 491 294
f 294 491 248
f 582 583 581
f 581 583 584
f 586 587 585
f 585 587 588
f 585 588 589
f 589 588 590
f 592 593 591
f 591 593 594
f 595 596 598
f 598 596 597
f 599 600 586
f 586 600 587
f 601 602 604
f 604 602 603
f 605 606 608
f 608 606 607
f 609 607 200
f 200 607 606
f 610 611 613
f 613 611 612
f 600 614 587
f 587 614 592
f 596 605 597
f 597 605 608
f 602 615 603
f 603 615 583
f 616 614 584
f 584 614 600
f 611 618 617
f 617 618 590
f 620 621 619
f 619 621 622
f 610 623 611
f 611 623 618
f 624 589 618
f 618 589 590
f 617 590 591
f 591 590 588
f 581 625 582
f 582 625 626
f 599 627 581
f 581 627 625
f 591 594 617
f 617 594 628
f 601 610 598
f 598 610 613
f 581 584 599
f 599 584 600
f 585 629 586
f 586 629 630
f 615 616 583
f 583 616 584
f 587 592 588
f 588 592 591
f 582 626 631
f 631 626 632
f 624 620 633
f 633 620 619
f 621 620 604
f 604 620 623
f 631 632 621
f 621 632 622
f 610 601 623
f 623 601 604
f 589 624 634
f 634 624 633
f 586 630 599
f 599 630 627
f 203 202 628
f 628 202 612
f 629 585 634
f 634 585 589
f 609 593 614
f 614 593 592
f 620 624 623
f 623 624 618
f 631 621 603
f 603 621 604
f 582 631 583
f 583 631 603
f 634 633 636
f 636 633 635
f 634 636 629
f 629 636 637
f 629 637 630
f 630 637 638
f 630 638 627
f 627 638 639
f 633 619 635
f 635 619 640
f 619 622 640
f 640 622 641
f 641 622 642
f 642 622 632
f 644 635 643
f 643 635 640
f 645 646 648
f 648 646 647
f 649 650 646
f 646 650 647
f 647 650 652
f 652 650 651
f 652 653 655
f 655 653 654
f 651 656 652
f 652 656 653
f 655 648 652
f 652 648 647
f 648 657 645
f 645 657 658
f 650 649 651
f 651 649 659
f 649 637 659
f 659 637 636
f 649 660 637
f 637 660 638
f 661 660 646
f 646 660 649
f 662 661 645
f 645 661 646
f 651 659 656
f 656 659 644
f 644 659 635
f 635 659 636
f 663 662 658
f 658 662 645
f 664 661 665
f 665 661 662
f 663 666 662
f 662 666 665
f 667 664 668
f 668 664 665
f 664 667 670
f 670 667 669
f 666 671 665
f 665 671 668
f 661 664 660
f 660 664 670
f 660 670 638
f 638 670 639
f 658 672 663
f 663 672 673
f 658 657 672
f 672 657 674
f 653 656 675
f 675 656 644
f 653 675 654
f 654 675 676
f 675 644 677
f 677 644 643
f 676 675 678
f 678 675 677
f 679 680 676
f 676 680 654
f 674 680 672
f 672 680 679
f 627 639 625
f 625 639 681
f 626 682 632
f 632 682 642
f 681 682 625
f 625 682 626
f 669 683 681
f 681 683 682
f 667 684 669
f 669 684 683
f 682 683 642
f 642 683 685
f 681 639 669
f 669 639 670
f 686 641 685
f 685 641 642
f 641 686 640
f 640 686 643
f 686 687 643
f 643 687 677
f 687 686 688
f 688 686 685
f 689 687 690
f 690 687 688
f 683 684 685
f 685 684 688
f 684 691 688
f 688 691 690
f 687 689 677
f 677 689 678
f 693 678 692
f 692 678 689
f 692 695 694
f 694 695 696
f 692 689 695
f 695 689 690
f 692 694 693
f 693 694 673
f 693 673 679
f 679 673 672
f 679 676 693
f 693 676 678
f 684 667 691
f 691 667 668
f 696 691 671
f 671 691 668
f 696 695 691
f 691 695 690
f 694 696 666
f 666 696 671
f 666 663 694
f 694 663 673
f 648 655 657
f 657 655 674
f 674 655 680
f 680 655 654
f 593 162 594
f 594 162 290
f 598 597 601
f 601 597 602
f 615 608 616
f 616 608 607
f 607 609 616
f 616 609 614
f 697 595 613
f 613 595 598
f 597 608 602
f 602 608 615
f 594 290 628
f 628 290 203
f 628 612 617
f 617 612 611
f 593 609 162
f 162 609 200
f 105 29 698
f 698 29 699
f 268 126 701
f 701 126 700
f 126 125 700
f 700 125 702
f 252 703 250
f 250 703 704
f 32 268 705
f 705 268 701
f 288 105 706
f 706 105 698
f 29 32 699
f 699 32 705
f 707 251 706
f 706 251 288
f 250 704 125
f 125 704 702
f 703 252 707
f 707 252 251
f 706 708 707
f 707 708 709
f 707 709 703
f 703 709 710
f 703 710 704
f 704 710 711
f 704 711 702
f 702 711 712
f 706 698 708
f 708 698 713
f 698 699 713
f 713 699 714
f 699 705 714
f 714 705 715
f 717 708 716
f 716 708 713
f 719 720 718
f 718 720 721
f 722 723 719
f 719 723 720
f 724 725 723
f 723 725 720
f 724 726 725
f 725 726 727
f 728 721 725
f 725 721 720
f 721 728 729
f 729 728 730
f 729 731 721
f 721 731 718
f 724 723 732
f 732 723 722
f 722 710 732
f 732 710 709
f 722 733 710
f 710 733 711
f 719 734 722
f 722 734 733
f 734 719 735
f 735 719 718
f 724 732 726
f 726 732 717
f 717 732 708
f 708 732 709
f 731 736 718
f 718 736 735
f 737 734 738
f 738 734 735
f 736 739 735
f 735 739 738
f 740 737 741
f 741 737 738
f 737 740 743
f 743 740 742
f 739 744 738
f 738 744 741
f 734 737 733
f 733 737 743
f 733 743 711
f 711 743 712
f 736 731 746
f 746 731 745
f 731 729 745
f 745 729 730
f 727 726 747
f 747 726 717
f 748 727 749
f 749 727 747
f 747 717 750
f 750 717 716
f 749 747 751
f 751 747 750
f 749 752 748
f 748 752 753
f 730 753 745
f 745 753 752
f 728 725 748
f 748 725 727
f 730 728 753
f 753 728 748
f 700 702 754
f 754 702 712
f 705 701 715
f 715 701 755
f 754 755 700
f 700 755 701
f 742 756 754
f 754 756 755
f 740 757 742
f 742 757 756
f 755 756 715
f 715 756 758
f 754 712 742
f 742 712 743
f 759 714 758
f 758 714 715
f 714 759 713
f 713 759 716
f 759 760 716
f 716 760 750
f 760 759 761
f 761 759 758
f 762 760 763
f 763 760 761
f 756 757 758
f 758 757 761
f 757 764 761
f 761 764 763
f 760 762 750
f 750 762 751
f 766 751 765
f 765 751 762
f 767 765 769
f 769 765 768
f 765 762 768
f 768 762 763
f 765 767 766
f 766 767 746
f 766 746 752
f 752 746 745
f 752 749 766
f 766 749 751
f 757 740 764
f 764 740 741
f 769 764 744
f 744 764 741
f 769 768 764
f 764 768 763
f 767 769 739
f 739 769 744
f 739 736 767
f 767 736 746
f 219 217 208
f 208 217 209
f 209 217 210
f 210 217 193
f 198 580 199
f 199 580 511
f 76 75 289
f 289 75 272
f 277 207 291
f 291 207 184
f 290 183 203
f 203 183 84
f 490 580 142
f 142 580 198
f 142 198 143
f 143 198 197
f 149 276 72
f 72 276 73
f 104 103 279
f 279 103 770
f 770 596 279
f 279 596 595
f 605 596 771
f 771 596 770
f 771 770 772
f 772 770 103
f 772 103 773
f 773 103 102
f 155 774 101
f 101 774 102
f 773 102 97
f 97 102 774
f 775 773 100
f 100 773 97
f 773 775 772
f 772 775 776
f 772 776 771
f 771 776 777
f 200 606 197
f 197 606 777
f 189 71 778
f 778 71 74
f 97 774 98
f 98 774 155
f 183 161 184
f 184 161 291
f 777 276 197
f 197 276 143
f 777 606 771
f 771 606 605
f 613 612 697
f 697 612 202
f 595 697 279
f 279 697 202
f 73 276 776
f 776 276 777
f 776 775 73
f 73 775 74
f 100 778 775
f 775 778 74
f 778 100 189
f 189 100 99
f 245 242 99
f 99 242 189
f 131 33 256
f 28 1 95
f 95 1 62
f 27 2 28
f 28 2 1
f 265 115 266
f 266 115 114
f 95 62 69
f 69 62 64
f 62 61 64
f 64 61 65
f 61 13 65
f 65 13 130
f 13 12 130
f 130 12 14
f 31 11 32
f 32 11 268
f 15 12 31
f 31 12 11
f 31 30 15
f 15 30 231
f 30 106 231
f 231 106 232
f 287 237 106
f 106 237 232
f 254 90 287
f 287 90 237
f 253 44 254
f 254 44 90
f 253 249 44
f 44 249 7
f 267 127 268
f 268 127 126
f 10 3 241
f 241 3 116
f 3 2 116
f 116 2 114
f 2 27 114
f 114 27 266
f 27 26 266
f 266 26 113
f 26 286 113
f 113 286 110
f 286 243 110
f 110 243 255
f 243 242 255
f 255 242 256
f 242 245 256
f 256 245 131
f 245 244 131
f 131 244 132
f 265 37 115
f 115 37 41
f 41 37 42
f 42 37 40
f 92 91 40
f 40 91 42
f 236 233 92
f 92 233 91
f 191 194 236
f 236 194 233
f 258 285 244
f 244 285 132
f 257 55 258
f 258 55 285
f 257 154 201
f 201 154 185
f 56 201 204
f 204 201 180
f 55 257 56
f 56 257 201
f 204 85 56
f 56 85 52
f 86 122 53
f 53 122 79
f 212 215 86
f 86 215 122
f 211 216 212
f 212 216 215
f 192 280 211
f 211 280 216
f 191 240 192
f 192 240 280
f 249 124 7
f 7 124 8
f 124 127 8
f 8 127 241
f 127 267 241
f 241 267 10
f 10 267 9
f 9 267 11
