o gt
v 0.021620 0.027676 0.559559
v 0.014767 0.030839 0.552433
v 0.015041 0.021413 0.557156
v 0.022168 0.018900 0.563139
v -0.000990 0.020415 0.543423
v -0.001674 0.014384 0.535313
v 0.001378 0.004861 0.549126
v 0.000970 0.010215 0.555687
v 0.023126 0.011535 0.568651
v 0.013934 0.012720 0.565149
v 0.027371 0.007233 0.569318
v 0.038428 0.009331 0.568283
v 0.032066 0.010590 0.570118
v 0.043974 0.010180 0.571934
v 0.043213 0.011440 0.560831
v 0.050179 0.016093 0.569955
v 0.050586 0.038734 0.557935
v 0.047113 0.050998 0.559919
v 0.051518 0.047623 0.573488
v 0.053944 0.035980 0.570674
v 0.042090 0.063891 0.573146
v 0.047184 0.055086 0.573908
v 0.043917 0.058373 0.560032
v 0.039814 0.065872 0.559398
v 0.017817 0.042097 0.556502
v 0.011872 0.046027 0.549379
v 0.013818 0.040316 0.549824
v 0.019304 0.036734 0.556271
v 0.026846 -0.001386 0.561097
v 0.031174 0.004195 0.553499
v 0.032134 0.006043 0.560926
v 0.024954 -0.001227 0.566210
v -0.003398 0.057250 0.533411
v -0.001971 0.060867 0.521177
v 0.000276 0.055417 0.519898
v -0.002328 0.053429 0.531068
v 0.000973 0.031075 0.521232
v 0.003514 0.038098 0.513734
v 0.011226 0.032808 0.504638
v 0.010651 0.026412 0.512822
v -0.001827 0.022221 0.528674
v 0.005550 0.017572 0.520684
v 0.005106 0.009137 0.528962
v 0.007037 0.001811 0.542425
v -0.003534 0.072906 0.523854
v -0.004212 0.071967 0.533329
v 0.046562 -0.002352 0.611473
v 0.045689 0.001838 0.614698
v 0.045408 0.003520 0.610535
v 0.046108 -0.000497 0.607902
v 0.010067 0.086128 0.530816
v 0.019801 0.087766 0.529775
v 0.015863 0.089843 0.524545
v 0.006655 0.086920 0.524410
v 0.014698 0.082532 0.538854
v 0.024547 0.082658 0.536569
v 0.056491 -0.004039 0.611337
v 0.052931 -0.005784 0.610353
v 0.053613 -0.003518 0.606245
v 0.056894 -0.001128 0.606954
v 0.027131 0.015953 0.569098
v 0.024947 0.024183 0.567026
v 0.036103 0.014554 0.585105
v 0.031740 0.019031 0.577474
v 0.033845 0.014044 0.574803
v 0.038227 0.010908 0.580840
v 0.024472 0.039089 0.576281
v 0.021618 0.042251 0.565984
v 0.024198 0.036593 0.566459
v 0.026614 0.031437 0.577562
v 0.016500 0.054009 0.567184
v 0.019974 0.049768 0.577134
v 0.017206 0.057129 0.576270
v 0.014680 0.059141 0.569519
v 0.029067 0.041108 0.593345
v 0.033202 0.038744 0.600158
v 0.031796 0.040380 0.600664
v 0.027541 0.043912 0.592932
v 0.013335 0.090580 0.518652
v 0.005040 0.085697 0.518114
v 0.032104 0.078728 0.572649
v 0.023507 0.080198 0.569833
v 0.022593 0.079634 0.581491
v 0.032432 0.077243 0.581384
v 0.028683 0.082284 0.528198
v 0.025640 0.087141 0.523424
v 0.058511 -0.000349 0.613782
v 0.058988 0.002814 0.609299
v 0.018364 0.010544 0.524751
v 0.015877 0.001462 0.538513
v 0.019892 0.020331 0.515282
v 0.022704 0.028166 0.508415
v 0.022935 0.032915 0.502452
v 0.031551 0.022566 0.582281
v 0.023541 0.032073 0.563230
v 0.015812 0.046278 0.556939
v 0.005620 0.069902 0.564391
v 0.001366 0.071378 0.556372
v 0.004748 0.063174 0.557467
v 0.008609 0.063855 0.563943
v 0.014004 0.078381 0.571024
v 0.010546 0.073948 0.572179
v 0.013092 0.071785 0.578413
v 0.015777 0.076905 0.579327
v 0.026740 -0.005036 0.555480
v 0.030092 0.002803 0.547507
v 0.001023 0.081157 0.531487
v -0.000566 0.080235 0.524481
v 0.000110 0.080146 0.516755
v 0.003293 0.050903 0.540902
v -0.001984 0.050952 0.529307
v -0.002254 0.047017 0.529324
v 0.003808 0.048658 0.540855
v 0.006007 0.033000 0.545222
v -0.001754 0.032315 0.536221
v 0.005864 0.023134 0.551778
v 0.001505 0.048105 0.516172
v -0.000660 0.056361 0.510430
v 0.002011 0.048484 0.507620
v -0.001938 0.065563 0.512546
v -0.001847 0.073912 0.514953
v 0.024224 0.089992 0.516777
v 0.005682 0.041499 0.505569
v 0.003546 0.001252 0.562650
v 0.008121 -0.005176 0.565261
v 0.012756 -0.002159 0.570086
v 0.008397 0.005382 0.568283
v 0.049145 0.009858 0.577540
v 0.042824 0.008436 0.579571
v 0.038097 0.009738 0.572435
v -0.000829 0.060884 0.542463
v -0.001696 0.071095 0.542641
v 0.036740 0.017867 0.590146
v 0.057983 0.001302 0.603288
v 0.053964 -0.001442 0.602457
v 0.051706 0.005503 0.588559
v 0.056953 0.008466 0.590123
v 0.043411 0.020028 0.599442
v 0.039574 0.017130 0.594979
v 0.041299 0.017128 0.597203
v 0.044569 0.019767 0.601426
v 0.025877 0.046643 0.598276
v 0.022796 0.050028 0.591768
v 0.053758 0.031751 0.584622
v 0.057326 0.023873 0.577502
v 0.054386 0.026146 0.568261
v 0.022169 0.045379 0.575964
v 0.024730 0.043200 0.585406
v 0.023571 0.046902 0.585610
v 0.032991 0.024282 0.586232
v 0.037175 0.021402 0.593207
v 0.034499 0.025043 0.591313
v 0.030990 0.028618 0.585418
v 0.021000 0.081883 0.558364
v 0.010358 0.080847 0.560304
v 0.049193 -0.005086 0.610169
v 0.049288 -0.003099 0.606201
v 0.019312 0.048324 0.565953
v 0.049633 0.029108 0.557805
v 0.014021 0.050545 0.557326
v 0.034175 0.063560 0.592940
v 0.026730 0.061700 0.595467
v 0.027609 0.059379 0.600234
v 0.033626 0.061029 0.599326
v 0.048950 0.012981 0.611942
v 0.045810 0.009782 0.611010
v 0.045989 0.007801 0.613787
v 0.049492 0.010416 0.615203
v 0.039071 0.013577 0.591043
v 0.040740 0.009594 0.586865
v 0.041792 0.008393 0.591631
v 0.041230 0.012748 0.594886
v 0.045427 0.007190 0.584636
v 0.046165 0.005461 0.588744
v 0.054127 0.013375 0.610917
v 0.059390 0.010323 0.608038
v 0.057948 0.017833 0.597525
v 0.051845 0.019026 0.601759
v 0.038233 0.068392 0.545938
v 0.032690 0.076373 0.547054
v 0.035070 0.074485 0.560482
v 0.036908 0.072948 0.573532
v 0.036051 0.069123 0.585401
v 0.042722 0.062155 0.583441
v 0.030794 0.079187 0.559588
v 0.050461 0.025499 0.597372
v 0.054850 0.023896 0.590377
v 0.053770 0.028710 0.592068
v 0.011470 0.056903 0.558697
v 0.050014 -0.001547 0.602624
v 0.036445 0.044431 0.512679
v 0.037222 0.057590 0.516518
v 0.037960 0.052577 0.522593
v 0.036520 0.038780 0.518966
v 0.044690 0.004768 0.607811
v 0.045522 0.000650 0.604490
v 0.020037 0.054545 0.592965
v 0.022862 0.051390 0.599296
v 0.022173 0.054394 0.601298
v 0.017898 0.056012 0.595860
v 0.029350 0.080135 0.545999
v 0.016998 0.076343 0.588260
v 0.028124 0.075081 0.588886
v 0.030948 0.078490 0.535377
v 0.036283 0.071562 0.534602
v 0.035487 0.074614 0.526750
v 0.047851 0.050163 0.589043
v 0.040329 0.060938 0.547048
v 0.037565 0.064405 0.534942
v 0.036782 0.068119 0.525718
v 0.038719 0.071531 0.519145
v 0.035554 0.078121 0.521237
v 0.059744 0.005731 0.605849
v 0.058577 0.007378 0.612666
v 0.034430 0.081045 0.514347
v 0.038713 0.073497 0.512903
v 0.039058 0.055338 0.534665
v 0.042865 0.046395 0.533592
v 0.042817 0.053419 0.546340
v 0.046352 0.043731 0.546085
v 0.052606 0.043869 0.582567
v 0.055952 0.001464 0.626964
v 0.055481 0.007034 0.619374
v 0.050742 0.008087 0.619219
v 0.052911 0.002684 0.627544
v 0.054461 0.010304 0.614775
v 0.058302 0.004087 0.616780
v 0.044000 0.030798 0.546021
v 0.039720 0.023069 0.598835
v 0.038356 0.029492 0.530862
v 0.040354 0.014729 0.549762
v 0.034225 0.013279 0.539466
v 0.031628 0.027428 0.515924
v 0.029468 0.014811 0.525390
v 0.031341 0.038232 0.504046
v 0.032507 0.034058 0.510002
v 0.026095 0.005004 0.535183
v 0.047208 -0.004787 0.621271
v 0.046643 -0.000690 0.623822
v 0.036132 0.047783 0.506743
v 0.006067 0.013236 0.561512
v 0.007072 0.056654 0.550022
v 0.009131 0.052021 0.549527
v -0.000003 0.072814 0.551096
v 0.003231 0.062347 0.550602
v 0.049630 -0.008284 0.619283
v 0.038303 0.040347 0.603444
v 0.037488 0.041165 0.602105
v 0.004346 -0.001597 0.555407
v 0.007486 -0.007289 0.558652
v 0.017552 -0.010700 0.552263
v 0.011338 -0.010137 0.554591
v 0.009736 -0.003521 0.549103
v 0.016362 -0.003934 0.546292
v 0.002397 0.051866 0.541184
v 0.001616 0.055496 0.542189
v 0.017420 0.081997 0.547674
v 0.006641 0.080652 0.550915
v 0.051056 0.008420 0.583230
v 0.054570 0.015151 0.577203
v 0.056288 0.011981 0.583890
v 0.059429 0.013639 0.592086
v 0.046285 0.022861 0.601491
v 0.049365 0.021810 0.597836
v -0.003123 0.040563 0.533368
v 0.004726 0.041876 0.542277
v 0.015369 0.005653 0.568771
v 0.018950 -0.000396 0.570336
v 0.026973 0.035317 0.583790
v 0.050888 0.045240 0.596445
v 0.054971 0.039785 0.591794
v 0.030965 0.032885 0.591845
v 0.056452 -0.008619 0.620090
v 0.052651 -0.009370 0.619051
v 0.058084 0.018066 0.585592
v 0.019645 0.053327 0.584644
v 0.045563 0.049570 0.595961
v 0.045213 0.044323 0.601134
v 0.013487 0.074521 0.583668
v 0.037215 0.060540 0.509820
v 0.046606 0.006050 0.618198
v 0.047992 0.002444 0.625689
v 0.058233 -0.000601 0.624959
v 0.059106 -0.004443 0.621686
v 0.004003 0.079386 0.541480
v 0.010608 0.049633 0.549590
v 0.023324 -0.000118 0.544562
v 0.023570 -0.008265 0.552656
v 0.034938 0.031045 0.597640
v 0.029263 0.067251 0.592128
v 0.041758 0.059153 0.592360
v 0.041931 0.057999 0.600558
v 0.044882 0.051623 0.602457
v 0.042517 0.044856 0.603794
v 0.057135 -0.002123 0.628685
v 0.058513 -0.006299 0.625538
v 0.056730 -0.010529 0.624062
v 0.053199 -0.011348 0.623076
v 0.049937 -0.009182 0.622329
v 0.054537 -0.000516 0.630316
v 0.051481 0.000136 0.630803
v 0.047649 0.000479 0.627996
v 0.052506 -0.002627 0.633578
v 0.055122 -0.006060 0.634237
v 0.052537 -0.016878 0.633951
v 0.055581 -0.013830 0.630803
v 0.055029 -0.013791 0.632960
v 0.053403 -0.016122 0.636429
v 0.052126 -0.017946 0.640525
v 0.050999 -0.018838 0.638197
v 0.055937 -0.010014 0.632816
v 0.054532 -0.013082 0.637776
v 0.053459 -0.009838 0.638996
v 0.052391 -0.012535 0.643423
v 0.053439 -0.015507 0.642408
v 0.054527 -0.008291 0.635391
v 0.057066 -0.009133 0.631165
v 0.050070 -0.019331 0.642067
v 0.051508 -0.018769 0.643262
v 0.051889 -0.016852 0.644849
v 0.049372 -0.017613 0.646137
v 0.052902 -0.013583 0.626691
v 0.050840 -0.017110 0.633063
v 0.048736 -0.018376 0.637606
v 0.047984 -0.018570 0.641374
v 0.048082 -0.015920 0.633719
v 0.046961 -0.016838 0.637384
v 0.046067 -0.016681 0.640635
v 0.045561 -0.013668 0.634553
v 0.045194 -0.014898 0.637912
v 0.046870 -0.008737 0.625296
v 0.049566 -0.011460 0.624703
v 0.044897 -0.015584 0.639987
v 0.047883 -0.016546 0.645333
v 0.051687 -0.007169 0.638150
v 0.049543 -0.011024 0.642843
v 0.050114 -0.006248 0.637941
v 0.047956 -0.010057 0.642472
v 0.048998 -0.013675 0.646282
v 0.051268 -0.014300 0.645202
v 0.047715 -0.005585 0.623170
v 0.046973 -0.001526 0.625527
v 0.045536 -0.003994 0.627342
v 0.044241 -0.010357 0.635703
v 0.046202 -0.001865 0.629804
v 0.049622 -0.002387 0.633652
v 0.047942 -0.006323 0.638270
v 0.045715 -0.007175 0.637575
v 0.046667 -0.009422 0.641900
v 0.045305 -0.010106 0.640698
v 0.044284 -0.012513 0.639176
v 0.045910 -0.012626 0.643574
v 0.047718 -0.013241 0.645017
v 0.045975 -0.015397 0.643309
v 0.045162 -0.012040 0.642410
v 0.045063 -0.014145 0.641620
v 0.050790 0.022860 0.627877
v 0.047858 0.028013 0.629847
v 0.047479 0.028788 0.625683
v 0.049615 0.024263 0.624591
v 0.062775 0.025825 0.625984
v 0.058325 0.022215 0.626071
v 0.058000 0.022834 0.622438
v 0.062444 0.028059 0.621337
v 0.062965 0.032421 0.625992
v 0.062523 0.034455 0.621111
v 0.062973 0.029022 0.617735
v 0.058267 0.024572 0.618816
v 0.053344 0.026145 0.602044
v 0.058726 0.031061 0.601095
v 0.037539 0.035434 0.604999
v 0.040469 0.038703 0.605929
v 0.053693 0.021429 0.626687
v 0.053441 0.022433 0.623097
v 0.047008 0.037266 0.622724
v 0.045378 0.033256 0.622747
v 0.046255 0.032471 0.626869
v 0.047821 0.036794 0.626570
v 0.043481 0.024610 0.602760
v 0.039509 0.030403 0.602968
v 0.048035 0.024091 0.602869
v 0.051215 0.040346 0.621985
v 0.056737 0.040928 0.620502
v 0.054210 0.043643 0.604250
v 0.047846 0.043122 0.606020
v 0.053674 0.023105 0.619675
v 0.046761 0.028857 0.622065
v 0.049370 0.024543 0.620774
v 0.062166 0.035304 0.618607
v 0.057372 0.039499 0.624442
v 0.055868 0.034633 0.641658
v 0.053419 0.038191 0.631674
v 0.049445 0.036110 0.631722
v 0.051910 0.033595 0.642691
v 0.051560 0.039211 0.626418
v 0.058662 0.037399 0.629575
v 0.051677 0.021449 0.640857
v 0.049310 0.026341 0.642574
v 0.054719 0.019269 0.639922
v 0.059370 0.038225 0.601653
v 0.062884 0.022524 0.637193
v 0.058264 0.019514 0.638554
v 0.046897 0.032488 0.631003
v 0.049436 0.030279 0.643284
v 0.059359 0.033641 0.640221
v 0.063363 0.028837 0.636831
v 0.060190 0.031199 0.644873
v 0.063238 0.026360 0.642733
v 0.062637 0.020292 0.642329
v 0.057835 0.018316 0.642336
v 0.054362 0.018577 0.642502
v 0.056478 0.032562 0.646104
v 0.052757 0.032064 0.646528
v 0.049678 0.029322 0.645205
v 0.054423 0.030143 0.651130
v 0.057948 0.028195 0.651596
v 0.052816 0.013579 0.657964
v 0.055799 0.015112 0.653629
v 0.056504 0.016868 0.654970
v 0.054117 0.015170 0.659222
v 0.059902 0.017634 0.650178
v 0.058951 0.018673 0.651932
v 0.059380 0.022613 0.651965
v 0.056827 0.020656 0.656592
v 0.055003 0.024636 0.656428
v 0.053065 0.023053 0.661119
v 0.054698 0.018978 0.661423
v 0.057481 0.025162 0.653186
v 0.052402 0.014906 0.662257
v 0.050277 0.014403 0.662345
v 0.061682 0.023426 0.649967
v 0.057302 0.016911 0.645795
v 0.053498 0.014396 0.652601
v 0.050141 0.013504 0.657317
v 0.047868 0.015022 0.662161
v 0.050103 0.015535 0.652375
v 0.047675 0.014716 0.657077
v 0.046289 0.016301 0.660935
v 0.046603 0.018028 0.652216
v 0.045000 0.017274 0.656985
v 0.050697 0.020807 0.644117
v 0.053504 0.017821 0.644285
v 0.045262 0.017435 0.659354
v 0.050197 0.017295 0.665655
v 0.047448 0.017740 0.664370
v 0.051743 0.017502 0.664329
v 0.053802 0.026051 0.656115
v 0.051122 0.023683 0.660919
v 0.051408 0.026985 0.655683
v 0.048772 0.024095 0.660858
v 0.049685 0.021168 0.664369
v 0.050920 0.020637 0.664141
v 0.051537 0.021158 0.642802
v 0.049498 0.025877 0.643944
v 0.048753 0.025415 0.644714
v 0.045426 0.022294 0.653026
v 0.049273 0.029014 0.646248
v 0.051655 0.030348 0.649806
v 0.049289 0.027560 0.655054
v 0.046609 0.025949 0.654338
v 0.047189 0.024853 0.660342
v 0.045651 0.024435 0.658180
v 0.044200 0.020771 0.657182
v 0.046466 0.021848 0.663129
v 0.048171 0.021401 0.664248
v 0.046139 0.018373 0.663067
v 0.045099 0.022426 0.661144
v 0.044829 0.019398 0.660631
v 0.029985 0.036265 0.623812
v 0.025380 0.039483 0.623238
v 0.026148 0.040527 0.620155
v 0.030436 0.037228 0.620579
v 0.037836 0.044424 0.628384
v 0.036559 0.039954 0.627799
v 0.037618 0.040826 0.624094
v 0.039509 0.045767 0.623801
v 0.035207 0.048630 0.629810
v 0.037336 0.050721 0.623657
v 0.041916 0.047341 0.619964
v 0.039254 0.041890 0.620344
v 0.041323 0.044503 0.607467
v 0.044429 0.050500 0.608262
v 0.033729 0.037379 0.625724
v 0.034384 0.038061 0.622351
v 0.022830 0.049270 0.618533
v 0.023167 0.045026 0.617873
v 0.022862 0.044734 0.620643
v 0.022736 0.048501 0.621216
v 0.032018 0.040605 0.603654
v 0.027877 0.045510 0.602514
v 0.037182 0.040646 0.606008
v 0.026473 0.053874 0.619787
v 0.033602 0.056267 0.619571
v 0.034171 0.060033 0.607700
v 0.028466 0.057432 0.606306
v 0.035773 0.038407 0.619511
v 0.026450 0.040567 0.617304
v 0.031183 0.037305 0.618174
v 0.039766 0.052433 0.619639
v 0.030954 0.053278 0.624082
v 0.022157 0.046492 0.640596
v 0.024698 0.051768 0.627021
v 0.021674 0.047801 0.624667
v 0.019537 0.044559 0.639065
v 0.024881 0.052298 0.623316
v 0.030030 0.052128 0.628907
v 0.025032 0.033038 0.636791
v 0.021088 0.036384 0.636307
v 0.028964 0.033332 0.637151
v 0.042084 0.057075 0.608355
v 0.024392 0.052809 0.603773
v 0.032748 0.037747 0.640226
v 0.031275 0.034643 0.638486
v 0.022213 0.043876 0.623628
v 0.018750 0.040954 0.637353
v 0.026482 0.046794 0.641138
v 0.031612 0.043312 0.640680
v 0.024180 0.044333 0.645149
v 0.028986 0.041078 0.644969
v 0.030304 0.035732 0.644003
v 0.029149 0.032902 0.641788
v 0.026938 0.031889 0.640074
v 0.020039 0.044112 0.644153
v 0.018063 0.042294 0.642274
v 0.018612 0.039962 0.638462
v 0.017729 0.041679 0.646235
v 0.020895 0.040477 0.649394
v 0.018707 0.025814 0.653525
v 0.022322 0.028715 0.650514
v 0.022082 0.029564 0.651211
v 0.018664 0.026924 0.654502
v 0.026249 0.032980 0.648574
v 0.024788 0.032978 0.649561
v 0.023829 0.036233 0.650206
v 0.020298 0.033230 0.653955
v 0.016417 0.036572 0.651581
v 0.014087 0.033432 0.654275
v 0.017166 0.030304 0.656498
v 0.020684 0.038637 0.650032
v 0.016290 0.026017 0.656282
v 0.016268 0.024682 0.656314
v 0.025408 0.037670 0.649452
v 0.026709 0.030609 0.645087
v 0.022026 0.027110 0.648667
v 0.018172 0.024470 0.651424
v 0.014839 0.023595 0.653464
v 0.019967 0.026702 0.646202
v 0.016795 0.024432 0.649302
v 0.013774 0.023795 0.651328
v 0.017750 0.027423 0.644799
v 0.015029 0.025484 0.647647
v 0.023017 0.031880 0.639778
v 0.025284 0.030500 0.641990
v 0.013190 0.024917 0.649739
v 0.013112 0.026800 0.657959
v 0.010857 0.025925 0.654922
v 0.014409 0.027657 0.657282
v 0.015465 0.037604 0.650534
v 0.011934 0.033424 0.653328
v 0.014068 0.037693 0.648872
v 0.010412 0.033801 0.651827
v 0.011140 0.030466 0.655934
v 0.012257 0.030552 0.656012
v 0.024111 0.032954 0.638384
v 0.020766 0.036237 0.637622
v 0.019944 0.035058 0.638755
v 0.014465 0.029906 0.643931
v 0.017776 0.038504 0.639494
v 0.016067 0.040011 0.644302
v 0.013125 0.036128 0.646946
v 0.012783 0.033325 0.645286
v 0.010047 0.032834 0.649829
v 0.010852 0.031607 0.647951
v 0.012211 0.027675 0.646756
v 0.009558 0.029726 0.651870
v 0.009778 0.030277 0.654293
v 0.010622 0.025880 0.652162
v 0.009977 0.029160 0.649870
v 0.011027 0.026345 0.649984
v 0.025310 0.049593 0.602695
v 0.002617 0.050859 0.609880
v 0.000034 0.052847 0.607508
v 0.000834 0.054049 0.606610
v 0.003867 0.051920 0.608238
v 0.005365 0.058027 0.616309
v 0.005105 0.054045 0.615224
v 0.007912 0.055193 0.613187
v 0.008446 0.058998 0.613880
v 0.003547 0.061764 0.615232
v 0.006317 0.062920 0.612555
v 0.011592 0.059142 0.611384
v 0.010650 0.055323 0.609967
v 0.020972 0.059981 0.599811
v 0.022533 0.065240 0.599956
v 0.008728 0.070982 0.588762
v 0.010090 0.065986 0.585614
v 0.005326 0.063252 0.593962
v 0.005520 0.068323 0.594580
v 0.004253 0.051564 0.612652
v 0.006570 0.052355 0.610681
v -0.002187 0.062940 0.603482
v -0.001742 0.058085 0.602821
v -0.001799 0.056582 0.605033
v -0.003772 0.060577 0.605199
v 0.011667 0.060790 0.587461
v 0.014659 0.058387 0.590377
v 0.012099 0.055794 0.593994
v 0.007336 0.058541 0.594873
v 0.017322 0.054407 0.597666
v -0.000501 0.066074 0.605602
v 0.004068 0.067340 0.608528
v 0.012563 0.075144 0.597328
v 0.008541 0.072744 0.595355
v 0.008170 0.052012 0.608631
v 0.001099 0.054945 0.604154
v 0.004133 0.052046 0.606059
v 0.009747 0.064559 0.611004
v 0.001562 0.065028 0.610233
v -0.009823 0.058446 0.612818
v -0.004382 0.063166 0.608564
v -0.004682 0.059377 0.606053
v -0.010104 0.056557 0.610936
v -0.002667 0.063989 0.607400
v -0.001467 0.063890 0.612462
v -0.003168 0.047844 0.613132
v -0.006363 0.050699 0.610412
v -0.001452 0.047986 0.615615
v 0.019953 0.071915 0.599428
v -0.001237 0.053041 0.620085
v -0.001048 0.049512 0.618359
v -0.002673 0.055432 0.606106
v -0.009046 0.053782 0.609693
v -0.007738 0.059173 0.616073
v -0.003481 0.057688 0.619295
v -0.010493 0.055931 0.618386
v -0.006047 0.054499 0.620970
v -0.003563 0.049585 0.620851
v -0.002842 0.047576 0.618349
v -0.003249 0.046730 0.615813
v -0.012078 0.055418 0.614917
v -0.011911 0.054135 0.612725
v -0.010052 0.052201 0.610833
v -0.014209 0.052239 0.616579
v -0.013377 0.050672 0.619969
v -0.012749 0.038320 0.620269
v -0.009826 0.041119 0.620075
v -0.010445 0.041689 0.621006
v -0.013078 0.038678 0.621198
v -0.007177 0.045453 0.620948
v -0.008646 0.045153 0.621154
v -0.009781 0.048134 0.621377
v -0.013132 0.044241 0.622370
v -0.016581 0.046254 0.619850
v -0.019108 0.043028 0.620702
v -0.015674 0.041600 0.622829
v -0.013314 0.048894 0.620497
v -0.015343 0.037381 0.621803
v -0.015858 0.036195 0.621492
v -0.008815 0.049861 0.621868
v -0.005127 0.044534 0.618118
v -0.009433 0.039773 0.618428
v -0.013325 0.036808 0.618943
v -0.016880 0.035703 0.619806
v -0.009244 0.040162 0.616221
v -0.013609 0.036737 0.617077
v -0.016878 0.035960 0.617723
v -0.010228 0.041307 0.613723
v -0.014158 0.037821 0.615230
v -0.006212 0.046009 0.612803
v -0.005266 0.044701 0.615387
v -0.016591 0.036921 0.616571
v -0.019163 0.037644 0.622459
v -0.019712 0.036886 0.619866
v -0.018169 0.038847 0.622893
v -0.017287 0.047016 0.619145
v -0.020347 0.043044 0.619799
v -0.017851 0.047512 0.617257
v -0.020663 0.042854 0.617857
v -0.021055 0.039982 0.620971
v -0.019832 0.040543 0.621774
v -0.004993 0.047015 0.613060
v -0.007339 0.049375 0.611182
v -0.008766 0.048399 0.611466
v -0.012478 0.043511 0.612361
v -0.011509 0.050970 0.611693
v -0.013435 0.052227 0.613954
v -0.017091 0.047068 0.615139
v -0.015563 0.045758 0.613214
v -0.020145 0.042058 0.616213
v -0.018299 0.041268 0.614461
v -0.015987 0.039502 0.613794
v -0.020259 0.038733 0.617523
v -0.021097 0.039080 0.619043
v -0.019143 0.037083 0.617892
v -0.019226 0.038687 0.616106
v -0.018036 0.037785 0.616156
v 0.010411 0.073111 0.591600
v 0.026184 -0.013819 0.564620
v 0.026505 -0.011099 0.568720
v 0.012786 -0.013195 0.575346
v 0.019087 -0.011759 0.576192
v 0.009256 -0.016179 0.570989
v 0.012754 -0.019692 0.561750
v 0.009425 -0.017859 0.565666
v 0.024048 -0.010981 0.573859
v 0.024180 -0.017014 0.560772
v 0.018217 -0.019639 0.558905
v 0.025498 -0.023256 0.565348
v 0.019350 -0.025328 0.563790
v 0.013685 -0.025210 0.566122
v 0.009888 -0.022358 0.569873
v 0.009477 -0.019823 0.573402
v 0.026433 -0.018220 0.569198
v 0.026119 -0.015300 0.573127
v 0.022814 -0.013338 0.577124
v 0.027435 -0.022745 0.575313
v 0.025024 -0.031578 0.578146
v 0.013908 -0.042311 0.584794
v 0.013175 -0.037327 0.580969
v 0.015298 -0.038572 0.580657
v 0.015666 -0.043523 0.583768
v 0.014348 -0.034365 0.577195
v 0.015895 -0.035938 0.577876
v 0.020083 -0.034817 0.577004
v 0.020688 -0.039518 0.579603
v 0.023819 -0.033878 0.579218
v 0.024881 -0.036435 0.581767
v 0.021523 -0.044093 0.582525
v 0.017575 -0.047135 0.585181
v 0.022015 -0.048198 0.586027
v 0.016149 -0.046176 0.587619
v 0.019986 -0.034103 0.575184
v 0.010589 -0.029326 0.575586
v 0.011156 -0.034649 0.581886
v 0.012466 -0.039890 0.586551
v 0.015758 -0.043951 0.589507
v 0.011082 -0.031555 0.584179
v 0.013400 -0.036464 0.588144
v 0.016786 -0.039483 0.590569
v 0.013176 -0.028499 0.586466
v 0.015734 -0.033798 0.589394
v 0.012021 -0.018439 0.578810
v 0.009294 -0.023569 0.576738
v 0.017513 -0.036972 0.590453
v 0.021737 -0.048053 0.588669
v 0.021333 -0.044914 0.591116
v 0.026630 -0.033429 0.582452
v 0.026104 -0.040842 0.584482
v 0.027112 -0.038262 0.586133
v 0.027381 -0.030094 0.583175
v 0.027437 -0.036352 0.587739
v 0.026048 -0.043763 0.588377
v 0.025354 -0.044868 0.585747
v 0.011627 -0.016063 0.576981
v 0.017154 -0.013712 0.577762
v 0.017299 -0.015804 0.579623
v 0.017939 -0.025435 0.587297
v 0.022352 -0.016283 0.579876
v 0.025988 -0.019424 0.578046
v 0.026400 -0.027615 0.584939
v 0.023352 -0.025558 0.586587
v 0.025635 -0.033983 0.589182
v 0.023246 -0.032609 0.589533
v 0.019156 -0.032633 0.590096
v 0.024037 -0.038191 0.591007
v 0.025810 -0.041230 0.590329
v 0.020747 -0.040330 0.591698
v 0.022639 -0.036106 0.590633
v 0.020137 -0.036943 0.590962
v 0.011812 0.069366 0.582138
v 0.012892 0.063601 0.582774
v 0.013377 0.067763 0.578373
v 0.009898 0.069142 0.571995
v 0.007080 0.074925 0.565677
v 0.012279 0.064273 0.570964
v 0.015063 0.062611 0.578372
v 0.016343 0.058344 0.585424
v 0.012243 0.060304 0.563394
f 2 3 1
f 1 3 4
f 5 6 8
f 8 6 7
f 9 4 10
f 10 4 3
f 12 13 11
f 11 13 9
f 14 12 16
f 16 12 15
f 18 19 17
f 17 19 20
f 22 23 21
f 21 23 24
f 26 27 25
f 25 27 28
f 30 31 29
f 29 31 32
f 33 34 36
f 36 34 35
f 37 38 40
f 40 38 39
f 41 42 6
f 6 42 43
f 6 43 7
f 7 43 44
f 45 34 46
f 46 34 33
f 48 49 47
f 47 49 50
f 52 53 51
f 51 53 54
f 56 52 55
f 55 52 51
f 58 59 57
f 57 59 60
f 61 62 4
f 4 62 1
f 64 65 63
f 63 65 66
f 68 69 67
f 67 69 70
f 72 73 71
f 71 73 74
f 76 77 75
f 75 77 78
f 53 79 54
f 54 79 80
f 82 83 81
f 81 83 84
f 85 86 52
f 52 86 53
f 57 60 87
f 87 60 88
f 89 90 43
f 43 90 44
f 43 42 89
f 89 42 91
f 40 39 92
f 92 39 93
f 94 70 64
f 64 70 69
f 13 61 9
f 9 61 4
f 25 28 69
f 69 28 95
f 96 25 68
f 68 25 69
f 98 99 97
f 97 99 100
f 101 102 104
f 104 102 103
f 106 30 105
f 105 30 29
f 51 54 107
f 107 54 108
f 54 80 108
f 108 80 109
f 111 112 110
f 110 112 113
f 115 5 114
f 114 5 116
f 115 41 5
f 5 41 6
f 36 35 111
f 111 35 117
f 35 118 117
f 117 118 119
f 34 120 35
f 35 120 118
f 34 45 120
f 120 45 121
f 125 126 124
f 124 126 127
f 128 129 14
f 14 129 130
f 33 131 46
f 46 131 132
f 133 94 63
f 63 94 64
f 134 135 137
f 137 135 136
f 139 140 138
f 138 140 141
f 77 142 78
f 78 142 143
f 144 145 20
f 20 145 146
f 148 149 147
f 147 149 72
f 151 152 150
f 150 152 153
f 82 101 83
f 83 101 104
f 101 82 155
f 155 82 154
f 156 157 58
f 58 157 59
f 158 68 147
f 147 68 67
f 159 146 15
f 15 146 16
f 68 158 96
f 96 158 160
f 129 66 130
f 130 66 65
f 162 163 161
f 161 163 164
f 166 167 165
f 165 167 168
f 170 171 169
f 169 171 172
f 174 171 173
f 173 171 170
f 176 177 175
f 175 177 178
f 180 181 179
f 179 181 24
f 182 183 21
f 21 183 184
f 81 185 82
f 82 185 154
f 186 187 188
f 188 187 144
f 158 71 160
f 160 71 189
f 190 135 157
f 157 135 59
f 169 172 139
f 139 172 140
f 147 72 158
f 158 72 71
f 192 193 191
f 191 193 194
f 167 166 49
f 49 166 195
f 196 190 50
f 50 190 157
f 197 198 200
f 200 198 199
f 21 24 182
f 182 24 181
f 146 159 20
f 20 159 17
f 182 181 81
f 81 181 185
f 201 185 180
f 180 185 181
f 202 203 83
f 83 203 84
f 205 206 204
f 204 206 85
f 207 22 184
f 184 22 21
f 179 24 208
f 208 24 23
f 208 209 179
f 179 209 205
f 209 210 205
f 205 210 206
f 212 206 211
f 211 206 210
f 179 205 180
f 180 205 204
f 213 176 88
f 88 176 214
f 86 85 212
f 212 85 206
f 193 217 218
f 217 219 218
f 218 219 220
f 219 18 220
f 220 18 17
f 19 221 20
f 20 221 144
f 222 223 225
f 225 223 224
f 175 226 176
f 176 226 214
f 227 87 214
f 214 87 88
f 220 17 228
f 228 17 159
f 134 213 60
f 60 213 88
f 138 229 151
f 151 229 152
f 193 192 210
f 210 192 211
f 230 194 218
f 218 194 193
f 231 232 228
f 228 232 230
f 233 234 91
f 91 234 89
f 235 236 93
f 93 236 92
f 230 232 234
f 234 232 237
f 47 238 48
f 48 238 239
f 240 191 235
f 235 191 236
f 5 8 116
f 116 8 241
f 242 243 189
f 189 243 160
f 244 245 98
f 98 245 99
f 156 246 47
f 47 246 238
f 76 247 77
f 77 247 248
f 250 125 249
f 249 125 124
f 252 253 251
f 251 253 254
f 111 110 36
f 36 110 255
f 256 33 255
f 255 33 36
f 257 258 154
f 154 258 155
f 63 169 133
f 133 169 139
f 66 170 63
f 63 170 169
f 173 170 129
f 129 170 66
f 129 128 173
f 173 128 259
f 128 260 259
f 259 260 261
f 213 134 262
f 262 134 137
f 263 264 186
f 186 264 187
f 112 265 113
f 113 265 266
f 11 267 268
f 234 233 230
f 230 233 194
f 153 269 70
f 70 269 67
f 175 178 165
f 165 178 141
f 150 153 94
f 94 153 70
f 271 221 270
f 270 221 207
f 269 153 272
f 272 153 152
f 121 45 109
f 109 45 108
f 47 50 156
f 156 50 157
f 57 273 58
f 58 273 274
f 145 275 260
f 260 275 261
f 276 149 143
f 143 149 78
f 148 269 75
f 75 269 272
f 207 277 270
f 270 277 278
f 195 196 49
f 49 196 50
f 59 135 60
f 60 135 134
f 83 104 202
f 202 104 279
f 149 148 78
f 78 148 75
f 247 278 248
f 248 278 277
f 183 182 84
f 84 182 81
f 48 239 281
f 281 239 282
f 227 223 283
f 283 223 222
f 223 226 224
f 224 226 168
f 281 282 224
f 224 282 225
f 165 168 175
f 175 168 226
f 264 263 138
f 138 263 229
f 14 16 128
f 128 16 260
f 220 228 218
f 218 228 230
f 87 227 284
f 284 227 283
f 260 16 145
f 145 16 146
f 244 98 258
f 258 98 155
f 58 274 156
f 156 274 246
f 107 285 51
f 51 285 55
f 243 286 160
f 160 286 96
f 234 237 89
f 89 237 90
f 46 132 107
f 107 132 285
f 253 252 249
f 249 252 250
f 286 26 96
f 96 26 25
f 106 105 287
f 287 105 288
f 272 152 289
f 289 152 229
f 138 151 139
f 139 151 133
f 183 290 161
f 161 290 162
f 291 292 277
f 277 292 293
f 151 150 133
f 133 150 94
f 262 275 177
f 177 275 187
f 144 187 145
f 145 187 275
f 273 57 284
f 284 57 87
f 174 136 190
f 190 136 135
f 111 117 112
f 112 117 38
f 117 119 38
f 38 119 123
f 112 38 265
f 265 38 37
f 287 288 254
f 254 288 251
f 228 159 231
f 231 159 15
f 223 227 226
f 226 227 214
f 147 67 148
f 148 67 269
f 224 168 281
f 281 168 167
f 199 163 200
f 200 163 162
f 45 46 108
f 108 46 107
f 281 167 48
f 48 167 49
f 161 164 291
f 291 164 292
f 38 123 39
f 293 294 277
f 277 294 248
f 284 283 296
f 296 283 295
f 284 296 273
f 273 296 297
f 274 273 298
f 298 273 297
f 246 274 299
f 299 274 298
f 283 222 295
f 295 222 300
f 222 225 300
f 300 225 301
f 301 225 302
f 302 225 282
f 303 304 300
f 300 304 295
f 306 307 305
f 305 307 308
f 309 310 308
f 308 310 305
f 308 307 312
f 312 307 311
f 313 314 312
f 312 314 315
f 311 316 312
f 312 316 313
f 317 304 311
f 311 304 316
f 315 309 312
f 312 309 308
f 318 319 321
f 321 319 320
f 319 318 309
f 309 318 310
f 311 307 317
f 317 307 306
f 306 297 317
f 317 297 296
f 306 322 297
f 297 322 298
f 305 323 306
f 306 323 322
f 323 305 324
f 324 305 310
f 304 317 295
f 295 317 296
f 318 325 310
f 310 325 324
f 323 324 326
f 326 324 327
f 324 325 327
f 327 325 328
f 326 327 329
f 329 327 330
f 329 331 326
f 326 331 332
f 333 330 328
f 328 330 327
f 323 326 322
f 322 326 332
f 322 332 298
f 298 332 299
f 325 318 334
f 334 318 321
f 313 316 335
f 335 316 304
f 335 336 313
f 313 336 314
f 304 303 335
f 335 303 337
f 336 335 338
f 338 335 337
f 336 339 314
f 314 339 340
f 246 299 238
f 238 299 341
f 239 342 282
f 282 342 302
f 342 239 341
f 341 239 238
f 341 331 342
f 342 331 343
f 331 329 343
f 343 329 344
f 342 343 302
f 302 343 345
f 341 299 331
f 331 299 332
f 346 301 345
f 345 301 302
f 346 303 301
f 301 303 300
f 347 337 346
f 346 337 303
f 347 346 348
f 348 346 345
f 349 347 350
f 350 347 348
f 343 344 345
f 345 344 348
f 344 351 348
f 348 351 350
f 337 347 338
f 338 347 349
f 353 338 352
f 352 338 349
f 352 355 354
f 354 355 356
f 352 349 355
f 355 349 350
f 352 354 353
f 353 354 334
f 353 334 339
f 339 334 321
f 339 336 353
f 353 336 338
f 329 330 344
f 344 330 351
f 356 351 333
f 333 351 330
f 356 355 351
f 351 355 350
f 354 356 328
f 328 356 333
f 328 325 354
f 354 325 334
f 309 315 319
f 319 315 320
f 320 340 321
f 321 340 339
f 320 315 340
f 340 315 314
f 137 136 261
f 261 136 259
f 140 166 141
f 141 166 165
f 172 171 195
f 195 171 196
f 171 174 196
f 196 174 190
f 178 177 264
f 264 177 187
f 172 195 140
f 140 195 166
f 137 261 262
f 262 261 275
f 178 264 141
f 141 264 138
f 262 177 213
f 213 177 176
f 136 174 259
f 259 174 173
f 358 359 357
f 357 359 360
f 362 363 361
f 361 363 364
f 361 364 365
f 365 364 366
f 367 368 370
f 370 368 369
f 76 371 247
f 247 371 372
f 373 374 362
f 362 374 363
f 376 377 375
f 375 377 378
f 289 229 380
f 380 229 379
f 381 379 263
f 263 379 229
f 383 384 382
f 382 384 385
f 386 368 374
f 374 368 363
f 76 289 371
f 371 289 380
f 377 376 359
f 359 376 387
f 388 386 360
f 360 386 374
f 389 383 366
f 366 383 390
f 392 393 391
f 391 393 394
f 383 382 390
f 390 382 395
f 396 365 390
f 390 365 366
f 389 366 367
f 367 366 364
f 357 397 358
f 358 397 398
f 373 399 357
f 357 399 397
f 389 367 400
f 400 367 370
f 382 385 375
f 375 385 372
f 357 360 373
f 373 360 374
f 361 401 362
f 362 401 402
f 387 388 359
f 359 388 360
f 363 368 364
f 364 368 367
f 358 398 403
f 403 398 404
f 396 392 405
f 405 392 391
f 392 395 393
f 393 395 378
f 393 403 394
f 394 403 404
f 375 378 382
f 382 378 395
f 365 396 406
f 406 396 405
f 362 402 373
f 373 402 399
f 271 270 400
f 400 270 384
f 401 361 406
f 406 361 365
f 381 369 386
f 386 369 368
f 392 396 395
f 395 396 390
f 393 378 403
f 403 378 377
f 403 377 358
f 358 377 359
f 406 405 408
f 408 405 407
f 406 408 401
f 401 408 409
f 401 409 402
f 402 409 410
f 402 410 399
f 399 410 411
f 405 391 407
f 407 391 412
f 391 394 412
f 412 394 413
f 394 404 413
f 413 404 414
f 415 416 412
f 412 416 407
f 418 419 417
f 417 419 420
f 421 422 418
f 418 422 419
f 419 422 424
f 424 422 423
f 425 426 424
f 424 426 427
f 423 428 424
f 424 428 425
f 427 420 424
f 424 420 419
f 420 429 417
f 417 429 430
f 423 422 431
f 431 422 421
f 421 409 431
f 431 409 408
f 421 432 409
f 409 432 410
f 418 433 421
f 421 433 432
f 434 433 417
f 417 433 418
f 431 416 423
f 423 416 428
f 416 431 407
f 407 431 408
f 435 434 430
f 430 434 417
f 433 434 436
f 436 434 437
f 434 435 437
f 437 435 438
f 436 437 439
f 439 437 440
f 439 441 436
f 436 441 442
f 438 443 437
f 437 443 440
f 436 442 433
f 433 442 432
f 432 442 410
f 410 442 411
f 435 430 445
f 445 430 444
f 430 429 444
f 444 429 446
f 425 428 447
f 447 428 416
f 426 425 448
f 448 425 447
f 416 415 447
f 447 415 449
f 447 449 448
f 448 449 450
f 451 452 448
f 448 452 426
f 446 452 444
f 444 452 451
f 399 411 397
f 397 411 453
f 398 454 404
f 404 454 414
f 454 398 453
f 453 398 397
f 453 441 454
f 454 441 455
f 441 439 455
f 455 439 456
f 454 455 414
f 414 455 457
f 441 453 442
f 442 453 411
f 458 413 457
f 457 413 414
f 458 415 413
f 413 415 412
f 458 459 415
f 415 459 449
f 459 458 460
f 460 458 457
f 461 459 462
f 462 459 460
f 455 456 457
f 457 456 460
f 456 463 460
f 460 463 462
f 459 461 449
f 449 461 450
f 465 450 464
f 464 450 461
f 464 467 466
f 466 467 468
f 464 461 467
f 467 461 462
f 464 466 465
f 465 466 445
f 465 445 451
f 451 445 444
f 451 448 465
f 465 448 450
f 439 440 456
f 456 440 463
f 468 463 443
f 443 463 440
f 468 467 463
f 463 467 462
f 466 468 438
f 438 468 443
f 438 435 466
f 466 435 445
f 420 427 429
f 429 427 446
f 446 427 452
f 452 427 426
f 370 369 188
f 188 369 186
f 371 376 372
f 372 376 375
f 380 379 387
f 387 379 388
f 379 381 388
f 388 381 386
f 385 384 278
f 278 384 270
f 380 387 371
f 371 387 376
f 400 370 271
f 271 370 188
f 385 278 372
f 372 278 247
f 400 384 389
f 389 384 383
f 369 381 186
f 186 381 263
f 221 271 144
f 144 271 188
f 221 19 207
f 207 19 22
f 19 18 22
f 22 18 23
f 18 219 23
f 23 219 208
f 469 470 472
f 472 470 471
f 474 475 473
f 473 475 476
f 473 476 477
f 477 476 478
f 480 481 479
f 479 481 482
f 483 484 474
f 474 484 475
f 486 487 485
f 485 487 488
f 489 490 77
f 77 490 142
f 491 489 248
f 248 489 77
f 493 494 492
f 492 494 495
f 496 480 484
f 484 480 475
f 486 497 487
f 487 497 471
f 498 496 472
f 472 496 484
f 499 493 478
f 478 493 500
f 501 502 504
f 504 502 503
f 493 492 500
f 500 492 505
f 506 477 500
f 500 477 478
f 499 478 479
f 479 478 476
f 469 507 470
f 470 507 508
f 483 509 469
f 469 509 507
f 479 482 499
f 499 482 510
f 492 495 485
f 485 495 511
f 483 469 484
f 484 469 472
f 473 512 474
f 474 512 513
f 497 498 471
f 471 498 472
f 475 480 476
f 476 480 479
f 470 508 514
f 514 508 515
f 506 502 516
f 516 502 501
f 503 502 488
f 488 502 505
f 514 515 503
f 503 515 504
f 485 488 492
f 492 488 505
f 477 506 517
f 517 506 516
f 474 513 483
f 483 513 509
f 510 292 494
f 494 292 164
f 512 473 517
f 517 473 477
f 491 481 496
f 496 481 480
f 502 506 505
f 505 506 500
f 503 488 514
f 514 488 487
f 514 487 470
f 470 487 471
f 517 516 519
f 519 516 518
f 517 519 512
f 512 519 520
f 512 520 513
f 513 520 521
f 513 521 509
f 509 521 522
f 516 501 518
f 518 501 523
f 501 504 523
f 523 504 524
f 524 504 525
f 525 504 515
f 526 527 523
f 523 527 518
f 529 530 528
f 528 530 531
f 532 533 529
f 529 533 530
f 530 533 535
f 535 533 534
f 536 537 535
f 535 537 538
f 534 539 535
f 535 539 536
f 538 531 535
f 535 531 530
f 540 541 531
f 531 541 528
f 533 532 534
f 534 532 542
f 532 520 542
f 542 520 519
f 532 543 520
f 520 543 521
f 529 544 532
f 532 544 543
f 544 529 545
f 545 529 528
f 534 542 539
f 539 542 527
f 527 542 518
f 518 542 519
f 541 546 528
f 528 546 545
f 547 544 548
f 548 544 545
f 546 549 545
f 545 549 548
f 550 547 551
f 551 547 548
f 547 550 553
f 553 550 552
f 549 554 548
f 548 554 551
f 544 547 543
f 543 547 553
f 543 553 521
f 521 553 522
f 546 541 556
f 556 541 555
f 541 540 555
f 555 540 557
f 536 539 558
f 558 539 527
f 537 536 559
f 559 536 558
f 527 526 558
f 558 526 560
f 559 558 561
f 561 558 560
f 559 562 537
f 537 562 563
f 557 563 555
f 555 563 562
f 509 522 507
f 507 522 564
f 508 565 515
f 515 565 525
f 565 508 564
f 564 508 507
f 564 552 565
f 565 552 566
f 552 550 566
f 566 550 567
f 565 566 525
f 525 566 568
f 564 522 552
f 552 522 553
f 569 524 568
f 568 524 525
f 569 526 524
f 524 526 523
f 570 560 569
f 569 560 526
f 570 569 571
f 571 569 568
f 572 570 573
f 573 570 571
f 566 567 568
f 568 567 571
f 567 574 571
f 571 574 573
f 570 572 560
f 560 572 561
f 576 561 575
f 575 561 572
f 575 578 577
f 577 578 579
f 575 572 578
f 578 572 573
f 575 577 576
f 576 577 556
f 576 556 562
f 562 556 555
f 562 559 576
f 576 559 561
f 550 551 567
f 567 551 574
f 579 574 554
f 554 574 551
f 579 578 574
f 574 578 573
f 579 554 577
f 577 554 549
f 549 546 577
f 577 546 556
f 531 538 540
f 540 538 557
f 557 538 563
f 563 538 537
f 481 294 482
f 482 294 293
f 580 486 511
f 511 486 485
f 490 489 497
f 497 489 498
f 489 491 498
f 498 491 496
f 163 495 164
f 164 495 494
f 580 490 486
f 486 490 497
f 482 293 510
f 510 293 292
f 495 163 511
f 511 163 199
f 494 493 510
f 510 493 499
f 481 491 294
f 294 491 248
f 582 583 581
f 581 583 584
f 586 587 585
f 585 587 588
f 585 588 589
f 589 588 590
f 592 593 591
f 591 593 594
f 595 596 598
f 598 596 597
f 599 600 586
f 586 600 587
f 601 602 604
f 604 602 603
f 605 606 608
f 608 606 607
f 609 607 200
f 200 607 606
f 610 611 613
f 613 611 612
f 600 614 587
f 587 614 592
f 596 605 597
f 597 605 608
f 602 615 603
f 603 615 583
f 616 614 584
f 584 614 600
f 611 618 617
f 617 618 590
f 620 621 619
f 619 621 622
f 610 623 611
f 611 623 618
f 624 589 618
f 618 589 590
f 617 590 591
f 591 590 588
f 581 625 582
f 582 625 626
f 599 627 581
f 581 627 625
f 591 594 617
f 617 594 628
f 601 610 598
f 598 610 613
f 581 584 599
f 599 584 600
f 585 629 586
f 586 629 630
f 615 616 583
f 583 616 584
f 587 592 588
f 588 592 591
f 582 626 631
f 631 626 632
f 624 620 633
f 633 620 619
f 621 620 604
f 604 620 623
f 631 632 621
f 621 632 622
f 610 601 623
f 623 601 604
f 589 624 634
f 634 624 633
f 586 630 599
f 599 630 627
f 203 202 628
f 628 202 612
f 629 585 634
f 634 585 589
f 609 593 614
f 614 593 592
f 620 624 623
f 623 624 618
f 631 621 603
f 603 621 604
f 582 631 583
f 583 631 603
f 634 633 636
f 636 633 635
f 634 636 629
f 629 636 637
f 629 637 630
f 630 637 638
f 630 638 627
f 627 638 639
f 633 619 635
f 635 619 640
f 619 622 640
f 640 622 641
f 641 622 642
f 642 622 632
f 644 635 643
f 643 635 640
f 645 646 648
f 648 646 647
f 649 650 646
f 646 650 647
f 647 650 652
f 652 650 651
f 652 653 655
f 655 653 654
f 651 656 652
f 652 656 653
f 655 648 652
f 652 648 647
f 648 657 645
f 645 657 658
f 650 649 651
f 651 649 659
f 649 637 659
f 659 637 636
f 649 660 637
f 637 660 638
f 661 660 646
f 646 660 649
f 662 661 645
f 645 661 646
f 651 659 656
f 656 659 644
f 644 659 635
f 635 659 636
f 663 662 658
f 658 662 645
f 664 661 665
f 665 661 662
f 663 666 662
f 662 666 665
f 667 664 668
f 668 664 665
f 664 667 670
f 670 667 669
f 666 671 665
f 665 671 668
f 661 664 660
f 660 664 670
f 660 670 638
f 638 670 639
f 658 672 663
f 663 672 673
f 658 657 672
f 672 657 674
f 653 656 675
f 675 656 644
f 653 675 654
f 654 675 676
f 675 644 677
f 677 644 643
f 676 675 678
f 678 675 677
f 679 680 676
f 676 680 654
f 674 680 672
f 672 680 679
f 627 639 625
f 625 639 681
f 626 682 632
f 632 682 642
f 681 682 625
f 625 682 626
f 669 683 681
f 681 683 682
f 667 684 669
f 669 684 683
f 682 683 642
f 642 683 685
f 681 639 669
f 669 639 670
f 686 641 685
f 685 641 642
f 641 686 640
f 640 686 643
f 686 687 643
f 643 687 677
f 687 686 688
f 688 686 685
f 689 687 690
f 690 687 688
f 683 684 685
f 685 684 688
f 684 691 688
f 688 691 690
f 687 689 677
f 677 689 678
f 693 678 692
f 692 678 689
f 692 695 694
f 694 695 696
f 692 689 695
f 695 689 690
f 692 694 693
f 693 694 673
f 693 673 679
f 679 673 672
f 679 676 693
f 693 676 678
f 684 667 691
f 691 667 668
f 696 691 671
f 671 691 668
f 696 695 691
f 691 695 690
f 694 696 666
f 666 696 671
f 666 663 694
f 694 663 673
f 648 655 657
f 657 655 674
f 674 655 680
f 680 655 654
f 593 162 594
f 594 162 290
f 598 597 601
f 601 597 602
f 615 608 616
f 616 608 607
f 607 609 616
f 616 609 614
f 697 595 613
f 613 595 598
f 597 608 602
f 602 608 615
f 594 290 628
f 628 290 203
f 628 612 617
f 617 612 611
f 593 609 162
f 162 609 200
f 105 29 698
f 698 29 699
f 268 126 701
f 701 126 700
f 126 125 700
f 700 125 702
f 252 703 250
f 250 703 704
f 32 268 705
f 705 268 701
f 288 105 706
f 706 105 698
f 29 32 699
f 699 32 705
f 707 251 706
f 706 251 288
f 250 704 125
f 125 704 702
f 703 252 707
f 707 252 251
f 706 708 707
f 707 708 709
f 707 709 703
f 703 709 710
f 703 710 704
f 704 710 711
f 704 711 702
f 702 711 712
f 706 698 708
f 708 698 713
f 698 699 713
f 713 699 714
f 699 705 714
f 714 705 715
f 717 708 716
f 716 708 713
f 719 720 718
f 718 720 721
f 722 723 719
f 719 723 720
f 724 725 723
f 723 725 720
f 724 726 725
f 725 726 727
f 728 721 725
f 725 721 720
f 721 728 729
f 729 728 730
f 729 731 721
f 721 731 718
f 724 723 732
f 732 723 722
f 722 710 732
f 732 710 709
f 722 733 710
f 710 733 711
f 719 734 722
f 722 734 733
f 734 719 735
f 735 719 718
f 724 732 726
f 726 732 717
f 717 732 708
f 708 732 709
f 731 736 718
f 718 736 735
f 737 734 738
f 738 734 735
f 736 739 735
f 735 739 738
f 740 737 741
f 741 737 738
f 737 740 743
f 743 740 742
f 739 744 738
f 738 744 741
f 734 737 733
f 733 737 743
f 733 743 711
f 711 743 712
f 736 731 746
f 746 731 745
f 731 729 745
f 745 729 730
f 727 726 747
f 747 726 717
f 748 727 749
f 749 727 747
f 747 717 750
f 750 717 716
f 749 747 751
f 751 747 750
f 749 752 748
f 748 752 753
f 730 753 745
f 745 753 752
f 728 725 748
f 748 725 727
f 730 728 753
f 753 728 748
f 700 702 754
f 754 702 712
f 705 701 715
f 715 701 755
f 754 755 700
f 700 755 701
f 742 756 754
f 754 756 755
f 740 757 742
f 742 757 756
f 755 756 715
f 715 756 758
f 754 712 742
f 742 712 743
f 759 714 758
f 758 714 715
f 714 759 713
f 713 759 716
f 759 760 716
f 716 760 750
f 760 759 761
f 761 759 758
f 762 760 763
f 763 760 761
f 756 757 758
f 758 757 761
f 757 764 761
f 761 764 763
f 760 762 750
f 750 762 751
f 766 751 765
f 765 751 762
f 767 765 769
f 769 765 768
f 765 762 768
f 768 762 763
f 765 767 766
f 766 767 746
f 766 746 752
f 752 746 745
f 752 749 766
f 766 749 751
f 757 740 764
f 764 740 741
f 769 764 744
f 744 764 741
f 769 768 764
f 764 768 763
f 767 769 739
f 739 769 744
f 739 736 767
f 767 736 746
f 219 217 208
f 208 217 209
f 209 217 210
f 210 217 193
f 198 580 199
f 199 580 511
f 76 75 289
f 289 75 272
f 277 207 291
f 291 207 184
f 290 183 203
f 203 183 84
f 490 580 142
f 142 580 198
f 142 198 143
f 143 198 197
f 149 276 72
f 72 276 73
f 104 103 279
f 279 103 770
f 770 596 279
f 279 596 595
f 605 596 771
f 771 596 770
f 771 770 772
f 772 770 103
f 772 103 773
f 773 103 102
f 155 774 101
f 101 774 102
f 773 102 97
f 97 102 774
f 775 773 100
f 100 773 97
f 773 775 772
f 772 775 776
f 772 776 771
f 771 776 777
f 200 606 197
f 197 606 777
f 189 71 778
f 778 71 74
f 97 774 98
f 98 774 155
f 183 161 184
f 184 161 291
f 777 276 197
f 197 276 143
f 777 606 771
f 771 606 605
f 613 612 697
f 697 612 202
f 595 697 279
f 279 697 202
f 73 276 776
f 776 276 777
f 776 775 73
f 73 775 74
f 100 778 775
f 775 778 74
f 778 100 189
f 189 100 99
f 245 242 99
f 99 242 189
f 131 33 256
f 28 1 95
f 95 1 62
f 27 2 28
f 28 2 1
f 265 115 266
f 266 115 114
f 95 62 69
f 69 62 64
f 62 61 64
f 64 61 65
f 61 13 65
f 65 13 130
f 13 12 130
f 130 12 14
f 31 11 32
f 32 11 268
f 15 12 31
f 31 12 11
f 31 30 15
f 15 30 231
f 30 106 231
f 231 106 232
f 287 237 106
f 106 237 232
f 254 90 287
f 287 90 237
f 253 44 254
f 254 44 90
f 253 249 44
f 44 249 7
f 267 127 268
f 268 127 126
f 10 3 241
f 241 3 116
f 3 2 116
f 116 2 114
f 2 27 114
f 114 27 266
f 27 26 266
f 266 26 113
f 26 286 113
f 113 286 110
f 286 243 110
f 110 243 255
f 243 242 255
f 255 242 256
f 242 245 256
f 256 245 131
f 245 244 131
f 131 244 132
f 265 37 115
f 115 37 41
f 41 37 42
f 42 37 40
f 92 91 40
f 40 91 42
f 236 233 92
f 92 233 91
f 191 194 236
f 236 194 233
f 258 285 244
f 244 285 132
f 257 55 258
f 258 55 285
f 257 154 201
f 201 154 185
f 56 201 204
f 204 201 180
f 55 257 56
f 56 257 201
f 204 85 56
f 56 85 52
f 86 122 53
f 53 122 79
f 212 215 86
f 86 215 122
f 211 216 212
f 212 216 215
f 192 280 211
f 211 280 216
f 191 240 192
f 192 240 280
f 249 124 7
f 7 124 8
f 124 127 8
f 8 127 241
f 127 267 241
f 241 267 10
f 10 267 9
f 9 267 11
