o right
v 0.043508 0.260129 0.298734
v 0.047487 0.266411 0.295150
v 0.038033 0.265718 0.296051
v 0.035487 0.259809 0.300429
v 0.040278 0.281492 0.288650
v 0.038172 0.284622 0.279739
v 0.024729 0.277850 0.283160
v 0.027837 0.277266 0.290531
v 0.028651 0.258174 0.300318
v 0.029983 0.265220 0.297988
v 0.026818 0.256009 0.296442
v 0.026336 0.246738 0.296026
v 0.027502 0.250945 0.300949
v 0.026358 0.241050 0.299390
v 0.030720 0.245300 0.289651
v 0.032004 0.236536 0.297327
v 0.052993 0.240759 0.291876
v 0.062949 0.242267 0.295866
v 0.058020 0.235574 0.305134
v 0.048517 0.234976 0.300872
v 0.070743 0.242750 0.308639
v 0.063409 0.238846 0.306939
v 0.068403 0.244329 0.297234
v 0.074716 0.247839 0.299332
v 0.056824 0.262202 0.298595
v 0.061450 0.268386 0.294974
v 0.056947 0.267198 0.294707
v 0.052226 0.261425 0.297591
v 0.019077 0.256376 0.287456
v 0.026998 0.256826 0.284574
v 0.026983 0.254497 0.289939
v 0.018989 0.258161 0.291243
v 0.075057 0.284468 0.288032
v 0.079427 0.286213 0.279244
v 0.075573 0.285582 0.277217
v 0.072806 0.284299 0.286000
v 0.056029 0.288112 0.274761
v 0.063648 0.286812 0.270468
v 0.060814 0.283171 0.259686
v 0.053743 0.281774 0.262965
v 0.046907 0.287599 0.277968
v 0.045728 0.283984 0.268095
v 0.037015 0.281023 0.271463
v 0.023900 0.274948 0.276026
v 0.088819 0.286023 0.283242
v 0.086827 0.284588 0.290024
v 0.008874 0.225579 0.335764
v 0.011695 0.226652 0.338757
v 0.013523 0.228541 0.335422
v 0.010492 0.226869 0.333010
v 0.096305 0.273876 0.285934
v 0.097465 0.266609 0.283061
v 0.099967 0.270385 0.279545
v 0.097891 0.276847 0.281412
v 0.092697 0.269616 0.291762
v 0.092928 0.262157 0.287491
v 0.009740 0.216320 0.334061
v 0.007659 0.219408 0.333788
v 0.009980 0.219793 0.330325
v 0.012613 0.216814 0.330229
v 0.032246 0.254207 0.303147
v 0.039564 0.255862 0.303832
v 0.026947 0.245862 0.313681
v 0.032960 0.249872 0.309957
v 0.028769 0.249068 0.306092
v 0.024549 0.244533 0.309131
v 0.051141 0.252771 0.313882
v 0.055490 0.257029 0.306080
v 0.050057 0.255640 0.304715
v 0.044213 0.251397 0.312994
v 0.064463 0.261542 0.311552
v 0.059444 0.256526 0.318227
v 0.064664 0.260055 0.320772
v 0.066937 0.263617 0.315850
v 0.050776 0.244720 0.328287
v 0.048897 0.239082 0.331441
v 0.051884 0.239769 0.332878
v 0.053499 0.245232 0.329263
v 0.102393 0.272806 0.275579
v 0.098410 0.278626 0.276513
v 0.081668 0.252658 0.314929
v 0.085102 0.260060 0.316746
v 0.083626 0.255302 0.326083
v 0.080838 0.248393 0.321804
v 0.093839 0.260718 0.279204
v 0.098118 0.264021 0.276205
v 0.013394 0.214739 0.336183
v 0.016199 0.215287 0.332453
v 0.040226 0.273640 0.266613
v 0.025757 0.269466 0.272131
v 0.050128 0.275704 0.262402
v 0.056864 0.275499 0.259279
v 0.061380 0.276394 0.254837
v 0.035349 0.248510 0.314502
v 0.046694 0.257245 0.301745
v 0.060911 0.263195 0.300418
v 0.077318 0.272001 0.315009
v 0.080174 0.276520 0.307930
v 0.073191 0.273677 0.307257
v 0.072119 0.270017 0.313226
v 0.084112 0.264981 0.320354
v 0.078895 0.266903 0.322298
v 0.076679 0.263484 0.329898
v 0.081987 0.261131 0.328382
v 0.016618 0.256388 0.281451
v 0.027650 0.258416 0.279526
v 0.093583 0.281341 0.288393
v 0.094053 0.283584 0.283201
v 0.095209 0.283342 0.276895
v 0.067604 0.277425 0.292083
v 0.071092 0.284203 0.284335
v 0.067679 0.284963 0.284109
v 0.065517 0.277208 0.291805
v 0.050267 0.276088 0.293959
v 0.052601 0.284803 0.287295
v 0.039057 0.274092 0.294956
v 0.070914 0.286283 0.273502
v 0.078410 0.288467 0.270404
v 0.072984 0.287993 0.266628
v 0.085198 0.287424 0.273376
v 0.091173 0.286375 0.276186
v 0.102683 0.264976 0.271793
v 0.068156 0.286155 0.263156
v 0.019160 0.273745 0.290265
v 0.012945 0.270677 0.290761
v 0.015868 0.266834 0.294088
v 0.022640 0.269238 0.294635
v 0.025363 0.235217 0.304201
v 0.023167 0.240382 0.306663
v 0.025625 0.246374 0.301748
v 0.074828 0.280195 0.295191
v 0.083678 0.281301 0.296852
v 0.029063 0.243684 0.318367
v 0.015248 0.218432 0.327055
v 0.012517 0.221501 0.326603
v 0.019830 0.229054 0.314944
v 0.023103 0.225469 0.315854
v 0.029847 0.235547 0.323566
v 0.027159 0.239900 0.321503
v 0.026367 0.237014 0.323038
v 0.028434 0.234043 0.326323
v 0.057759 0.243665 0.333297
v 0.059126 0.248092 0.330715
v 0.043207 0.231802 0.311514
v 0.037005 0.228812 0.303891
v 0.040541 0.234040 0.297008
v 0.056633 0.254314 0.315332
v 0.053269 0.250030 0.322509
v 0.055983 0.251097 0.324070
v 0.036250 0.246442 0.317786
v 0.032457 0.241842 0.321394
v 0.037017 0.243407 0.321681
v 0.040610 0.247226 0.318095
v 0.088525 0.263562 0.307182
v 0.087643 0.269263 0.311362
v 0.007299 0.222881 0.334195
v 0.009354 0.223624 0.331047
v 0.060789 0.258684 0.308079
v 0.045661 0.240293 0.289812
v 0.064505 0.264715 0.302442
v 0.069534 0.239608 0.326255
v 0.068553 0.243958 0.330510
v 0.065798 0.239381 0.333193
v 0.066836 0.235132 0.330908
v 0.022839 0.227169 0.335698
v 0.019626 0.229976 0.335456
v 0.017502 0.227881 0.338150
v 0.020581 0.224841 0.338782
v 0.024320 0.241041 0.318190
v 0.021991 0.240157 0.313744
v 0.020199 0.236929 0.318540
v 0.023184 0.237337 0.321392
v 0.020993 0.236090 0.311424
v 0.018935 0.233463 0.315786
v 0.024542 0.222615 0.334312
v 0.022848 0.218342 0.331222
v 0.030187 0.224842 0.321552
v 0.029573 0.228543 0.326107
v 0.079103 0.251500 0.289469
v 0.085399 0.255252 0.292965
v 0.080306 0.252550 0.303116
v 0.077048 0.248422 0.312676
v 0.073263 0.243955 0.322422
v 0.068415 0.237381 0.317328
v 0.084686 0.256087 0.304913
v 0.036391 0.233376 0.321462
v 0.035825 0.229787 0.314664
v 0.039339 0.231512 0.317337
v 0.068344 0.267638 0.305804
v 0.011461 0.225516 0.327376
v 0.067310 0.261410 0.260637
v 0.076516 0.258795 0.264787
v 0.071997 0.256856 0.269149
v 0.062337 0.260338 0.264967
v 0.015416 0.231207 0.332794
v 0.011969 0.229656 0.329840
v 0.063120 0.248491 0.333952
v 0.061430 0.243880 0.334607
v 0.063199 0.242150 0.335536
v 0.066256 0.247195 0.337407
v 0.088797 0.257645 0.293887
v 0.082335 0.252174 0.331073
v 0.079950 0.245958 0.326933
v 0.089620 0.257612 0.284112
v 0.084195 0.254396 0.281050
v 0.087580 0.257244 0.275215
v 0.057008 0.234360 0.318651
v 0.073385 0.249202 0.288171
v 0.078861 0.252809 0.279789
v 0.083213 0.255752 0.272957
v 0.086456 0.257114 0.267658
v 0.091002 0.259051 0.271029
v 0.018931 0.217419 0.329217
v 0.020201 0.216235 0.335662
v 0.095352 0.259998 0.266097
v 0.089656 0.258118 0.262818
v 0.071715 0.251932 0.278030
v 0.064767 0.251229 0.275962
v 0.067590 0.247480 0.285994
v 0.059482 0.246373 0.284420
v 0.052846 0.229521 0.312176
v 0.013009 0.216583 0.348438
v 0.018592 0.219157 0.341755
v 0.017831 0.223187 0.342282
v 0.013238 0.219457 0.349626
v 0.021827 0.220598 0.337924
v 0.017285 0.215817 0.339197
v 0.050235 0.247845 0.281879
v 0.034977 0.238537 0.324952
v 0.054274 0.256661 0.272818
v 0.037001 0.249840 0.282143
v 0.040059 0.258476 0.276416
v 0.056121 0.265771 0.263313
v 0.044334 0.265535 0.266713
v 0.065420 0.268964 0.254788
v 0.061401 0.266713 0.259430
v 0.033099 0.264021 0.270603
v 0.005686 0.223821 0.344498
v 0.008879 0.224843 0.346803
v 0.071319 0.262939 0.256098
v 0.029842 0.271763 0.295396
v 0.070115 0.272760 0.299486
v 0.066798 0.270800 0.297697
v 0.082043 0.278753 0.303524
v 0.074111 0.276305 0.301552
v 0.003738 0.221263 0.342500
v 0.048632 0.235066 0.332615
v 0.050535 0.237538 0.332185
v 0.016718 0.274606 0.284163
v 0.011752 0.271983 0.285271
v 0.011375 0.264225 0.278532
v 0.010355 0.268979 0.280878
v 0.016185 0.271363 0.277911
v 0.017350 0.266685 0.274705
v 0.068829 0.277728 0.292893
v 0.071086 0.278228 0.293865
v 0.090734 0.266646 0.298806
v 0.089210 0.273344 0.303126
v 0.023011 0.231816 0.309962
v 0.029830 0.231067 0.304118
v 0.026888 0.228227 0.310475
v 0.027866 0.224212 0.317097
v 0.034376 0.234603 0.325193
v 0.032078 0.232484 0.322086
v 0.060491 0.285762 0.286474
v 0.059445 0.276832 0.292498
v 0.024507 0.264295 0.297073
v 0.018517 0.261971 0.294807
v 0.046894 0.249212 0.319196
v 0.050545 0.229639 0.324588
v 0.047562 0.226864 0.320029
v 0.043697 0.244427 0.324258
v 0.005016 0.215157 0.342454
v 0.003506 0.218443 0.342110
v 0.031872 0.226768 0.311344
v 0.060807 0.254642 0.327281
v 0.055112 0.235474 0.323571
v 0.050111 0.232021 0.329687
v 0.080661 0.258122 0.332679
v 0.080110 0.260203 0.259331
v 0.015159 0.226196 0.341790
v 0.011783 0.223872 0.348551
v 0.012072 0.214411 0.346362
v 0.009008 0.213329 0.343514
v 0.090023 0.276929 0.295799
v 0.064869 0.269351 0.296545
v 0.023025 0.261707 0.274198
v 0.014401 0.259319 0.278238
v 0.042202 0.240705 0.327648
v 0.073190 0.243722 0.327201
v 0.065600 0.233650 0.323807
v 0.062857 0.230160 0.328071
v 0.056846 0.230929 0.329075
v 0.052419 0.233623 0.332381
v 0.009527 0.214023 0.350310
v 0.006799 0.212942 0.347599
v 0.002821 0.214431 0.346750
v 0.001375 0.217291 0.346056
v 0.002160 0.220635 0.345878
v 0.010218 0.215863 0.352686
v 0.010231 0.218353 0.353775
v 0.009983 0.222753 0.351636
v 0.007966 0.215832 0.356436
v 0.005317 0.212681 0.356486
v -0.004713 0.214593 0.356196
v -0.001454 0.213337 0.352959
v -0.001819 0.212565 0.354952
v -0.004193 0.213298 0.358197
v -0.005826 0.213106 0.362072
v -0.007142 0.214633 0.360269
v 0.001742 0.212010 0.354861
v -0.001199 0.212236 0.359495
v 0.001465 0.212625 0.361039
v -0.001154 0.212507 0.364800
v -0.003530 0.211877 0.363498
v 0.003204 0.212194 0.357763
v 0.002995 0.212035 0.353366
v -0.007753 0.214285 0.364070
v -0.006664 0.212654 0.364451
v -0.004846 0.212314 0.365724
v -0.006132 0.213637 0.367656
v -0.001200 0.216867 0.349797
v -0.005134 0.216416 0.355649
v -0.006679 0.216882 0.360322
v -0.007347 0.216446 0.364143
v -0.004190 0.218982 0.356894
v -0.005508 0.218631 0.360760
v -0.005658 0.218424 0.364055
v -0.002446 0.220712 0.358494
v -0.003842 0.219907 0.361753
v 0.002459 0.222080 0.349744
v 0.000427 0.220125 0.348328
v -0.004673 0.219817 0.363941
v -0.005682 0.215448 0.368031
v 0.003987 0.214200 0.360992
v 0.000076 0.214694 0.365319
v 0.004676 0.215933 0.361210
v 0.001137 0.216194 0.365749
v -0.002384 0.213975 0.368188
v -0.002915 0.212813 0.366548
v 0.004754 0.223255 0.346865
v 0.007982 0.224100 0.349520
v 0.006136 0.223021 0.352189
v 0.000342 0.221532 0.360286
v 0.007934 0.222058 0.354578
v 0.007825 0.218384 0.357251
v 0.004284 0.218003 0.362061
v 0.003292 0.220108 0.361761
v 0.001387 0.217962 0.365419
v 0.000542 0.219354 0.364465
v -0.001753 0.220482 0.363321
v -0.001628 0.217830 0.367239
v -0.002019 0.215760 0.368098
v -0.004460 0.217802 0.366786
v -0.001219 0.219000 0.366196
v -0.003336 0.219074 0.365276
v 0.026314 0.223051 0.352318
v 0.030407 0.224023 0.354694
v 0.032232 0.226477 0.350116
v 0.028444 0.225559 0.348738
v 0.027482 0.214296 0.347574
v 0.025247 0.217827 0.348931
v 0.026482 0.219296 0.345535
v 0.029259 0.215033 0.344515
v 0.031868 0.212681 0.348168
v 0.033844 0.213337 0.344999
v 0.030870 0.216457 0.341278
v 0.028676 0.221400 0.341905
v 0.035332 0.229567 0.327441
v 0.038170 0.224893 0.326665
v 0.044272 0.235678 0.333525
v 0.045211 0.233248 0.334329
v 0.025032 0.220916 0.350697
v 0.026802 0.222753 0.347266
v 0.039469 0.226120 0.348722
v 0.036843 0.229088 0.348285
v 0.035174 0.226135 0.352169
v 0.037943 0.223036 0.352130
v 0.036953 0.235306 0.328988
v 0.040945 0.236392 0.330708
v 0.035293 0.232945 0.328595
v 0.041260 0.221437 0.347892
v 0.040764 0.216910 0.345450
v 0.046874 0.223937 0.331740
v 0.047257 0.227432 0.334430
v 0.028242 0.225312 0.343505
v 0.033393 0.229547 0.346651
v 0.030056 0.228531 0.345163
v 0.035708 0.215633 0.342289
v 0.038729 0.214804 0.348893
v 0.031884 0.212590 0.362436
v 0.037273 0.217461 0.354778
v 0.035722 0.220648 0.356203
v 0.030906 0.215191 0.364851
v 0.039722 0.218969 0.351389
v 0.036335 0.214248 0.351468
v 0.021799 0.217437 0.363921
v 0.025578 0.218099 0.366485
v 0.020218 0.215569 0.361787
v 0.043323 0.222300 0.328128
v 0.023216 0.210410 0.356457
v 0.020496 0.213609 0.359150
v 0.033430 0.223234 0.356546
v 0.028754 0.216878 0.366725
v 0.031162 0.210453 0.359926
v 0.027813 0.209306 0.356165
v 0.028637 0.208631 0.364055
v 0.025646 0.207330 0.360836
v 0.021020 0.208262 0.360919
v 0.018987 0.211357 0.363259
v 0.018891 0.213629 0.365074
v 0.029298 0.210318 0.366538
v 0.028539 0.212399 0.368969
v 0.026972 0.215464 0.369131
v 0.026940 0.207750 0.372090
v 0.025852 0.205163 0.370552
v 0.013594 0.202158 0.376453
v 0.015525 0.203919 0.372214
v 0.016856 0.202475 0.372660
v 0.015290 0.201037 0.376606
v 0.018150 0.204332 0.367782
v 0.018840 0.203143 0.369466
v 0.022221 0.203218 0.369585
v 0.020215 0.201544 0.373916
v 0.023377 0.202691 0.375070
v 0.021915 0.200376 0.378974
v 0.018751 0.199210 0.377741
v 0.024191 0.203351 0.371738
v 0.014998 0.199571 0.379263
v 0.013617 0.200148 0.380820
v 0.022866 0.204202 0.367311
v 0.017542 0.208994 0.366156
v 0.014717 0.205857 0.372811
v 0.012883 0.203894 0.377859
v 0.013754 0.201791 0.382595
v 0.015142 0.208012 0.374800
v 0.013611 0.205645 0.379447
v 0.014816 0.203726 0.383018
v 0.016677 0.209925 0.376997
v 0.015558 0.207347 0.381332
v 0.019820 0.214413 0.368992
v 0.017753 0.212388 0.367306
v 0.015648 0.205511 0.382890
v 0.016647 0.198310 0.382751
v 0.016357 0.200529 0.384536
v 0.017252 0.198425 0.380982
v 0.024388 0.203789 0.375818
v 0.022236 0.201662 0.380274
v 0.024740 0.205454 0.377241
v 0.022134 0.203044 0.381823
v 0.020160 0.199673 0.383003
v 0.019805 0.198960 0.381795
v 0.020994 0.215512 0.366578
v 0.024502 0.216413 0.368501
v 0.023254 0.215282 0.370755
v 0.019953 0.210545 0.378457
v 0.025945 0.213950 0.371721
v 0.026843 0.210288 0.372793
v 0.024674 0.207422 0.377873
v 0.022933 0.209392 0.378833
v 0.022653 0.204468 0.382731
v 0.021775 0.206752 0.382307
v 0.018430 0.208064 0.382317
v 0.020182 0.202459 0.385185
v 0.020127 0.200683 0.384255
v 0.016705 0.202454 0.384702
v 0.020155 0.204892 0.384537
v 0.017333 0.205061 0.384153
v 0.046063 0.225738 0.354709
v 0.049292 0.228425 0.356598
v 0.050244 0.231389 0.353537
v 0.047066 0.228480 0.351706
v 0.051004 0.218225 0.349972
v 0.047665 0.219865 0.351079
v 0.047912 0.221945 0.348037
v 0.051588 0.220313 0.345816
v 0.054644 0.218098 0.351951
v 0.056078 0.220427 0.346314
v 0.052211 0.221822 0.342169
v 0.048703 0.223926 0.344963
v 0.051814 0.231374 0.335295
v 0.055121 0.227727 0.333199
v 0.046101 0.222612 0.352937
v 0.046554 0.224825 0.350309
v 0.058241 0.232919 0.351391
v 0.055109 0.234488 0.351173
v 0.054052 0.231683 0.354993
v 0.057030 0.230295 0.355042
v 0.052772 0.239051 0.335995
v 0.056796 0.240930 0.335903
v 0.050899 0.235147 0.336924
v 0.060907 0.228656 0.349863
v 0.061230 0.224165 0.346177
v 0.064353 0.230307 0.336318
v 0.063878 0.234760 0.337869
v 0.047291 0.227087 0.347231
v 0.051611 0.233984 0.349729
v 0.048119 0.231088 0.348807
v 0.056628 0.222162 0.342943
v 0.059898 0.223013 0.350245
v 0.053746 0.215958 0.367516
v 0.058399 0.224734 0.356923
v 0.055570 0.227797 0.358614
v 0.052269 0.218250 0.369415
v 0.059636 0.226874 0.354079
v 0.058397 0.221105 0.354225
v 0.043020 0.218053 0.366047
v 0.045916 0.220406 0.367888
v 0.043248 0.216217 0.363257
v 0.060161 0.226904 0.332974
v 0.060796 0.239424 0.337436
v 0.046741 0.212308 0.361189
v 0.044204 0.214167 0.361965
v 0.052894 0.229101 0.358094
v 0.049603 0.220082 0.369572
v 0.053614 0.214038 0.364687
v 0.051046 0.212194 0.361469
v 0.052315 0.211826 0.368830
v 0.049678 0.210113 0.365616
v 0.045583 0.209704 0.365204
v 0.043035 0.211339 0.365679
v 0.041926 0.213367 0.366853
v 0.051941 0.213517 0.371684
v 0.050236 0.215323 0.373275
v 0.048101 0.218117 0.371495
v 0.050500 0.211477 0.375199
v 0.050636 0.207682 0.373477
v 0.040515 0.199891 0.377813
v 0.041810 0.202868 0.374209
v 0.042547 0.202271 0.374402
v 0.041697 0.199208 0.377766
v 0.044473 0.205308 0.370032
v 0.044779 0.204103 0.371288
v 0.047626 0.204951 0.371738
v 0.046306 0.201560 0.375768
v 0.048445 0.204836 0.378311
v 0.046814 0.202160 0.380936
v 0.045101 0.199012 0.378926
v 0.049558 0.206187 0.374115
v 0.041875 0.197901 0.379964
v 0.040134 0.197069 0.380082
v 0.048191 0.206328 0.370275
v 0.041689 0.207659 0.369092
v 0.039855 0.203987 0.374236
v 0.037983 0.200963 0.377977
v 0.038340 0.199238 0.381329
v 0.038851 0.206374 0.375317
v 0.037572 0.203251 0.378952
v 0.037791 0.201781 0.381983
v 0.039073 0.208335 0.376426
v 0.038194 0.205406 0.379900
v 0.041490 0.214091 0.369962
v 0.040962 0.210841 0.369171
v 0.038224 0.203546 0.382136
v 0.042977 0.197257 0.382639
v 0.041249 0.199522 0.384747
v 0.043762 0.198160 0.381204
v 0.048863 0.206307 0.378656
v 0.047042 0.203058 0.382689
v 0.048192 0.208226 0.379386
v 0.046608 0.204910 0.383766
v 0.045665 0.200078 0.383975
v 0.045621 0.199959 0.382757
v 0.042608 0.216323 0.367958
v 0.044970 0.218275 0.369950
v 0.043518 0.215988 0.371913
v 0.040811 0.209635 0.378678
v 0.046465 0.216165 0.373656
v 0.048627 0.212934 0.376221
v 0.046407 0.209576 0.379864
v 0.043798 0.210040 0.380006
v 0.045061 0.206423 0.383852
v 0.043206 0.207271 0.382759
v 0.039681 0.206998 0.381976
v 0.043333 0.203630 0.385038
v 0.044836 0.201759 0.385317
v 0.040106 0.201977 0.384683
v 0.042100 0.205117 0.384191
v 0.039670 0.204052 0.383882
v 0.059400 0.241104 0.336648
v 0.071419 0.235878 0.356145
v 0.073290 0.237758 0.357564
v 0.073726 0.240379 0.354497
v 0.071533 0.239116 0.353044
v 0.075565 0.230180 0.350437
v 0.072698 0.231592 0.352459
v 0.072243 0.233865 0.348699
v 0.075209 0.232298 0.346666
v 0.079226 0.230746 0.350528
v 0.079147 0.232964 0.347384
v 0.074728 0.233768 0.344421
v 0.071799 0.235870 0.346057
v 0.070368 0.243429 0.335739
v 0.073479 0.241594 0.333112
v 0.079622 0.254559 0.335953
v 0.075047 0.256435 0.336922
v 0.075744 0.251448 0.341747
v 0.079128 0.250619 0.340441
v 0.071434 0.233670 0.354500
v 0.070874 0.236564 0.351412
v 0.080057 0.243821 0.350634
v 0.076683 0.244309 0.351856
v 0.076152 0.241810 0.355138
v 0.079540 0.241454 0.354816
v 0.071104 0.254336 0.337404
v 0.068358 0.251827 0.336505
v 0.069088 0.249276 0.339666
v 0.072364 0.250357 0.341989
v 0.067629 0.246162 0.339061
v 0.081899 0.241318 0.349265
v 0.082236 0.237367 0.346632
v 0.082067 0.246204 0.335695
v 0.081310 0.249119 0.337585
v 0.070353 0.238569 0.348577
v 0.073815 0.242946 0.351756
v 0.071212 0.241337 0.350619
v 0.078904 0.234332 0.344945
v 0.082262 0.235678 0.349915
v 0.081319 0.231415 0.363306
v 0.081744 0.237160 0.356185
v 0.079148 0.238825 0.358295
v 0.079896 0.232225 0.364524
v 0.081885 0.239329 0.352828
v 0.081933 0.233720 0.353289
v 0.071524 0.229934 0.363164
v 0.074176 0.232321 0.364495
v 0.071446 0.228279 0.361407
v 0.078482 0.241875 0.333212
v 0.075460 0.225569 0.358458
v 0.072611 0.226219 0.360097
v 0.075828 0.238821 0.358464
v 0.077402 0.232915 0.364823
v 0.081399 0.229212 0.361190
v 0.079160 0.226420 0.358303
v 0.081384 0.226354 0.364552
v 0.078595 0.224078 0.361372
v 0.074644 0.223015 0.361482
v 0.072289 0.224595 0.362398
v 0.071120 0.226416 0.363642
v 0.081038 0.228593 0.366468
v 0.079475 0.229697 0.367368
v 0.077042 0.230962 0.367217
v 0.080483 0.225574 0.369640
v 0.080711 0.221827 0.368377
v 0.072097 0.215282 0.371811
v 0.072546 0.217601 0.368922
v 0.073464 0.217033 0.368740
v 0.072758 0.214618 0.371349
v 0.074240 0.219680 0.365111
v 0.075057 0.218746 0.365976
v 0.077601 0.219857 0.365884
v 0.076798 0.216790 0.369360
v 0.079363 0.218595 0.372324
v 0.078538 0.215720 0.374658
v 0.076388 0.214405 0.371790
v 0.079877 0.220060 0.368545
v 0.073154 0.212777 0.373034
v 0.072106 0.212222 0.373940
v 0.077996 0.220843 0.364556
v 0.071693 0.222108 0.365178
v 0.070890 0.218262 0.369807
v 0.070607 0.215133 0.373222
v 0.071589 0.212716 0.375874
v 0.070297 0.220434 0.370407
v 0.069775 0.216621 0.374458
v 0.070930 0.214799 0.376938
v 0.070566 0.222781 0.371650
v 0.070401 0.218850 0.375253
v 0.071368 0.227242 0.367124
v 0.070969 0.224694 0.366080
v 0.071257 0.216550 0.376972
v 0.074960 0.211642 0.375481
v 0.073872 0.212613 0.377727
v 0.075700 0.212307 0.374293
v 0.079895 0.219489 0.373014
v 0.078827 0.216124 0.376234
v 0.079610 0.221321 0.374176
v 0.078193 0.217365 0.377500
v 0.077267 0.213258 0.377194
v 0.077367 0.213525 0.375167
v 0.071516 0.228565 0.365518
v 0.074090 0.230474 0.366273
v 0.073870 0.228929 0.368196
v 0.072613 0.224436 0.372888
v 0.076769 0.229148 0.369373
v 0.079072 0.227627 0.369686
v 0.078021 0.223119 0.374364
v 0.075668 0.224264 0.374161
v 0.076725 0.218531 0.378149
v 0.074534 0.219957 0.377725
v 0.072047 0.220268 0.376672
v 0.074962 0.215515 0.378820
v 0.076128 0.214260 0.378545
v 0.073210 0.214617 0.378190
v 0.073776 0.216964 0.378620
v 0.072523 0.216873 0.377925
v 0.081311 0.251857 0.335816
v 0.006534 0.255014 0.287468
v 0.008576 0.254817 0.291415
v 0.005647 0.266064 0.296570
v 0.007839 0.260915 0.297390
v 0.002771 0.268541 0.292798
v 0.001469 0.265944 0.285231
v 0.002358 0.268455 0.288365
v 0.008813 0.257264 0.295197
v 0.004705 0.257000 0.284112
v 0.002697 0.261709 0.282705
v -0.002949 0.254360 0.286311
v -0.004679 0.259954 0.285253
v -0.005395 0.264892 0.287821
v -0.002867 0.267790 0.291314
v -0.001217 0.268159 0.294487
v 0.001668 0.253638 0.290407
v 0.004081 0.254099 0.294040
v 0.005343 0.257234 0.297472
v -0.003335 0.251780 0.295153
v -0.010852 0.253531 0.298653
v -0.019435 0.264348 0.307274
v -0.015428 0.265175 0.303187
v -0.016389 0.263165 0.302771
v -0.020197 0.262637 0.306180
v -0.013515 0.264144 0.298990
v -0.014232 0.262551 0.299697
v -0.013091 0.258547 0.298411
v -0.016840 0.258049 0.301775
v -0.012298 0.255114 0.299877
v -0.014137 0.254243 0.303089
v -0.020202 0.257490 0.305222
v -0.022829 0.260773 0.307772
v -0.022854 0.257139 0.308202
v -0.022189 0.262059 0.309970
v -0.013934 0.257988 0.296019
v -0.009089 0.267346 0.296864
v -0.012876 0.266939 0.303373
v -0.016893 0.265450 0.308449
v -0.020018 0.262409 0.311590
v -0.009691 0.266966 0.304542
v -0.013329 0.264806 0.309131
v -0.015798 0.261681 0.311868
v -0.006984 0.264978 0.305576
v -0.010849 0.262839 0.309383
v 0.000054 0.265856 0.298393
v -0.004034 0.268372 0.297314
v -0.013494 0.261086 0.311139
v -0.023294 0.257143 0.310578
v -0.020722 0.257516 0.312433
v -0.011831 0.252647 0.303140
v -0.017520 0.253368 0.306022
v -0.015469 0.252603 0.307039
v -0.008671 0.252151 0.303489
v -0.013454 0.252134 0.308225
v -0.019788 0.253497 0.309658
v -0.020698 0.254325 0.307709
v 0.002258 0.266125 0.297158
v 0.004939 0.261706 0.298205
v 0.002618 0.261189 0.299130
v -0.004476 0.260708 0.305304
v 0.002513 0.256640 0.299386
v -0.000171 0.253203 0.297434
v -0.006052 0.253055 0.304647
v -0.004243 0.256071 0.305356
v -0.011107 0.253678 0.309253
v -0.009807 0.255733 0.309556
v -0.009725 0.259627 0.309911
v -0.014729 0.255075 0.311395
v -0.017324 0.253568 0.311037
v -0.016560 0.258058 0.312542
v -0.012684 0.256335 0.310909
v -0.013511 0.258645 0.311440
v 0.075340 0.260082 0.333078
v 0.070212 0.259054 0.332850
v 0.072193 0.263545 0.328741
v 0.074960 0.267206 0.321655
v 0.080964 0.270842 0.316532
v 0.070783 0.265708 0.319256
v 0.067768 0.261872 0.326303
v 0.065544 0.255116 0.331795
v 0.069038 0.266938 0.311159
f 2 3 1
f 1 3 4
f 5 6 8
f 8 6 7
f 9 4 10
f 10 4 3
f 12 13 11
f 11 13 9
f 14 12 16
f 16 12 15
f 18 19 17
f 17 19 20
f 22 23 21
f 21 23 24
f 26 27 25
f 25 27 28
f 30 31 29
f 29 31 32
f 33 34 36
f 36 34 35
f 37 38 40
f 40 38 39
f 41 42 6
f 6 42 43
f 6 43 7
f 7 43 44
f 45 34 46
f 46 34 33
f 48 49 47
f 47 49 50
f 52 53 51
f 51 53 54
f 56 52 55
f 55 52 51
f 58 59 57
f 57 59 60
f 61 62 4
f 4 62 1
f 64 65 63
f 63 65 66
f 68 69 67
f 67 69 70
f 72 73 71
f 71 73 74
f 76 77 75
f 75 77 78
f 53 79 54
f 54 79 80
f 82 83 81
f 81 83 84
f 85 86 52
f 52 86 53
f 57 60 87
f 87 60 88
f 89 90 43
f 43 90 44
f 43 42 89
f 89 42 91
f 40 39 92
f 92 39 93
f 94 70 64
f 64 70 69
f 13 61 9
f 9 61 4
f 25 28 69
f 69 28 95
f 96 25 68
f 68 25 69
f 98 99 97
f 97 99 100
f 101 102 104
f 104 102 103
f 106 30 105
f 105 30 29
f 51 54 107
f 107 54 108
f 54 80 108
f 108 80 109
f 111 112 110
f 110 112 113
f 115 5 114
f 114 5 116
f 115 41 5
f 5 41 6
f 36 35 111
f 111 35 117
f 35 118 117
f 117 118 119
f 34 120 35
f 35 120 118
f 34 45 120
f 120 45 121
f 125 126 124
f 124 126 127
f 128 129 14
f 14 129 130
f 33 131 46
f 46 131 132
f 133 94 63
f 63 94 64
f 134 135 137
f 137 135 136
f 139 140 138
f 138 140 141
f 77 142 78
f 78 142 143
f 144 145 20
f 20 145 146
f 148 149 147
f 147 149 72
f 151 152 150
f 150 152 153
f 82 101 83
f 83 101 104
f 101 82 155
f 155 82 154
f 156 157 58
f 58 157 59
f 158 68 147
f 147 68 67
f 159 146 15
f 15 146 16
f 68 158 96
f 96 158 160
f 129 66 130
f 130 66 65
f 162 163 161
f 161 163 164
f 166 167 165
f 165 167 168
f 170 171 169
f 169 171 172
f 174 171 173
f 173 171 170
f 176 177 175
f 175 177 178
f 180 181 179
f 179 181 24
f 182 183 21
f 21 183 184
f 81 185 82
f 82 185 154
f 186 187 188
f 188 187 144
f 158 71 160
f 160 71 189
f 190 135 157
f 157 135 59
f 169 172 139
f 139 172 140
f 147 72 158
f 158 72 71
f 192 193 191
f 191 193 194
f 167 166 49
f 49 166 195
f 196 190 50
f 50 190 157
f 197 198 200
f 200 198 199
f 21 24 182
f 182 24 181
f 146 159 20
f 20 159 17
f 182 181 81
f 81 181 185
f 201 185 180
f 180 185 181
f 202 203 83
f 83 203 84
f 205 206 204
f 204 206 85
f 207 22 184
f 184 22 21
f 179 24 208
f 208 24 23
f 208 209 179
f 179 209 205
f 209 210 205
f 205 210 206
f 212 206 211
f 211 206 210
f 179 205 180
f 180 205 204
f 213 176 88
f 88 176 214
f 86 85 212
f 212 85 206
f 193 217 218
f 217 219 218
f 218 219 220
f 219 18 220
f 220 18 17
f 19 221 20
f 20 221 144
f 222 223 225
f 225 223 224
f 175 226 176
f 176 226 214
f 227 87 214
f 214 87 88
f 220 17 228
f 228 17 159
f 134 213 60
f 60 213 88
f 138 229 151
f 151 229 152
f 193 192 210
f 210 192 211
f 230 194 218
f 218 194 193
f 231 232 228
f 228 232 230
f 233 234 91
f 91 234 89
f 235 236 93
f 93 236 92
f 230 232 234
f 234 232 237
f 47 238 48
f 48 238 239
f 240 191 235
f 235 191 236
f 5 8 116
f 116 8 241
f 242 243 189
f 189 243 160
f 244 245 98
f 98 245 99
f 156 246 47
f 47 246 238
f 76 247 77
f 77 247 248
f 250 125 249
f 249 125 124
f 252 253 251
f 251 253 254
f 111 110 36
f 36 110 255
f 256 33 255
f 255 33 36
f 257 258 154
f 154 258 155
f 63 169 133
f 133 169 139
f 66 170 63
f 63 170 169
f 173 170 129
f 129 170 66
f 129 128 173
f 173 128 259
f 128 260 259
f 259 260 261
f 213 134 262
f 262 134 137
f 263 264 186
f 186 264 187
f 112 265 113
f 113 265 266
f 11 267 268
f 234 233 230
f 230 233 194
f 153 269 70
f 70 269 67
f 175 178 165
f 165 178 141
f 150 153 94
f 94 153 70
f 271 221 270
f 270 221 207
f 269 153 272
f 272 153 152
f 121 45 109
f 109 45 108
f 47 50 156
f 156 50 157
f 57 273 58
f 58 273 274
f 145 275 260
f 260 275 261
f 276 149 143
f 143 149 78
f 148 269 75
f 75 269 272
f 207 277 270
f 270 277 278
f 195 196 49
f 49 196 50
f 59 135 60
f 60 135 134
f 83 104 202
f 202 104 279
f 149 148 78
f 78 148 75
f 247 278 248
f 248 278 277
f 183 182 84
f 84 182 81
f 48 239 281
f 281 239 282
f 227 223 283
f 283 223 222
f 223 226 224
f 224 226 168
f 281 282 224
f 224 282 225
f 165 168 175
f 175 168 226
f 264 263 138
f 138 263 229
f 14 16 128
f 128 16 260
f 220 228 218
f 218 228 230
f 87 227 284
f 284 227 283
f 260 16 145
f 145 16 146
f 244 98 258
f 258 98 155
f 58 274 156
f 156 274 246
f 107 285 51
f 51 285 55
f 243 286 160
f 160 286 96
f 234 237 89
f 89 237 90
f 46 132 107
f 107 132 285
f 253 252 249
f 249 252 250
f 286 26 96
f 96 26 25
f 106 105 287
f 287 105 288
f 272 152 289
f 289 152 229
f 138 151 139
f 139 151 133
f 183 290 161
f 161 290 162
f 291 292 277
f 277 292 293
f 151 150 133
f 133 150 94
f 262 275 177
f 177 275 187
f 144 187 145
f 145 187 275
f 273 57 284
f 284 57 87
f 174 136 190
f 190 136 135
f 111 117 112
f 112 117 38
f 117 119 38
f 38 119 123
f 112 38 265
f 265 38 37
f 287 288 254
f 254 288 251
f 228 159 231
f 231 159 15
f 223 227 226
f 226 227 214
f 147 67 148
f 148 67 269
f 224 168 281
f 281 168 167
f 199 163 200
f 200 163 162
f 45 46 108
f 108 46 107
f 281 167 48
f 48 167 49
f 161 164 291
f 291 164 292
f 38 123 39
f 293 294 277
f 277 294 248
f 284 283 296
f 296 283 295
f 284 296 273
f 273 296 297
f 274 273 298
f 298 273 297
f 246 274 299
f 299 274 298
f 283 222 295
f 295 222 300
f 222 225 300
f 300 225 301
f 301 225 302
f 302 225 282
f 303 304 300
f 300 304 295
f 306 307 305
f 305 307 308
f 309 310 308
f 308 310 305
f 308 307 312
f 312 307 311
f 313 314 312
f 312 314 315
f 311 316 312
f 312 316 313
f 317 304 311
f 311 304 316
f 315 309 312
f 312 309 308
f 318 319 321
f 321 319 320
f 319 318 309
f 309 318 310
f 311 307 317
f 317 307 306
f 306 297 317
f 317 297 296
f 306 322 297
f 297 322 298
f 305 323 306
f 306 323 322
f 323 305 324
f 324 305 310
f 304 317 295
f 295 317 296
f 318 325 310
f 310 325 324
f 323 324 326
f 326 324 327
f 324 325 327
f 327 325 328
f 326 327 329
f 329 327 330
f 329 331 326
f 326 331 332
f 333 330 328
f 328 330 327
f 323 326 322
f 322 326 332
f 322 332 298
f 298 332 299
f 325 318 334
f 334 318 321
f 313 316 335
f 335 316 304
f 335 336 313
f 313 336 314
f 304 303 335
f 335 303 337
f 336 335 338
f 338 335 337
f 336 339 314
f 314 339 340
f 246 299 238
f 238 299 341
f 239 342 282
f 282 342 302
f 342 239 341
f 341 239 238
f 341 331 342
f 342 331 343
f 331 329 343
f 343 329 344
f 342 343 302
f 302 343 345
f 341 299 331
f 331 299 332
f 346 301 345
f 345 301 302
f 346 303 301
f 301 303 300
f 347 337 346
f 346 337 303
f 347 346 348
f 348 346 345
f 349 347 350
f 350 347 348
f 343 344 345
f 345 344 348
f 344 351 348
f 348 351 350
f 337 347 338
f 338 347 349
f 353 338 352
f 352 338 349
f 352 355 354
f 354 355 356
f 352 349 355
f 355 349 350
f 352 354 353
f 353 354 334
f 353 334 339
f 339 334 321
f 339 336 353
f 353 336 338
f 329 330 344
f 344 330 351
f 356 351 333
f 333 351 330
f 356 355 351
f 351 355 350
f 354 356 328
f 328 356 333
f 328 325 354
f 354 325 334
f 309 315 319
f 319 315 320
f 320 340 321
f 321 340 339
f 320 315 340
f 340 315 314
f 137 136 261
f 261 136 259
f 140 166 141
f 141 166 165
f 172 171 195
f 195 171 196
f 171 174 196
f 196 174 190
f 178 177 264
f 264 177 187
f 172 195 140
f 140 195 166
f 137 261 262
f 262 261 275
f 178 264 141
f 141 264 138
f 262 177 213
f 213 177 176
f 136 174 259
f 259 174 173
f 358 359 357
f 357 359 360
f 362 363 361
f 361 363 364
f 361 364 365
f 365 364 366
f 367 368 370
f 370 368 369
f 76 371 247
f 247 371 372
f 373 374 362
f 362 374 363
f 376 377 375
f 375 377 378
f 289 229 380
f 380 229 379
f 381 379 263
f 263 379 229
f 383 384 382
f 382 384 385
f 386 368 374
f 374 368 363
f 76 289 371
f 371 289 380
f 377 376 359
f 359 376 387
f 388 386 360
f 360 386 374
f 389 383 366
f 366 383 390
f 392 393 391
f 391 393 394
f 383 382 390
f 390 382 395
f 396 365 390
f 390 365 366
f 389 366 367
f 367 366 364
f 357 397 358
f 358 397 398
f 373 399 357
f 357 399 397
f 389 367 400
f 400 367 370
f 382 385 375
f 375 385 372
f 357 360 373
f 373 360 374
f 361 401 362
f 362 401 402
f 387 388 359
f 359 388 360
f 363 368 364
f 364 368 367
f 358 398 403
f 403 398 404
f 396 392 405
f 405 392 391
f 392 395 393
f 393 395 378
f 393 403 394
f 394 403 404
f 375 378 382
f 382 378 395
f 365 396 406
f 406 396 405
f 362 402 373
f 373 402 399
f 271 270 400
f 400 270 384
f 401 361 406
f 406 361 365
f 381 369 386
f 386 369 368
f 392 396 395
f 395 396 390
f 393 378 403
f 403 378 377
f 403 377 358
f 358 377 359
f 406 405 408
f 408 405 407
f 406 408 401
f 401 408 409
f 401 409 402
f 402 409 410
f 402 410 399
f 399 410 411
f 405 391 407
f 407 391 412
f 391 394 412
f 412 394 413
f 394 404 413
f 413 404 414
f 415 416 412
f 412 416 407
f 418 419 417
f 417 419 420
f 421 422 418
f 418 422 419
f 419 422 424
f 424 422 423
f 425 426 424
f 424 426 427
f 423 428 424
f 424 428 425
f 427 420 424
f 424 420 419
f 420 429 417
f 417 429 430
f 423 422 431
f 431 422 421
f 421 409 431
f 431 409 408
f 421 432 409
f 409 432 410
f 418 433 421
f 421 433 432
f 434 433 417
f 417 433 418
f 431 416 423
f 423 416 428
f 416 431 407
f 407 431 408
f 435 434 430
f 430 434 417
f 433 434 436
f 436 434 437
f 434 435 437
f 437 435 438
f 436 437 439
f 439 437 440
f 439 441 436
f 436 441 442
f 438 443 437
f 437 443 440
f 436 442 433
f 433 442 432
f 432 442 410
f 410 442 411
f 435 430 445
f 445 430 444
f 430 429 444
f 444 429 446
f 425 428 447
f 447 428 416
f 426 425 448
f 448 425 447
f 416 415 447
f 447 415 449
f 447 449 448
f 448 449 450
f 451 452 448
f 448 452 426
f 446 452 444
f 444 452 451
f 399 411 397
f 397 411 453
f 398 454 404
f 404 454 414
f 454 398 453
f 453 398 397
f 453 441 454
f 454 441 455
f 441 439 455
f 455 439 456
f 454 455 414
f 414 455 457
f 441 453 442
f 442 453 411
f 458 413 457
f 457 413 414
f 458 415 413
f 413 415 412
f 458 459 415
f 415 459 449
f 459 458 460
f 460 458 457
f 461 459 462
f 462 459 460
f 455 456 457
f 457 456 460
f 456 463 460
f 460 463 462
f 459 461 449
f 449 461 450
f 465 450 464
f 464 450 461
f 464 467 466
f 466 467 468
f 464 461 467
f 467 461 462
f 464 466 465
f 465 466 445
f 465 445 451
f 451 445 444
f 451 448 465
f 465 448 450
f 439 440 456
f 456 440 463
f 468 463 443
f 443 463 440
f 468 467 463
f 463 467 462
f 466 468 438
f 438 468 443
f 438 435 466
f 466 435 445
f 420 427 429
f 429 427 446
f 446 427 452
f 452 427 426
f 370 369 188
f 188 369 186
f 371 376 372
f 372 376 375
f 380 379 387
f 387 379 388
f 379 381 388
f 388 381 386
f 385 384 278
f 278 384 270
f 380 387 371
f 371 387 376
f 400 370 271
f 271 370 188
f 385 278 372
f 372 278 247
f 400 384 389
f 389 384 383
f 369 381 186
f 186 381 263
f 221 271 144
f 144 271 188
f 221 19 207
f 207 19 22
f 19 18 22
f 22 18 23
f 18 219 23
f 23 219 208
f 469 470 472
f 472 470 471
f 474 475 473
f 473 475 476
f 473 476 477
f 477 476 478
f 480 481 479
f 479 481 482
f 483 484 474
f 474 484 475
f 486 487 485
f 485 487 488
f 489 490 77
f 77 490 142
f 491 489 248
f 248 489 77
f 493 494 492
f 492 494 495
f 496 480 484
f 484 480 475
f 486 497 487
f 487 497 471
f 498 496 472
f 472 496 484
f 499 493 478
f 478 493 500
f 501 502 504
f 504 502 503
f 493 492 500
f 500 492 505
f 506 477 500
f 500 477 478
f 499 478 479
f 479 478 476
f 469 507 470
f 470 507 508
f 483 509 469
f 469 509 507
f 479 482 499
f 499 482 510
f 492 495 485
f 485 495 511
f 483 469 484
f 484 469 472
f 473 512 474
f 474 512 513
f 497 498 471
f 471 498 472
f 475 480 476
f 476 480 479
f 470 508 514
f 514 508 515
f 506 502 516
f 516 502 501
f 503 502 488
f 488 502 505
f 514 515 503
f 503 515 504
f 485 488 492
f 492 488 505
f 477 506 517
f 517 506 516
f 474 513 483
f 483 513 509
f 510 292 494
f 494 292 164
f 512 473 517
f 517 473 477
f 491 481 496
f 496 481 480
f 502 506 505
f 505 506 500
f 503 488 514
f 514 488 487
f 514 487 470
f 470 487 471
f 517 516 519
f 519 516 518
f 517 519 512
f 512 519 520
f 512 520 513
f 513 520 521
f 513 521 509
f 509 521 522
f 516 501 518
f 518 501 523
f 501 504 523
f 523 504 524
f 524 504 525
f 525 504 515
f 526 527 523
f 523 527 518
f 529 530 528
f 528 530 531
f 532 533 529
f 529 533 530
f 530 533 535
f 535 533 534
f 536 537 535
f 535 537 538
f 534 539 535
f 535 539 536
f 538 531 535
f 535 531 530
f 540 541 531
f 531 541 528
f 533 532 534
f 534 532 542
f 532 520 542
f 542 520 519
f 532 543 520
f 520 543 521
f 529 544 532
f 532 544 543
f 544 529 545
f 545 529 528
f 534 542 539
f 539 542 527
f 527 542 518
f 518 542 519
f 541 546 528
f 528 546 545
f 547 544 548
f 548 544 545
f 546 549 545
f 545 549 548
f 550 547 551
f 551 547 548
f 547 550 553
f 553 550 552
f 549 554 548
f 548 554 551
f 544 547 543
f 543 547 553
f 543 553 521
f 521 553 522
f 546 541 556
f 556 541 555
f 541 540 555
f 555 540 557
f 536 539 558
f 558 539 527
f 537 536 559
f 559 536 558
f 527 526 558
f 558 526 560
f 559 558 561
f 561 558 560
f 559 562 537
f 537 562 563
f 557 563 555
f 555 563 562
f 509 522 507
f 507 522 564
f 508 565 515
f 515 565 525
f 565 508 564
f 564 508 507
f 564 552 565
f 565 552 566
f 552 550 566
f 566 550 567
f 565 566 525
f 525 566 568
f 564 522 552
f 552 522 553
f 569 524 568
f 568 524 525
f 569 526 524
f 524 526 523
f 570 560 569
f 569 560 526
f 570 569 571
f 571 569 568
f 572 570 573
f 573 570 571
f 566 567 568
f 568 567 571
f 567 574 571
f 571 574 573
f 570 572 560
f 560 572 561
f 576 561 575
f 575 561 572
f 575 578 577
f 577 578 579
f 575 572 578
f 578 572 573
f 575 577 576
f 576 577 556
f 576 556 562
f 562 556 555
f 562 559 576
f 576 559 561
f 550 551 567
f 567 551 574
f 579 574 554
f 554 574 551
f 579 578 574
f 574 578 573
f 579 554 577
f 577 554 549
f 549 546 577
f 577 546 556
f 531 538 540
f 540 538 557
f 557 538 563
f 563 538 537
f 481 294 482
f 482 294 293
f 580 486 511
f 511 486 485
f 490 489 497
f 497 489 498
f 489 491 498
f 498 491 496
f 163 495 164
f 164 495 494
f 580 490 486
f 486 490 497
f 482 293 510
f 510 293 292
f 495 163 511
f 511 163 199
f 494 493 510
f 510 493 499
f 481 491 294
f 294 491 248
f 582 583 581
f 581 583 584
f 586 587 585
f 585 587 588
f 585 588 589
f 589 588 590
f 592 593 591
f 591 593 594
f 595 596 598
f 598 596 597
f 599 600 586
f 586 600 587
f 601 602 604
f 604 602 603
f 605 606 608
f 608 606 607
f 609 607 200
f 200 607 606
f 610 611 613
f 613 611 612
f 600 614 587
f 587 614 592
f 596 605 597
f 597 605 608
f 602 615 603
f 603 615 583
f 616 614 584
f 584 614 600
f 611 618 617
f 617 618 590
f 620 621 619
f 619 621 622
f 610 623 611
f 611 623 618
f 624 589 618
f 618 589 590
f 617 590 591
f 591 590 588
f 581 625 582
f 582 625 626
f 599 627 581
f 581 627 625
f 591 594 617
f 617 594 628
f 601 610 598
f 598 610 613
f 581 584 599
f 599 584 600
f 585 629 586
f 586 629 630
f 615 616 583
f 583 616 584
f 587 592 588
f 588 592 591
f 582 626 631
f 631 626 632
f 624 620 633
f 633 620 619
f 621 620 604
f 604 620 623
f 631 632 621
f 621 632 622
f 610 601 623
f 623 601 604
f 589 624 634
f 634 624 633
f 586 630 599
f 599 630 627
f 203 202 628
f 628 202 612
f 629 585 634
f 634 585 589
f 609 593 614
f 614 593 592
f 620 624 623
f 623 624 618
f 631 621 603
f 603 621 604
f 582 631 583
f 583 631 603
f 634 633 636
f 636 633 635
f 634 636 629
f 629 636 637
f 629 637 630
f 630 637 638
f 630 638 627
f 627 638 639
f 633 619 635
f 635 619 640
f 619 622 640
f 640 622 641
f 641 622 642
f 642 622 632
f 644 635 643
f 643 635 640
f 645 646 648
f 648 646 647
f 649 650 646
f 646 650 647
f 647 650 652
f 652 650 651
f 652 653 655
f 655 653 654
f 651 656 652
f 652 656 653
f 655 648 652
f 652 648 647
f 648 657 645
f 645 657 658
f 650 649 651
f 651 649 659
f 649 637 659
f 659 637 636
f 649 660 637
f 637 660 638
f 661 660 646
f 646 660 649
f 662 661 645
f 645 661 646
f 651 659 656
f 656 659 644
f 644 659 635
f 635 659 636
f 663 662 658
f 658 662 645
f 664 661 665
f 665 661 662
f 663 666 662
f 662 666 665
f 667 664 668
f 668 664 665
f 664 667 670
f 670 667 669
f 666 671 665
f 665 671 668
f 661 664 660
f 660 664 670
f 660 670 638
f 638 670 639
f 658 672 663
f 663 672 673
f 658 657 672
f 672 657 674
f 653 656 675
f 675 656 644
f 653 675 654
f 654 675 676
f 675 644 677
f 677 644 643
f 676 675 678
f 678 675 677
f 679 680 676
f 676 680 654
f 674 680 672
f 672 680 679
f 627 639 625
f 625 639 681
f 626 682 632
f 632 682 642
f 681 682 625
f 625 682 626
f 669 683 681
f 681 683 682
f 667 684 669
f 669 684 683
f 682 683 642
f 642 683 685
f 681 639 669
f 669 639 670
f 686 641 685
f 685 641 642
f 641 686 640
f 640 686 643
f 686 687 643
f 643 687 677
f 687 686 688
f 688 686 685
f 689 687 690
f 690 687 688
f 683 684 685
f 685 684 688
f 684 691 688
f 688 691 690
f 687 689 677
f 677 689 678
f 693 678 692
f 692 678 689
f 692 695 694
f 694 695 696
f 692 689 695
f 695 689 690
f 692 694 693
f 693 694 673
f 693 673 679
f 679 673 672
f 679 676 693
f 693 676 678
f 684 667 691
f 691 667 668
f 696 691 671
f 671 691 668
f 696 695 691
f 691 695 690
f 694 696 666
f 666 696 671
f 666 663 694
f 694 663 673
f 648 655 657
f 657 655 674
f 674 655 680
f 680 655 654
f 593 162 594
f 594 162 290
f 598 597 601
f 601 597 602
f 615 608 616
f 616 608 607
f 607 609 616
f 616 609 614
f 697 595 613
f 613 595 598
f 597 608 602
f 602 608 615
f 594 290 628
f 628 290 203
f 628 612 617
f 617 612 611
f 593 609 162
f 162 609 200
f 105 29 698
f 698 29 699
f 268 126 701
f 701 126 700
f 126 125 700
f 700 125 702
f 252 703 250
f 250 703 704
f 32 268 705
f 705 268 701
f 288 105 706
f 706 105 698
f 29 32 699
f 699 32 705
f 707 251 706
f 706 251 288
f 250 704 125
f 125 704 702
f 703 252 707
f 707 252 251
f 706 708 707
f 707 708 709
f 707 709 703
f 703 709 710
f 703 710 704
f 704 710 711
f 704 711 702
f 702 711 712
f 706 698 708
f 708 698 713
f 698 699 713
f 713 699 714
f 699 705 714
f 714 705 715
f 717 708 716
f 716 708 713
f 719 720 718
f 718 720 721
f 722 723 719
f 719 723 720
f 724 725 723
f 723 725 720
f 724 726 725
f 725 726 727
f 728 721 725
f 725 721 720
f 721 728 729
f 729 728 730
f 729 731 721
f 721 731 718
f 724 723 732
f 732 723 722
f 722 710 732
f 732 710 709
f 722 733 710
f 710 733 711
f 719 734 722
f 722 734 733
f 734 719 735
f 735 719 718
f 724 732 726
f 726 732 717
f 717 732 708
f 708 732 709
f 731 736 718
f 718 736 735
f 737 734 738
f 738 734 735
f 736 739 735
f 735 739 738
f 740 737 741
f 741 737 738
f 737 740 743
f 743 740 742
f 739 744 738
f 738 744 741
f 734 737 733
f 733 737 743
f 733 743 711
f 711 743 712
f 736 731 746
f 746 731 745
f 731 729 745
f 745 729 730
f 727 726 747
f 747 726 717
f 748 727 749
f 749 727 747
f 747 717 750
f 750 717 716
f 749 747 751
f 751 747 750
f 749 752 748
f 748 752 753
f 730 753 745
f 745 753 752
f 728 725 748
f 748 725 727
f 730 728 753
f 753 728 748
f 700 702 754
f 754 702 712
f 705 701 715
f 715 701 755
f 754 755 700
f 700 755 701
f 742 756 754
f 754 756 755
f 740 757 742
f 742 757 756
f 755 756 715
f 715 756 758
f 754 712 742
f 742 712 743
f 759 714 758
f 758 714 715
f 714 759 713
f 713 759 716
f 759 760 716
f 716 760 750
f 760 759 761
f 761 759 758
f 762 760 763
f 763 760 761
f 756 757 758
f 758 757 761
f 757 764 761
f 761 764 763
f 760 762 750
f 750 762 751
f 766 751 765
f 765 751 762
f 767 765 769
f 769 765 768
f 765 762 768
f 768 762 763
f 765 767 766
f 766 767 746
f 766 746 752
f 752 746 745
f 752 749 766
f 766 749 751
f 757 740 764
f 764 740 741
f 769 764 744
f 744 764 741
f 769 768 764
f 764 768 763
f 767 769 739
f 739 769 744
f 739 736 767
f 767 736 746
f 219 217 208
f 208 217 209
f 209 217 210
f 210 217 193
f 198 580 199
f 199 580 511
f 76 75 289
f 289 75 272
f 277 207 291
f 291 207 184
f 290 183 203
f 203 183 84
f 490 580 142
f 142 580 198
f 142 198 143
f 143 198 197
f 149 276 72
f 72 276 73
f 104 103 279
f 279 103 770
f 770 596 279
f 279 596 595
f 605 596 771
f 771 596 770
f 771 770 772
f 772 770 103
f 772 103 773
f 773 103 102
f 155 774 101
f 101 774 102
f 773 102 97
f 97 102 774
f 775 773 100
f 100 773 97
f 773 775 772
f 772 775 776
f 772 776 771
f 771 776 777
f 200 606 197
f 197 606 777
f 189 71 778
f 778 71 74
f 97 774 98
f 98 774 155
f 183 161 184
f 184 161 291
f 777 276 197
f 197 276 143
f 777 606 771
f 771 606 605
f 613 612 697
f 697 612 202
f 595 697 279
f 279 697 202
f 73 276 776
f 776 276 777
f 776 775 73
f 73 775 74
f 100 778 775
f 775 778 74
f 778 100 189
f 189 100 99
f 245 242 99
f 99 242 189
f 131 33 256
f 28 1 95
f 95 1 62
f 27 2 28
f 28 2 1
f 265 115 266
f 266 115 114
f 95 62 69
f 69 62 64
f 62 61 64
f 64 61 65
f 61 13 65
f 65 13 130
f 13 12 130
f 130 12 14
f 31 11 32
f 32 11 268
f 15 12 31
f 31 12 11
f 31 30 15
f 15 30 231
f 30 106 231
f 231 106 232
f 287 237 106
f 106 237 232
f 254 90 287
f 287 90 237
f 253 44 254
f 254 44 90
f 253 249 44
f 44 249 7
f 267 127 268
f 268 127 126
f 10 3 241
f 241 3 116
f 3 2 116
f 116 2 114
f 2 27 114
f 114 27 266
f 27 26 266
f 266 26 113
f 26 286 113
f 113 286 110
f 286 243 110
f 110 243 255
f 243 242 255
f 255 242 256
f 242 245 256
f 256 245 131
f 245 244 131
f 131 244 132
f 265 37 115
f 115 37 41
f 41 37 42
f 42 37 40
f 92 91 40
f 40 91 42
f 236 233 92
f 92 233 91
f 191 194 236
f 236 194 233
f 258 285 244
f 244 285 132
f 257 55 258
f 258 55 285
f 257 154 201
f 201 154 185
f 56 201 204
f 204 201 180
f 55 257 56
f 56 257 201
f 204 85 56
f 56 85 52
f 86 122 53
f 53 122 79
f 212 215 86
f 86 215 122
f 211 216 212
f 212 216 215
f 192 280 211
f 211 280 216
f 191 240 192
f 192 240 280
f 249 124 7
f 7 124 8
f 124 127 8
f 8 127 241
f 127 267 241
f 241 267 10
f 10 267 9
f 9 267 11
