o left
v -0.065478 0.289797 0.239759
v -0.063342 0.297013 0.235561
v -0.058868 0.291747 0.241713
v -0.061900 0.286087 0.245695
v -0.047355 0.304048 0.238377
v -0.039097 0.303854 0.233638
v -0.037716 0.290828 0.242796
v -0.044152 0.293350 0.246411
v -0.058839 0.281256 0.249241
v -0.055726 0.287199 0.247931
v -0.057196 0.277730 0.246572
v -0.059216 0.269656 0.245219
v -0.060631 0.274605 0.249331
v -0.062877 0.265185 0.247091
v -0.058773 0.269560 0.237347
v -0.067171 0.263530 0.241293
v -0.075382 0.275635 0.225475
v -0.083715 0.281805 0.222948
v -0.088830 0.275099 0.231947
v -0.080242 0.269798 0.234171
v -0.096407 0.287485 0.228345
v -0.092160 0.280592 0.230707
v -0.087313 0.286207 0.221114
v -0.091314 0.292387 0.219589
v -0.072872 0.297235 0.232253
v -0.071055 0.304519 0.227690
v -0.068475 0.301816 0.229855
v -0.069639 0.294539 0.234014
v -0.049420 0.271469 0.243270
v -0.049776 0.276345 0.237275
v -0.054162 0.275442 0.240981
v -0.050657 0.273502 0.246924
v -0.069136 0.323483 0.217041
v -0.065968 0.325758 0.207883
v -0.062374 0.323251 0.208513
v -0.066348 0.322151 0.216786
v -0.045729 0.316133 0.219059
v -0.049366 0.318149 0.210741
v -0.042664 0.312103 0.203361
v -0.040322 0.307911 0.209985
v -0.041702 0.311184 0.227239
v -0.036914 0.306180 0.219426
v -0.035270 0.298872 0.227147
v -0.034821 0.286800 0.237023
v -0.074773 0.330258 0.205339
v -0.078196 0.329021 0.211562
v -0.079346 0.247046 0.283301
v -0.082726 0.249332 0.284319
v -0.080953 0.252059 0.280969
v -0.078062 0.249056 0.280466
v -0.086576 0.323126 0.200810
v -0.088693 0.316793 0.196585
v -0.086620 0.320768 0.193011
v -0.083620 0.325846 0.196856
v -0.089517 0.318556 0.206776
v -0.090244 0.311450 0.201978
v -0.082201 0.239598 0.278467
v -0.079536 0.241214 0.280443
v -0.078670 0.242651 0.276689
v -0.081464 0.241388 0.274243
v -0.063161 0.279951 0.248969
v -0.067455 0.284763 0.245498
v -0.069039 0.271506 0.259147
v -0.069112 0.277281 0.253282
v -0.064448 0.274210 0.252583
v -0.065286 0.268690 0.256746
v -0.082365 0.288354 0.245993
v -0.078707 0.292980 0.238033
v -0.074863 0.289213 0.239956
v -0.077774 0.283970 0.249205
v -0.086145 0.301673 0.237741
v -0.088986 0.295934 0.245108
v -0.092564 0.301706 0.244617
v -0.089560 0.305184 0.239988
v -0.094508 0.282940 0.256162
v -0.097706 0.277226 0.258692
v -0.100084 0.279350 0.257805
v -0.096687 0.284694 0.255313
v -0.084797 0.323443 0.188892
v -0.080225 0.326984 0.193037
v -0.103406 0.301817 0.228477
v -0.103833 0.310187 0.229151
v -0.110668 0.306431 0.236488
v -0.108852 0.298605 0.233600
v -0.086420 0.309438 0.194702
v -0.086052 0.313846 0.190383
v -0.086562 0.240025 0.277526
v -0.085808 0.241863 0.273394
v -0.037919 0.294073 0.219682
v -0.036321 0.283164 0.231503
v -0.040254 0.300618 0.210732
v -0.042995 0.303425 0.204092
v -0.043034 0.305730 0.198017
v -0.074006 0.277705 0.255210
v -0.070219 0.288826 0.239885
v -0.076270 0.300085 0.231433
v -0.092451 0.317066 0.234572
v -0.088105 0.321375 0.228107
v -0.084223 0.315679 0.231266
v -0.088719 0.312775 0.235944
v -0.103332 0.314552 0.233436
v -0.100205 0.314198 0.238465
v -0.105081 0.311104 0.245216
v -0.108692 0.311114 0.240350
v -0.044622 0.268865 0.239943
v -0.046401 0.277048 0.233276
v -0.083087 0.328895 0.205676
v -0.079282 0.330384 0.201739
v -0.076314 0.329812 0.196087
v -0.069399 0.314793 0.223403
v -0.064067 0.321171 0.216521
v -0.060976 0.320423 0.218579
v -0.067688 0.313921 0.224386
v -0.059329 0.306555 0.234979
v -0.052220 0.313619 0.230319
v -0.054622 0.298721 0.242103
v -0.056529 0.321357 0.208576
v -0.058945 0.326101 0.202006
v -0.053173 0.322793 0.202247
v -0.065742 0.328561 0.200065
v -0.071897 0.330635 0.198488
v -0.086009 0.316101 0.184373
v -0.048590 0.318560 0.202125
v -0.041508 0.285016 0.250513
v -0.040861 0.278406 0.253478
v -0.046418 0.278078 0.253367
v -0.048406 0.284628 0.250665
v -0.067098 0.260204 0.250536
v -0.064812 0.264084 0.254800
v -0.061269 0.269841 0.250444
v -0.075186 0.320537 0.222007
v -0.081651 0.325643 0.218194
v -0.074249 0.271079 0.261155
v -0.080790 0.243537 0.270782
v -0.077498 0.244902 0.272798
v -0.072110 0.253517 0.261134
v -0.076327 0.251942 0.259176
v -0.081362 0.264789 0.263211
v -0.076500 0.267184 0.264048
v -0.078122 0.264379 0.265201
v -0.082731 0.263021 0.265972
v -0.102677 0.285468 0.255384
v -0.100218 0.289851 0.253617
v -0.084490 0.266150 0.245122
v -0.077028 0.259723 0.242299
v -0.073370 0.265072 0.235617
v -0.086271 0.292337 0.244120
v -0.090249 0.288036 0.251022
v -0.092584 0.290381 0.250818
v -0.077502 0.276695 0.256876
v -0.079159 0.271353 0.261149
v -0.081751 0.274879 0.258944
v -0.080269 0.279373 0.254631
v -0.098702 0.313482 0.220258
v -0.098269 0.318706 0.225056
v -0.078280 0.243980 0.282107
v -0.077297 0.245674 0.278683
v -0.082773 0.297048 0.236719
v -0.069854 0.271911 0.227993
v -0.079264 0.303268 0.231132
v -0.107760 0.286520 0.242182
v -0.107794 0.290452 0.246730
v -0.109586 0.285201 0.249562
v -0.110638 0.281752 0.246277
v -0.087803 0.255264 0.275170
v -0.084344 0.256218 0.277544
v -0.085603 0.253535 0.280602
v -0.089197 0.252415 0.278428
v -0.072092 0.266536 0.263353
v -0.068185 0.264193 0.261085
v -0.071283 0.261023 0.265303
v -0.074853 0.263042 0.265851
v -0.067850 0.259861 0.259077
v -0.070193 0.257091 0.263221
v -0.089828 0.251924 0.271918
v -0.088427 0.247195 0.269355
v -0.084763 0.255127 0.259267
v -0.085590 0.258615 0.264024
v -0.086709 0.296193 0.209917
v -0.091457 0.302771 0.209542
v -0.095352 0.299545 0.220036
v -0.100707 0.295793 0.228711
v -0.106066 0.291552 0.237859
v -0.102367 0.283039 0.235581
v -0.097890 0.304849 0.219452
v -0.085398 0.265696 0.257089
v -0.082298 0.261417 0.251546
v -0.085604 0.264963 0.251703
v -0.082649 0.307996 0.231976
v -0.075697 0.247914 0.274990
v -0.057015 0.295912 0.196239
v -0.066848 0.298166 0.193489
v -0.067302 0.295071 0.199253
v -0.056788 0.293408 0.202394
v -0.079362 0.255179 0.278201
v -0.075899 0.251951 0.277610
v -0.104770 0.292270 0.253758
v -0.105845 0.287380 0.254227
v -0.108174 0.286646 0.253515
v -0.109446 0.292616 0.254147
v -0.093277 0.306514 0.208653
v -0.114161 0.303560 0.240626
v -0.112174 0.296782 0.237444
v -0.087903 0.305498 0.200512
v -0.083772 0.299838 0.200801
v -0.081275 0.303056 0.194722
v -0.096982 0.275420 0.242854
v -0.083073 0.291460 0.211919
v -0.080108 0.295913 0.202732
v -0.077609 0.299503 0.195309
v -0.075967 0.301417 0.189473
v -0.080243 0.305596 0.189724
v -0.084961 0.244531 0.269943
v -0.090120 0.244646 0.273661
v -0.079742 0.307681 0.183437
v -0.074729 0.303060 0.183956
v -0.074626 0.291760 0.205486
v -0.069048 0.287918 0.207872
v -0.078605 0.287095 0.213386
v -0.072743 0.282405 0.216789
v -0.092164 0.268632 0.239449
v -0.093571 0.241238 0.287225
v -0.091867 0.246444 0.280155
v -0.090301 0.249481 0.282409
v -0.093469 0.243643 0.289119
v -0.091025 0.249262 0.275756
v -0.090599 0.242897 0.277803
v -0.064779 0.279514 0.220427
v -0.084499 0.269996 0.261717
v -0.058032 0.287837 0.212562
v -0.056296 0.275331 0.228563
v -0.050857 0.283197 0.223952
v -0.049271 0.295146 0.205839
v -0.044242 0.289613 0.215464
v -0.048953 0.300954 0.194167
v -0.049997 0.297828 0.199816
v -0.041506 0.282993 0.224641
v -0.083847 0.243439 0.291114
v -0.086955 0.245878 0.291457
v -0.056302 0.298389 0.190563
v -0.051103 0.291330 0.247536
v -0.077795 0.312484 0.226872
v -0.075301 0.309105 0.227101
v -0.085708 0.323576 0.223931
v -0.080236 0.317638 0.226718
v -0.082195 0.240423 0.289762
v -0.099799 0.273480 0.258867
v -0.099574 0.276659 0.257524
v -0.036378 0.283045 0.247296
v -0.036414 0.277824 0.250164
v -0.036747 0.270986 0.242849
v -0.035006 0.274297 0.246576
v -0.034419 0.279245 0.241844
v -0.035755 0.275936 0.237375
v -0.070739 0.315518 0.223363
v -0.072695 0.316992 0.222865
v -0.093747 0.316029 0.212937
v -0.092534 0.321896 0.218399
v -0.070096 0.256803 0.255906
v -0.071528 0.258515 0.247112
v -0.074437 0.255407 0.253332
v -0.080784 0.253068 0.257074
v -0.085801 0.266213 0.261424
v -0.083169 0.262912 0.260120
v -0.056854 0.318231 0.224932
v -0.063980 0.311285 0.228471
v -0.052942 0.282855 0.250182
v -0.050732 0.276571 0.251096
v -0.084299 0.284062 0.252091
v -0.098291 0.268860 0.250298
v -0.094581 0.264630 0.247974
v -0.087364 0.279075 0.257161
v -0.085175 0.236042 0.286683
v -0.082797 0.237993 0.288534
v -0.078918 0.256461 0.250786
v -0.096345 0.296070 0.251122
v -0.098253 0.276253 0.247725
v -0.100187 0.271177 0.255045
v -0.111886 0.308167 0.243944
v -0.065329 0.300248 0.187326
v -0.087136 0.250640 0.284536
v -0.090261 0.246515 0.290811
v -0.092478 0.238971 0.285355
v -0.089112 0.236492 0.284564
v -0.087093 0.324430 0.212815
v -0.073906 0.306902 0.227083
v -0.040540 0.275754 0.232361
v -0.040543 0.269030 0.239627
v -0.090201 0.275420 0.260070
v -0.108652 0.291998 0.241221
v -0.106098 0.279272 0.241350
v -0.108158 0.275398 0.245123
v -0.104334 0.273470 0.249485
v -0.102310 0.274052 0.255325
v -0.093626 0.237259 0.289239
v -0.090568 0.234944 0.288343
v -0.087039 0.233909 0.290544
v -0.084679 0.235483 0.292127
v -0.083801 0.238748 0.292934
v -0.094965 0.238978 0.291315
v -0.094885 0.240848 0.293129
v -0.091650 0.244413 0.293656
v -0.096423 0.237112 0.294935
v -0.096056 0.233055 0.294870
v -0.089636 0.228334 0.300816
v -0.089542 0.229751 0.296353
v -0.091040 0.228680 0.297436
v -0.091863 0.227355 0.301162
v -0.093892 0.225728 0.304430
v -0.091268 0.226396 0.304761
v -0.093182 0.230470 0.295261
v -0.094865 0.228246 0.299882
v -0.097392 0.230023 0.299676
v -0.098809 0.227838 0.303374
v -0.096685 0.226010 0.303467
v -0.096050 0.231185 0.296463
v -0.092796 0.231502 0.293806
v -0.093884 0.225301 0.307361
v -0.095350 0.224600 0.306171
v -0.097458 0.225297 0.305830
v -0.097724 0.225348 0.308480
v -0.086039 0.233082 0.295808
v -0.088348 0.229616 0.301571
v -0.090797 0.228487 0.305674
v -0.093429 0.227269 0.308297
v -0.088876 0.232144 0.303146
v -0.091185 0.230544 0.306200
v -0.093632 0.229880 0.308355
v -0.090444 0.234408 0.304107
v -0.092411 0.232456 0.306617
v -0.086143 0.239664 0.296186
v -0.084713 0.236897 0.295442
v -0.093619 0.231581 0.308480
v -0.097624 0.227047 0.309409
v -0.098205 0.232828 0.299171
v -0.099133 0.230266 0.304254
v -0.098150 0.234570 0.299811
v -0.099510 0.232076 0.304760
v -0.100158 0.227847 0.307013
v -0.099013 0.226781 0.305601
v -0.085075 0.242278 0.293253
v -0.088508 0.244572 0.293769
v -0.089711 0.242338 0.296344
v -0.093080 0.236509 0.304257
v -0.092858 0.242345 0.296582
v -0.096100 0.238932 0.296715
v -0.097871 0.235868 0.301589
v -0.096358 0.236992 0.302954
v -0.098791 0.233681 0.305281
v -0.097097 0.234379 0.305809
v -0.094560 0.233995 0.306848
v -0.098514 0.231498 0.308011
v -0.099663 0.229519 0.307710
v -0.096570 0.229797 0.309195
v -0.097536 0.232803 0.307691
v -0.095627 0.231676 0.308255
v -0.101185 0.252935 0.284571
v -0.105129 0.255685 0.284327
v -0.102373 0.259081 0.280437
v -0.099225 0.256497 0.281249
v -0.101807 0.246155 0.277369
v -0.099975 0.248071 0.280848
v -0.098037 0.250049 0.278045
v -0.100798 0.247517 0.274413
v -0.105650 0.246798 0.274835
v -0.104822 0.248093 0.271694
v -0.099606 0.249179 0.271498
v -0.096670 0.252623 0.274533
v -0.089655 0.262240 0.261359
v -0.092897 0.259179 0.258032
v -0.097195 0.272063 0.262434
v -0.099199 0.270273 0.262010
v -0.099970 0.250531 0.283354
v -0.098127 0.253218 0.280210
v -0.106688 0.261840 0.275031
v -0.103506 0.263302 0.276935
v -0.105851 0.260084 0.280208
v -0.108793 0.258663 0.277705
v -0.089537 0.268258 0.262918
v -0.092921 0.271130 0.262258
v -0.089061 0.265358 0.263063
v -0.109066 0.258435 0.272153
v -0.108885 0.254115 0.269329
v -0.102343 0.262486 0.256882
v -0.102885 0.265927 0.259616
v -0.095930 0.255961 0.277082
v -0.099929 0.262163 0.277687
v -0.097078 0.259705 0.278173
v -0.103904 0.250607 0.269392
v -0.110127 0.251660 0.272318
v -0.115161 0.246130 0.285058
v -0.111924 0.253391 0.278212
v -0.110783 0.255311 0.281270
v -0.115287 0.247661 0.288351
v -0.110898 0.255923 0.274932
v -0.110230 0.250222 0.275193
v -0.108108 0.244987 0.293640
v -0.112046 0.247280 0.293653
v -0.106264 0.242756 0.292244
v -0.098359 0.259207 0.255675
v -0.106303 0.240231 0.284715
v -0.105280 0.241419 0.289405
v -0.108649 0.256373 0.283737
v -0.114641 0.247802 0.291561
v -0.113769 0.244071 0.282794
v -0.109514 0.241558 0.281489
v -0.115489 0.241161 0.286616
v -0.111858 0.238709 0.285332
v -0.108578 0.237112 0.288322
v -0.107894 0.238363 0.292352
v -0.108376 0.240038 0.294681
v -0.117014 0.242687 0.288666
v -0.117574 0.243767 0.291659
v -0.115670 0.245478 0.293867
v -0.120339 0.238614 0.292497
v -0.119426 0.236067 0.290909
v -0.117188 0.225826 0.299714
v -0.114750 0.228943 0.296743
v -0.116340 0.228454 0.295601
v -0.118690 0.225824 0.298335
v -0.113011 0.231429 0.292605
v -0.115051 0.230584 0.292776
v -0.117197 0.232548 0.291127
v -0.119608 0.229451 0.294188
v -0.122015 0.232038 0.293849
v -0.124704 0.228782 0.296014
v -0.122228 0.226176 0.296290
v -0.119900 0.233496 0.291574
v -0.120902 0.224127 0.299529
v -0.120987 0.223624 0.301622
v -0.115620 0.234102 0.289938
v -0.109893 0.235178 0.294027
v -0.114049 0.230033 0.298508
v -0.117215 0.226668 0.301886
v -0.121825 0.224801 0.303564
v -0.115037 0.231791 0.300644
v -0.118240 0.228291 0.303423
v -0.122164 0.226921 0.304243
v -0.116942 0.233916 0.302227
v -0.120233 0.230528 0.304504
v -0.111532 0.240611 0.297285
v -0.109721 0.237977 0.296285
v -0.122011 0.228855 0.304598
v -0.124834 0.223596 0.300354
v -0.125232 0.225001 0.302831
v -0.123898 0.224254 0.298877
v -0.122822 0.233391 0.294387
v -0.125443 0.229838 0.297371
v -0.123508 0.234770 0.295935
v -0.126039 0.230708 0.299163
v -0.126762 0.226682 0.299308
v -0.125902 0.226045 0.298314
v -0.110115 0.242616 0.295373
v -0.113366 0.245054 0.295190
v -0.114641 0.243003 0.297057
v -0.119754 0.236084 0.301799
v -0.117437 0.243238 0.295659
v -0.119970 0.240548 0.294193
v -0.123262 0.236249 0.297353
v -0.122228 0.236755 0.299886
v -0.126529 0.232044 0.300220
v -0.124931 0.233438 0.301537
v -0.122461 0.232602 0.303988
v -0.127433 0.228672 0.302185
v -0.127313 0.227324 0.300686
v -0.124950 0.226742 0.303721
v -0.126159 0.230713 0.302977
v -0.124098 0.229287 0.304319
v -0.114580 0.265592 0.274548
v -0.116943 0.269486 0.274672
v -0.114682 0.272182 0.272229
v -0.112468 0.268126 0.272012
v -0.117981 0.260403 0.266450
v -0.115710 0.260603 0.269593
v -0.113274 0.262260 0.267319
v -0.115086 0.262144 0.263083
v -0.121768 0.261946 0.265851
v -0.118466 0.264228 0.260848
v -0.112642 0.263696 0.260032
v -0.111173 0.264205 0.264774
v -0.104478 0.271859 0.257252
v -0.106844 0.270011 0.252801
v -0.114726 0.262634 0.272526
v -0.112645 0.264513 0.270472
v -0.118249 0.276851 0.266496
v -0.115385 0.276844 0.268538
v -0.118067 0.274199 0.271243
v -0.120653 0.274220 0.269255
v -0.102664 0.279232 0.259265
v -0.104606 0.282737 0.257311
v -0.103449 0.274906 0.260048
v -0.120779 0.274092 0.262693
v -0.120472 0.270012 0.258568
v -0.114161 0.276589 0.250675
v -0.113049 0.280407 0.253246
v -0.110440 0.266608 0.268084
v -0.112281 0.274794 0.269257
v -0.110443 0.270627 0.269816
v -0.116043 0.266021 0.258175
v -0.122536 0.268500 0.262299
v -0.131358 0.261142 0.278290
v -0.124839 0.269918 0.268854
v -0.122752 0.271698 0.272476
v -0.130689 0.262705 0.281128
v -0.123192 0.272128 0.266266
v -0.124606 0.266419 0.266029
v -0.122403 0.258364 0.283952
v -0.124598 0.261879 0.284124
v -0.121533 0.256595 0.281266
v -0.110501 0.271534 0.249564
v -0.108813 0.283174 0.255792
v -0.124140 0.254433 0.276812
v -0.122170 0.255065 0.279275
v -0.120098 0.271740 0.273888
v -0.128284 0.263254 0.283200
v -0.130245 0.259143 0.275802
v -0.127285 0.256119 0.274450
v -0.132745 0.257134 0.279226
v -0.129654 0.254231 0.277921
v -0.126839 0.252045 0.279894
v -0.124832 0.252327 0.282138
v -0.124073 0.253691 0.284187
v -0.133713 0.258565 0.281969
v -0.132967 0.259423 0.284632
v -0.129330 0.260914 0.285221
v -0.135860 0.256155 0.284875
v -0.136256 0.252846 0.282450
v -0.135488 0.241214 0.289232
v -0.132845 0.244399 0.286730
v -0.133678 0.244209 0.286255
v -0.136477 0.241149 0.288292
v -0.130890 0.247797 0.282791
v -0.132386 0.246866 0.283210
v -0.134205 0.248966 0.282121
v -0.137291 0.245366 0.284816
v -0.139157 0.249308 0.286451
v -0.140853 0.246212 0.288496
v -0.139543 0.242591 0.287057
v -0.136570 0.250989 0.283116
v -0.138537 0.240137 0.289410
v -0.137777 0.238594 0.290289
v -0.133068 0.250463 0.281127
v -0.127601 0.248570 0.284396
v -0.131191 0.244512 0.288232
v -0.133570 0.241004 0.291196
v -0.136666 0.239721 0.292925
v -0.130361 0.246193 0.290326
v -0.133117 0.242866 0.292848
v -0.135810 0.241730 0.294509
v -0.130472 0.248075 0.291575
v -0.133335 0.245091 0.293828
v -0.125555 0.254234 0.286939
v -0.125943 0.251051 0.285765
v -0.135538 0.243484 0.294909
v -0.141261 0.240154 0.290545
v -0.140712 0.241398 0.293815
v -0.140484 0.241278 0.289275
v -0.139092 0.250817 0.286901
v -0.141826 0.247163 0.289955
v -0.138396 0.252216 0.288380
v -0.141549 0.248621 0.291576
v -0.142874 0.243927 0.290793
v -0.142079 0.243760 0.289873
v -0.124085 0.256726 0.285337
v -0.126180 0.259622 0.285923
v -0.127450 0.256894 0.287752
v -0.132615 0.250030 0.292582
v -0.130481 0.258404 0.287374
v -0.134788 0.256576 0.287119
v -0.137049 0.252578 0.290161
v -0.135274 0.251790 0.291913
v -0.140034 0.249228 0.292993
v -0.137788 0.249078 0.293519
v -0.135092 0.247201 0.294952
v -0.140750 0.245990 0.294050
v -0.142600 0.245057 0.292800
v -0.139033 0.243020 0.295198
v -0.138828 0.246706 0.294592
v -0.137443 0.244633 0.295488
v -0.106755 0.284076 0.256419
v -0.126629 0.282354 0.260217
v -0.128216 0.284872 0.260786
v -0.126163 0.287312 0.258989
v -0.124113 0.285273 0.258752
v -0.127718 0.279199 0.251708
v -0.126504 0.279139 0.255323
v -0.123219 0.281038 0.253240
v -0.124502 0.280975 0.249537
v -0.130190 0.281342 0.249895
v -0.127546 0.283258 0.248150
v -0.122235 0.282381 0.248587
v -0.120617 0.283027 0.252193
v -0.111460 0.290626 0.248627
v -0.112523 0.290281 0.244356
v -0.114816 0.304672 0.246525
v -0.111585 0.304477 0.250259
v -0.116763 0.299781 0.252167
v -0.118466 0.300395 0.248925
v -0.126275 0.280420 0.258260
v -0.123182 0.282805 0.256956
v -0.127436 0.293378 0.253670
v -0.125633 0.292363 0.256617
v -0.127799 0.289656 0.258631
v -0.130064 0.290827 0.256480
v -0.109971 0.300999 0.252496
v -0.108541 0.297616 0.253019
v -0.111715 0.295505 0.254247
v -0.114988 0.297419 0.254055
v -0.111292 0.292061 0.253784
v -0.128512 0.291925 0.250744
v -0.128085 0.288602 0.247207
v -0.118610 0.297786 0.242296
v -0.118510 0.300077 0.245052
v -0.120696 0.284754 0.255938
v -0.123858 0.289939 0.257610
v -0.121905 0.287567 0.257890
v -0.125527 0.284428 0.246797
v -0.130533 0.286990 0.249249
v -0.139321 0.282726 0.258856
v -0.133432 0.288079 0.254892
v -0.132421 0.288402 0.258522
v -0.138850 0.282813 0.260835
v -0.131209 0.289937 0.253011
v -0.132862 0.285156 0.251432
v -0.132959 0.277012 0.263904
v -0.134830 0.280348 0.264083
v -0.132338 0.275524 0.262115
v -0.115838 0.292553 0.241378
v -0.134164 0.274939 0.256787
v -0.133005 0.274216 0.259838
v -0.130226 0.286940 0.260459
v -0.137087 0.282320 0.262677
v -0.138772 0.280835 0.256541
v -0.136370 0.277342 0.254781
v -0.141894 0.278356 0.258314
v -0.138777 0.275018 0.256801
v -0.136562 0.272272 0.258808
v -0.135000 0.272542 0.261275
v -0.134357 0.273567 0.263444
v -0.142098 0.280148 0.260627
v -0.141223 0.280383 0.262563
v -0.139048 0.280352 0.264214
v -0.144925 0.277170 0.262391
v -0.145623 0.274032 0.260046
v -0.144494 0.264024 0.265263
v -0.142094 0.266337 0.263663
v -0.142767 0.266298 0.262808
v -0.144851 0.263776 0.264317
v -0.139958 0.269060 0.260609
v -0.141401 0.268637 0.260438
v -0.142648 0.270834 0.259311
v -0.145472 0.267696 0.261287
v -0.148494 0.270455 0.262664
v -0.150479 0.267484 0.263882
v -0.147622 0.265359 0.262511
v -0.145828 0.272070 0.260043
v -0.146857 0.262319 0.264714
v -0.146955 0.261302 0.265803
v -0.141652 0.271860 0.258466
v -0.137434 0.269953 0.262894
v -0.141347 0.266082 0.265477
v -0.144487 0.263131 0.267102
v -0.147717 0.261438 0.267703
v -0.140584 0.267693 0.266977
v -0.144233 0.264000 0.269003
v -0.147259 0.262911 0.269580
v -0.140730 0.269852 0.268538
v -0.144385 0.266247 0.269986
v -0.136627 0.274278 0.266188
v -0.136610 0.271865 0.264794
v -0.146885 0.264608 0.269996
v -0.150063 0.262154 0.265138
v -0.150490 0.262415 0.267761
v -0.149542 0.263129 0.264056
v -0.148975 0.271476 0.263178
v -0.151566 0.267937 0.265028
v -0.148885 0.272913 0.264839
v -0.151541 0.268676 0.266756
v -0.152162 0.264651 0.265651
v -0.150796 0.264983 0.264177
v -0.135073 0.275631 0.265313
v -0.136597 0.278561 0.264975
v -0.138343 0.276966 0.266121
v -0.142276 0.272263 0.268863
v -0.140985 0.278531 0.265474
v -0.143258 0.278296 0.263906
v -0.147300 0.273702 0.266473
v -0.145190 0.273560 0.268026
v -0.150581 0.268963 0.268462
v -0.148339 0.269148 0.269862
v -0.145893 0.268251 0.270584
v -0.150917 0.265455 0.268931
v -0.151951 0.264934 0.267642
v -0.149653 0.263836 0.269148
v -0.149486 0.266149 0.269944
v -0.148231 0.265482 0.270102
v -0.116721 0.302837 0.244702
v -0.044979 0.262383 0.249187
v -0.048649 0.263637 0.251597
v -0.043569 0.269973 0.260784
v -0.048081 0.268040 0.258856
v -0.038663 0.269535 0.260079
v -0.035833 0.266932 0.253215
v -0.036251 0.269112 0.256492
v -0.049715 0.265866 0.255628
v -0.041076 0.262298 0.247587
v -0.037066 0.264467 0.249106
v -0.040432 0.257397 0.250851
v -0.036249 0.259796 0.252743
v -0.034693 0.262370 0.257154
v -0.035133 0.264932 0.260491
v -0.037202 0.265896 0.262835
v -0.045096 0.258612 0.252592
v -0.048498 0.260168 0.255277
v -0.049148 0.263185 0.258889
v -0.045395 0.253568 0.256249
v -0.040501 0.247438 0.259939
v -0.030960 0.243925 0.271380
v -0.031746 0.249015 0.268966
v -0.032024 0.247135 0.267412
v -0.030877 0.242722 0.269363
v -0.032480 0.251516 0.265414
v -0.032894 0.249448 0.265057
v -0.035677 0.248215 0.262039
v -0.034387 0.244148 0.263538
v -0.038891 0.246283 0.261256
v -0.039275 0.243349 0.262757
v -0.033524 0.240131 0.265405
v -0.030730 0.239155 0.269237
v -0.032989 0.236844 0.267319
v -0.031469 0.239431 0.271966
v -0.035306 0.248944 0.261013
v -0.033286 0.258040 0.265469
v -0.033041 0.252130 0.270058
v -0.032934 0.246077 0.272967
v -0.033560 0.240524 0.273568
v -0.035993 0.254334 0.270938
v -0.036307 0.248205 0.273182
v -0.037305 0.243331 0.273512
v -0.039540 0.255060 0.270789
v -0.039351 0.248950 0.272424
v -0.041030 0.264441 0.265032
v -0.036149 0.262627 0.265898
v -0.039097 0.245109 0.272736
v -0.033720 0.235494 0.269378
v -0.036212 0.236705 0.271399
v -0.042061 0.244149 0.262233
v -0.038400 0.239211 0.263952
v -0.040959 0.239857 0.264695
v -0.044762 0.246244 0.262390
v -0.043237 0.240709 0.265597
v -0.038196 0.236171 0.266810
v -0.036118 0.236838 0.265488
v -0.041675 0.266905 0.262730
v -0.046426 0.266009 0.260947
v -0.046013 0.263223 0.262970
v -0.043936 0.254749 0.268509
v -0.048927 0.259898 0.261164
v -0.048082 0.255933 0.258326
v -0.046710 0.248523 0.263814
v -0.046786 0.251681 0.265995
v -0.044453 0.243124 0.267447
v -0.044347 0.245287 0.268863
v -0.042256 0.247661 0.271244
v -0.041812 0.240352 0.269623
v -0.040579 0.237502 0.268246
v -0.039076 0.240187 0.272053
v -0.042411 0.242988 0.270087
v -0.040611 0.243496 0.271662
v -0.107736 0.307739 0.247798
v -0.104590 0.304635 0.250548
v -0.101219 0.309121 0.247032
v -0.097019 0.312667 0.240371
v -0.096329 0.317856 0.233384
v -0.093358 0.309192 0.240732
v -0.097378 0.305404 0.247453
v -0.102283 0.299054 0.251834
v -0.086686 0.308411 0.235633
f 4 3 1
f 1 3 2
f 5 8 6
f 6 8 7
f 9 10 4
f 4 10 3
f 9 13 11
f 11 13 12
f 14 16 12
f 12 16 15
f 20 19 17
f 17 19 18
f 24 23 21
f 21 23 22
f 28 27 25
f 25 27 26
f 32 31 29
f 29 31 30
f 33 36 34
f 34 36 35
f 37 40 38
f 38 40 39
f 41 6 42
f 42 6 43
f 6 7 43
f 43 7 44
f 45 46 34
f 34 46 33
f 50 49 47
f 47 49 48
f 54 53 51
f 51 53 52
f 51 52 55
f 55 52 56
f 60 59 57
f 57 59 58
f 1 62 4
f 4 62 61
f 66 65 63
f 63 65 64
f 70 69 67
f 67 69 68
f 74 73 71
f 71 73 72
f 78 77 75
f 75 77 76
f 80 79 54
f 54 79 53
f 84 83 81
f 81 83 82
f 85 52 86
f 86 52 53
f 88 60 87
f 87 60 57
f 44 90 43
f 43 90 89
f 91 42 89
f 89 42 43
f 93 39 92
f 92 39 40
f 69 70 64
f 64 70 94
f 4 61 9
f 9 61 13
f 25 69 28
f 28 69 95
f 69 25 68
f 68 25 96
f 100 99 97
f 97 99 98
f 101 104 102
f 102 104 103
f 29 30 105
f 105 30 106
f 108 54 107
f 107 54 51
f 109 80 108
f 108 80 54
f 113 112 110
f 110 112 111
f 116 5 114
f 114 5 115
f 115 5 41
f 41 5 6
f 36 111 35
f 35 111 117
f 35 117 118
f 118 117 119
f 34 35 120
f 120 35 118
f 34 120 45
f 45 120 121
f 127 126 124
f 124 126 125
f 130 129 14
f 14 129 128
f 132 131 46
f 46 131 33
f 64 94 63
f 63 94 133
f 134 137 135
f 135 137 136
f 141 140 138
f 138 140 139
f 143 142 78
f 78 142 77
f 144 20 145
f 145 20 146
f 72 149 147
f 147 149 148
f 153 152 150
f 150 152 151
f 104 101 83
f 83 101 82
f 101 155 82
f 82 155 154
f 59 157 58
f 58 157 156
f 67 68 147
f 147 68 158
f 159 15 146
f 146 15 16
f 160 158 96
f 96 158 68
f 65 66 130
f 130 66 129
f 164 163 161
f 161 163 162
f 168 167 165
f 165 167 166
f 172 171 169
f 169 171 170
f 170 171 173
f 173 171 174
f 178 177 175
f 175 177 176
f 24 181 179
f 179 181 180
f 184 183 21
f 21 183 182
f 154 185 82
f 82 185 81
f 186 188 187
f 187 188 144
f 189 71 160
f 160 71 158
f 59 135 157
f 157 135 190
f 140 172 139
f 139 172 169
f 71 72 158
f 158 72 147
f 194 193 191
f 191 193 192
f 167 49 166
f 166 49 195
f 157 190 50
f 50 190 196
f 197 200 198
f 198 200 199
f 181 24 182
f 182 24 21
f 17 159 20
f 20 159 146
f 185 181 81
f 81 181 182
f 181 185 180
f 180 185 201
f 84 203 83
f 83 203 202
f 85 206 204
f 204 206 205
f 21 22 184
f 184 22 207
f 23 24 208
f 208 24 179
f 205 209 179
f 179 209 208
f 206 210 205
f 205 210 209
f 210 206 211
f 211 206 212
f 204 205 180
f 180 205 179
f 213 88 176
f 176 88 214
f 206 85 212
f 212 85 86
f 193 218 217
f 220 219 218
f 218 219 217
f 17 18 220
f 220 18 219
f 144 221 20
f 20 221 19
f 222 225 223
f 223 225 224
f 214 226 176
f 176 226 175
f 88 87 214
f 214 87 227
f 159 17 228
f 228 17 220
f 134 60 213
f 213 60 88
f 152 229 151
f 151 229 138
f 211 192 210
f 210 192 193
f 193 194 218
f 218 194 230
f 230 232 228
f 228 232 231
f 89 234 91
f 91 234 233
f 235 93 236
f 236 93 92
f 237 232 234
f 234 232 230
f 239 238 48
f 48 238 47
f 236 191 235
f 235 191 240
f 241 8 116
f 116 8 5
f 160 243 189
f 189 243 242
f 99 245 98
f 98 245 244
f 238 246 47
f 47 246 156
f 248 247 77
f 77 247 76
f 124 125 249
f 249 125 250
f 254 253 251
f 251 253 252
f 111 36 110
f 110 36 255
f 256 255 33
f 33 255 36
f 257 154 258
f 258 154 155
f 139 169 133
f 133 169 63
f 66 63 170
f 170 63 169
f 66 170 129
f 129 170 173
f 259 128 173
f 173 128 129
f 261 260 259
f 259 260 128
f 213 262 134
f 134 262 137
f 187 264 186
f 186 264 263
f 266 265 113
f 113 265 112
f 11 268 267
f 194 233 230
f 230 233 234
f 67 269 70
f 70 269 153
f 141 178 165
f 165 178 175
f 70 153 94
f 94 153 150
f 207 221 270
f 270 221 271
f 152 153 272
f 272 153 269
f 108 45 109
f 109 45 121
f 157 50 156
f 156 50 47
f 274 273 58
f 58 273 57
f 261 275 260
f 260 275 145
f 78 149 143
f 143 149 276
f 272 269 75
f 75 269 148
f 278 277 270
f 270 277 207
f 50 196 49
f 49 196 195
f 59 60 135
f 135 60 134
f 83 202 104
f 104 202 279
f 75 148 78
f 78 148 149
f 277 278 248
f 248 278 247
f 81 182 84
f 84 182 183
f 282 239 281
f 281 239 48
f 222 223 283
f 283 223 227
f 168 226 224
f 224 226 223
f 225 282 224
f 224 282 281
f 226 168 175
f 175 168 165
f 229 263 138
f 138 263 264
f 260 16 128
f 128 16 14
f 220 218 228
f 228 218 230
f 283 227 284
f 284 227 87
f 146 16 145
f 145 16 260
f 155 98 258
f 258 98 244
f 246 274 156
f 156 274 58
f 55 285 51
f 51 285 107
f 96 286 160
f 160 286 243
f 90 237 89
f 89 237 234
f 285 132 107
f 107 132 46
f 253 249 252
f 252 249 250
f 25 26 96
f 96 26 286
f 288 105 287
f 287 105 106
f 229 152 289
f 289 152 272
f 138 139 151
f 151 139 133
f 162 290 161
f 161 290 183
f 293 292 277
f 277 292 291
f 94 150 133
f 133 150 151
f 262 177 275
f 275 177 187
f 275 187 145
f 145 187 144
f 273 284 57
f 57 284 87
f 135 136 190
f 190 136 174
f 111 112 117
f 117 112 38
f 117 38 119
f 119 38 123
f 37 38 265
f 265 38 112
f 251 288 254
f 254 288 287
f 15 159 231
f 231 159 228
f 214 227 226
f 226 227 223
f 269 67 148
f 148 67 147
f 167 168 281
f 281 168 224
f 162 163 200
f 200 163 199
f 107 46 108
f 108 46 45
f 49 167 48
f 48 167 281
f 292 164 291
f 291 164 161
f 38 39 123
f 248 294 277
f 277 294 293
f 284 296 283
f 283 296 295
f 297 296 273
f 273 296 284
f 274 298 273
f 273 298 297
f 246 299 274
f 274 299 298
f 283 295 222
f 222 295 300
f 222 300 225
f 225 300 301
f 301 302 225
f 225 302 282
f 303 300 304
f 304 300 295
f 308 307 305
f 305 307 306
f 305 310 308
f 308 310 309
f 308 312 307
f 307 312 311
f 315 314 312
f 312 314 313
f 313 316 312
f 312 316 311
f 316 304 311
f 311 304 317
f 315 312 309
f 309 312 308
f 318 321 319
f 319 321 320
f 319 309 318
f 318 309 310
f 311 317 307
f 307 317 306
f 296 297 317
f 317 297 306
f 306 297 322
f 322 297 298
f 305 306 323
f 323 306 322
f 310 305 324
f 324 305 323
f 296 317 295
f 295 317 304
f 318 310 325
f 325 310 324
f 327 324 326
f 326 324 323
f 324 327 325
f 325 327 328
f 330 327 329
f 329 327 326
f 332 331 326
f 326 331 329
f 327 330 328
f 328 330 333
f 323 322 326
f 326 322 332
f 299 332 298
f 298 332 322
f 325 334 318
f 318 334 321
f 304 316 335
f 335 316 313
f 335 313 336
f 336 313 314
f 337 303 335
f 335 303 304
f 336 338 335
f 335 338 337
f 336 314 339
f 339 314 340
f 341 299 238
f 238 299 246
f 302 342 282
f 282 342 239
f 238 239 341
f 341 239 342
f 341 342 331
f 331 342 343
f 331 343 329
f 329 343 344
f 345 343 302
f 302 343 342
f 332 299 331
f 331 299 341
f 346 345 301
f 301 345 302
f 300 303 301
f 301 303 346
f 303 337 346
f 346 337 347
f 347 348 346
f 346 348 345
f 349 350 347
f 347 350 348
f 348 344 345
f 345 344 343
f 344 348 351
f 351 348 350
f 337 338 347
f 347 338 349
f 349 338 352
f 352 338 353
f 356 355 354
f 354 355 352
f 350 349 355
f 355 349 352
f 352 353 354
f 354 353 334
f 321 334 339
f 339 334 353
f 338 336 353
f 353 336 339
f 351 330 344
f 344 330 329
f 356 333 351
f 351 333 330
f 356 351 355
f 355 351 350
f 354 328 356
f 356 328 333
f 334 325 354
f 354 325 328
f 320 315 319
f 319 315 309
f 320 321 340
f 340 321 339
f 314 315 340
f 340 315 320
f 137 261 136
f 136 261 259
f 165 166 141
f 141 166 140
f 196 171 195
f 195 171 172
f 190 174 196
f 196 174 171
f 187 177 264
f 264 177 178
f 166 195 140
f 140 195 172
f 275 261 262
f 262 261 137
f 138 264 141
f 141 264 178
f 262 213 177
f 177 213 176
f 173 174 259
f 259 174 136
f 360 359 357
f 357 359 358
f 364 363 361
f 361 363 362
f 366 364 365
f 365 364 361
f 367 370 368
f 368 370 369
f 372 371 247
f 247 371 76
f 363 374 362
f 362 374 373
f 378 377 375
f 375 377 376
f 289 380 229
f 229 380 379
f 229 379 263
f 263 379 381
f 385 384 382
f 382 384 383
f 363 368 374
f 374 368 386
f 76 371 289
f 289 371 380
f 377 359 376
f 376 359 387
f 374 386 360
f 360 386 388
f 389 366 383
f 383 366 390
f 394 393 391
f 391 393 392
f 383 390 382
f 382 390 395
f 366 365 390
f 390 365 396
f 364 366 367
f 367 366 389
f 398 397 358
f 358 397 357
f 397 399 357
f 357 399 373
f 389 400 367
f 367 400 370
f 372 385 375
f 375 385 382
f 374 360 373
f 373 360 357
f 402 401 362
f 362 401 361
f 360 388 359
f 359 388 387
f 363 364 368
f 368 364 367
f 404 398 403
f 403 398 358
f 391 392 405
f 405 392 396
f 378 395 393
f 393 395 392
f 393 394 403
f 403 394 404
f 395 378 382
f 382 378 375
f 405 396 406
f 406 396 365
f 399 402 373
f 373 402 362
f 384 270 400
f 400 270 271
f 401 406 361
f 361 406 365
f 368 369 386
f 386 369 381
f 390 396 395
f 395 396 392
f 377 378 403
f 403 378 393
f 359 377 358
f 358 377 403
f 406 408 405
f 405 408 407
f 409 408 401
f 401 408 406
f 410 409 402
f 402 409 401
f 411 410 399
f 399 410 402
f 405 407 391
f 391 407 412
f 391 412 394
f 394 412 413
f 414 404 413
f 413 404 394
f 415 412 416
f 416 412 407
f 420 419 417
f 417 419 418
f 419 422 418
f 418 422 421
f 419 424 422
f 422 424 423
f 427 426 424
f 424 426 425
f 425 428 424
f 424 428 423
f 427 424 420
f 420 424 419
f 420 417 429
f 429 417 430
f 423 431 422
f 422 431 421
f 408 409 431
f 431 409 421
f 421 409 432
f 432 409 410
f 418 421 433
f 433 421 432
f 434 417 433
f 433 417 418
f 428 416 423
f 423 416 431
f 408 431 407
f 407 431 416
f 417 434 430
f 430 434 435
f 437 434 436
f 436 434 433
f 434 437 435
f 435 437 438
f 440 437 439
f 439 437 436
f 442 441 436
f 436 441 439
f 438 437 443
f 443 437 440
f 432 442 433
f 433 442 436
f 411 442 410
f 410 442 432
f 435 445 430
f 430 445 444
f 430 444 429
f 429 444 446
f 416 428 447
f 447 428 425
f 426 448 425
f 425 448 447
f 449 415 447
f 447 415 416
f 450 449 448
f 448 449 447
f 426 452 448
f 448 452 451
f 446 444 452
f 452 444 451
f 453 411 397
f 397 411 399
f 414 454 404
f 404 454 398
f 397 398 453
f 453 398 454
f 453 454 441
f 441 454 455
f 441 455 439
f 439 455 456
f 457 455 414
f 414 455 454
f 441 442 453
f 453 442 411
f 458 457 413
f 413 457 414
f 412 415 413
f 413 415 458
f 458 415 459
f 459 415 449
f 459 460 458
f 458 460 457
f 461 462 459
f 459 462 460
f 460 456 457
f 457 456 455
f 456 460 463
f 463 460 462
f 450 461 449
f 449 461 459
f 461 450 464
f 464 450 465
f 468 467 466
f 466 467 464
f 462 461 467
f 467 461 464
f 464 465 466
f 466 465 445
f 444 445 451
f 451 445 465
f 450 448 465
f 465 448 451
f 463 440 456
f 456 440 439
f 468 443 463
f 463 443 440
f 468 463 467
f 467 463 462
f 466 438 468
f 468 438 443
f 445 435 466
f 466 435 438
f 446 427 429
f 429 427 420
f 426 427 452
f 452 427 446
f 370 188 369
f 369 188 186
f 375 376 372
f 372 376 371
f 388 379 387
f 387 379 380
f 386 381 388
f 388 381 379
f 270 384 278
f 278 384 385
f 376 387 371
f 371 387 380
f 400 271 370
f 370 271 188
f 247 278 372
f 372 278 385
f 400 389 384
f 384 389 383
f 263 381 186
f 186 381 369
f 221 144 271
f 271 144 188
f 22 19 207
f 207 19 221
f 23 18 22
f 22 18 19
f 208 219 23
f 23 219 18
f 469 472 470
f 470 472 471
f 476 475 473
f 473 475 474
f 478 476 477
f 477 476 473
f 482 481 479
f 479 481 480
f 475 484 474
f 474 484 483
f 488 487 485
f 485 487 486
f 142 490 77
f 77 490 489
f 77 489 248
f 248 489 491
f 495 494 492
f 492 494 493
f 475 480 484
f 484 480 496
f 471 497 487
f 487 497 486
f 484 496 472
f 472 496 498
f 499 478 493
f 493 478 500
f 501 504 502
f 502 504 503
f 493 500 492
f 492 500 505
f 478 477 500
f 500 477 506
f 476 478 479
f 479 478 499
f 508 507 470
f 470 507 469
f 507 509 469
f 469 509 483
f 510 482 499
f 499 482 479
f 511 495 485
f 485 495 492
f 483 484 469
f 469 484 472
f 513 512 474
f 474 512 473
f 472 498 471
f 471 498 497
f 475 476 480
f 480 476 479
f 515 508 514
f 514 508 470
f 501 502 516
f 516 502 506
f 503 488 502
f 502 488 505
f 504 515 503
f 503 515 514
f 505 488 492
f 492 488 485
f 516 506 517
f 517 506 477
f 509 513 483
f 483 513 474
f 510 494 292
f 292 494 164
f 512 517 473
f 473 517 477
f 480 481 496
f 496 481 491
f 500 506 505
f 505 506 502
f 487 488 514
f 514 488 503
f 471 487 470
f 470 487 514
f 517 519 516
f 516 519 518
f 520 519 512
f 512 519 517
f 521 520 513
f 513 520 512
f 522 521 509
f 509 521 513
f 516 518 501
f 501 518 523
f 501 523 504
f 504 523 524
f 524 525 504
f 504 525 515
f 526 523 527
f 527 523 518
f 531 530 528
f 528 530 529
f 530 533 529
f 529 533 532
f 530 535 533
f 533 535 534
f 538 537 535
f 535 537 536
f 536 539 535
f 535 539 534
f 538 535 531
f 531 535 530
f 528 541 531
f 531 541 540
f 542 532 534
f 534 532 533
f 519 520 542
f 542 520 532
f 532 520 543
f 543 520 521
f 529 532 544
f 544 532 543
f 528 529 545
f 545 529 544
f 534 539 542
f 542 539 527
f 519 542 518
f 518 542 527
f 541 528 546
f 546 528 545
f 547 548 544
f 544 548 545
f 548 549 545
f 545 549 546
f 550 551 547
f 547 551 548
f 547 553 550
f 550 553 552
f 549 548 554
f 554 548 551
f 544 543 547
f 547 543 553
f 522 553 521
f 521 553 543
f 546 556 541
f 541 556 555
f 541 555 540
f 540 555 557
f 527 539 558
f 558 539 536
f 537 559 536
f 536 559 558
f 560 526 558
f 558 526 527
f 559 561 558
f 558 561 560
f 559 537 562
f 562 537 563
f 557 555 563
f 563 555 562
f 564 522 507
f 507 522 509
f 525 565 515
f 515 565 508
f 507 508 564
f 564 508 565
f 564 565 552
f 552 565 566
f 552 566 550
f 550 566 567
f 568 566 525
f 525 566 565
f 553 522 552
f 552 522 564
f 569 568 524
f 524 568 525
f 523 526 524
f 524 526 569
f 526 560 569
f 569 560 570
f 570 571 569
f 569 571 568
f 572 573 570
f 570 573 571
f 571 567 568
f 568 567 566
f 567 571 574
f 574 571 573
f 561 572 560
f 560 572 570
f 572 561 575
f 575 561 576
f 579 578 577
f 577 578 575
f 573 572 578
f 578 572 575
f 575 576 577
f 577 576 556
f 555 556 562
f 562 556 576
f 561 559 576
f 576 559 562
f 574 551 567
f 567 551 550
f 579 554 574
f 574 554 551
f 579 574 578
f 578 574 573
f 549 554 577
f 577 554 579
f 556 546 577
f 577 546 549
f 557 538 540
f 540 538 531
f 537 538 563
f 563 538 557
f 293 294 482
f 482 294 481
f 485 486 511
f 511 486 580
f 498 489 497
f 497 489 490
f 496 491 498
f 498 491 489
f 163 164 495
f 495 164 494
f 580 486 490
f 490 486 497
f 292 293 510
f 510 293 482
f 199 163 511
f 511 163 495
f 499 493 510
f 510 493 494
f 248 491 294
f 294 491 481
f 584 583 581
f 581 583 582
f 588 587 585
f 585 587 586
f 590 588 589
f 589 588 585
f 594 593 591
f 591 593 592
f 595 598 596
f 596 598 597
f 587 600 586
f 586 600 599
f 601 604 602
f 602 604 603
f 605 608 606
f 606 608 607
f 606 607 200
f 200 607 609
f 610 613 611
f 611 613 612
f 600 587 614
f 614 587 592
f 596 597 605
f 605 597 608
f 583 615 603
f 603 615 602
f 600 614 584
f 584 614 616
f 590 618 617
f 617 618 611
f 622 621 619
f 619 621 620
f 618 623 611
f 611 623 610
f 590 589 618
f 618 589 624
f 588 590 591
f 591 590 617
f 626 625 582
f 582 625 581
f 625 627 581
f 581 627 599
f 628 594 617
f 617 594 591
f 601 598 610
f 610 598 613
f 600 584 599
f 599 584 581
f 630 629 586
f 586 629 585
f 584 616 583
f 583 616 615
f 587 588 592
f 592 588 591
f 632 626 631
f 631 626 582
f 619 620 633
f 633 620 624
f 621 604 620
f 620 604 623
f 622 632 621
f 621 632 631
f 610 623 601
f 601 623 604
f 633 624 634
f 634 624 589
f 627 630 599
f 599 630 586
f 612 202 628
f 628 202 203
f 629 634 585
f 585 634 589
f 592 593 614
f 614 593 609
f 618 624 623
f 623 624 620
f 631 603 621
f 621 603 604
f 582 583 631
f 631 583 603
f 634 636 633
f 633 636 635
f 637 636 629
f 629 636 634
f 638 637 630
f 630 637 629
f 639 638 627
f 627 638 630
f 633 635 619
f 619 635 640
f 619 640 622
f 622 640 641
f 641 642 622
f 622 642 632
f 640 635 643
f 643 635 644
f 645 648 646
f 646 648 647
f 647 650 646
f 646 650 649
f 647 652 650
f 650 652 651
f 652 655 653
f 653 655 654
f 653 656 652
f 652 656 651
f 655 652 648
f 648 652 647
f 648 645 657
f 657 645 658
f 659 649 651
f 651 649 650
f 636 637 659
f 659 637 649
f 649 637 660
f 660 637 638
f 649 660 646
f 646 660 661
f 662 645 661
f 661 645 646
f 651 656 659
f 659 656 644
f 636 659 635
f 635 659 644
f 645 662 658
f 658 662 663
f 664 665 661
f 661 665 662
f 665 666 662
f 662 666 663
f 667 668 664
f 664 668 665
f 664 670 667
f 667 670 669
f 666 665 671
f 671 665 668
f 661 660 664
f 664 660 670
f 639 670 638
f 638 670 660
f 673 672 663
f 663 672 658
f 658 672 657
f 657 672 674
f 644 656 675
f 675 656 653
f 676 675 654
f 654 675 653
f 675 677 644
f 644 677 643
f 676 678 675
f 675 678 677
f 654 680 676
f 676 680 679
f 674 672 680
f 680 672 679
f 681 639 625
f 625 639 627
f 642 682 632
f 632 682 626
f 681 625 682
f 682 625 626
f 682 683 681
f 681 683 669
f 683 684 669
f 669 684 667
f 685 683 642
f 642 683 682
f 670 639 669
f 669 639 681
f 686 685 641
f 641 685 642
f 641 640 686
f 686 640 643
f 686 643 687
f 687 643 677
f 687 688 686
f 686 688 685
f 689 690 687
f 687 690 688
f 688 684 685
f 685 684 683
f 684 688 691
f 691 688 690
f 678 689 677
f 677 689 687
f 689 678 692
f 692 678 693
f 696 695 694
f 694 695 692
f 690 689 695
f 695 689 692
f 692 693 694
f 694 693 673
f 672 673 679
f 679 673 693
f 678 676 693
f 693 676 679
f 684 691 667
f 667 691 668
f 696 671 691
f 691 671 668
f 696 691 695
f 695 691 690
f 694 666 696
f 696 666 671
f 673 663 694
f 694 663 666
f 674 655 657
f 657 655 648
f 654 655 680
f 680 655 674
f 290 162 594
f 594 162 593
f 598 601 597
f 597 601 602
f 615 616 608
f 608 616 607
f 614 609 616
f 616 609 607
f 598 595 613
f 613 595 697
f 597 602 608
f 608 602 615
f 203 290 628
f 628 290 594
f 628 617 612
f 612 617 611
f 200 609 162
f 162 609 593
f 699 29 698
f 698 29 105
f 268 701 126
f 126 701 700
f 126 700 125
f 125 700 702
f 704 703 250
f 250 703 252
f 32 705 268
f 268 705 701
f 698 105 706
f 706 105 288
f 29 699 32
f 32 699 705
f 707 706 251
f 251 706 288
f 702 704 125
f 125 704 250
f 703 707 252
f 252 707 251
f 709 708 707
f 707 708 706
f 710 709 703
f 703 709 707
f 711 710 704
f 704 710 703
f 712 711 702
f 702 711 704
f 706 708 698
f 698 708 713
f 698 713 699
f 699 713 714
f 715 705 714
f 714 705 699
f 713 708 716
f 716 708 717
f 721 720 718
f 718 720 719
f 720 723 719
f 719 723 722
f 720 725 723
f 723 725 724
f 727 726 725
f 725 726 724
f 728 725 721
f 721 725 720
f 730 728 729
f 729 728 721
f 718 731 721
f 721 731 729
f 724 732 723
f 723 732 722
f 709 710 732
f 732 710 722
f 722 710 733
f 733 710 711
f 719 722 734
f 734 722 733
f 718 719 735
f 735 719 734
f 724 726 732
f 732 726 717
f 709 732 708
f 708 732 717
f 731 718 736
f 736 718 735
f 737 738 734
f 734 738 735
f 738 739 735
f 735 739 736
f 740 741 737
f 737 741 738
f 737 743 740
f 740 743 742
f 739 738 744
f 744 738 741
f 734 733 737
f 737 733 743
f 712 743 711
f 711 743 733
f 736 746 731
f 731 746 745
f 731 745 729
f 729 745 730
f 717 726 747
f 747 726 727
f 748 749 727
f 727 749 747
f 747 750 717
f 717 750 716
f 749 751 747
f 747 751 750
f 749 748 752
f 752 748 753
f 730 745 753
f 753 745 752
f 727 725 748
f 748 725 728
f 748 728 753
f 753 728 730
f 700 754 702
f 702 754 712
f 705 715 701
f 701 715 755
f 754 700 755
f 755 700 701
f 755 756 754
f 754 756 742
f 756 757 742
f 742 757 740
f 758 756 715
f 715 756 755
f 743 712 742
f 742 712 754
f 759 758 714
f 714 758 715
f 714 713 759
f 759 713 716
f 759 716 760
f 760 716 750
f 760 761 759
f 759 761 758
f 762 763 760
f 760 763 761
f 761 757 758
f 758 757 756
f 757 761 764
f 764 761 763
f 751 762 750
f 750 762 760
f 762 751 765
f 765 751 766
f 767 769 765
f 765 769 768
f 763 762 768
f 768 762 765
f 765 766 767
f 767 766 746
f 745 746 752
f 752 746 766
f 751 749 766
f 766 749 752
f 757 764 740
f 740 764 741
f 769 744 764
f 764 744 741
f 769 764 768
f 768 764 763
f 767 739 769
f 769 739 744
f 746 736 767
f 767 736 739
f 209 217 208
f 208 217 219
f 209 210 217
f 217 210 193
f 511 580 199
f 199 580 198
f 76 289 75
f 75 289 272
f 184 207 291
f 291 207 277
f 84 183 203
f 203 183 290
f 198 580 142
f 142 580 490
f 142 143 198
f 198 143 197
f 73 276 72
f 72 276 149
f 104 279 103
f 103 279 770
f 770 279 596
f 596 279 595
f 605 771 596
f 596 771 770
f 771 772 770
f 770 772 103
f 772 773 103
f 103 773 102
f 102 774 101
f 101 774 155
f 773 97 102
f 102 97 774
f 97 773 100
f 100 773 775
f 773 772 775
f 775 772 776
f 772 771 776
f 776 771 777
f 200 197 606
f 606 197 777
f 74 71 778
f 778 71 189
f 155 774 98
f 98 774 97
f 291 161 184
f 184 161 183
f 143 276 197
f 197 276 777
f 605 606 771
f 771 606 777
f 202 612 697
f 697 612 613
f 595 279 697
f 697 279 202
f 73 776 276
f 276 776 777
f 776 73 775
f 775 73 74
f 74 778 775
f 775 778 100
f 778 189 100
f 100 189 99
f 189 242 99
f 99 242 245
f 131 256 33
f 62 1 95
f 95 1 28
f 1 2 28
f 28 2 27
f 114 115 266
f 266 115 265
f 95 69 62
f 62 69 64
f 65 61 64
f 64 61 62
f 130 13 65
f 65 13 61
f 14 12 130
f 130 12 13
f 268 11 32
f 32 11 31
f 15 31 12
f 12 31 11
f 231 30 15
f 15 30 31
f 232 106 231
f 231 106 30
f 232 237 106
f 106 237 287
f 237 90 287
f 287 90 254
f 90 44 254
f 254 44 253
f 7 249 44
f 44 249 253
f 126 127 268
f 268 127 267
f 116 3 241
f 241 3 10
f 114 2 116
f 116 2 3
f 266 27 114
f 114 27 2
f 113 26 266
f 266 26 27
f 110 286 113
f 113 286 26
f 255 243 110
f 110 243 286
f 256 242 255
f 255 242 243
f 131 245 256
f 256 245 242
f 132 244 131
f 131 244 245
f 41 37 115
f 115 37 265
f 41 42 37
f 37 42 40
f 42 91 40
f 40 91 92
f 91 233 92
f 92 233 236
f 233 194 236
f 236 194 191
f 132 285 244
f 244 285 258
f 285 55 258
f 258 55 257
f 185 154 201
f 201 154 257
f 180 201 204
f 204 201 56
f 55 56 257
f 257 56 201
f 204 56 85
f 85 56 52
f 79 122 53
f 53 122 86
f 122 215 86
f 86 215 212
f 215 216 212
f 212 216 211
f 216 280 211
f 211 280 192
f 191 192 240
f 240 192 280
f 8 124 7
f 7 124 249
f 241 127 8
f 8 127 124
f 10 267 241
f 241 267 127
f 10 9 267
f 267 9 11
