o left
v -0.131120 0.201931 0.636547
v -0.133740 0.218536 0.637674
v -0.129521 0.209805 0.642077
v -0.124211 0.194304 0.635330
v -0.120978 0.237687 0.656942
v -0.108290 0.243547 0.652909
v -0.108210 0.216956 0.666669
v -0.118566 0.213476 0.672923
v -0.120869 0.186103 0.639306
v -0.124383 0.198443 0.651895
v -0.123050 0.180331 0.641723
v -0.120332 0.173824 0.619583
v -0.113747 0.173771 0.627040
v -0.122732 0.164422 0.614722
v -0.128966 0.182530 0.615886
v -0.135096 0.166102 0.611335
v -0.161864 0.192332 0.621368
v -0.174697 0.197720 0.635883
v -0.174823 0.173024 0.640600
v -0.159123 0.172738 0.625680
v -0.176244 0.192768 0.659562
v -0.172926 0.183561 0.649120
v -0.177648 0.203901 0.642904
v -0.182463 0.210568 0.650339
v -0.144304 0.215637 0.646450
v -0.145358 0.231002 0.647556
v -0.140060 0.226156 0.640753
v -0.138771 0.211975 0.640857
v -0.114193 0.182441 0.648111
v -0.119455 0.193819 0.632648
v -0.121304 0.185305 0.632597
v -0.117584 0.176020 0.651496
v -0.154461 0.266341 0.661619
v -0.157116 0.284652 0.657619
v -0.152146 0.283134 0.651699
v -0.150042 0.268337 0.657220
v -0.118082 0.265292 0.637691
v -0.128758 0.280251 0.636014
v -0.130681 0.282924 0.618277
v -0.117013 0.268892 0.620155
v -0.110729 0.255244 0.643908
v -0.104933 0.256408 0.630701
v -0.101055 0.241994 0.641936
v -0.103639 0.217206 0.656528
v -0.169740 0.287100 0.668859
v -0.168980 0.273666 0.674527
v -0.105792 0.120319 0.647981
v -0.107324 0.122811 0.654596
v -0.110776 0.124757 0.652676
v -0.108281 0.121911 0.646990
v -0.190258 0.271048 0.668601
v -0.199963 0.265688 0.661375
v -0.201433 0.275144 0.660713
v -0.192099 0.280555 0.665430
v -0.187169 0.259065 0.671369
v -0.196243 0.252561 0.659632
v -0.111213 0.105903 0.644280
v -0.107244 0.110726 0.643546
v -0.112120 0.111075 0.640749
v -0.117123 0.107590 0.641135
v -0.116143 0.181086 0.631345
v -0.126049 0.189300 0.636513
v -0.118099 0.157241 0.628956
v -0.122044 0.170647 0.631757
v -0.114441 0.168373 0.625710
v -0.115256 0.157297 0.622732
v -0.141246 0.186698 0.651415
v -0.145092 0.202688 0.649575
v -0.141118 0.196714 0.643167
v -0.135884 0.179405 0.643896
v -0.148815 0.212169 0.665930
v -0.144334 0.196043 0.665574
v -0.144918 0.202508 0.674823
v -0.149522 0.212539 0.673953
v -0.145997 0.165561 0.658830
v -0.141319 0.159028 0.656905
v -0.140226 0.165376 0.661942
v -0.143993 0.170201 0.663538
v -0.203702 0.283907 0.658467
v -0.192164 0.288480 0.660535
v -0.178132 0.207796 0.677377
v -0.175065 0.216336 0.686454
v -0.169154 0.201362 0.693968
v -0.171880 0.199365 0.683528
v -0.202642 0.259431 0.649426
v -0.206026 0.268999 0.651034
v -0.116095 0.104404 0.649328
v -0.122590 0.105475 0.646473
v -0.105873 0.238757 0.623709
v -0.103083 0.216292 0.642581
v -0.115074 0.256452 0.613250
v -0.129024 0.268700 0.610081
v -0.138861 0.278469 0.606898
v -0.128825 0.166489 0.635612
v -0.135388 0.198213 0.639881
v -0.147094 0.220028 0.651977
v -0.155601 0.229116 0.688283
v -0.159783 0.243286 0.687037
v -0.152425 0.235280 0.678233
v -0.151865 0.225716 0.680199
v -0.166663 0.219281 0.694960
v -0.159010 0.217108 0.693034
v -0.154145 0.203886 0.697029
v -0.162121 0.204661 0.698500
v -0.108218 0.185987 0.647272
v -0.114679 0.202049 0.631870
v -0.179856 0.275977 0.674989
v -0.179570 0.285882 0.669620
v -0.181978 0.292255 0.661590
v -0.146379 0.249936 0.654389
v -0.146293 0.268812 0.652771
v -0.137506 0.266209 0.648376
v -0.142390 0.248218 0.649164
v -0.133301 0.236835 0.642500
v -0.123801 0.252048 0.646270
v -0.130571 0.224590 0.653661
v -0.142164 0.284268 0.643965
v -0.154384 0.294982 0.646265
v -0.146393 0.293589 0.637672
v -0.164058 0.296060 0.654278
v -0.173537 0.295824 0.660416
v -0.211739 0.278412 0.648875
v -0.140361 0.290295 0.629197
v -0.112013 0.196701 0.673874
v -0.108426 0.185719 0.670805
v -0.116291 0.181298 0.668441
v -0.120934 0.191581 0.672345
v -0.125517 0.152412 0.613941
v -0.116933 0.153739 0.617498
v -0.115137 0.167291 0.618805
v -0.155244 0.255470 0.670161
v -0.163621 0.261036 0.679253
v -0.124205 0.153847 0.633939
v -0.120213 0.111205 0.638614
v -0.114771 0.114813 0.637912
v -0.120695 0.134367 0.625361
v -0.127975 0.131201 0.625899
v -0.128349 0.142712 0.643308
v -0.122877 0.148401 0.638804
v -0.122815 0.145171 0.642182
v -0.128258 0.141419 0.646256
v -0.143773 0.175434 0.671172
v -0.145190 0.178196 0.673019
v -0.151300 0.154868 0.632453
v -0.147312 0.154140 0.615070
v -0.149350 0.170632 0.612861
v -0.144604 0.192711 0.658557
v -0.143041 0.178095 0.660137
v -0.143220 0.181677 0.665350
v -0.132465 0.162423 0.638275
v -0.130644 0.152443 0.637823
v -0.136182 0.156695 0.640932
v -0.136293 0.166504 0.643401
v -0.181043 0.230987 0.679776
v -0.171154 0.236682 0.692183
v -0.105420 0.115979 0.644314
v -0.108840 0.116840 0.642721
v -0.147618 0.208421 0.657325
v -0.150977 0.189055 0.617104
v -0.150165 0.223944 0.658141
v -0.159594 0.175725 0.680615
v -0.153330 0.178554 0.684602
v -0.147806 0.176510 0.686004
v -0.152276 0.172932 0.683728
v -0.123587 0.125340 0.655790
v -0.118131 0.126400 0.655718
v -0.115177 0.126094 0.658476
v -0.120466 0.122248 0.660298
v -0.117863 0.149394 0.633396
v -0.114585 0.148421 0.626443
v -0.113752 0.142059 0.632206
v -0.117711 0.143567 0.637976
v -0.116086 0.145068 0.621395
v -0.116213 0.138052 0.627465
v -0.128890 0.120609 0.654180
v -0.130260 0.112673 0.648597
v -0.136761 0.131289 0.635736
v -0.133775 0.134023 0.643291
v -0.188584 0.227827 0.644810
v -0.189857 0.233702 0.655530
v -0.182191 0.216949 0.662073
v -0.175567 0.201514 0.670978
v -0.167404 0.187255 0.678211
v -0.172172 0.175165 0.667436
v -0.183886 0.222317 0.669308
v -0.136847 0.141679 0.640218
v -0.141575 0.144194 0.630687
v -0.144520 0.145604 0.639926
v -0.153213 0.226724 0.667385
v -0.111333 0.118808 0.639930
v -0.162228 0.259528 0.607760
v -0.176628 0.260416 0.618304
v -0.171942 0.249282 0.618429
v -0.154564 0.248009 0.609656
v -0.111942 0.125331 0.650374
v -0.109580 0.123484 0.644846
v -0.146113 0.180523 0.680775
v -0.144484 0.177287 0.678473
v -0.144786 0.179643 0.681759
v -0.144296 0.179675 0.685301
v -0.191328 0.238600 0.660859
v -0.165186 0.189603 0.696102
v -0.168296 0.191376 0.688991
v -0.197815 0.247883 0.650045
v -0.193882 0.243029 0.640318
v -0.197939 0.253942 0.637409
v -0.160528 0.165129 0.658280
v -0.181277 0.222319 0.638091
v -0.187058 0.238739 0.634187
v -0.191582 0.252173 0.631590
v -0.196690 0.260460 0.627689
v -0.202702 0.262066 0.635151
v -0.125854 0.110820 0.643035
v -0.126156 0.107360 0.654835
v -0.207169 0.272071 0.632207
v -0.201271 0.268533 0.623143
v -0.175467 0.234931 0.626893
v -0.167698 0.229590 0.619296
v -0.175104 0.217912 0.630840
v -0.165993 0.212137 0.622694
v -0.170833 0.156057 0.643912
v -0.103843 0.109144 0.666383
v -0.117430 0.112644 0.662760
v -0.114497 0.118650 0.662731
v -0.102170 0.112440 0.668509
v -0.124584 0.115564 0.659935
v -0.119021 0.107917 0.657752
v -0.148698 0.207935 0.614746
v -0.132795 0.146412 0.641392
v -0.143356 0.227773 0.612386
v -0.131897 0.199414 0.617005
v -0.124386 0.214976 0.618401
v -0.135168 0.250249 0.609663
v -0.118805 0.232939 0.613292
v -0.152669 0.272650 0.604682
v -0.146133 0.261986 0.607923
v -0.110150 0.218990 0.627513
v -0.094765 0.116751 0.657273
v -0.096981 0.119104 0.662687
v -0.167790 0.268924 0.605397
v -0.125277 0.207365 0.666735
v -0.151404 0.239505 0.665320
v -0.149752 0.236906 0.658123
v -0.161825 0.251051 0.686064
v -0.153651 0.244299 0.675642
v -0.094627 0.112864 0.652868
v -0.136604 0.159505 0.659037
v -0.138090 0.165830 0.660579
v -0.105836 0.200771 0.668552
v -0.102214 0.190392 0.667792
v -0.097148 0.186390 0.654963
v -0.097484 0.187886 0.662101
v -0.102509 0.201261 0.658765
v -0.100495 0.199897 0.649359
v -0.148253 0.251255 0.658464
v -0.152094 0.252131 0.663199
v -0.183889 0.246336 0.675342
v -0.173654 0.250753 0.688345
v -0.123375 0.142863 0.618822
v -0.135263 0.150581 0.612498
v -0.131750 0.140562 0.618577
v -0.135174 0.131710 0.627752
v -0.130282 0.140827 0.642083
v -0.134691 0.140652 0.641175
v -0.127079 0.259090 0.647695
v -0.135496 0.243793 0.642808
v -0.122163 0.188478 0.661230
v -0.119578 0.178138 0.661793
v -0.138817 0.174705 0.650678
v -0.150181 0.155543 0.657040
v -0.157190 0.149331 0.649862
v -0.140854 0.161600 0.649878
v -0.098338 0.105366 0.652448
v -0.095607 0.109255 0.651795
v -0.139616 0.141277 0.620620
v -0.145126 0.188329 0.674615
v -0.150814 0.164364 0.662057
v -0.141145 0.158322 0.658575
v -0.159452 0.194204 0.699768
v -0.182292 0.269594 0.614742
v -0.110360 0.123653 0.661160
v -0.099856 0.118386 0.666659
v -0.105141 0.106439 0.662528
v -0.103705 0.103778 0.656028
v -0.176608 0.262888 0.682895
v -0.149085 0.234059 0.653763
v -0.107441 0.203667 0.640664
v -0.102512 0.185989 0.648081
v -0.138854 0.153634 0.648133
v -0.163133 0.183703 0.683077
v -0.160865 0.167164 0.673290
v -0.150656 0.163703 0.678037
v -0.145228 0.160929 0.671166
v -0.138745 0.163813 0.665315
v -0.098141 0.105749 0.666131
v -0.097412 0.103543 0.660428
v -0.092059 0.104362 0.656179
v -0.089652 0.107344 0.655733
v -0.089840 0.111996 0.656705
v -0.096590 0.107444 0.670310
v -0.094917 0.109870 0.672797
v -0.094899 0.116410 0.670161
v -0.090511 0.104176 0.673575
v -0.088243 0.099093 0.670107
v -0.074892 0.096919 0.661599
v -0.082227 0.097954 0.659582
v -0.080781 0.095799 0.661827
v -0.074963 0.094024 0.664598
v -0.069772 0.091593 0.668537
v -0.068924 0.094179 0.665312
v -0.085513 0.096856 0.664722
v -0.078317 0.093383 0.668287
v -0.080272 0.094538 0.673008
v -0.073974 0.091645 0.675577
v -0.072513 0.089792 0.671733
v -0.084964 0.096656 0.669922
v -0.087800 0.098872 0.664206
v -0.065316 0.091679 0.669723
v -0.066727 0.089203 0.670723
v -0.068573 0.088355 0.673881
v -0.064423 0.089611 0.675887
v -0.083756 0.104840 0.656990
v -0.073975 0.099886 0.661120
v -0.068306 0.097537 0.666221
v -0.064822 0.094881 0.670693
v -0.072901 0.103353 0.664101
v -0.068849 0.100252 0.668294
v -0.066195 0.098468 0.672744
v -0.073592 0.105637 0.668412
v -0.069700 0.102342 0.671592
v -0.086388 0.114129 0.661628
v -0.085739 0.110590 0.657666
v -0.066780 0.100906 0.673573
v -0.063997 0.092303 0.677372
v -0.082399 0.097967 0.675438
v -0.073665 0.095286 0.677681
v -0.082187 0.100612 0.676960
v -0.073602 0.097839 0.679601
v -0.068472 0.091813 0.679336
v -0.070387 0.090119 0.676469
v -0.091565 0.115937 0.660013
v -0.093603 0.117703 0.665935
v -0.088883 0.116384 0.668364
v -0.075100 0.107781 0.673542
v -0.089694 0.114705 0.672843
v -0.088771 0.107255 0.675267
v -0.080181 0.103121 0.678639
v -0.078298 0.106139 0.678070
v -0.073670 0.100195 0.680525
v -0.072786 0.102441 0.678944
v -0.070291 0.103776 0.675541
v -0.068348 0.097999 0.679910
v -0.067940 0.094452 0.680105
v -0.065344 0.096933 0.677166
v -0.069242 0.100336 0.679453
v -0.067280 0.100086 0.676692
v -0.124176 0.134805 0.658131
v -0.124010 0.139381 0.665096
v -0.114067 0.138389 0.659757
v -0.114732 0.133380 0.654713
v -0.109391 0.127638 0.661317
v -0.114714 0.129781 0.656914
v -0.112723 0.125062 0.657099
v -0.113031 0.122767 0.664826
v -0.107749 0.129396 0.668485
v -0.114719 0.125258 0.672783
v -0.119329 0.122447 0.665025
v -0.116625 0.126660 0.657481
v -0.132255 0.138212 0.645237
v -0.139033 0.138204 0.651325
v -0.130318 0.155804 0.652356
v -0.131906 0.156577 0.656525
v -0.120562 0.131978 0.655731
v -0.113803 0.129024 0.653052
v -0.116387 0.146837 0.665531
v -0.114356 0.144886 0.660616
v -0.114787 0.141493 0.665021
v -0.114204 0.142779 0.670949
v -0.126256 0.144464 0.639766
v -0.129974 0.150476 0.646317
v -0.128014 0.139067 0.641501
v -0.118658 0.143930 0.671878
v -0.120959 0.137256 0.676757
v -0.141179 0.146969 0.663339
v -0.136190 0.151883 0.662192
v -0.114999 0.130827 0.654314
v -0.112487 0.140685 0.656885
v -0.112999 0.135604 0.653427
v -0.122559 0.128443 0.672314
v -0.112374 0.135901 0.677744
v -0.113530 0.152972 0.666836
v -0.115576 0.140888 0.676315
v -0.120065 0.142897 0.674659
v -0.118255 0.155929 0.665715
v -0.113176 0.138976 0.675796
v -0.110312 0.136801 0.675554
v -0.123040 0.152961 0.651764
v -0.123812 0.156592 0.658028
v -0.119986 0.150676 0.649495
v -0.143863 0.140935 0.657962
v -0.109957 0.144049 0.654257
v -0.115940 0.147513 0.650278
v -0.124062 0.142195 0.671182
v -0.122151 0.158156 0.662712
v -0.110402 0.149716 0.666001
v -0.108217 0.143548 0.661436
v -0.109150 0.157248 0.660197
v -0.106229 0.152960 0.655771
v -0.108358 0.152036 0.649225
v -0.114039 0.152843 0.646925
v -0.118681 0.153896 0.647138
v -0.112248 0.160085 0.661477
v -0.116334 0.162296 0.661545
v -0.120903 0.160919 0.660007
v -0.115441 0.168470 0.656163
v -0.112256 0.168092 0.652649
v -0.120223 0.170664 0.632639
v -0.116633 0.165430 0.636679
v -0.114991 0.168093 0.637982
v -0.118444 0.173244 0.634380
v -0.111702 0.161605 0.641468
v -0.111957 0.164725 0.641525
v -0.110897 0.166579 0.646308
v -0.113966 0.172120 0.641702
v -0.115292 0.173959 0.646719
v -0.118028 0.179402 0.642355
v -0.116458 0.177726 0.637390
v -0.112473 0.169777 0.648787
v -0.120274 0.177234 0.632478
v -0.122715 0.176923 0.631444
v -0.108953 0.163735 0.648189
v -0.114553 0.155936 0.643638
v -0.119726 0.163866 0.636585
v -0.123569 0.169939 0.632791
v -0.125713 0.177256 0.632605
v -0.123446 0.164492 0.638309
v -0.126273 0.170720 0.634866
v -0.127330 0.176836 0.635076
v -0.126787 0.166260 0.641853
v -0.128918 0.172616 0.638592
v -0.121551 0.156274 0.649633
v -0.118978 0.154800 0.645630
v -0.128563 0.175692 0.637468
v -0.122064 0.182920 0.632958
v -0.125794 0.181761 0.634687
v -0.120291 0.181338 0.634152
v -0.116925 0.174468 0.648823
v -0.120599 0.179611 0.643459
v -0.119778 0.174452 0.650622
v -0.123679 0.179800 0.644324
v -0.122570 0.183209 0.638545
v -0.121099 0.182340 0.638008
v -0.121035 0.155658 0.650548
v -0.122404 0.158799 0.656431
v -0.122830 0.159269 0.655153
v -0.127826 0.169427 0.646894
v -0.121589 0.162597 0.658516
v -0.118826 0.166953 0.657738
v -0.122426 0.173833 0.651752
v -0.126122 0.172445 0.650352
v -0.125511 0.180360 0.645903
v -0.127515 0.177477 0.646527
v -0.129999 0.174640 0.642945
v -0.126913 0.182859 0.640625
v -0.124592 0.183345 0.639152
v -0.127415 0.180733 0.636438
v -0.128447 0.180704 0.642791
v -0.128997 0.178363 0.639250
v -0.113244 0.182225 0.669950
v -0.117178 0.185420 0.675013
v -0.118482 0.182555 0.675424
v -0.115245 0.178363 0.670980
v -0.103311 0.170988 0.680954
v -0.104457 0.174961 0.675077
v -0.107079 0.168190 0.674823
v -0.106150 0.161766 0.680976
v -0.104973 0.173257 0.688239
v -0.109456 0.161650 0.690098
v -0.113908 0.157628 0.680335
v -0.112608 0.163621 0.674487
v -0.131984 0.162575 0.669504
v -0.134412 0.157826 0.675240
v -0.108584 0.179053 0.671877
v -0.111191 0.173896 0.672058
v -0.124255 0.182709 0.685101
v -0.122364 0.184052 0.680436
v -0.120975 0.185204 0.681848
v -0.121830 0.183096 0.686617
v -0.136954 0.176035 0.662970
v -0.139846 0.180859 0.669113
v -0.132952 0.169446 0.664218
v -0.123874 0.176436 0.691281
v -0.121449 0.166259 0.694565
v -0.141584 0.169744 0.687707
v -0.141844 0.176579 0.686313
v -0.114874 0.170152 0.672230
v -0.120147 0.181593 0.673443
v -0.117391 0.176641 0.670319
v -0.118577 0.159024 0.688077
v -0.114329 0.170847 0.696106
v -0.104064 0.201088 0.689179
v -0.116094 0.182544 0.692033
v -0.120357 0.186303 0.686331
v -0.106888 0.203901 0.686146
v -0.118978 0.178843 0.693036
v -0.111586 0.177419 0.693519
v -0.102342 0.202217 0.670743
v -0.106696 0.203623 0.675050
v -0.099255 0.198200 0.671415
v -0.138928 0.160191 0.682122
v -0.141981 0.182587 0.680831
v -0.095125 0.194580 0.678675
v -0.096596 0.196210 0.673672
v -0.120120 0.187190 0.681295
v -0.108452 0.205139 0.681308
v -0.101323 0.197304 0.688393
v -0.097060 0.193445 0.685115
v -0.098795 0.205869 0.688993
v -0.093778 0.202073 0.685479
v -0.090485 0.202855 0.680081
v -0.090430 0.203704 0.674850
v -0.093255 0.205532 0.671719
v -0.100908 0.209710 0.688710
v -0.102618 0.212158 0.685178
v -0.105394 0.209370 0.680209
v -0.098686 0.216754 0.688431
v -0.092892 0.215062 0.690572
v -0.074842 0.225273 0.682239
v -0.079301 0.218858 0.681379
v -0.078856 0.219065 0.683124
v -0.074891 0.225092 0.684588
v -0.084228 0.211508 0.683027
v -0.082969 0.213555 0.684493
v -0.086477 0.213506 0.688175
v -0.080929 0.220453 0.689732
v -0.088746 0.223765 0.690930
v -0.084420 0.228378 0.690544
v -0.077211 0.225760 0.690259
v -0.090423 0.216751 0.690727
v -0.073682 0.228933 0.686195
v -0.071593 0.229580 0.684066
v -0.088607 0.210927 0.687173
v -0.084657 0.210094 0.676530
v -0.079379 0.219377 0.677138
v -0.075302 0.226239 0.677533
v -0.074234 0.231544 0.679781
v -0.082506 0.220978 0.674026
v -0.078406 0.227555 0.675350
v -0.077574 0.232267 0.677590
v -0.085723 0.222343 0.673313
v -0.082218 0.228471 0.675262
v -0.094275 0.210170 0.671490
v -0.088536 0.209548 0.672728
v -0.080483 0.232132 0.677159
v -0.074185 0.233026 0.688659
v -0.077815 0.235799 0.684586
v -0.075629 0.230628 0.688911
v -0.091583 0.224195 0.690907
v -0.086564 0.231131 0.690481
v -0.094208 0.225089 0.688461
v -0.089665 0.232714 0.689510
v -0.081501 0.233764 0.690663
v -0.080783 0.232132 0.690303
v -0.098904 0.206344 0.671633
v -0.103814 0.208154 0.675002
v -0.099222 0.212249 0.673930
v -0.089673 0.225220 0.675638
v -0.101706 0.214027 0.678693
v -0.099362 0.218320 0.684616
v -0.094842 0.225946 0.684543
v -0.093249 0.226795 0.680179
v -0.090883 0.233184 0.686016
v -0.090313 0.231824 0.682087
v -0.086646 0.231271 0.676793
v -0.085604 0.235629 0.685367
v -0.083852 0.235572 0.688893
v -0.080512 0.235864 0.681468
v -0.086609 0.234497 0.682281
v -0.082906 0.234319 0.679405
v -0.141351 0.182065 0.675685
v -0.144675 0.148498 0.683548
v -0.144200 0.151508 0.687850
v -0.145239 0.152669 0.687907
v -0.145337 0.151054 0.683073
v -0.158738 0.144686 0.684267
v -0.152802 0.145002 0.682277
v -0.156631 0.148420 0.678636
v -0.163583 0.147424 0.680315
v -0.161696 0.146105 0.689031
v -0.165547 0.148828 0.685968
v -0.162895 0.152956 0.678255
v -0.155908 0.154496 0.676811
v -0.156504 0.176114 0.681821
v -0.162686 0.176837 0.682577
v -0.156435 0.186570 0.699128
v -0.150640 0.186241 0.697667
v -0.147063 0.176516 0.695694
v -0.153046 0.176370 0.699347
v -0.147862 0.146395 0.682076
v -0.149759 0.150566 0.679548
v -0.151710 0.154244 0.697088
v -0.146857 0.154819 0.692748
v -0.145736 0.154562 0.691694
v -0.148743 0.154974 0.695819
v -0.145519 0.184644 0.693308
v -0.144947 0.182973 0.689609
v -0.141432 0.178120 0.687152
v -0.143522 0.175829 0.691099
v -0.144682 0.176392 0.682618
v -0.158237 0.152992 0.697457
v -0.165583 0.152480 0.693109
v -0.164176 0.179248 0.697975
v -0.159514 0.178508 0.700313
v -0.147959 0.153622 0.678374
v -0.146374 0.155078 0.688118
v -0.144149 0.153515 0.683191
v -0.166340 0.151810 0.684430
v -0.162723 0.151466 0.694095
v -0.144037 0.143853 0.702047
v -0.151887 0.154157 0.697861
v -0.146091 0.154763 0.695594
v -0.141127 0.144412 0.701204
v -0.154858 0.152500 0.697335
v -0.157707 0.150754 0.695915
v -0.138159 0.137940 0.689063
v -0.137439 0.142540 0.693593
v -0.141023 0.135927 0.687802
v -0.167120 0.178815 0.689041
v -0.148818 0.135011 0.691849
v -0.144420 0.134002 0.688955
v -0.143958 0.153591 0.691788
v -0.138734 0.144463 0.698083
v -0.147795 0.141606 0.701206
v -0.150784 0.138037 0.696415
v -0.144958 0.136073 0.705820
v -0.147721 0.132986 0.700337
v -0.144889 0.129095 0.695234
v -0.141549 0.130045 0.692357
v -0.138612 0.131889 0.690952
v -0.140590 0.139098 0.706057
v -0.137685 0.140227 0.704246
v -0.135395 0.141044 0.700003
v -0.137711 0.133822 0.709591
v -0.140536 0.128543 0.710044
v -0.129720 0.115315 0.703588
v -0.133641 0.118856 0.700842
v -0.134726 0.118277 0.702320
v -0.130767 0.114621 0.704377
v -0.139747 0.122969 0.699390
v -0.139277 0.121681 0.701453
v -0.141503 0.124456 0.704520
v -0.136688 0.119174 0.707239
v -0.134463 0.123381 0.711890
v -0.130617 0.118753 0.713302
v -0.133274 0.115726 0.709165
v -0.139704 0.125727 0.709490
v -0.129063 0.112289 0.706788
v -0.127038 0.110894 0.707076
v -0.143551 0.126219 0.703546
v -0.137283 0.125732 0.695030
v -0.130962 0.119188 0.698981
v -0.126588 0.114554 0.702928
v -0.124271 0.111561 0.707721
v -0.129564 0.122074 0.697941
v -0.124576 0.116172 0.702396
v -0.122703 0.114219 0.706694
v -0.127842 0.125737 0.698664
v -0.123908 0.119629 0.703069
v -0.133708 0.132740 0.694313
v -0.135180 0.128938 0.693819
v -0.122917 0.116680 0.706350
v -0.127294 0.110615 0.712448
v -0.123836 0.112386 0.712190
v -0.129671 0.112658 0.710977
v -0.133965 0.124860 0.712966
v -0.129033 0.119520 0.715039
v -0.132151 0.127492 0.713322
v -0.127168 0.121388 0.715070
v -0.126960 0.114630 0.715387
v -0.129244 0.114964 0.713480
v -0.135622 0.134701 0.692118
v -0.135021 0.138972 0.695041
v -0.133327 0.136255 0.697852
v -0.127699 0.129039 0.702030
v -0.133841 0.138140 0.702956
v -0.135756 0.136695 0.707035
v -0.130328 0.129500 0.711187
v -0.128596 0.130125 0.707625
v -0.125409 0.122425 0.713449
v -0.124384 0.123487 0.709942
v -0.123438 0.122672 0.705696
v -0.123339 0.117254 0.712740
v -0.124448 0.115835 0.714636
v -0.122807 0.115117 0.710551
v -0.122895 0.118814 0.710635
v -0.122829 0.117946 0.708587
v -0.160036 0.184702 0.699027
v -0.101701 0.165031 0.659480
v -0.107025 0.164338 0.659322
v -0.109313 0.167868 0.676801
v -0.112134 0.164046 0.669360
v -0.101371 0.170434 0.678717
v -0.090965 0.169960 0.672095
v -0.095209 0.172239 0.675549
v -0.110072 0.162852 0.663163
v -0.097122 0.165289 0.660977
v -0.090492 0.168450 0.665726
v -0.089736 0.153181 0.669061
v -0.086453 0.158870 0.674080
v -0.090782 0.164290 0.680438
v -0.096956 0.166760 0.681170
v -0.102431 0.166790 0.681308
v -0.099173 0.156500 0.664831
v -0.104799 0.156893 0.664612
v -0.109758 0.158613 0.667800
v -0.101085 0.146902 0.673733
v -0.106728 0.146114 0.687237
v -0.122668 0.156674 0.707637
v -0.115174 0.159953 0.701665
v -0.114640 0.156687 0.701495
v -0.121405 0.154006 0.707611
v -0.108566 0.160341 0.697429
v -0.108749 0.157449 0.697441
v -0.106153 0.152538 0.692509
v -0.112850 0.149285 0.699604
v -0.109175 0.147990 0.690019
v -0.115155 0.145036 0.693588
v -0.120344 0.146632 0.705440
v -0.124739 0.150049 0.711494
v -0.126609 0.144903 0.710747
v -0.127271 0.152467 0.712170
v -0.100752 0.150862 0.693594
v -0.106492 0.166007 0.691453
v -0.116513 0.163746 0.699535
v -0.124383 0.160045 0.705716
v -0.129489 0.154220 0.709270
v -0.119450 0.164566 0.695078
v -0.125997 0.160266 0.700538
v -0.129965 0.154161 0.702467
v -0.120957 0.161735 0.689893
v -0.126337 0.157315 0.695522
v -0.111288 0.166580 0.678586
v -0.108191 0.168479 0.684570
v -0.128830 0.153686 0.698667
v -0.129090 0.144155 0.712460
v -0.131606 0.146124 0.707982
v -0.114990 0.144138 0.688999
v -0.121568 0.142342 0.699408
v -0.122561 0.141978 0.695951
v -0.115942 0.144365 0.684296
v -0.124365 0.140946 0.692823
v -0.127801 0.140720 0.704337
v -0.125017 0.141947 0.705509
v -0.108705 0.165817 0.679006
v -0.111348 0.162103 0.673046
v -0.112915 0.161568 0.672652
v -0.120362 0.156712 0.683677
v -0.111816 0.155569 0.670002
v -0.106375 0.150758 0.670734
v -0.118137 0.146257 0.681415
v -0.119894 0.150706 0.680711
v -0.126123 0.143989 0.689963
v -0.126721 0.147512 0.689156
v -0.127096 0.152624 0.691706
v -0.129825 0.144547 0.696742
v -0.129559 0.141387 0.700450
v -0.131469 0.148467 0.701415
v -0.128838 0.146961 0.694220
v -0.129585 0.150009 0.696903
v -0.153005 0.196524 0.697951
v -0.146953 0.194450 0.692697
v -0.148709 0.204124 0.692866
v -0.154588 0.216153 0.689225
v -0.161330 0.228758 0.693177
v -0.152502 0.214325 0.681876
v -0.144766 0.202058 0.684612
v -0.146240 0.189285 0.684127
v -0.153709 0.222062 0.672856
f 4 3 1
f 1 3 2
f 5 8 6
f 6 8 7
f 9 10 4
f 4 10 3
f 9 13 11
f 11 13 12
f 14 16 12
f 12 16 15
f 20 19 17
f 17 19 18
f 24 23 21
f 21 23 22
f 28 27 25
f 25 27 26
f 32 31 29
f 29 31 30
f 33 36 34
f 34 36 35
f 37 40 38
f 38 40 39
f 41 6 42
f 42 6 43
f 6 7 43
f 43 7 44
f 45 46 34
f 34 46 33
f 50 49 47
f 47 49 48
f 54 53 51
f 51 53 52
f 51 52 55
f 55 52 56
f 60 59 57
f 57 59 58
f 1 62 4
f 4 62 61
f 66 65 63
f 63 65 64
f 70 69 67
f 67 69 68
f 74 73 71
f 71 73 72
f 78 77 75
f 75 77 76
f 80 79 54
f 54 79 53
f 84 83 81
f 81 83 82
f 85 52 86
f 86 52 53
f 88 60 87
f 87 60 57
f 44 90 43
f 43 90 89
f 91 42 89
f 89 42 43
f 93 39 92
f 92 39 40
f 69 70 64
f 64 70 94
f 4 61 9
f 9 61 13
f 25 69 28
f 28 69 95
f 69 25 68
f 68 25 96
f 100 99 97
f 97 99 98
f 101 104 102
f 102 104 103
f 29 30 105
f 105 30 106
f 108 54 107
f 107 54 51
f 109 80 108
f 108 80 54
f 113 112 110
f 110 112 111
f 116 5 114
f 114 5 115
f 115 5 41
f 41 5 6
f 36 111 35
f 35 111 117
f 35 117 118
f 118 117 119
f 34 35 120
f 120 35 118
f 34 120 45
f 45 120 121
f 127 126 124
f 124 126 125
f 130 129 14
f 14 129 128
f 132 131 46
f 46 131 33
f 64 94 63
f 63 94 133
f 134 137 135
f 135 137 136
f 141 140 138
f 138 140 139
f 143 142 78
f 78 142 77
f 144 20 145
f 145 20 146
f 72 149 147
f 147 149 148
f 153 152 150
f 150 152 151
f 104 101 83
f 83 101 82
f 101 155 82
f 82 155 154
f 59 157 58
f 58 157 156
f 67 68 147
f 147 68 158
f 159 15 146
f 146 15 16
f 160 158 96
f 96 158 68
f 65 66 130
f 130 66 129
f 164 163 161
f 161 163 162
f 168 167 165
f 165 167 166
f 172 171 169
f 169 171 170
f 170 171 173
f 173 171 174
f 178 177 175
f 175 177 176
f 24 181 179
f 179 181 180
f 184 183 21
f 21 183 182
f 154 185 82
f 82 185 81
f 186 188 187
f 187 188 144
f 189 71 160
f 160 71 158
f 59 135 157
f 157 135 190
f 140 172 139
f 139 172 169
f 71 72 158
f 158 72 147
f 194 193 191
f 191 193 192
f 167 49 166
f 166 49 195
f 157 190 50
f 50 190 196
f 197 200 198
f 198 200 199
f 181 24 182
f 182 24 21
f 17 159 20
f 20 159 146
f 185 181 81
f 81 181 182
f 181 185 180
f 180 185 201
f 84 203 83
f 83 203 202
f 85 206 204
f 204 206 205
f 21 22 184
f 184 22 207
f 23 24 208
f 208 24 179
f 205 209 179
f 179 209 208
f 206 210 205
f 205 210 209
f 210 206 211
f 211 206 212
f 204 205 180
f 180 205 179
f 213 88 176
f 176 88 214
f 206 85 212
f 212 85 86
f 193 218 217
f 220 219 218
f 218 219 217
f 17 18 220
f 220 18 219
f 144 221 20
f 20 221 19
f 222 225 223
f 223 225 224
f 214 226 176
f 176 226 175
f 88 87 214
f 214 87 227
f 159 17 228
f 228 17 220
f 134 60 213
f 213 60 88
f 152 229 151
f 151 229 138
f 211 192 210
f 210 192 193
f 193 194 218
f 218 194 230
f 230 232 228
f 228 232 231
f 89 234 91
f 91 234 233
f 235 93 236
f 236 93 92
f 237 232 234
f 234 232 230
f 239 238 48
f 48 238 47
f 236 191 235
f 235 191 240
f 241 8 116
f 116 8 5
f 160 243 189
f 189 243 242
f 99 245 98
f 98 245 244
f 238 246 47
f 47 246 156
f 248 247 77
f 77 247 76
f 124 125 249
f 249 125 250
f 254 253 251
f 251 253 252
f 111 36 110
f 110 36 255
f 256 255 33
f 33 255 36
f 257 154 258
f 258 154 155
f 139 169 133
f 133 169 63
f 66 63 170
f 170 63 169
f 66 170 129
f 129 170 173
f 259 128 173
f 173 128 129
f 261 260 259
f 259 260 128
f 213 262 134
f 134 262 137
f 187 264 186
f 186 264 263
f 266 265 113
f 113 265 112
f 11 268 267
f 194 233 230
f 230 233 234
f 67 269 70
f 70 269 153
f 141 178 165
f 165 178 175
f 70 153 94
f 94 153 150
f 207 221 270
f 270 221 271
f 152 153 272
f 272 153 269
f 108 45 109
f 109 45 121
f 157 50 156
f 156 50 47
f 274 273 58
f 58 273 57
f 261 275 260
f 260 275 145
f 78 149 143
f 143 149 276
f 272 269 75
f 75 269 148
f 278 277 270
f 270 277 207
f 50 196 49
f 49 196 195
f 59 60 135
f 135 60 134
f 83 202 104
f 104 202 279
f 75 148 78
f 78 148 149
f 277 278 248
f 248 278 247
f 81 182 84
f 84 182 183
f 282 239 281
f 281 239 48
f 222 223 283
f 283 223 227
f 168 226 224
f 224 226 223
f 225 282 224
f 224 282 281
f 226 168 175
f 175 168 165
f 229 263 138
f 138 263 264
f 260 16 128
f 128 16 14
f 220 218 228
f 228 218 230
f 283 227 284
f 284 227 87
f 146 16 145
f 145 16 260
f 155 98 258
f 258 98 244
f 246 274 156
f 156 274 58
f 55 285 51
f 51 285 107
f 96 286 160
f 160 286 243
f 90 237 89
f 89 237 234
f 285 132 107
f 107 132 46
f 253 249 252
f 252 249 250
f 25 26 96
f 96 26 286
f 288 105 287
f 287 105 106
f 229 152 289
f 289 152 272
f 138 139 151
f 151 139 133
f 162 290 161
f 161 290 183
f 293 292 277
f 277 292 291
f 94 150 133
f 133 150 151
f 262 177 275
f 275 177 187
f 275 187 145
f 145 187 144
f 273 284 57
f 57 284 87
f 135 136 190
f 190 136 174
f 111 112 117
f 117 112 38
f 117 38 119
f 119 38 123
f 37 38 265
f 265 38 112
f 251 288 254
f 254 288 287
f 15 159 231
f 231 159 228
f 214 227 226
f 226 227 223
f 269 67 148
f 148 67 147
f 167 168 281
f 281 168 224
f 162 163 200
f 200 163 199
f 107 46 108
f 108 46 45
f 49 167 48
f 48 167 281
f 292 164 291
f 291 164 161
f 38 39 123
f 248 294 277
f 277 294 293
f 284 296 283
f 283 296 295
f 297 296 273
f 273 296 284
f 274 298 273
f 273 298 297
f 246 299 274
f 274 299 298
f 283 295 222
f 222 295 300
f 222 300 225
f 225 300 301
f 301 302 225
f 225 302 282
f 303 300 304
f 304 300 295
f 308 307 305
f 305 307 306
f 305 310 308
f 308 310 309
f 308 312 307
f 307 312 311
f 315 314 312
f 312 314 313
f 313 316 312
f 312 316 311
f 316 304 311
f 311 304 317
f 315 312 309
f 309 312 308
f 318 321 319
f 319 321 320
f 319 309 318
f 318 309 310
f 311 317 307
f 307 317 306
f 296 297 317
f 317 297 306
f 306 297 322
f 322 297 298
f 305 306 323
f 323 306 322
f 310 305 324
f 324 305 323
f 296 317 295
f 295 317 304
f 318 310 325
f 325 310 324
f 327 324 326
f 326 324 323
f 324 327 325
f 325 327 328
f 330 327 329
f 329 327 326
f 332 331 326
f 326 331 329
f 327 330 328
f 328 330 333
f 323 322 326
f 326 322 332
f 299 332 298
f 298 332 322
f 325 334 318
f 318 334 321
f 304 316 335
f 335 316 313
f 335 313 336
f 336 313 314
f 337 303 335
f 335 303 304
f 336 338 335
f 335 338 337
f 336 314 339
f 339 314 340
f 341 299 238
f 238 299 246
f 302 342 282
f 282 342 239
f 238 239 341
f 341 239 342
f 341 342 331
f 331 342 343
f 331 343 329
f 329 343 344
f 345 343 302
f 302 343 342
f 332 299 331
f 331 299 341
f 346 345 301
f 301 345 302
f 300 303 301
f 301 303 346
f 303 337 346
f 346 337 347
f 347 348 346
f 346 348 345
f 349 350 347
f 347 350 348
f 348 344 345
f 345 344 343
f 344 348 351
f 351 348 350
f 337 338 347
f 347 338 349
f 349 338 352
f 352 338 353
f 356 355 354
f 354 355 352
f 350 349 355
f 355 349 352
f 352 353 354
f 354 353 334
f 321 334 339
f 339 334 353
f 338 336 353
f 353 336 339
f 351 330 344
f 344 330 329
f 356 333 351
f 351 333 330
f 356 351 355
f 355 351 350
f 354 328 356
f 356 328 333
f 334 325 354
f 354 325 328
f 320 315 319
f 319 315 309
f 320 321 340
f 340 321 339
f 314 315 340
f 340 315 320
f 137 261 136
f 136 261 259
f 165 166 141
f 141 166 140
f 196 171 195
f 195 171 172
f 190 174 196
f 196 174 171
f 187 177 264
f 264 177 178
f 166 195 140
f 140 195 172
f 275 261 262
f 262 261 137
f 138 264 141
f 141 264 178
f 262 213 177
f 177 213 176
f 173 174 259
f 259 174 136
f 360 359 357
f 357 359 358
f 364 363 361
f 361 363 362
f 366 364 365
f 365 364 361
f 367 370 368
f 368 370 369
f 372 371 247
f 247 371 76
f 363 374 362
f 362 374 373
f 378 377 375
f 375 377 376
f 289 380 229
f 229 380 379
f 229 379 263
f 263 379 381
f 385 384 382
f 382 384 383
f 363 368 374
f 374 368 386
f 76 371 289
f 289 371 380
f 377 359 376
f 376 359 387
f 374 386 360
f 360 386 388
f 389 366 383
f 383 366 390
f 394 393 391
f 391 393 392
f 383 390 382
f 382 390 395
f 366 365 390
f 390 365 396
f 364 366 367
f 367 366 389
f 398 397 358
f 358 397 357
f 397 399 357
f 357 399 373
f 389 400 367
f 367 400 370
f 372 385 375
f 375 385 382
f 374 360 373
f 373 360 357
f 402 401 362
f 362 401 361
f 360 388 359
f 359 388 387
f 363 364 368
f 368 364 367
f 404 398 403
f 403 398 358
f 391 392 405
f 405 392 396
f 378 395 393
f 393 395 392
f 393 394 403
f 403 394 404
f 395 378 382
f 382 378 375
f 405 396 406
f 406 396 365
f 399 402 373
f 373 402 362
f 384 270 400
f 400 270 271
f 401 406 361
f 361 406 365
f 368 369 386
f 386 369 381
f 390 396 395
f 395 396 392
f 377 378 403
f 403 378 393
f 359 377 358
f 358 377 403
f 406 408 405
f 405 408 407
f 409 408 401
f 401 408 406
f 410 409 402
f 402 409 401
f 411 410 399
f 399 410 402
f 405 407 391
f 391 407 412
f 391 412 394
f 394 412 413
f 414 404 413
f 413 404 394
f 415 412 416
f 416 412 407
f 420 419 417
f 417 419 418
f 419 422 418
f 418 422 421
f 419 424 422
f 422 424 423
f 427 426 424
f 424 426 425
f 425 428 424
f 424 428 423
f 427 424 420
f 420 424 419
f 420 417 429
f 429 417 430
f 423 431 422
f 422 431 421
f 408 409 431
f 431 409 421
f 421 409 432
f 432 409 410
f 418 421 433
f 433 421 432
f 434 417 433
f 433 417 418
f 428 416 423
f 423 416 431
f 408 431 407
f 407 431 416
f 417 434 430
f 430 434 435
f 437 434 436
f 436 434 433
f 434 437 435
f 435 437 438
f 440 437 439
f 439 437 436
f 442 441 436
f 436 441 439
f 438 437 443
f 443 437 440
f 432 442 433
f 433 442 436
f 411 442 410
f 410 442 432
f 435 445 430
f 430 445 444
f 430 444 429
f 429 444 446
f 416 428 447
f 447 428 425
f 426 448 425
f 425 448 447
f 449 415 447
f 447 415 416
f 450 449 448
f 448 449 447
f 426 452 448
f 448 452 451
f 446 444 452
f 452 444 451
f 453 411 397
f 397 411 399
f 414 454 404
f 404 454 398
f 397 398 453
f 453 398 454
f 453 454 441
f 441 454 455
f 441 455 439
f 439 455 456
f 457 455 414
f 414 455 454
f 441 442 453
f 453 442 411
f 458 457 413
f 413 457 414
f 412 415 413
f 413 415 458
f 458 415 459
f 459 415 449
f 459 460 458
f 458 460 457
f 461 462 459
f 459 462 460
f 460 456 457
f 457 456 455
f 456 460 463
f 463 460 462
f 450 461 449
f 449 461 459
f 461 450 464
f 464 450 465
f 468 467 466
f 466 467 464
f 462 461 467
f 467 461 464
f 464 465 466
f 466 465 445
f 444 445 451
f 451 445 465
f 450 448 465
f 465 448 451
f 463 440 456
f 456 440 439
f 468 443 463
f 463 443 440
f 468 463 467
f 467 463 462
f 466 438 468
f 468 438 443
f 445 435 466
f 466 435 438
f 446 427 429
f 429 427 420
f 426 427 452
f 452 427 446
f 370 188 369
f 369 188 186
f 375 376 372
f 372 376 371
f 388 379 387
f 387 379 380
f 386 381 388
f 388 381 379
f 270 384 278
f 278 384 385
f 376 387 371
f 371 387 380
f 400 271 370
f 370 271 188
f 247 278 372
f 372 278 385
f 400 389 384
f 384 389 383
f 263 381 186
f 186 381 369
f 221 144 271
f 271 144 188
f 22 19 207
f 207 19 221
f 23 18 22
f 22 18 19
f 208 219 23
f 23 219 18
f 469 472 470
f 470 472 471
f 476 475 473
f 473 475 474
f 478 476 477
f 477 476 473
f 482 481 479
f 479 481 480
f 475 484 474
f 474 484 483
f 488 487 485
f 485 487 486
f 142 490 77
f 77 490 489
f 77 489 248
f 248 489 491
f 495 494 492
f 492 494 493
f 475 480 484
f 484 480 496
f 471 497 487
f 487 497 486
f 484 496 472
f 472 496 498
f 499 478 493
f 493 478 500
f 501 504 502
f 502 504 503
f 493 500 492
f 492 500 505
f 478 477 500
f 500 477 506
f 476 478 479
f 479 478 499
f 508 507 470
f 470 507 469
f 507 509 469
f 469 509 483
f 510 482 499
f 499 482 479
f 511 495 485
f 485 495 492
f 483 484 469
f 469 484 472
f 513 512 474
f 474 512 473
f 472 498 471
f 471 498 497
f 475 476 480
f 480 476 479
f 515 508 514
f 514 508 470
f 501 502 516
f 516 502 506
f 503 488 502
f 502 488 505
f 504 515 503
f 503 515 514
f 505 488 492
f 492 488 485
f 516 506 517
f 517 506 477
f 509 513 483
f 483 513 474
f 510 494 292
f 292 494 164
f 512 517 473
f 473 517 477
f 480 481 496
f 496 481 491
f 500 506 505
f 505 506 502
f 487 488 514
f 514 488 503
f 471 487 470
f 470 487 514
f 517 519 516
f 516 519 518
f 520 519 512
f 512 519 517
f 521 520 513
f 513 520 512
f 522 521 509
f 509 521 513
f 516 518 501
f 501 518 523
f 501 523 504
f 504 523 524
f 524 525 504
f 504 525 515
f 526 523 527
f 527 523 518
f 531 530 528
f 528 530 529
f 530 533 529
f 529 533 532
f 530 535 533
f 533 535 534
f 538 537 535
f 535 537 536
f 536 539 535
f 535 539 534
f 538 535 531
f 531 535 530
f 528 541 531
f 531 541 540
f 542 532 534
f 534 532 533
f 519 520 542
f 542 520 532
f 532 520 543
f 543 520 521
f 529 532 544
f 544 532 543
f 528 529 545
f 545 529 544
f 534 539 542
f 542 539 527
f 519 542 518
f 518 542 527
f 541 528 546
f 546 528 545
f 547 548 544
f 544 548 545
f 548 549 545
f 545 549 546
f 550 551 547
f 547 551 548
f 547 553 550
f 550 553 552
f 549 548 554
f 554 548 551
f 544 543 547
f 547 543 553
f 522 553 521
f 521 553 543
f 546 556 541
f 541 556 555
f 541 555 540
f 540 555 557
f 527 539 558
f 558 539 536
f 537 559 536
f 536 559 558
f 560 526 558
f 558 526 527
f 559 561 558
f 558 561 560
f 559 537 562
f 562 537 563
f 557 555 563
f 563 555 562
f 564 522 507
f 507 522 509
f 525 565 515
f 515 565 508
f 507 508 564
f 564 508 565
f 564 565 552
f 552 565 566
f 552 566 550
f 550 566 567
f 568 566 525
f 525 566 565
f 553 522 552
f 552 522 564
f 569 568 524
f 524 568 525
f 523 526 524
f 524 526 569
f 526 560 569
f 569 560 570
f 570 571 569
f 569 571 568
f 572 573 570
f 570 573 571
f 571 567 568
f 568 567 566
f 567 571 574
f 574 571 573
f 561 572 560
f 560 572 570
f 572 561 575
f 575 561 576
f 579 578 577
f 577 578 575
f 573 572 578
f 578 572 575
f 575 576 577
f 577 576 556
f 555 556 562
f 562 556 576
f 561 559 576
f 576 559 562
f 574 551 567
f 567 551 550
f 579 554 574
f 574 554 551
f 579 574 578
f 578 574 573
f 549 554 577
f 577 554 579
f 556 546 577
f 577 546 549
f 557 538 540
f 540 538 531
f 537 538 563
f 563 538 557
f 293 294 482
f 482 294 481
f 485 486 511
f 511 486 580
f 498 489 497
f 497 489 490
f 496 491 498
f 498 491 489
f 163 164 495
f 495 164 494
f 580 486 490
f 490 486 497
f 292 293 510
f 510 293 482
f 199 163 511
f 511 163 495
f 499 493 510
f 510 493 494
f 248 491 294
f 294 491 481
f 584 583 581
f 581 583 582
f 588 587 585
f 585 587 586
f 590 588 589
f 589 588 585
f 594 593 591
f 591 593 592
f 595 598 596
f 596 598 597
f 587 600 586
f 586 600 599
f 601 604 602
f 602 604 603
f 605 608 606
f 606 608 607
f 606 607 200
f 200 607 609
f 610 613 611
f 611 613 612
f 600 587 614
f 614 587 592
f 596 597 605
f 605 597 608
f 583 615 603
f 603 615 602
f 600 614 584
f 584 614 616
f 590 618 617
f 617 618 611
f 622 621 619
f 619 621 620
f 618 623 611
f 611 623 610
f 590 589 618
f 618 589 624
f 588 590 591
f 591 590 617
f 626 625 582
f 582 625 581
f 625 627 581
f 581 627 599
f 628 594 617
f 617 594 591
f 601 598 610
f 610 598 613
f 600 584 599
f 599 584 581
f 630 629 586
f 586 629 585
f 584 616 583
f 583 616 615
f 587 588 592
f 592 588 591
f 632 626 631
f 631 626 582
f 619 620 633
f 633 620 624
f 621 604 620
f 620 604 623
f 622 632 621
f 621 632 631
f 610 623 601
f 601 623 604
f 633 624 634
f 634 624 589
f 627 630 599
f 599 630 586
f 612 202 628
f 628 202 203
f 629 634 585
f 585 634 589
f 592 593 614
f 614 593 609
f 618 624 623
f 623 624 620
f 631 603 621
f 621 603 604
f 582 583 631
f 631 583 603
f 634 636 633
f 633 636 635
f 637 636 629
f 629 636 634
f 638 637 630
f 630 637 629
f 639 638 627
f 627 638 630
f 633 635 619
f 619 635 640
f 619 640 622
f 622 640 641
f 641 642 622
f 622 642 632
f 640 635 643
f 643 635 644
f 645 648 646
f 646 648 647
f 647 650 646
f 646 650 649
f 647 652 650
f 650 652 651
f 652 655 653
f 653 655 654
f 653 656 652
f 652 656 651
f 655 652 648
f 648 652 647
f 648 645 657
f 657 645 658
f 659 649 651
f 651 649 650
f 636 637 659
f 659 637 649
f 649 637 660
f 660 637 638
f 649 660 646
f 646 660 661
f 662 645 661
f 661 645 646
f 651 656 659
f 659 656 644
f 636 659 635
f 635 659 644
f 645 662 658
f 658 662 663
f 664 665 661
f 661 665 662
f 665 666 662
f 662 666 663
f 667 668 664
f 664 668 665
f 664 670 667
f 667 670 669
f 666 665 671
f 671 665 668
f 661 660 664
f 664 660 670
f 639 670 638
f 638 670 660
f 673 672 663
f 663 672 658
f 658 672 657
f 657 672 674
f 644 656 675
f 675 656 653
f 676 675 654
f 654 675 653
f 675 677 644
f 644 677 643
f 676 678 675
f 675 678 677
f 654 680 676
f 676 680 679
f 674 672 680
f 680 672 679
f 681 639 625
f 625 639 627
f 642 682 632
f 632 682 626
f 681 625 682
f 682 625 626
f 682 683 681
f 681 683 669
f 683 684 669
f 669 684 667
f 685 683 642
f 642 683 682
f 670 639 669
f 669 639 681
f 686 685 641
f 641 685 642
f 641 640 686
f 686 640 643
f 686 643 687
f 687 643 677
f 687 688 686
f 686 688 685
f 689 690 687
f 687 690 688
f 688 684 685
f 685 684 683
f 684 688 691
f 691 688 690
f 678 689 677
f 677 689 687
f 689 678 692
f 692 678 693
f 696 695 694
f 694 695 692
f 690 689 695
f 695 689 692
f 692 693 694
f 694 693 673
f 672 673 679
f 679 673 693
f 678 676 693
f 693 676 679
f 684 691 667
f 667 691 668
f 696 671 691
f 691 671 668
f 696 691 695
f 695 691 690
f 694 666 696
f 696 666 671
f 673 663 694
f 694 663 666
f 674 655 657
f 657 655 648
f 654 655 680
f 680 655 674
f 290 162 594
f 594 162 593
f 598 601 597
f 597 601 602
f 615 616 608
f 608 616 607
f 614 609 616
f 616 609 607
f 598 595 613
f 613 595 697
f 597 602 608
f 608 602 615
f 203 290 628
f 628 290 594
f 628 617 612
f 612 617 611
f 200 609 162
f 162 609 593
f 699 29 698
f 698 29 105
f 268 701 126
f 126 701 700
f 126 700 125
f 125 700 702
f 704 703 250
f 250 703 252
f 32 705 268
f 268 705 701
f 698 105 706
f 706 105 288
f 29 699 32
f 32 699 705
f 707 706 251
f 251 706 288
f 702 704 125
f 125 704 250
f 703 707 252
f 252 707 251
f 709 708 707
f 707 708 706
f 710 709 703
f 703 709 707
f 711 710 704
f 704 710 703
f 712 711 702
f 702 711 704
f 706 708 698
f 698 708 713
f 698 713 699
f 699 713 714
f 715 705 714
f 714 705 699
f 713 708 716
f 716 708 717
f 721 720 718
f 718 720 719
f 720 723 719
f 719 723 722
f 720 725 723
f 723 725 724
f 727 726 725
f 725 726 724
f 728 725 721
f 721 725 720
f 730 728 729
f 729 728 721
f 718 731 721
f 721 731 729
f 724 732 723
f 723 732 722
f 709 710 732
f 732 710 722
f 722 710 733
f 733 710 711
f 719 722 734
f 734 722 733
f 718 719 735
f 735 719 734
f 724 726 732
f 732 726 717
f 709 732 708
f 708 732 717
f 731 718 736
f 736 718 735
f 737 738 734
f 734 738 735
f 738 739 735
f 735 739 736
f 740 741 737
f 737 741 738
f 737 743 740
f 740 743 742
f 739 738 744
f 744 738 741
f 734 733 737
f 737 733 743
f 712 743 711
f 711 743 733
f 736 746 731
f 731 746 745
f 731 745 729
f 729 745 730
f 717 726 747
f 747 726 727
f 748 749 727
f 727 749 747
f 747 750 717
f 717 750 716
f 749 751 747
f 747 751 750
f 749 748 752
f 752 748 753
f 730 745 753
f 753 745 752
f 727 725 748
f 748 725 728
f 748 728 753
f 753 728 730
f 700 754 702
f 702 754 712
f 705 715 701
f 701 715 755
f 754 700 755
f 755 700 701
f 755 756 754
f 754 756 742
f 756 757 742
f 742 757 740
f 758 756 715
f 715 756 755
f 743 712 742
f 742 712 754
f 759 758 714
f 714 758 715
f 714 713 759
f 759 713 716
f 759 716 760
f 760 716 750
f 760 761 759
f 759 761 758
f 762 763 760
f 760 763 761
f 761 757 758
f 758 757 756
f 757 761 764
f 764 761 763
f 751 762 750
f 750 762 760
f 762 751 765
f 765 751 766
f 767 769 765
f 765 769 768
f 763 762 768
f 768 762 765
f 765 766 767
f 767 766 746
f 745 746 752
f 752 746 766
f 751 749 766
f 766 749 752
f 757 764 740
f 740 764 741
f 769 744 764
f 764 744 741
f 769 764 768
f 768 764 763
f 767 739 769
f 769 739 744
f 746 736 767
f 767 736 739
f 209 217 208
f 208 217 219
f 209 210 217
f 217 210 193
f 511 580 199
f 199 580 198
f 76 289 75
f 75 289 272
f 184 207 291
f 291 207 277
f 84 183 203
f 203 183 290
f 198 580 142
f 142 580 490
f 142 143 198
f 198 143 197
f 73 276 72
f 72 276 149
f 104 279 103
f 103 279 770
f 770 279 596
f 596 279 595
f 605 771 596
f 596 771 770
f 771 772 770
f 770 772 103
f 772 773 103
f 103 773 102
f 102 774 101
f 101 774 155
f 773 97 102
f 102 97 774
f 97 773 100
f 100 773 775
f 773 772 775
f 775 772 776
f 772 771 776
f 776 771 777
f 200 197 606
f 606 197 777
f 74 71 778
f 778 71 189
f 155 774 98
f 98 774 97
f 291 161 184
f 184 161 183
f 143 276 197
f 197 276 777
f 605 606 771
f 771 606 777
f 202 612 697
f 697 612 613
f 595 279 697
f 697 279 202
f 73 776 276
f 276 776 777
f 776 73 775
f 775 73 74
f 74 778 775
f 775 778 100
f 778 189 100
f 100 189 99
f 189 242 99
f 99 242 245
f 131 256 33
f 62 1 95
f 95 1 28
f 1 2 28
f 28 2 27
f 114 115 266
f 266 115 265
f 95 69 62
f 62 69 64
f 65 61 64
f 64 61 62
f 130 13 65
f 65 13 61
f 14 12 130
f 130 12 13
f 268 11 32
f 32 11 31
f 15 31 12
f 12 31 11
f 231 30 15
f 15 30 31
f 232 106 231
f 231 106 30
f 232 237 106
f 106 237 287
f 237 90 287
f 287 90 254
f 90 44 254
f 254 44 253
f 7 249 44
f 44 249 253
f 126 127 268
f 268 127 267
f 116 3 241
f 241 3 10
f 114 2 116
f 116 2 3
f 266 27 114
f 114 27 2
f 113 26 266
f 266 26 27
f 110 286 113
f 113 286 26
f 255 243 110
f 110 243 286
f 256 242 255
f 255 242 243
f 131 245 256
f 256 245 242
f 132 244 131
f 131 244 245
f 41 37 115
f 115 37 265
f 41 42 37
f 37 42 40
f 42 91 40
f 40 91 92
f 91 233 92
f 92 233 236
f 233 194 236
f 236 194 191
f 132 285 244
f 244 285 258
f 285 55 258
f 258 55 257
f 185 154 201
f 201 154 257
f 180 201 204
f 204 201 56
f 55 56 257
f 257 56 201
f 204 56 85
f 85 56 52
f 79 122 53
f 53 122 86
f 122 215 86
f 86 215 212
f 215 216 212
f 212 216 211
f 216 280 211
f 211 280 192
f 191 192 240
f 240 192 280
f 8 124 7
f 7 124 249
f 241 127 8
f 8 127 124
f 10 267 241
f 241 267 127
f 10 9 267
f 267 9 11
