o right
v 0.183771 -0.004457 0.616679
v 0.189776 0.010459 0.619473
v 0.184940 0.002372 0.623298
v 0.175881 -0.010199 0.615470
v 0.184443 0.028282 0.643137
v 0.173015 0.037029 0.642039
v 0.169896 0.009187 0.652464
v 0.179675 0.002929 0.656439
v 0.171846 -0.017858 0.618846
v 0.179363 -0.008835 0.632488
v 0.173560 -0.023938 0.620759
v 0.167010 -0.026326 0.598528
v 0.161340 -0.026260 0.605994
v 0.166806 -0.035114 0.592217
v 0.176100 -0.018930 0.595510
v 0.178614 -0.035167 0.588270
v 0.209573 -0.016392 0.598532
v 0.223730 -0.015877 0.611928
v 0.219155 -0.040005 0.613172
v 0.203342 -0.035165 0.600373
v 0.225806 -0.024970 0.633343
v 0.219959 -0.031030 0.622631
v 0.228177 -0.011762 0.618929
v 0.234640 -0.007768 0.626374
v 0.199676 0.004504 0.626686
v 0.203894 0.018716 0.629650
v 0.197331 0.016085 0.622897
v 0.193303 0.002914 0.621367
v 0.166127 -0.021406 0.629100
v 0.171314 -0.008812 0.615120
v 0.171790 -0.017155 0.613483
v 0.168437 -0.028617 0.630877
v 0.220880 0.047999 0.647562
v 0.226935 0.065353 0.646117
v 0.221498 0.065863 0.640744
v 0.216688 0.051496 0.644131
v 0.183884 0.057886 0.628663
v 0.197186 0.070271 0.627973
v 0.198292 0.075462 0.611087
v 0.182237 0.064399 0.612450
v 0.175982 0.049011 0.634130
v 0.169199 0.053325 0.622622
v 0.164548 0.038717 0.632582
v 0.164483 0.012001 0.643456
v 0.240198 0.063517 0.656032
v 0.237125 0.050093 0.659414
v 0.145210 -0.078830 0.619748
v 0.147785 -0.077599 0.626144
v 0.151090 -0.076441 0.624506
v 0.147639 -0.077915 0.619036
v 0.256228 0.044649 0.651103
v 0.263881 0.038918 0.642532
v 0.267277 0.047752 0.643105
v 0.259829 0.053809 0.649267
v 0.250629 0.033399 0.652139
v 0.257228 0.027531 0.639289
v 0.146424 -0.093298 0.614448
v 0.143819 -0.087737 0.614592
v 0.148240 -0.088270 0.611567
v 0.152133 -0.092711 0.610964
v 0.165024 -0.020526 0.610597
v 0.176224 -0.015535 0.615614
v 0.161350 -0.043313 0.605096
v 0.167913 -0.031779 0.609159
v 0.160151 -0.031495 0.603755
v 0.158415 -0.041883 0.599358
v 0.190636 -0.023350 0.628367
v 0.197859 -0.008572 0.628116
v 0.192321 -0.012414 0.621505
v 0.183505 -0.028055 0.620663
v 0.204436 -0.003051 0.644838
v 0.196554 -0.017486 0.642865
v 0.199136 -0.013020 0.652556
v 0.205693 -0.004147 0.652540
v 0.191412 -0.045913 0.632224
v 0.185562 -0.050929 0.629888
v 0.186153 -0.045778 0.635766
v 0.190873 -0.042001 0.637561
v 0.271190 0.055993 0.641912
v 0.261254 0.062034 0.645514
v 0.231671 -0.014350 0.652285
v 0.231045 -0.007172 0.662328
v 0.222741 -0.021830 0.668213
v 0.224501 -0.022496 0.657777
v 0.264150 0.034589 0.629944
v 0.269630 0.042793 0.632506
v 0.151152 -0.096496 0.618616
v 0.157155 -0.096735 0.615264
v 0.166198 0.037540 0.613800
v 0.161876 0.013636 0.629941
v 0.177169 0.054336 0.604538
v 0.192800 0.063760 0.601484
v 0.204212 0.071739 0.598677
v 0.173648 -0.037665 0.611598
v 0.187122 -0.009339 0.619009
v 0.203715 0.007134 0.632467
v 0.216005 0.008138 0.667753
v 0.222825 0.021113 0.667982
v 0.213758 0.016270 0.659221
v 0.211336 0.006887 0.659927
v 0.224543 -0.004340 0.671632
v 0.216841 -0.004740 0.670300
v 0.209530 -0.017068 0.673062
v 0.217183 -0.018010 0.673685
v 0.160950 -0.016927 0.629628
v 0.168479 -0.000133 0.616154
v 0.247851 0.050292 0.659156
v 0.249311 0.060538 0.655560
v 0.252478 0.067326 0.648425
v 0.209313 0.035298 0.638994
v 0.212832 0.053479 0.640318
v 0.203526 0.053417 0.636668
v 0.204554 0.035336 0.633996
v 0.193639 0.027303 0.626620
v 0.187856 0.043080 0.633774
v 0.190458 0.014500 0.636538
v 0.211582 0.070187 0.634649
v 0.225710 0.077620 0.637082
v 0.217200 0.079237 0.629483
v 0.235782 0.075408 0.643855
v 0.245078 0.072470 0.648851
v 0.277057 0.050881 0.631146
v 0.210201 0.078682 0.621531
v 0.170068 -0.012187 0.656072
v 0.163925 -0.021357 0.651861
v 0.170064 -0.026433 0.647800
v 0.177332 -0.018262 0.652506
v 0.166862 -0.047082 0.589649
v 0.159168 -0.044835 0.593927
v 0.160355 -0.031556 0.597095
v 0.220134 0.036213 0.653910
v 0.229671 0.038414 0.662520
v 0.166786 -0.048610 0.608814
v 0.155401 -0.089405 0.608640
v 0.151101 -0.084784 0.609005
v 0.159398 -0.065232 0.598933
v 0.165653 -0.069549 0.598161
v 0.169566 -0.061576 0.615802
v 0.165054 -0.054456 0.613063
v 0.164798 -0.058236 0.615789
v 0.169534 -0.063305 0.618600
v 0.192139 -0.038290 0.645448
v 0.194275 -0.036099 0.647523
v 0.192784 -0.051865 0.605111
v 0.187957 -0.049308 0.588792
v 0.193159 -0.033646 0.588936
v 0.195709 -0.019513 0.635646
v 0.191174 -0.033463 0.635433
v 0.192489 -0.031002 0.640863
v 0.176469 -0.042709 0.613222
v 0.172870 -0.051818 0.611639
v 0.178955 -0.049379 0.614690
v 0.181178 -0.040363 0.618352
v 0.239328 0.006865 0.657242
v 0.232324 0.011845 0.670782
v 0.143456 -0.082411 0.615904
v 0.146624 -0.082340 0.614397
v 0.202028 -0.004955 0.636096
v 0.198578 -0.017089 0.595180
v 0.207903 0.009179 0.638660
v 0.207988 -0.041997 0.652924
v 0.202718 -0.038839 0.657698
v 0.197108 -0.039893 0.659135
v 0.200585 -0.043758 0.656076
v 0.163095 -0.079009 0.626203
v 0.158179 -0.076964 0.626926
v 0.156094 -0.076899 0.629680
v 0.160339 -0.081909 0.630452
v 0.160105 -0.051748 0.608591
v 0.156369 -0.050999 0.602112
v 0.154948 -0.057947 0.607171
v 0.159381 -0.058197 0.612237
v 0.156849 -0.053635 0.596927
v 0.156174 -0.061351 0.601923
v 0.166979 -0.084313 0.623603
v 0.165998 -0.091369 0.617256
v 0.174710 -0.072545 0.606368
v 0.173101 -0.070730 0.614138
v 0.243632 0.008245 0.622671
v 0.246722 0.011776 0.633561
v 0.236335 -0.003671 0.638435
v 0.227554 -0.018598 0.645563
v 0.217466 -0.032210 0.651536
v 0.219010 -0.042532 0.639028
v 0.239499 -0.000202 0.645769
v 0.176848 -0.063194 0.611921
v 0.181440 -0.060055 0.602696
v 0.184903 -0.060677 0.611370
v 0.211995 0.009737 0.647651
v 0.148845 -0.080547 0.611848
v 0.222662 0.049240 0.594499
v 0.237354 0.045719 0.603411
v 0.230410 0.036038 0.602397
v 0.213043 0.039444 0.595524
v 0.151576 -0.076035 0.622493
v 0.148544 -0.076513 0.617311
v 0.196063 -0.035290 0.655151
v 0.193691 -0.037711 0.652481
v 0.194573 -0.035962 0.655702
v 0.194229 -0.036389 0.659543
v 0.249592 0.015114 0.639011
v 0.216253 -0.032740 0.669333
v 0.219392 -0.030444 0.662523
v 0.257078 0.024501 0.629364
v 0.251709 0.022261 0.619871
v 0.257676 0.032328 0.618198
v 0.205138 -0.048152 0.630280
v 0.235009 0.005691 0.616393
v 0.243909 0.020523 0.614249
v 0.250979 0.032754 0.613258
v 0.257423 0.040304 0.609981
v 0.263786 0.039563 0.616717
v 0.160955 -0.091480 0.612220
v 0.161691 -0.096747 0.623170
v 0.270044 0.048596 0.614757
v 0.263174 0.047819 0.606175
v 0.231347 0.020363 0.607954
v 0.222572 0.017912 0.600845
v 0.227891 0.003799 0.609447
v 0.217628 0.001267 0.601886
v 0.212190 -0.056354 0.614160
v 0.141850 -0.090416 0.636909
v 0.155444 -0.090384 0.632190
v 0.154156 -0.084003 0.632869
v 0.141297 -0.087036 0.639308
v 0.162585 -0.089049 0.629026
v 0.155435 -0.094768 0.626837
v 0.199819 0.001657 0.595787
v 0.173893 -0.058613 0.614122
v 0.198447 0.021869 0.596712
v 0.182336 -0.003599 0.598677
v 0.178419 0.012513 0.603225
v 0.194887 0.045102 0.598042
v 0.175961 0.031341 0.601279
v 0.216121 0.063982 0.594335
v 0.207780 0.054486 0.596686
v 0.166915 0.017468 0.614580
v 0.134642 -0.080136 0.629466
v 0.137776 -0.078965 0.634617
v 0.229833 0.057490 0.592996
v 0.183878 -0.003019 0.648383
v 0.213005 0.022524 0.647472
v 0.210318 0.021558 0.640377
v 0.226435 0.028312 0.667933
v 0.216701 0.025018 0.657732
v 0.133188 -0.083367 0.624997
v 0.181175 -0.049852 0.632350
v 0.184067 -0.044467 0.634566
v 0.164623 -0.006349 0.652454
v 0.158822 -0.015246 0.650661
v 0.151588 -0.015753 0.638640
v 0.153201 -0.015724 0.645592
v 0.160503 -0.003519 0.643618
v 0.156988 -0.002685 0.634772
v 0.211773 0.035409 0.642923
v 0.216007 0.034745 0.647116
v 0.245013 0.021465 0.654602
v 0.237295 0.025426 0.668670
v 0.163156 -0.056567 0.593448
v 0.175506 -0.050159 0.587119
v 0.170558 -0.060081 0.591937
v 0.172689 -0.070563 0.599062
v 0.170562 -0.063401 0.614340
v 0.174876 -0.064070 0.612859
v 0.191980 0.048803 0.635999
v 0.196514 0.033413 0.627732
v 0.176686 -0.019393 0.641046
v 0.171874 -0.028755 0.640611
v 0.185679 -0.034273 0.626336
v 0.193192 -0.055239 0.628527
v 0.198283 -0.061085 0.620198
v 0.184948 -0.047049 0.623555
v 0.134651 -0.091338 0.623737
v 0.133057 -0.086919 0.623662
v 0.178335 -0.061069 0.593030
v 0.196281 -0.026610 0.650476
v 0.196189 -0.048017 0.634387
v 0.185151 -0.051401 0.631205
v 0.212337 -0.027692 0.673832
v 0.244494 0.053863 0.600498
v 0.151428 -0.078170 0.632223
v 0.140602 -0.080684 0.638128
v 0.142147 -0.092962 0.632877
v 0.139641 -0.094485 0.626509
v 0.242323 0.037196 0.664814
v 0.208713 0.019825 0.635837
v 0.163217 0.001285 0.626031
v 0.155669 -0.015893 0.631265
v 0.181431 -0.054006 0.620992
v 0.212903 -0.035849 0.656011
v 0.207052 -0.049131 0.644726
v 0.197057 -0.051380 0.649581
v 0.190994 -0.051952 0.643200
v 0.184775 -0.047178 0.638678
v 0.135265 -0.092079 0.637221
v 0.133601 -0.093498 0.631666
v 0.128443 -0.091030 0.628253
v 0.127071 -0.087526 0.628045
v 0.128646 -0.083240 0.629114
v 0.134520 -0.090346 0.641458
v 0.133812 -0.087758 0.644116
v 0.135611 -0.081479 0.641863
v 0.127940 -0.091641 0.645237
v 0.123916 -0.095512 0.642059
v 0.110185 -0.092717 0.635000
v 0.117243 -0.094058 0.632407
v 0.115256 -0.095682 0.634664
v 0.109451 -0.095447 0.637878
v 0.104091 -0.096213 0.642156
v 0.103895 -0.093491 0.639055
v 0.120238 -0.096378 0.637075
v 0.112576 -0.097396 0.641107
v 0.115111 -0.097260 0.645490
v 0.108407 -0.097935 0.648491
v 0.106184 -0.098954 0.644893
v 0.120000 -0.096706 0.642144
v 0.123104 -0.095264 0.636358
v 0.099932 -0.094854 0.643590
v 0.100540 -0.097608 0.644455
v 0.102186 -0.099059 0.647276
v 0.098779 -0.096789 0.649604
v 0.120745 -0.088166 0.629913
v 0.110264 -0.089720 0.634607
v 0.104487 -0.090293 0.639988
v 0.100595 -0.091788 0.644585
v 0.110626 -0.086409 0.637665
v 0.106012 -0.088082 0.641975
v 0.103224 -0.089040 0.646494
v 0.112282 -0.084797 0.641763
v 0.107731 -0.086622 0.645115
v 0.126419 -0.080717 0.634339
v 0.124453 -0.083504 0.630454
v 0.104613 -0.086962 0.647295
v 0.099390 -0.094201 0.651114
v 0.118425 -0.094852 0.647714
v 0.109508 -0.094495 0.650539
v 0.119217 -0.092375 0.649194
v 0.110465 -0.092232 0.652447
v 0.103569 -0.096141 0.652620
v 0.104579 -0.098148 0.649621
v 0.131609 -0.080268 0.632353
v 0.134469 -0.079593 0.637980
v 0.129949 -0.079789 0.640653
v 0.114713 -0.083513 0.646600
v 0.130453 -0.081771 0.644824
v 0.127383 -0.088327 0.647051
v 0.118251 -0.089504 0.651005
v 0.117451 -0.086194 0.650626
v 0.111345 -0.090184 0.653374
v 0.111158 -0.087813 0.651923
v 0.109022 -0.085639 0.648916
v 0.105588 -0.090443 0.653229
v 0.104042 -0.093564 0.653385
v 0.102221 -0.090345 0.650829
v 0.107162 -0.088574 0.652774
v 0.105048 -0.088075 0.650248
v 0.164444 -0.072206 0.630311
v 0.165679 -0.068859 0.637604
v 0.155078 -0.066156 0.632954
v 0.154324 -0.070292 0.627424
v 0.148883 -0.075421 0.633537
v 0.154225 -0.074227 0.629291
v 0.151138 -0.077789 0.628861
v 0.151637 -0.081132 0.635817
v 0.148085 -0.074340 0.640613
v 0.154285 -0.080410 0.643554
v 0.157637 -0.082527 0.635368
v 0.155470 -0.076794 0.629024
v 0.171954 -0.066525 0.616856
v 0.178828 -0.068583 0.621944
v 0.173901 -0.051064 0.626146
v 0.175763 -0.051271 0.630007
v 0.160204 -0.073564 0.627944
v 0.152527 -0.073834 0.625365
v 0.159654 -0.059194 0.639161
v 0.157061 -0.059827 0.634468
v 0.156662 -0.064149 0.638385
v 0.156758 -0.063638 0.644228
v 0.167179 -0.059016 0.613087
v 0.172247 -0.055037 0.619662
v 0.167908 -0.064519 0.613911
v 0.161630 -0.063310 0.644695
v 0.162873 -0.070717 0.648292
v 0.183232 -0.062734 0.634263
v 0.179316 -0.057240 0.634345
v 0.154528 -0.072149 0.626691
v 0.154289 -0.062894 0.630551
v 0.153501 -0.067206 0.626595
v 0.162382 -0.078543 0.642642
v 0.154434 -0.070564 0.650032
v 0.160006 -0.053344 0.641364
v 0.158744 -0.066675 0.649018
v 0.163330 -0.065805 0.647357
v 0.165132 -0.051694 0.640307
v 0.155398 -0.067655 0.648522
v 0.152622 -0.069098 0.648192
v 0.168304 -0.053801 0.626341
v 0.170228 -0.051506 0.632790
v 0.164826 -0.054788 0.624129
v 0.184383 -0.067969 0.628129
v 0.153842 -0.058970 0.628605
v 0.160231 -0.056751 0.624811
v 0.166759 -0.067000 0.643707
v 0.169241 -0.050227 0.637547
v 0.156252 -0.055469 0.640406
v 0.152426 -0.060069 0.635464
v 0.156908 -0.047096 0.635661
v 0.152928 -0.049690 0.631144
v 0.154420 -0.050114 0.624680
v 0.159920 -0.050674 0.622306
v 0.164472 -0.051104 0.622323
v 0.160620 -0.045490 0.637037
v 0.165011 -0.044594 0.637127
v 0.168798 -0.046952 0.635354
v 0.166219 -0.037972 0.632577
v 0.163103 -0.036917 0.629313
v 0.171805 -0.034685 0.609924
v 0.166686 -0.038849 0.613507
v 0.166047 -0.036023 0.615037
v 0.171060 -0.031984 0.611953
v 0.160727 -0.041355 0.617908
v 0.161994 -0.038566 0.618228
v 0.161514 -0.037102 0.623080
v 0.166357 -0.032398 0.619007
v 0.168013 -0.031696 0.624001
v 0.172498 -0.027047 0.620165
v 0.170593 -0.027532 0.615277
v 0.163970 -0.034913 0.625726
v 0.174063 -0.028612 0.610386
v 0.176191 -0.029493 0.609140
v 0.158645 -0.039354 0.624715
v 0.161501 -0.047612 0.619425
v 0.168998 -0.041180 0.613154
v 0.174618 -0.036385 0.609756
v 0.179107 -0.030258 0.610125
v 0.172561 -0.041883 0.614712
v 0.177367 -0.036743 0.611735
v 0.180409 -0.031448 0.612454
v 0.176162 -0.041715 0.618141
v 0.180385 -0.036257 0.615450
v 0.167953 -0.050083 0.624887
v 0.165176 -0.050227 0.620998
v 0.181142 -0.033173 0.614642
v 0.177527 -0.023896 0.611195
v 0.180650 -0.026365 0.612604
v 0.175381 -0.025024 0.612323
v 0.169675 -0.032054 0.626041
v 0.174954 -0.027848 0.621142
v 0.172371 -0.033183 0.627602
v 0.177879 -0.028829 0.621822
v 0.178039 -0.024532 0.616626
v 0.176402 -0.024817 0.616084
v 0.167171 -0.050556 0.625686
v 0.169491 -0.048819 0.631641
v 0.170072 -0.048405 0.630451
v 0.178061 -0.039738 0.623257
v 0.169968 -0.045412 0.634040
v 0.168851 -0.040592 0.633793
v 0.174553 -0.034720 0.628545
v 0.177482 -0.036921 0.626930
v 0.179719 -0.028990 0.623430
v 0.180604 -0.032303 0.623677
v 0.182025 -0.035252 0.619856
v 0.181995 -0.026418 0.618491
v 0.179981 -0.025109 0.617158
v 0.181789 -0.028048 0.614165
v 0.182664 -0.029159 0.620358
v 0.182431 -0.031055 0.616637
v 0.164641 -0.026309 0.647830
v 0.169350 -0.024944 0.652734
v 0.169740 -0.027954 0.652765
v 0.165514 -0.030557 0.648308
v 0.153258 -0.036117 0.657967
v 0.154960 -0.031787 0.652667
v 0.155777 -0.038928 0.651373
v 0.153790 -0.045704 0.656594
v 0.155946 -0.035399 0.665072
v 0.157364 -0.047972 0.665032
v 0.160481 -0.051050 0.654610
v 0.160160 -0.044259 0.649938
v 0.178347 -0.047886 0.643244
v 0.180187 -0.053634 0.647777
v 0.159627 -0.028396 0.649712
v 0.160815 -0.033995 0.649116
v 0.175546 -0.030120 0.661506
v 0.173755 -0.027842 0.657445
v 0.173034 -0.026858 0.658992
v 0.173631 -0.029751 0.663197
v 0.185169 -0.035314 0.638365
v 0.189221 -0.032312 0.644444
v 0.180103 -0.040929 0.639073
v 0.174197 -0.036974 0.666548
v 0.169928 -0.046533 0.668724
v 0.189789 -0.045688 0.660458
v 0.191180 -0.039108 0.659977
v 0.163535 -0.038273 0.648504
v 0.170843 -0.028788 0.650667
v 0.167114 -0.032414 0.647331
v 0.165602 -0.051765 0.661734
v 0.164379 -0.041073 0.671528
v 0.162344 -0.008708 0.669215
v 0.168759 -0.029782 0.668738
v 0.173357 -0.026473 0.663381
v 0.165620 -0.006442 0.666369
v 0.170372 -0.034094 0.669010
v 0.163492 -0.033805 0.670012
v 0.160021 -0.004785 0.651800
v 0.164682 -0.005252 0.655703
v 0.156066 -0.007776 0.652331
v 0.185343 -0.053335 0.654038
v 0.192109 -0.032688 0.655459
v 0.151629 -0.011060 0.659261
v 0.153149 -0.009213 0.654489
v 0.172996 -0.024888 0.658690
v 0.167124 -0.005086 0.661744
v 0.158787 -0.011442 0.668285
v 0.153654 -0.013540 0.665113
v 0.158733 -0.002517 0.670088
v 0.152895 -0.004093 0.666759
v 0.149729 -0.001662 0.661996
v 0.149593 -0.000225 0.657063
v 0.152571 0.000992 0.653942
v 0.161822 0.000462 0.669923
v 0.164007 0.002603 0.666576
v 0.165352 -0.000178 0.661337
v 0.162179 0.007726 0.670480
v 0.156400 0.007784 0.672974
v 0.142969 0.024303 0.667541
v 0.144875 0.016987 0.665700
v 0.144572 0.017165 0.667431
v 0.143029 0.023857 0.669761
v 0.146938 0.008327 0.666168
v 0.146518 0.010514 0.667886
v 0.149923 0.008807 0.671128
v 0.147282 0.016965 0.673729
v 0.155635 0.017251 0.674405
v 0.153231 0.022996 0.674718
v 0.145731 0.023009 0.675035
v 0.154774 0.010197 0.673505
v 0.143293 0.027589 0.671791
v 0.141377 0.029223 0.669943
v 0.150941 0.005760 0.669706
v 0.146468 0.007631 0.659701
v 0.144843 0.017953 0.661637
v 0.143354 0.025663 0.662929
v 0.144258 0.030709 0.665697
v 0.148012 0.018737 0.658491
v 0.146523 0.026098 0.660610
v 0.147462 0.030534 0.663249
v 0.151280 0.018990 0.657605
v 0.150254 0.025636 0.660283
v 0.154933 0.005086 0.654003
v 0.149618 0.006271 0.655707
v 0.150055 0.029455 0.662549
v 0.145208 0.030967 0.674477
v 0.149268 0.032856 0.670415
v 0.145846 0.028116 0.674321
v 0.158375 0.016687 0.674108
v 0.156103 0.024816 0.674742
v 0.160899 0.016933 0.671535
v 0.159417 0.025357 0.673718
v 0.152333 0.028946 0.675728
v 0.151128 0.027680 0.675249
v 0.157976 -0.000028 0.653418
v 0.163257 -0.000179 0.656355
v 0.160261 0.005163 0.656073
v 0.155924 0.020095 0.659697
v 0.163392 0.005427 0.660567
v 0.163051 0.009414 0.666803
v 0.161512 0.017967 0.667782
v 0.160017 0.019814 0.663828
v 0.160503 0.025812 0.670260
v 0.159190 0.025234 0.666365
v 0.155359 0.026589 0.661557
v 0.156402 0.029946 0.670360
v 0.155013 0.030076 0.673951
v 0.151597 0.032402 0.667083
v 0.156733 0.028925 0.667169
v 0.153156 0.030410 0.664702
v 0.191225 -0.032326 0.650646
v 0.186448 -0.065834 0.654309
v 0.187282 -0.063437 0.658819
v 0.188574 -0.063020 0.658635
v 0.187867 -0.063926 0.653726
v 0.198189 -0.073783 0.653198
v 0.192680 -0.071443 0.651922
v 0.197412 -0.068984 0.648098
v 0.203670 -0.072126 0.648923
v 0.201738 -0.073826 0.657630
v 0.206244 -0.072004 0.654401
v 0.204605 -0.066034 0.647526
v 0.198369 -0.062642 0.646830
v 0.204759 -0.042170 0.654478
v 0.210835 -0.042880 0.654824
v 0.207642 -0.034447 0.672532
v 0.202131 -0.033336 0.671716
v 0.196417 -0.041785 0.668586
v 0.202189 -0.043680 0.671512
v 0.188561 -0.068606 0.652413
v 0.191648 -0.065144 0.649910
v 0.195462 -0.064557 0.666824
v 0.190824 -0.062179 0.663045
v 0.189848 -0.061809 0.662345
v 0.193000 -0.062743 0.666093
v 0.196734 -0.033192 0.667838
v 0.195742 -0.034125 0.664147
v 0.191266 -0.037724 0.661215
v 0.192812 -0.041120 0.664379
v 0.193805 -0.039400 0.656328
v 0.201363 -0.067362 0.666459
v 0.207935 -0.069203 0.661570
v 0.213136 -0.043181 0.669838
v 0.208744 -0.043148 0.672227
v 0.190789 -0.061747 0.648936
v 0.190252 -0.061199 0.658679
v 0.187442 -0.061642 0.653822
v 0.207946 -0.068668 0.653114
v 0.204792 -0.069805 0.662790
v 0.185103 -0.071777 0.671974
v 0.195705 -0.064539 0.667982
v 0.190449 -0.061826 0.666417
v 0.182704 -0.070165 0.671446
v 0.198060 -0.066950 0.666673
v 0.199783 -0.069211 0.665234
v 0.177007 -0.073749 0.659452
v 0.178336 -0.069820 0.664268
v 0.178761 -0.076410 0.657811
v 0.215559 -0.042943 0.661077
v 0.185673 -0.080348 0.660950
v 0.181151 -0.079508 0.658471
v 0.187930 -0.061850 0.662808
v 0.180482 -0.068949 0.668633
v 0.187599 -0.074994 0.670637
v 0.188798 -0.078667 0.665396
v 0.182987 -0.079518 0.674936
v 0.183952 -0.082799 0.669238
v 0.179742 -0.084749 0.664318
v 0.177081 -0.082376 0.661861
v 0.175179 -0.079511 0.660859
v 0.180352 -0.075135 0.675692
v 0.178148 -0.072889 0.674274
v 0.176283 -0.070912 0.670437
v 0.175660 -0.078969 0.679066
v 0.175913 -0.084699 0.679078
v 0.160514 -0.091304 0.672973
v 0.165478 -0.089545 0.670140
v 0.166229 -0.090700 0.671493
v 0.161209 -0.092491 0.673590
v 0.172658 -0.088377 0.668447
v 0.171705 -0.089502 0.670470
v 0.174937 -0.088176 0.673385
v 0.168431 -0.091048 0.676163
v 0.168368 -0.086850 0.681092
v 0.163014 -0.089504 0.682527
v 0.163953 -0.092839 0.678114
v 0.173982 -0.086789 0.678500
v 0.158714 -0.094023 0.675992
v 0.156282 -0.094561 0.676325
v 0.177568 -0.087391 0.672321
v 0.171483 -0.084577 0.664577
v 0.163181 -0.088033 0.668576
v 0.157342 -0.090715 0.672493
v 0.154043 -0.092918 0.677239
v 0.163114 -0.084821 0.667864
v 0.156161 -0.088408 0.672164
v 0.153707 -0.089752 0.676414
v 0.163140 -0.080998 0.668929
v 0.157094 -0.085090 0.673089
v 0.171176 -0.076969 0.664650
v 0.170941 -0.080805 0.663823
v 0.154977 -0.087568 0.676204
v 0.156545 -0.095352 0.681541
v 0.154127 -0.092376 0.681706
v 0.159467 -0.094240 0.679980
v 0.168557 -0.085499 0.682235
v 0.161971 -0.088359 0.684409
v 0.168056 -0.082491 0.682866
v 0.161081 -0.085953 0.684693
v 0.158021 -0.091904 0.684753
v 0.160179 -0.092334 0.682602
v 0.173636 -0.075887 0.662379
v 0.174972 -0.072222 0.665538
v 0.172459 -0.074131 0.668280
v 0.164543 -0.078412 0.672404
v 0.173820 -0.073057 0.673309
v 0.175046 -0.075457 0.676948
v 0.167279 -0.079816 0.681055
v 0.165946 -0.078277 0.677801
v 0.159883 -0.084153 0.683337
v 0.159302 -0.082491 0.680053
v 0.158027 -0.082455 0.675900
v 0.155777 -0.087798 0.682567
v 0.156247 -0.089700 0.684263
v 0.154324 -0.089318 0.680323
v 0.155956 -0.086045 0.680598
v 0.155499 -0.086620 0.678517
v 0.210540 -0.036990 0.671902
v 0.151751 -0.037489 0.639346
v 0.156627 -0.039075 0.638282
v 0.161489 -0.039571 0.654894
v 0.162435 -0.042142 0.646829
v 0.154754 -0.036103 0.658277
v 0.144242 -0.033385 0.653482
v 0.149041 -0.032670 0.656406
v 0.159488 -0.041662 0.641207
v 0.147717 -0.036770 0.641459
v 0.142693 -0.033471 0.647368
v 0.138846 -0.048091 0.648264
v 0.137658 -0.043167 0.654424
v 0.143705 -0.040224 0.660636
v 0.150093 -0.039273 0.660852
v 0.155223 -0.040306 0.660242
v 0.148059 -0.045869 0.643474
v 0.153371 -0.046549 0.642557
v 0.158754 -0.046505 0.645072
v 0.148638 -0.057019 0.650147
v 0.155199 -0.061613 0.662281
v 0.174852 -0.059073 0.681673
v 0.167924 -0.053320 0.677255
v 0.166628 -0.056209 0.676750
v 0.173002 -0.061285 0.681431
v 0.161277 -0.050724 0.674098
v 0.160759 -0.053447 0.673671
v 0.156631 -0.056589 0.668472
v 0.162880 -0.062402 0.674058
v 0.158231 -0.060922 0.664989
v 0.163637 -0.065651 0.667306
v 0.169979 -0.067571 0.678411
v 0.175581 -0.066483 0.684252
v 0.176036 -0.071509 0.682512
v 0.178648 -0.064848 0.684875
v 0.151192 -0.057231 0.669921
v 0.159951 -0.043858 0.669444
v 0.169753 -0.049608 0.675534
v 0.176982 -0.055901 0.679973
v 0.180889 -0.063115 0.681970
v 0.172104 -0.048583 0.670930
v 0.177963 -0.055014 0.674720
v 0.180589 -0.061925 0.675210
v 0.172256 -0.050520 0.665314
v 0.177060 -0.056830 0.669367
v 0.163116 -0.041721 0.656481
v 0.161339 -0.040566 0.662976
v 0.178975 -0.061361 0.671577
v 0.178377 -0.073050 0.683701
v 0.180885 -0.070922 0.679280
v 0.162836 -0.065465 0.662711
v 0.169614 -0.070657 0.671721
v 0.170196 -0.070402 0.668169
v 0.163266 -0.064503 0.658067
v 0.171343 -0.071194 0.664684
v 0.175642 -0.074401 0.675461
v 0.173370 -0.072937 0.677213
v 0.160666 -0.041857 0.656944
v 0.161681 -0.044607 0.650260
v 0.162989 -0.045530 0.649754
v 0.169815 -0.053744 0.658664
v 0.160293 -0.050338 0.646479
v 0.154161 -0.053862 0.647206
v 0.165401 -0.062610 0.655212
v 0.167849 -0.058670 0.654957
v 0.173382 -0.068172 0.662097
v 0.174616 -0.064847 0.661752
v 0.176330 -0.060617 0.664896
v 0.177698 -0.069811 0.668258
v 0.177113 -0.073417 0.671454
v 0.180630 -0.067410 0.673195
v 0.177028 -0.066804 0.666282
v 0.178682 -0.064652 0.669248
v 0.206865 -0.024059 0.672987
v 0.200382 -0.024083 0.668427
v 0.204247 -0.015148 0.669644
v 0.212369 -0.004224 0.667023
v 0.221567 0.005953 0.671762
v 0.209514 -0.004352 0.660038
v 0.199508 -0.015066 0.661917
v 0.198092 -0.027490 0.659642
v 0.211798 0.004279 0.652268
f 2 3 1
f 1 3 4
f 5 6 8
f 8 6 7
f 9 4 10
f 10 4 3
f 12 13 11
f 11 13 9
f 14 12 16
f 16 12 15
f 18 19 17
f 17 19 20
f 22 23 21
f 21 23 24
f 26 27 25
f 25 27 28
f 30 31 29
f 29 31 32
f 33 34 36
f 36 34 35
f 37 38 40
f 40 38 39
f 41 42 6
f 6 42 43
f 6 43 7
f 7 43 44
f 45 34 46
f 46 34 33
f 48 49 47
f 47 49 50
f 52 53 51
f 51 53 54
f 56 52 55
f 55 52 51
f 58 59 57
f 57 59 60
f 61 62 4
f 4 62 1
f 64 65 63
f 63 65 66
f 68 69 67
f 67 69 70
f 72 73 71
f 71 73 74
f 76 77 75
f 75 77 78
f 53 79 54
f 54 79 80
f 82 83 81
f 81 83 84
f 85 86 52
f 52 86 53
f 57 60 87
f 87 60 88
f 89 90 43
f 43 90 44
f 43 42 89
f 89 42 91
f 40 39 92
f 92 39 93
f 94 70 64
f 64 70 69
f 13 61 9
f 9 61 4
f 25 28 69
f 69 28 95
f 96 25 68
f 68 25 69
f 98 99 97
f 97 99 100
f 101 102 104
f 104 102 103
f 106 30 105
f 105 30 29
f 51 54 107
f 107 54 108
f 54 80 108
f 108 80 109
f 111 112 110
f 110 112 113
f 115 5 114
f 114 5 116
f 115 41 5
f 5 41 6
f 36 35 111
f 111 35 117
f 35 118 117
f 117 118 119
f 34 120 35
f 35 120 118
f 34 45 120
f 120 45 121
f 125 126 124
f 124 126 127
f 128 129 14
f 14 129 130
f 33 131 46
f 46 131 132
f 133 94 63
f 63 94 64
f 134 135 137
f 137 135 136
f 139 140 138
f 138 140 141
f 77 142 78
f 78 142 143
f 144 145 20
f 20 145 146
f 148 149 147
f 147 149 72
f 151 152 150
f 150 152 153
f 82 101 83
f 83 101 104
f 101 82 155
f 155 82 154
f 156 157 58
f 58 157 59
f 158 68 147
f 147 68 67
f 159 146 15
f 15 146 16
f 68 158 96
f 96 158 160
f 129 66 130
f 130 66 65
f 162 163 161
f 161 163 164
f 166 167 165
f 165 167 168
f 170 171 169
f 169 171 172
f 174 171 173
f 173 171 170
f 176 177 175
f 175 177 178
f 180 181 179
f 179 181 24
f 182 183 21
f 21 183 184
f 81 185 82
f 82 185 154
f 186 187 188
f 188 187 144
f 158 71 160
f 160 71 189
f 190 135 157
f 157 135 59
f 169 172 139
f 139 172 140
f 147 72 158
f 158 72 71
f 192 193 191
f 191 193 194
f 167 166 49
f 49 166 195
f 196 190 50
f 50 190 157
f 197 198 200
f 200 198 199
f 21 24 182
f 182 24 181
f 146 159 20
f 20 159 17
f 182 181 81
f 81 181 185
f 201 185 180
f 180 185 181
f 202 203 83
f 83 203 84
f 205 206 204
f 204 206 85
f 207 22 184
f 184 22 21
f 179 24 208
f 208 24 23
f 208 209 179
f 179 209 205
f 209 210 205
f 205 210 206
f 212 206 211
f 211 206 210
f 179 205 180
f 180 205 204
f 213 176 88
f 88 176 214
f 86 85 212
f 212 85 206
f 193 217 218
f 217 219 218
f 218 219 220
f 219 18 220
f 220 18 17
f 19 221 20
f 20 221 144
f 222 223 225
f 225 223 224
f 175 226 176
f 176 226 214
f 227 87 214
f 214 87 88
f 220 17 228
f 228 17 159
f 134 213 60
f 60 213 88
f 138 229 151
f 151 229 152
f 193 192 210
f 210 192 211
f 230 194 218
f 218 194 193
f 231 232 228
f 228 232 230
f 233 234 91
f 91 234 89
f 235 236 93
f 93 236 92
f 230 232 234
f 234 232 237
f 47 238 48
f 48 238 239
f 240 191 235
f 235 191 236
f 5 8 116
f 116 8 241
f 242 243 189
f 189 243 160
f 244 245 98
f 98 245 99
f 156 246 47
f 47 246 238
f 76 247 77
f 77 247 248
f 250 125 249
f 249 125 124
f 252 253 251
f 251 253 254
f 111 110 36
f 36 110 255
f 256 33 255
f 255 33 36
f 257 258 154
f 154 258 155
f 63 169 133
f 133 169 139
f 66 170 63
f 63 170 169
f 173 170 129
f 129 170 66
f 129 128 173
f 173 128 259
f 128 260 259
f 259 260 261
f 213 134 262
f 262 134 137
f 263 264 186
f 186 264 187
f 112 265 113
f 113 265 266
f 11 267 268
f 234 233 230
f 230 233 194
f 153 269 70
f 70 269 67
f 175 178 165
f 165 178 141
f 150 153 94
f 94 153 70
f 271 221 270
f 270 221 207
f 269 153 272
f 272 153 152
f 121 45 109
f 109 45 108
f 47 50 156
f 156 50 157
f 57 273 58
f 58 273 274
f 145 275 260
f 260 275 261
f 276 149 143
f 143 149 78
f 148 269 75
f 75 269 272
f 207 277 270
f 270 277 278
f 195 196 49
f 49 196 50
f 59 135 60
f 60 135 134
f 83 104 202
f 202 104 279
f 149 148 78
f 78 148 75
f 247 278 248
f 248 278 277
f 183 182 84
f 84 182 81
f 48 239 281
f 281 239 282
f 227 223 283
f 283 223 222
f 223 226 224
f 224 226 168
f 281 282 224
f 224 282 225
f 165 168 175
f 175 168 226
f 264 263 138
f 138 263 229
f 14 16 128
f 128 16 260
f 220 228 218
f 218 228 230
f 87 227 284
f 284 227 283
f 260 16 145
f 145 16 146
f 244 98 258
f 258 98 155
f 58 274 156
f 156 274 246
f 107 285 51
f 51 285 55
f 243 286 160
f 160 286 96
f 234 237 89
f 89 237 90
f 46 132 107
f 107 132 285
f 253 252 249
f 249 252 250
f 286 26 96
f 96 26 25
f 106 105 287
f 287 105 288
f 272 152 289
f 289 152 229
f 138 151 139
f 139 151 133
f 183 290 161
f 161 290 162
f 291 292 277
f 277 292 293
f 151 150 133
f 133 150 94
f 262 275 177
f 177 275 187
f 144 187 145
f 145 187 275
f 273 57 284
f 284 57 87
f 174 136 190
f 190 136 135
f 111 117 112
f 112 117 38
f 117 119 38
f 38 119 123
f 112 38 265
f 265 38 37
f 287 288 254
f 254 288 251
f 228 159 231
f 231 159 15
f 223 227 226
f 226 227 214
f 147 67 148
f 148 67 269
f 224 168 281
f 281 168 167
f 199 163 200
f 200 163 162
f 45 46 108
f 108 46 107
f 281 167 48
f 48 167 49
f 161 164 291
f 291 164 292
f 38 123 39
f 293 294 277
f 277 294 248
f 284 283 296
f 296 283 295
f 284 296 273
f 273 296 297
f 274 273 298
f 298 273 297
f 246 274 299
f 299 274 298
f 283 222 295
f 295 222 300
f 222 225 300
f 300 225 301
f 301 225 302
f 302 225 282
f 303 304 300
f 300 304 295
f 306 307 305
f 305 307 308
f 309 310 308
f 308 310 305
f 308 307 312
f 312 307 311
f 313 314 312
f 312 314 315
f 311 316 312
f 312 316 313
f 317 304 311
f 311 304 316
f 315 309 312
f 312 309 308
f 318 319 321
f 321 319 320
f 319 318 309
f 309 318 310
f 311 307 317
f 317 307 306
f 306 297 317
f 317 297 296
f 306 322 297
f 297 322 298
f 305 323 306
f 306 323 322
f 323 305 324
f 324 305 310
f 304 317 295
f 295 317 296
f 318 325 310
f 310 325 324
f 323 324 326
f 326 324 327
f 324 325 327
f 327 325 328
f 326 327 329
f 329 327 330
f 329 331 326
f 326 331 332
f 333 330 328
f 328 330 327
f 323 326 322
f 322 326 332
f 322 332 298
f 298 332 299
f 325 318 334
f 334 318 321
f 313 316 335
f 335 316 304
f 335 336 313
f 313 336 314
f 304 303 335
f 335 303 337
f 336 335 338
f 338 335 337
f 336 339 314
f 314 339 340
f 246 299 238
f 238 299 341
f 239 342 282
f 282 342 302
f 342 239 341
f 341 239 238
f 341 331 342
f 342 331 343
f 331 329 343
f 343 329 344
f 342 343 302
f 302 343 345
f 341 299 331
f 331 299 332
f 346 301 345
f 345 301 302
f 346 303 301
f 301 303 300
f 347 337 346
f 346 337 303
f 347 346 348
f 348 346 345
f 349 347 350
f 350 347 348
f 343 344 345
f 345 344 348
f 344 351 348
f 348 351 350
f 337 347 338
f 338 347 349
f 353 338 352
f 352 338 349
f 352 355 354
f 354 355 356
f 352 349 355
f 355 349 350
f 352 354 353
f 353 354 334
f 353 334 339
f 339 334 321
f 339 336 353
f 353 336 338
f 329 330 344
f 344 330 351
f 356 351 333
f 333 351 330
f 356 355 351
f 351 355 350
f 354 356 328
f 328 356 333
f 328 325 354
f 354 325 334
f 309 315 319
f 319 315 320
f 320 340 321
f 321 340 339
f 320 315 340
f 340 315 314
f 137 136 261
f 261 136 259
f 140 166 141
f 141 166 165
f 172 171 195
f 195 171 196
f 171 174 196
f 196 174 190
f 178 177 264
f 264 177 187
f 172 195 140
f 140 195 166
f 137 261 262
f 262 261 275
f 178 264 141
f 141 264 138
f 262 177 213
f 213 177 176
f 136 174 259
f 259 174 173
f 358 359 357
f 357 359 360
f 362 363 361
f 361 363 364
f 361 364 365
f 365 364 366
f 367 368 370
f 370 368 369
f 76 371 247
f 247 371 372
f 373 374 362
f 362 374 363
f 376 377 375
f 375 377 378
f 289 229 380
f 380 229 379
f 381 379 263
f 263 379 229
f 383 384 382
f 382 384 385
f 386 368 374
f 374 368 363
f 76 289 371
f 371 289 380
f 377 376 359
f 359 376 387
f 388 386 360
f 360 386 374
f 389 383 366
f 366 383 390
f 392 393 391
f 391 393 394
f 383 382 390
f 390 382 395
f 396 365 390
f 390 365 366
f 389 366 367
f 367 366 364
f 357 397 358
f 358 397 398
f 373 399 357
f 357 399 397
f 389 367 400
f 400 367 370
f 382 385 375
f 375 385 372
f 357 360 373
f 373 360 374
f 361 401 362
f 362 401 402
f 387 388 359
f 359 388 360
f 363 368 364
f 364 368 367
f 358 398 403
f 403 398 404
f 396 392 405
f 405 392 391
f 392 395 393
f 393 395 378
f 393 403 394
f 394 403 404
f 375 378 382
f 382 378 395
f 365 396 406
f 406 396 405
f 362 402 373
f 373 402 399
f 271 270 400
f 400 270 384
f 401 361 406
f 406 361 365
f 381 369 386
f 386 369 368
f 392 396 395
f 395 396 390
f 393 378 403
f 403 378 377
f 403 377 358
f 358 377 359
f 406 405 408
f 408 405 407
f 406 408 401
f 401 408 409
f 401 409 402
f 402 409 410
f 402 410 399
f 399 410 411
f 405 391 407
f 407 391 412
f 391 394 412
f 412 394 413
f 394 404 413
f 413 404 414
f 415 416 412
f 412 416 407
f 418 419 417
f 417 419 420
f 421 422 418
f 418 422 419
f 419 422 424
f 424 422 423
f 425 426 424
f 424 426 427
f 423 428 424
f 424 428 425
f 427 420 424
f 424 420 419
f 420 429 417
f 417 429 430
f 423 422 431
f 431 422 421
f 421 409 431
f 431 409 408
f 421 432 409
f 409 432 410
f 418 433 421
f 421 433 432
f 434 433 417
f 417 433 418
f 431 416 423
f 423 416 428
f 416 431 407
f 407 431 408
f 435 434 430
f 430 434 417
f 433 434 436
f 436 434 437
f 434 435 437
f 437 435 438
f 436 437 439
f 439 437 440
f 439 441 436
f 436 441 442
f 438 443 437
f 437 443 440
f 436 442 433
f 433 442 432
f 432 442 410
f 410 442 411
f 435 430 445
f 445 430 444
f 430 429 444
f 444 429 446
f 425 428 447
f 447 428 416
f 426 425 448
f 448 425 447
f 416 415 447
f 447 415 449
f 447 449 448
f 448 449 450
f 451 452 448
f 448 452 426
f 446 452 444
f 444 452 451
f 399 411 397
f 397 411 453
f 398 454 404
f 404 454 414
f 454 398 453
f 453 398 397
f 453 441 454
f 454 441 455
f 441 439 455
f 455 439 456
f 454 455 414
f 414 455 457
f 441 453 442
f 442 453 411
f 458 413 457
f 457 413 414
f 458 415 413
f 413 415 412
f 458 459 415
f 415 459 449
f 459 458 460
f 460 458 457
f 461 459 462
f 462 459 460
f 455 456 457
f 457 456 460
f 456 463 460
f 460 463 462
f 459 461 449
f 449 461 450
f 465 450 464
f 464 450 461
f 464 467 466
f 466 467 468
f 464 461 467
f 467 461 462
f 464 466 465
f 465 466 445
f 465 445 451
f 451 445 444
f 451 448 465
f 465 448 450
f 439 440 456
f 456 440 463
f 468 463 443
f 443 463 440
f 468 467 463
f 463 467 462
f 466 468 438
f 438 468 443
f 438 435 466
f 466 435 445
f 420 427 429
f 429 427 446
f 446 427 452
f 452 427 426
f 370 369 188
f 188 369 186
f 371 376 372
f 372 376 375
f 380 379 387
f 387 379 388
f 379 381 388
f 388 381 386
f 385 384 278
f 278 384 270
f 380 387 371
f 371 387 376
f 400 370 271
f 271 370 188
f 385 278 372
f 372 278 247
f 400 384 389
f 389 384 383
f 369 381 186
f 186 381 263
f 221 271 144
f 144 271 188
f 221 19 207
f 207 19 22
f 19 18 22
f 22 18 23
f 18 219 23
f 23 219 208
f 469 470 472
f 472 470 471
f 474 475 473
f 473 475 476
f 473 476 477
f 477 476 478
f 480 481 479
f 479 481 482
f 483 484 474
f 474 484 475
f 486 487 485
f 485 487 488
f 489 490 77
f 77 490 142
f 491 489 248
f 248 489 77
f 493 494 492
f 492 494 495
f 496 480 484
f 484 480 475
f 486 497 487
f 487 497 471
f 498 496 472
f 472 496 484
f 499 493 478
f 478 493 500
f 501 502 504
f 504 502 503
f 493 492 500
f 500 492 505
f 506 477 500
f 500 477 478
f 499 478 479
f 479 478 476
f 469 507 470
f 470 507 508
f 483 509 469
f 469 509 507
f 479 482 499
f 499 482 510
f 492 495 485
f 485 495 511
f 483 469 484
f 484 469 472
f 473 512 474
f 474 512 513
f 497 498 471
f 471 498 472
f 475 480 476
f 476 480 479
f 470 508 514
f 514 508 515
f 506 502 516
f 516 502 501
f 503 502 488
f 488 502 505
f 514 515 503
f 503 515 504
f 485 488 492
f 492 488 505
f 477 506 517
f 517 506 516
f 474 513 483
f 483 513 509
f 510 292 494
f 494 292 164
f 512 473 517
f 517 473 477
f 491 481 496
f 496 481 480
f 502 506 505
f 505 506 500
f 503 488 514
f 514 488 487
f 514 487 470
f 470 487 471
f 517 516 519
f 519 516 518
f 517 519 512
f 512 519 520
f 512 520 513
f 513 520 521
f 513 521 509
f 509 521 522
f 516 501 518
f 518 501 523
f 501 504 523
f 523 504 524
f 524 504 525
f 525 504 515
f 526 527 523
f 523 527 518
f 529 530 528
f 528 530 531
f 532 533 529
f 529 533 530
f 530 533 535
f 535 533 534
f 536 537 535
f 535 537 538
f 534 539 535
f 535 539 536
f 538 531 535
f 535 531 530
f 540 541 531
f 531 541 528
f 533 532 534
f 534 532 542
f 532 520 542
f 542 520 519
f 532 543 520
f 520 543 521
f 529 544 532
f 532 544 543
f 544 529 545
f 545 529 528
f 534 542 539
f 539 542 527
f 527 542 518
f 518 542 519
f 541 546 528
f 528 546 545
f 547 544 548
f 548 544 545
f 546 549 545
f 545 549 548
f 550 547 551
f 551 547 548
f 547 550 553
f 553 550 552
f 549 554 548
f 548 554 551
f 544 547 543
f 543 547 553
f 543 553 521
f 521 553 522
f 546 541 556
f 556 541 555
f 541 540 555
f 555 540 557
f 536 539 558
f 558 539 527
f 537 536 559
f 559 536 558
f 527 526 558
f 558 526 560
f 559 558 561
f 561 558 560
f 559 562 537
f 537 562 563
f 557 563 555
f 555 563 562
f 509 522 507
f 507 522 564
f 508 565 515
f 515 565 525
f 565 508 564
f 564 508 507
f 564 552 565
f 565 552 566
f 552 550 566
f 566 550 567
f 565 566 525
f 525 566 568
f 564 522 552
f 552 522 553
f 569 524 568
f 568 524 525
f 569 526 524
f 524 526 523
f 570 560 569
f 569 560 526
f 570 569 571
f 571 569 568
f 572 570 573
f 573 570 571
f 566 567 568
f 568 567 571
f 567 574 571
f 571 574 573
f 570 572 560
f 560 572 561
f 576 561 575
f 575 561 572
f 575 578 577
f 577 578 579
f 575 572 578
f 578 572 573
f 575 577 576
f 576 577 556
f 576 556 562
f 562 556 555
f 562 559 576
f 576 559 561
f 550 551 567
f 567 551 574
f 579 574 554
f 554 574 551
f 579 578 574
f 574 578 573
f 579 554 577
f 577 554 549
f 549 546 577
f 577 546 556
f 531 538 540
f 540 538 557
f 557 538 563
f 563 538 537
f 481 294 482
f 482 294 293
f 580 486 511
f 511 486 485
f 490 489 497
f 497 489 498
f 489 491 498
f 498 491 496
f 163 495 164
f 164 495 494
f 580 490 486
f 486 490 497
f 482 293 510
f 510 293 292
f 495 163 511
f 511 163 199
f 494 493 510
f 510 493 499
f 481 491 294
f 294 491 248
f 582 583 581
f 581 583 584
f 586 587 585
f 585 587 588
f 585 588 589
f 589 588 590
f 592 593 591
f 591 593 594
f 595 596 598
f 598 596 597
f 599 600 586
f 586 600 587
f 601 602 604
f 604 602 603
f 605 606 608
f 608 606 607
f 609 607 200
f 200 607 606
f 610 611 613
f 613 611 612
f 600 614 587
f 587 614 592
f 596 605 597
f 597 605 608
f 602 615 603
f 603 615 583
f 616 614 584
f 584 614 600
f 611 618 617
f 617 618 590
f 620 621 619
f 619 621 622
f 610 623 611
f 611 623 618
f 624 589 618
f 618 589 590
f 617 590 591
f 591 590 588
f 581 625 582
f 582 625 626
f 599 627 581
f 581 627 625
f 591 594 617
f 617 594 628
f 601 610 598
f 598 610 613
f 581 584 599
f 599 584 600
f 585 629 586
f 586 629 630
f 615 616 583
f 583 616 584
f 587 592 588
f 588 592 591
f 582 626 631
f 631 626 632
f 624 620 633
f 633 620 619
f 621 620 604
f 604 620 623
f 631 632 621
f 621 632 622
f 610 601 623
f 623 601 604
f 589 624 634
f 634 624 633
f 586 630 599
f 599 630 627
f 203 202 628
f 628 202 612
f 629 585 634
f 634 585 589
f 609 593 614
f 614 593 592
f 620 624 623
f 623 624 618
f 631 621 603
f 603 621 604
f 582 631 583
f 583 631 603
f 634 633 636
f 636 633 635
f 634 636 629
f 629 636 637
f 629 637 630
f 630 637 638
f 630 638 627
f 627 638 639
f 633 619 635
f 635 619 640
f 619 622 640
f 640 622 641
f 641 622 642
f 642 622 632
f 644 635 643
f 643 635 640
f 645 646 648
f 648 646 647
f 649 650 646
f 646 650 647
f 647 650 652
f 652 650 651
f 652 653 655
f 655 653 654
f 651 656 652
f 652 656 653
f 655 648 652
f 652 648 647
f 648 657 645
f 645 657 658
f 650 649 651
f 651 649 659
f 649 637 659
f 659 637 636
f 649 660 637
f 637 660 638
f 661 660 646
f 646 660 649
f 662 661 645
f 645 661 646
f 651 659 656
f 656 659 644
f 644 659 635
f 635 659 636
f 663 662 658
f 658 662 645
f 664 661 665
f 665 661 662
f 663 666 662
f 662 666 665
f 667 664 668
f 668 664 665
f 664 667 670
f 670 667 669
f 666 671 665
f 665 671 668
f 661 664 660
f 660 664 670
f 660 670 638
f 638 670 639
f 658 672 663
f 663 672 673
f 658 657 672
f 672 657 674
f 653 656 675
f 675 656 644
f 653 675 654
f 654 675 676
f 675 644 677
f 677 644 643
f 676 675 678
f 678 675 677
f 679 680 676
f 676 680 654
f 674 680 672
f 672 680 679
f 627 639 625
f 625 639 681
f 626 682 632
f 632 682 642
f 681 682 625
f 625 682 626
f 669 683 681
f 681 683 682
f 667 684 669
f 669 684 683
f 682 683 642
f 642 683 685
f 681 639 669
f 669 639 670
f 686 641 685
f 685 641 642
f 641 686 640
f 640 686 643
f 686 687 643
f 643 687 677
f 687 686 688
f 688 686 685
f 689 687 690
f 690 687 688
f 683 684 685
f 685 684 688
f 684 691 688
f 688 691 690
f 687 689 677
f 677 689 678
f 693 678 692
f 692 678 689
f 692 695 694
f 694 695 696
f 692 689 695
f 695 689 690
f 692 694 693
f 693 694 673
f 693 673 679
f 679 673 672
f 679 676 693
f 693 676 678
f 684 667 691
f 691 667 668
f 696 691 671
f 671 691 668
f 696 695 691
f 691 695 690
f 694 696 666
f 666 696 671
f 666 663 694
f 694 663 673
f 648 655 657
f 657 655 674
f 674 655 680
f 680 655 654
f 593 162 594
f 594 162 290
f 598 597 601
f 601 597 602
f 615 608 616
f 616 608 607
f 607 609 616
f 616 609 614
f 697 595 613
f 613 595 598
f 597 608 602
f 602 608 615
f 594 290 628
f 628 290 203
f 628 612 617
f 617 612 611
f 593 609 162
f 162 609 200
f 105 29 698
f 698 29 699
f 268 126 701
f 701 126 700
f 126 125 700
f 700 125 702
f 252 703 250
f 250 703 704
f 32 268 705
f 705 268 701
f 288 105 706
f 706 105 698
f 29 32 699
f 699 32 705
f 707 251 706
f 706 251 288
f 250 704 125
f 125 704 702
f 703 252 707
f 707 252 251
f 706 708 707
f 707 708 709
f 707 709 703
f 703 709 710
f 703 710 704
f 704 710 711
f 704 711 702
f 702 711 712
f 706 698 708
f 708 698 713
f 698 699 713
f 713 699 714
f 699 705 714
f 714 705 715
f 717 708 716
f 716 708 713
f 719 720 718
f 718 720 721
f 722 723 719
f 719 723 720
f 724 725 723
f 723 725 720
f 724 726 725
f 725 726 727
f 728 721 725
f 725 721 720
f 721 728 729
f 729 728 730
f 729 731 721
f 721 731 718
f 724 723 732
f 732 723 722
f 722 710 732
f 732 710 709
f 722 733 710
f 710 733 711
f 719 734 722
f 722 734 733
f 734 719 735
f 735 719 718
f 724 732 726
f 726 732 717
f 717 732 708
f 708 732 709
f 731 736 718
f 718 736 735
f 737 734 738
f 738 734 735
f 736 739 735
f 735 739 738
f 740 737 741
f 741 737 738
f 737 740 743
f 743 740 742
f 739 744 738
f 738 744 741
f 734 737 733
f 733 737 743
f 733 743 711
f 711 743 712
f 736 731 746
f 746 731 745
f 731 729 745
f 745 729 730
f 727 726 747
f 747 726 717
f 748 727 749
f 749 727 747
f 747 717 750
f 750 717 716
f 749 747 751
f 751 747 750
f 749 752 748
f 748 752 753
f 730 753 745
f 745 753 752
f 728 725 748
f 748 725 727
f 730 728 753
f 753 728 748
f 700 702 754
f 754 702 712
f 705 701 715
f 715 701 755
f 754 755 700
f 700 755 701
f 742 756 754
f 754 756 755
f 740 757 742
f 742 757 756
f 755 756 715
f 715 756 758
f 754 712 742
f 742 712 743
f 759 714 758
f 758 714 715
f 714 759 713
f 713 759 716
f 759 760 716
f 716 760 750
f 760 759 761
f 761 759 758
f 762 760 763
f 763 760 761
f 756 757 758
f 758 757 761
f 757 764 761
f 761 764 763
f 760 762 750
f 750 762 751
f 766 751 765
f 765 751 762
f 767 765 769
f 769 765 768
f 765 762 768
f 768 762 763
f 765 767 766
f 766 767 746
f 766 746 752
f 752 746 745
f 752 749 766
f 766 749 751
f 757 740 764
f 764 740 741
f 769 764 744
f 744 764 741
f 769 768 764
f 764 768 763
f 767 769 739
f 739 769 744
f 739 736 767
f 767 736 746
f 219 217 208
f 208 217 209
f 209 217 210
f 210 217 193
f 198 580 199
f 199 580 511
f 76 75 289
f 289 75 272
f 277 207 291
f 291 207 184
f 290 183 203
f 203 183 84
f 490 580 142
f 142 580 198
f 142 198 143
f 143 198 197
f 149 276 72
f 72 276 73
f 104 103 279
f 279 103 770
f 770 596 279
f 279 596 595
f 605 596 771
f 771 596 770
f 771 770 772
f 772 770 103
f 772 103 773
f 773 103 102
f 155 774 101
f 101 774 102
f 773 102 97
f 97 102 774
f 775 773 100
f 100 773 97
f 773 775 772
f 772 775 776
f 772 776 771
f 771 776 777
f 200 606 197
f 197 606 777
f 189 71 778
f 778 71 74
f 97 774 98
f 98 774 155
f 183 161 184
f 184 161 291
f 777 276 197
f 197 276 143
f 777 606 771
f 771 606 605
f 613 612 697
f 697 612 202
f 595 697 279
f 279 697 202
f 73 276 776
f 776 276 777
f 776 775 73
f 73 775 74
f 100 778 775
f 775 778 74
f 778 100 189
f 189 100 99
f 245 242 99
f 99 242 189
f 131 33 256
f 28 1 95
f 95 1 62
f 27 2 28
f 28 2 1
f 265 115 266
f 266 115 114
f 95 62 69
f 69 62 64
f 62 61 64
f 64 61 65
f 61 13 65
f 65 13 130
f 13 12 130
f 130 12 14
f 31 11 32
f 32 11 268
f 15 12 31
f 31 12 11
f 31 30 15
f 15 30 231
f 30 106 231
f 231 106 232
f 287 237 106
f 106 237 232
f 254 90 287
f 287 90 237
f 253 44 254
f 254 44 90
f 253 249 44
f 44 249 7
f 267 127 268
f 268 127 126
f 10 3 241
f 241 3 116
f 3 2 116
f 116 2 114
f 2 27 114
f 114 27 266
f 27 26 266
f 266 26 113
f 26 286 113
f 113 286 110
f 286 243 110
f 110 243 255
f 243 242 255
f 255 242 256
f 242 245 256
f 256 245 131
f 245 244 131
f 131 244 132
f 265 37 115
f 115 37 41
f 41 37 42
f 42 37 40
f 92 91 40
f 40 91 42
f 236 233 92
f 92 233 91
f 191 194 236
f 236 194 233
f 258 285 244
f 244 285 132
f 257 55 258
f 258 55 285
f 257 154 201
f 201 154 185
f 56 201 204
f 204 201 180
f 55 257 56
f 56 257 201
f 204 85 56
f 56 85 52
f 86 122 53
f 53 122 79
f 212 215 86
f 86 215 122
f 211 216 212
f 212 216 215
f 192 280 211
f 211 280 216
f 191 240 192
f 192 240 280
f 249 124 7
f 7 124 8
f 124 127 8
f 8 127 241
f 127 267 241
f 241 267 10
f 10 267 9
f 9 267 11
