o right
v 0.196217 0.000832 0.584820
v 0.201892 0.015695 0.588886
v 0.196965 0.007277 0.591995
v 0.188421 -0.004946 0.582968
v 0.195136 0.031884 0.613403
v 0.183585 0.040550 0.612354
v 0.180447 0.012037 0.620684
v 0.190217 0.005657 0.624673
v 0.184346 -0.012874 0.585638
v 0.191165 -0.004609 0.600128
v 0.186088 -0.018948 0.587079
v 0.180395 -0.020090 0.564506
v 0.174487 -0.020626 0.571840
v 0.180560 -0.028500 0.557607
v 0.189532 -0.012369 0.562224
v 0.192545 -0.028160 0.553998
v 0.222922 -0.009621 0.566663
v 0.236640 -0.009793 0.580590
v 0.232453 -0.034067 0.580075
v 0.216956 -0.028633 0.567044
v 0.238232 -0.020275 0.601544
v 0.232844 -0.025774 0.590200
v 0.240818 -0.006083 0.588064
v 0.246950 -0.002446 0.596051
v 0.211681 0.009331 0.595954
v 0.215565 0.023437 0.600017
v 0.209290 0.021188 0.592895
v 0.205503 0.008014 0.590319
v 0.178346 -0.017099 0.595115
v 0.183780 -0.003525 0.582250
v 0.184473 -0.011764 0.580112
v 0.180737 -0.024331 0.596560
v 0.231358 0.051902 0.620435
v 0.237203 0.069431 0.620281
v 0.231935 0.070209 0.614738
v 0.227257 0.055534 0.617054
v 0.194907 0.062499 0.600845
v 0.208039 0.075063 0.601366
v 0.209610 0.081365 0.584840
v 0.193722 0.069990 0.584898
v 0.186791 0.053125 0.605433
v 0.180419 0.058066 0.593846
v 0.175476 0.042722 0.602573
v 0.175350 0.015324 0.611606
v 0.250181 0.067155 0.630578
v 0.247200 0.053461 0.633017
v 0.158524 -0.074694 0.581398
v 0.160859 -0.073878 0.587990
v 0.164231 -0.072507 0.586535
v 0.160985 -0.073654 0.580816
v 0.266770 0.048826 0.625027
v 0.274825 0.043769 0.616330
v 0.278031 0.052633 0.617596
v 0.270247 0.058183 0.623893
v 0.261403 0.037378 0.625197
v 0.268530 0.032460 0.612157
v 0.160257 -0.088789 0.575073
v 0.157509 -0.083274 0.575522
v 0.162081 -0.083478 0.572598
v 0.166117 -0.087830 0.571820
v 0.177945 -0.015165 0.576985
v 0.188900 -0.010334 0.582722
v 0.174782 -0.037678 0.569836
v 0.181080 -0.026298 0.574893
v 0.173475 -0.025752 0.569235
v 0.172007 -0.035881 0.564071
v 0.203105 -0.018851 0.595471
v 0.210055 -0.003913 0.596451
v 0.204779 -0.007378 0.589393
v 0.196279 -0.023133 0.587194
v 0.215999 0.000575 0.613790
v 0.208446 -0.013892 0.610602
v 0.210628 -0.010040 0.620701
v 0.216982 -0.001020 0.621485
v 0.204073 -0.041664 0.597928
v 0.198376 -0.046670 0.595095
v 0.198666 -0.041966 0.601337
v 0.203337 -0.038147 0.603502
v 0.281843 0.061020 0.617076
v 0.271664 0.066688 0.620740
v 0.243269 -0.010786 0.621501
v 0.242179 -0.004264 0.632046
v 0.233998 -0.019464 0.636678
v 0.236128 -0.019455 0.626203
v 0.275605 0.040254 0.603467
v 0.280834 0.048387 0.606755
v 0.164930 -0.092216 0.579199
v 0.171103 -0.092071 0.576035
v 0.177946 0.042806 0.583798
v 0.173285 0.017773 0.598095
v 0.189088 0.060350 0.576113
v 0.204683 0.070190 0.574270
v 0.216041 0.078528 0.572410
v 0.186822 -0.032271 0.577172
v 0.199590 -0.004194 0.586920
v 0.215489 0.011626 0.602040
v 0.226548 0.010466 0.637884
v 0.233115 0.023566 0.639184
v 0.224412 0.019162 0.629779
v 0.222128 0.009656 0.629804
v 0.235271 -0.002151 0.641292
v 0.227549 -0.002599 0.639666
v 0.220391 -0.015288 0.641377
v 0.228102 -0.016113 0.642226
v 0.173016 -0.012765 0.595691
v 0.180736 0.005001 0.583718
v 0.257982 0.053828 0.633150
v 0.259380 0.064348 0.630256
v 0.262681 0.071662 0.623653
v 0.220343 0.039518 0.610620
v 0.223520 0.057691 0.613225
v 0.214370 0.057743 0.609266
v 0.215805 0.039815 0.605487
v 0.205154 0.032136 0.597333
v 0.198825 0.047390 0.605243
v 0.201712 0.018607 0.606225
v 0.222187 0.074755 0.608549
v 0.236084 0.082269 0.611980
v 0.227814 0.084245 0.604171
v 0.245974 0.079767 0.618978
v 0.255162 0.076647 0.624125
v 0.288186 0.056685 0.606178
v 0.221092 0.084103 0.595927
v 0.181004 -0.009518 0.622874
v 0.175271 -0.018530 0.617873
v 0.181714 -0.023231 0.613736
v 0.188535 -0.015251 0.619211
v 0.180897 -0.040338 0.554213
v 0.172990 -0.038462 0.558420
v 0.173879 -0.025356 0.562542
v 0.230581 0.039628 0.625986
v 0.239854 0.041412 0.635114
v 0.180176 -0.043154 0.573412
v 0.169460 -0.084281 0.569842
v 0.165019 -0.079745 0.570377
v 0.173395 -0.059333 0.561960
v 0.179785 -0.063513 0.561134
v 0.182952 -0.056618 0.579546
v 0.178381 -0.049368 0.577140
v 0.178083 -0.053370 0.579568
v 0.182821 -0.058585 0.582207
v 0.204148 -0.035013 0.611753
v 0.206329 -0.032865 0.613986
v 0.206522 -0.045824 0.570311
v 0.202170 -0.042260 0.553932
v 0.207071 -0.026500 0.555282
v 0.207877 -0.015433 0.603198
v 0.203586 -0.029453 0.601924
v 0.204677 -0.027348 0.607573
v 0.189659 -0.037389 0.578581
v 0.186239 -0.046467 0.576254
v 0.192224 -0.044126 0.579682
v 0.194200 -0.035323 0.584014
v 0.250405 0.010256 0.628182
v 0.242805 0.014234 0.641761
v 0.156980 -0.078040 0.577222
v 0.160230 -0.077771 0.575805
v 0.213912 -0.000778 0.604828
v 0.212019 -0.010226 0.562785
v 0.219437 0.013323 0.608522
v 0.220180 -0.038982 0.619380
v 0.214668 -0.036215 0.624205
v 0.208818 -0.037676 0.625392
v 0.212489 -0.041292 0.622196
v 0.176343 -0.074972 0.588511
v 0.171324 -0.073031 0.589191
v 0.169082 -0.073264 0.591872
v 0.173434 -0.078270 0.592446
v 0.173519 -0.046417 0.572665
v 0.169992 -0.045264 0.566080
v 0.168498 -0.052629 0.570574
v 0.172772 -0.053155 0.575819
v 0.170705 -0.047575 0.560681
v 0.169967 -0.055675 0.565105
v 0.180456 -0.080060 0.585673
v 0.179843 -0.086678 0.578765
v 0.188663 -0.066927 0.569526
v 0.186709 -0.065664 0.577382
v 0.255796 0.013996 0.593725
v 0.258494 0.016861 0.605003
v 0.248183 0.000902 0.608495
v 0.239469 -0.014672 0.614303
v 0.229478 -0.028866 0.618990
v 0.231654 -0.038358 0.605797
v 0.251067 0.003946 0.616209
v 0.190542 -0.057865 0.575840
v 0.195347 -0.054049 0.566930
v 0.198578 -0.055194 0.575713
v 0.223186 0.013361 0.617700
v 0.162556 -0.075723 0.573445
v 0.235062 0.056547 0.567406
v 0.249543 0.052646 0.576601
v 0.242836 0.042927 0.574746
v 0.225569 0.046563 0.567455
v 0.164839 -0.071875 0.584565
v 0.161973 -0.072057 0.579199
v 0.207873 -0.032602 0.621729
v 0.205498 -0.034932 0.618864
v 0.206173 -0.033550 0.622242
v 0.205968 -0.034109 0.625992
v 0.261141 0.019891 0.610805
v 0.227784 -0.030593 0.636854
v 0.231111 -0.027823 0.630213
v 0.268750 0.030066 0.601994
v 0.263732 0.028364 0.592127
v 0.269543 0.038676 0.591327
v 0.218105 -0.043640 0.596155
v 0.247463 0.011680 0.586928
v 0.256167 0.026852 0.586079
v 0.263029 0.039296 0.586112
v 0.269397 0.047199 0.583599
v 0.275559 0.046112 0.590535
v 0.174958 -0.086525 0.573494
v 0.175384 -0.092574 0.584134
v 0.281761 0.055368 0.589388
v 0.275165 0.055062 0.580504
v 0.243889 0.026875 0.579306
v 0.235296 0.024799 0.571706
v 0.240606 0.010145 0.579590
v 0.230577 0.007973 0.571468
v 0.225791 -0.050616 0.579717
v 0.154828 -0.087696 0.597650
v 0.168627 -0.087005 0.593412
v 0.167174 -0.080683 0.594509
v 0.154124 -0.084487 0.600278
v 0.175907 -0.085291 0.590592
v 0.168901 -0.091015 0.587728
v 0.212962 0.008532 0.564694
v 0.187360 -0.053419 0.578305
v 0.211226 0.028689 0.566946
v 0.195399 0.002860 0.566581
v 0.191057 0.018616 0.572054
v 0.207218 0.051810 0.569640
v 0.188372 0.037555 0.571244
v 0.228252 0.071226 0.567985
v 0.220003 0.061439 0.569399
v 0.178935 0.022672 0.583236
v 0.147612 -0.076938 0.590647
v 0.150560 -0.076091 0.596020
v 0.242152 0.065013 0.566687
v 0.194922 0.000251 0.616464
v 0.223947 0.026215 0.618406
v 0.221530 0.025670 0.611145
v 0.236574 0.030843 0.639693
v 0.227241 0.028095 0.628960
v 0.146371 -0.079889 0.585879
v 0.193888 -0.046001 0.597511
v 0.196547 -0.040761 0.600159
v 0.175525 -0.003536 0.619413
v 0.170023 -0.012429 0.616843
v 0.163243 -0.012308 0.604450
v 0.164585 -0.012682 0.611497
v 0.171645 -0.000215 0.610572
v 0.168481 0.001105 0.601615
v 0.222639 0.039407 0.614641
v 0.226716 0.038538 0.618945
v 0.255943 0.025139 0.626692
v 0.247624 0.028052 0.640687
v 0.177207 -0.050205 0.557205
v 0.189727 -0.043161 0.551755
v 0.184768 -0.053521 0.555746
v 0.186853 -0.064474 0.562257
v 0.184157 -0.058350 0.578057
v 0.188447 -0.058857 0.576603
v 0.202911 0.053028 0.607935
v 0.208017 0.038206 0.598881
v 0.188332 -0.015702 0.607727
v 0.183830 -0.025061 0.606443
v 0.198387 -0.029729 0.592560
v 0.206252 -0.050913 0.593592
v 0.211723 -0.056103 0.584978
v 0.197918 -0.042321 0.588918
v 0.148063 -0.087781 0.584101
v 0.146362 -0.083365 0.584279
v 0.192572 -0.054467 0.557077
v 0.208059 -0.023562 0.617633
v 0.208931 -0.043934 0.600039
v 0.197982 -0.047438 0.596360
v 0.223500 -0.025936 0.641562
v 0.256631 0.061128 0.574487
v 0.164310 -0.074844 0.594171
v 0.153321 -0.078030 0.599525
v 0.155310 -0.089952 0.593434
v 0.153047 -0.091049 0.586847
v 0.252548 0.040202 0.637761
v 0.220121 0.024205 0.606431
v 0.174999 0.005696 0.593369
v 0.167608 -0.011916 0.597194
v 0.194578 -0.049151 0.585805
v 0.224889 -0.032861 0.623104
v 0.219673 -0.045623 0.610623
v 0.209410 -0.048599 0.614987
v 0.203543 -0.048829 0.608360
v 0.197267 -0.043897 0.604030
v 0.148252 -0.089565 0.597592
v 0.146795 -0.090592 0.591848
v 0.141679 -0.087951 0.588405
v 0.140224 -0.084428 0.588398
v 0.141669 -0.080168 0.589842
v 0.147333 -0.088145 0.601948
v 0.146475 -0.085744 0.604763
v 0.148205 -0.079216 0.603027
v 0.140647 -0.089875 0.605387
v 0.136813 -0.093618 0.601769
v 0.123188 -0.090547 0.594393
v 0.130392 -0.091540 0.591949
v 0.128365 -0.093390 0.594023
v 0.122425 -0.093529 0.597043
v 0.116922 -0.094741 0.601077
v 0.116757 -0.091766 0.598173
v 0.133307 -0.094180 0.596562
v 0.125508 -0.095657 0.600267
v 0.127905 -0.095797 0.604764
v 0.121099 -0.096854 0.607489
v 0.119009 -0.097645 0.603719
v 0.132910 -0.094900 0.601621
v 0.136177 -0.092954 0.596025
v 0.112667 -0.093562 0.602484
v 0.113329 -0.096385 0.603162
v 0.114923 -0.098028 0.605958
v 0.111380 -0.095989 0.608339
v 0.133828 -0.085348 0.590007
v 0.123204 -0.087501 0.594235
v 0.117244 -0.088603 0.599383
v 0.113224 -0.090541 0.603744
v 0.123377 -0.084390 0.597564
v 0.118650 -0.086496 0.601601
v 0.115731 -0.087868 0.605962
v 0.124859 -0.083034 0.601859
v 0.120234 -0.085230 0.604922
v 0.139196 -0.078081 0.595207
v 0.137421 -0.080630 0.591038
v 0.117054 -0.085824 0.606973
v 0.111869 -0.093491 0.610070
v 0.131104 -0.093498 0.607294
v 0.122057 -0.093558 0.609854
v 0.131788 -0.091106 0.608995
v 0.122899 -0.091413 0.611973
v 0.116073 -0.095489 0.611599
v 0.117226 -0.097247 0.608476
v 0.144472 -0.077351 0.593421
v 0.147141 -0.077041 0.599226
v 0.142502 -0.077554 0.601735
v 0.127116 -0.082083 0.606899
v 0.142925 -0.079857 0.605794
v 0.139942 -0.086686 0.607437
v 0.130685 -0.088377 0.610992
v 0.129806 -0.085027 0.610838
v 0.123698 -0.089387 0.613075
v 0.123494 -0.086891 0.611795
v 0.121390 -0.084524 0.608856
v 0.117933 -0.089762 0.612717
v 0.116457 -0.092947 0.612594
v 0.114624 -0.089543 0.610184
v 0.119479 -0.087812 0.612441
v 0.117425 -0.087158 0.609865
v 0.177548 -0.068241 0.593115
v 0.178504 -0.065451 0.600711
v 0.168085 -0.062889 0.596058
v 0.167592 -0.066596 0.590181
v 0.161983 -0.072405 0.595683
v 0.167402 -0.070609 0.591655
v 0.164479 -0.074384 0.590911
v 0.164820 -0.078315 0.597625
v 0.160958 -0.071967 0.602883
v 0.167234 -0.078157 0.605546
v 0.170914 -0.079538 0.597228
v 0.168798 -0.073329 0.591252
v 0.185555 -0.061758 0.580430
v 0.192313 -0.064122 0.585569
v 0.186841 -0.046931 0.591033
v 0.188586 -0.047439 0.594920
v 0.173404 -0.069575 0.590532
v 0.165909 -0.070057 0.587794
v 0.172263 -0.056404 0.602992
v 0.169816 -0.056682 0.598138
v 0.169482 -0.061273 0.601697
v 0.169381 -0.061268 0.607596
v 0.180730 -0.053994 0.577155
v 0.185475 -0.050403 0.584190
v 0.181562 -0.059559 0.577535
v 0.174178 -0.060962 0.608279
v 0.175497 -0.068669 0.611313
v 0.196214 -0.059148 0.598532
v 0.192150 -0.053711 0.598934
v 0.167811 -0.068479 0.589259
v 0.167221 -0.059482 0.593855
v 0.166665 -0.063511 0.589527
v 0.175369 -0.076049 0.605003
v 0.166968 -0.068823 0.612809
v 0.172023 -0.050504 0.605635
v 0.171165 -0.064500 0.612155
v 0.175785 -0.063301 0.610672
v 0.177137 -0.048574 0.604849
v 0.167980 -0.065684 0.611543
v 0.165147 -0.067117 0.610982
v 0.180749 -0.049429 0.590747
v 0.182441 -0.047585 0.597447
v 0.177328 -0.050365 0.588349
v 0.197686 -0.063885 0.592021
v 0.166353 -0.055333 0.592207
v 0.172771 -0.052562 0.588745
v 0.179365 -0.064059 0.607002
v 0.181280 -0.046732 0.602303
v 0.168341 -0.052691 0.604395
v 0.164797 -0.057036 0.598965
v 0.168773 -0.043911 0.600372
v 0.164988 -0.046298 0.595522
v 0.166665 -0.046142 0.589033
v 0.172278 -0.046286 0.586741
v 0.176873 -0.046526 0.586850
v 0.172415 -0.042270 0.601984
v 0.176807 -0.041213 0.602254
v 0.180759 -0.043286 0.600363
v 0.177777 -0.034120 0.598285
v 0.174641 -0.032919 0.595036
v 0.183641 -0.028631 0.575987
v 0.178639 -0.033342 0.579108
v 0.177829 -0.030675 0.580866
v 0.182719 -0.026142 0.578238
v 0.172698 -0.036503 0.583162
v 0.173819 -0.033676 0.583753
v 0.173170 -0.032644 0.588732
v 0.177887 -0.027375 0.585173
v 0.179427 -0.027019 0.590277
v 0.183767 -0.021827 0.586941
v 0.181973 -0.021989 0.581955
v 0.175479 -0.030562 0.591632
v 0.185594 -0.022493 0.577029
v 0.187812 -0.023162 0.575748
v 0.170377 -0.035175 0.590109
v 0.173770 -0.042880 0.584152
v 0.181088 -0.035541 0.578608
v 0.186566 -0.030188 0.575748
v 0.190764 -0.023879 0.576753
v 0.184691 -0.036227 0.580191
v 0.189312 -0.030592 0.577770
v 0.192093 -0.025212 0.579021
v 0.188242 -0.036188 0.583729
v 0.192253 -0.030286 0.581605
v 0.180291 -0.045544 0.589581
v 0.177570 -0.045471 0.585602
v 0.192875 -0.027092 0.581082
v 0.188831 -0.017689 0.578345
v 0.192071 -0.020113 0.579612
v 0.186700 -0.018996 0.579322
v 0.181065 -0.027469 0.592332
v 0.186251 -0.022592 0.587912
v 0.183804 -0.028599 0.593863
v 0.189224 -0.023476 0.588590
v 0.189269 -0.018737 0.583753
v 0.187641 -0.019051 0.583139
v 0.179500 -0.046159 0.590334
v 0.181620 -0.044825 0.596498
v 0.182228 -0.044242 0.595352
v 0.189954 -0.034557 0.589079
v 0.181903 -0.041547 0.599204
v 0.180534 -0.036728 0.599343
v 0.186060 -0.030126 0.594730
v 0.189149 -0.032067 0.592990
v 0.191054 -0.023705 0.590222
v 0.192108 -0.027010 0.590201
v 0.193756 -0.029576 0.586147
v 0.193307 -0.020602 0.585550
v 0.191243 -0.019267 0.584285
v 0.193272 -0.021884 0.581061
v 0.194077 -0.023488 0.587190
v 0.194020 -0.025081 0.583293
v 0.175731 -0.024561 0.614111
v 0.180230 -0.023375 0.619303
v 0.180809 -0.026382 0.619089
v 0.176826 -0.028814 0.614264
v 0.164455 -0.035716 0.622980
v 0.166130 -0.030883 0.618101
v 0.167359 -0.037866 0.616257
v 0.165523 -0.045151 0.620846
v 0.166841 -0.035456 0.630247
v 0.168913 -0.047945 0.629248
v 0.172541 -0.050035 0.618690
v 0.172050 -0.042883 0.614557
v 0.190708 -0.045226 0.608254
v 0.192638 -0.051278 0.612385
v 0.170741 -0.027038 0.615608
v 0.172238 -0.032524 0.614601
v 0.186456 -0.029061 0.627848
v 0.184726 -0.026517 0.623896
v 0.183821 -0.025667 0.625519
v 0.184386 -0.028864 0.629524
v 0.197192 -0.032005 0.604686
v 0.200951 -0.029332 0.611118
v 0.192323 -0.037869 0.604750
v 0.185219 -0.036373 0.632296
v 0.181309 -0.046279 0.633530
v 0.201493 -0.044035 0.626049
v 0.202658 -0.037356 0.626134
v 0.175211 -0.036629 0.613743
v 0.182083 -0.027013 0.616955
v 0.178595 -0.030528 0.613187
v 0.177457 -0.051115 0.625958
v 0.175363 -0.041287 0.636569
v 0.171731 -0.008842 0.636840
v 0.179267 -0.029553 0.634878
v 0.183901 -0.025588 0.629973
v 0.175014 -0.006184 0.634312
v 0.181116 -0.033827 0.634863
v 0.174133 -0.033928 0.635616
v 0.169867 -0.003600 0.619634
v 0.174431 -0.004155 0.623693
v 0.166025 -0.006830 0.619754
v 0.197567 -0.051322 0.618864
v 0.203500 -0.030515 0.622139
v 0.161471 -0.010896 0.626236
v 0.163088 -0.008585 0.621679
v 0.183648 -0.023642 0.625397
v 0.176634 -0.004375 0.629854
v 0.168315 -0.011672 0.635540
v 0.163393 -0.013758 0.631977
v 0.167728 -0.002923 0.638066
v 0.162074 -0.004516 0.634348
v 0.158957 -0.001850 0.629635
v 0.158975 -0.000012 0.624818
v 0.162022 0.001608 0.621930
v 0.170701 0.000222 0.638277
v 0.172913 0.002751 0.635197
v 0.174618 0.000470 0.629775
v 0.170631 0.007451 0.639438
v 0.164728 0.007009 0.641691
v 0.150627 0.023304 0.637015
v 0.152985 0.016232 0.634665
v 0.152613 0.016251 0.636397
v 0.150625 0.022675 0.639209
v 0.155477 0.007641 0.634511
v 0.154881 0.009666 0.636395
v 0.158253 0.007861 0.639641
v 0.155096 0.015668 0.642794
v 0.163410 0.016313 0.643855
v 0.160688 0.021915 0.644552
v 0.153169 0.021534 0.644535
v 0.162948 0.009295 0.642341
v 0.150604 0.026255 0.641552
v 0.148680 0.027937 0.639753
v 0.159477 0.004981 0.638020
v 0.155315 0.007455 0.627970
v 0.153061 0.017526 0.630678
v 0.151110 0.025054 0.632531
v 0.151641 0.029918 0.635750
v 0.156322 0.018728 0.627729
v 0.154357 0.025832 0.630388
v 0.154964 0.030094 0.633428
v 0.159632 0.019221 0.627006
v 0.158144 0.025589 0.630181
v 0.164180 0.005816 0.622428
v 0.158713 0.006590 0.623998
v 0.157648 0.029206 0.632753
v 0.152254 0.029495 0.644593
v 0.156369 0.031929 0.640865
v 0.153027 0.026701 0.644252
v 0.166192 0.015909 0.643630
v 0.163463 0.023871 0.644846
v 0.168816 0.016496 0.641191
v 0.166796 0.024667 0.643989
v 0.159436 0.027734 0.646003
v 0.158306 0.026447 0.645379
v 0.167524 0.000909 0.621552
v 0.172710 0.000776 0.624699
v 0.169434 0.005989 0.624730
v 0.164154 0.020383 0.629389
v 0.172383 0.006036 0.629385
v 0.171576 0.009488 0.635942
v 0.169531 0.017873 0.637550
v 0.168103 0.019967 0.633677
v 0.167992 0.025458 0.640612
v 0.166876 0.025133 0.636619
v 0.163154 0.026691 0.631755
v 0.163673 0.029377 0.640879
v 0.162134 0.029143 0.644429
v 0.158857 0.031857 0.637594
v 0.164188 0.028633 0.637616
v 0.160622 0.030139 0.635117
v 0.202765 -0.029769 0.617358
v 0.199532 -0.063668 0.618441
v 0.200092 -0.061567 0.623149
v 0.201405 -0.061048 0.623061
v 0.200914 -0.061625 0.618077
v 0.211694 -0.071079 0.617177
v 0.206107 -0.068860 0.615860
v 0.210871 -0.065918 0.612417
v 0.217258 -0.068876 0.613260
v 0.215109 -0.071312 0.621764
v 0.219650 -0.069066 0.618865
v 0.217994 -0.062705 0.612366
v 0.211635 -0.059485 0.611685
v 0.216983 -0.039340 0.620953
v 0.223092 -0.039891 0.621445
v 0.219082 -0.032741 0.639635
v 0.213510 -0.031699 0.638661
v 0.208241 -0.040149 0.634804
v 0.213992 -0.042075 0.637798
v 0.201841 -0.066219 0.616414
v 0.204872 -0.062435 0.614297
v 0.208155 -0.062848 0.631436
v 0.203535 -0.060383 0.627671
v 0.202506 -0.060070 0.626915
v 0.205578 -0.061167 0.630712
v 0.208234 -0.031439 0.634576
v 0.207342 -0.032121 0.630778
v 0.203128 -0.035715 0.627505
v 0.204732 -0.039293 0.630520
v 0.205851 -0.037017 0.622617
v 0.214173 -0.065421 0.631080
v 0.220984 -0.066702 0.626301
v 0.224992 -0.041161 0.636520
v 0.220512 -0.041399 0.638767
v 0.203945 -0.058996 0.613613
v 0.203041 -0.059116 0.623342
v 0.200428 -0.059318 0.618395
v 0.221260 -0.065610 0.617892
v 0.217814 -0.067534 0.627360
v 0.197871 -0.071023 0.635647
v 0.208293 -0.063044 0.632556
v 0.202958 -0.060427 0.630996
v 0.195397 -0.069458 0.635144
v 0.210807 -0.065213 0.631193
v 0.212689 -0.067348 0.629622
v 0.190244 -0.072359 0.622647
v 0.191225 -0.068736 0.627810
v 0.192186 -0.074830 0.620873
v 0.227685 -0.040262 0.627836
v 0.199193 -0.078733 0.623967
v 0.194702 -0.077882 0.621387
v 0.200545 -0.060267 0.627285
v 0.193193 -0.068115 0.632329
v 0.200573 -0.074046 0.634153
v 0.202112 -0.077276 0.628663
v 0.196016 -0.079077 0.637952
v 0.197330 -0.081893 0.632011
v 0.193350 -0.083638 0.626777
v 0.190643 -0.081175 0.624395
v 0.188626 -0.078304 0.623542
v 0.193135 -0.074855 0.638947
v 0.190860 -0.072585 0.637607
v 0.189024 -0.070396 0.633839
v 0.188503 -0.079141 0.641861
v 0.189044 -0.084883 0.641439
v 0.174115 -0.091717 0.634243
v 0.179096 -0.089521 0.631727
v 0.179859 -0.090735 0.633022
v 0.174847 -0.092912 0.634804
v 0.186290 -0.087903 0.630384
v 0.185328 -0.089222 0.632292
v 0.188416 -0.087981 0.635436
v 0.181942 -0.091347 0.637755
v 0.181520 -0.087526 0.643020
v 0.176241 -0.090526 0.644059
v 0.177479 -0.093493 0.639414
v 0.187227 -0.087016 0.640628
v 0.172348 -0.094748 0.636999
v 0.169926 -0.095411 0.637194
v 0.191047 -0.087002 0.634526
v 0.185049 -0.083854 0.626747
v 0.176765 -0.087988 0.630188
v 0.170919 -0.091229 0.633688
v 0.167571 -0.093932 0.638146
v 0.176562 -0.084718 0.629708
v 0.169634 -0.088939 0.633491
v 0.167105 -0.090714 0.637556
v 0.176365 -0.080966 0.631059
v 0.170370 -0.085646 0.634698
v 0.184363 -0.076238 0.627377
v 0.184338 -0.080037 0.626247
v 0.168270 -0.088455 0.637557
v 0.170064 -0.096581 0.642366
v 0.167487 -0.093720 0.642663
v 0.172992 -0.095241 0.641016
v 0.181609 -0.086245 0.644277
v 0.175075 -0.089564 0.645989
v 0.180935 -0.083299 0.645110
v 0.174049 -0.087217 0.646415
v 0.171272 -0.093310 0.645902
v 0.173536 -0.093489 0.643809
v 0.186857 -0.074861 0.625290
v 0.187926 -0.071378 0.628786
v 0.185393 -0.073604 0.631282
v 0.177528 -0.078565 0.634789
v 0.186548 -0.072862 0.636450
v 0.187779 -0.075489 0.639973
v 0.180071 -0.080510 0.643463
v 0.178754 -0.078774 0.640262
v 0.172798 -0.085361 0.645141
v 0.172234 -0.083468 0.641951
v 0.171087 -0.083176 0.637749
v 0.168888 -0.089138 0.643938
v 0.169400 -0.091150 0.645508
v 0.167575 -0.090550 0.641521
v 0.169042 -0.087221 0.642105
v 0.168672 -0.087656 0.639963
v 0.222103 -0.035181 0.638934
v 0.163982 -0.034138 0.603753
v 0.168957 -0.035575 0.602795
v 0.173209 -0.037040 0.619629
v 0.174554 -0.039094 0.611451
v 0.166240 -0.033912 0.622966
v 0.155819 -0.031057 0.617901
v 0.160495 -0.030458 0.621084
v 0.171798 -0.038316 0.605706
v 0.159820 -0.033605 0.605742
v 0.154496 -0.030787 0.611688
v 0.150939 -0.045547 0.611433
v 0.149387 -0.041103 0.617926
v 0.155089 -0.038473 0.624623
v 0.161494 -0.037399 0.625216
v 0.166710 -0.038292 0.624750
v 0.160329 -0.042883 0.607202
v 0.165715 -0.043425 0.606475
v 0.171041 -0.043452 0.609232
v 0.160842 -0.054485 0.613081
v 0.166783 -0.059914 0.625251
v 0.185371 -0.058490 0.645898
v 0.178604 -0.052481 0.641529
v 0.177372 -0.055372 0.640736
v 0.183550 -0.060718 0.645392
v 0.172085 -0.049743 0.638192
v 0.171638 -0.052460 0.637537
v 0.167824 -0.055294 0.631902
v 0.173860 -0.061434 0.637384
v 0.169659 -0.059392 0.628177
v 0.175006 -0.064227 0.630433
v 0.180771 -0.066841 0.641737
v 0.186045 -0.066089 0.647966
v 0.186649 -0.071013 0.645866
v 0.189086 -0.064472 0.648872
v 0.162350 -0.056086 0.633026
v 0.170938 -0.042523 0.633967
v 0.180497 -0.048615 0.640161
v 0.187582 -0.055174 0.644529
v 0.191478 -0.062518 0.646213
v 0.183122 -0.047236 0.635751
v 0.188859 -0.053908 0.639383
v 0.191550 -0.060851 0.639519
v 0.183628 -0.048784 0.629996
v 0.188287 -0.055362 0.633850
v 0.174775 -0.039417 0.621252
v 0.172646 -0.038738 0.627795
v 0.190134 -0.060045 0.635838
v 0.188997 -0.072628 0.647077
v 0.191723 -0.070159 0.642958
v 0.174446 -0.063748 0.625803
v 0.180810 -0.069489 0.634803
v 0.181584 -0.069008 0.631289
v 0.175130 -0.062444 0.621242
v 0.182949 -0.069523 0.627818
v 0.186704 -0.073455 0.638587
v 0.184298 -0.072122 0.640320
v 0.172357 -0.039532 0.621541
v 0.173717 -0.041819 0.614686
v 0.175040 -0.042747 0.614236
v 0.181582 -0.051601 0.622962
v 0.172586 -0.047376 0.610484
v 0.166476 -0.051066 0.610651
v 0.177415 -0.060305 0.618638
v 0.179860 -0.056303 0.618802
v 0.185110 -0.066280 0.625568
v 0.186338 -0.062906 0.625532
v 0.187847 -0.058858 0.629069
v 0.189123 -0.068305 0.631849
v 0.188395 -0.072163 0.634743
v 0.191765 -0.066214 0.637116
v 0.188533 -0.065158 0.630054
v 0.190008 -0.063187 0.633264
v 0.217903 -0.022366 0.640733
v 0.211560 -0.022220 0.635913
v 0.215167 -0.013242 0.637879
v 0.223140 -0.001942 0.636250
v 0.232035 0.008099 0.641949
v 0.220513 -0.001658 0.629133
v 0.210704 -0.012726 0.629975
v 0.209613 -0.025079 0.626813
v 0.222894 0.007564 0.621973
f 2 3 1
f 1 3 4
f 5 6 8
f 8 6 7
f 9 4 10
f 10 4 3
f 12 13 11
f 11 13 9
f 14 12 16
f 16 12 15
f 18 19 17
f 17 19 20
f 22 23 21
f 21 23 24
f 26 27 25
f 25 27 28
f 30 31 29
f 29 31 32
f 33 34 36
f 36 34 35
f 37 38 40
f 40 38 39
f 41 42 6
f 6 42 43
f 6 43 7
f 7 43 44
f 45 34 46
f 46 34 33
f 48 49 47
f 47 49 50
f 52 53 51
f 51 53 54
f 56 52 55
f 55 52 51
f 58 59 57
f 57 59 60
f 61 62 4
f 4 62 1
f 64 65 63
f 63 65 66
f 68 69 67
f 67 69 70
f 72 73 71
f 71 73 74
f 76 77 75
f 75 77 78
f 53 79 54
f 54 79 80
f 82 83 81
f 81 83 84
f 85 86 52
f 52 86 53
f 57 60 87
f 87 60 88
f 89 90 43
f 43 90 44
f 43 42 89
f 89 42 91
f 40 39 92
f 92 39 93
f 94 70 64
f 64 70 69
f 13 61 9
f 9 61 4
f 25 28 69
f 69 28 95
f 96 25 68
f 68 25 69
f 98 99 97
f 97 99 100
f 101 102 104
f 104 102 103
f 106 30 105
f 105 30 29
f 51 54 107
f 107 54 108
f 54 80 108
f 108 80 109
f 111 112 110
f 110 112 113
f 115 5 114
f 114 5 116
f 115 41 5
f 5 41 6
f 36 35 111
f 111 35 117
f 35 118 117
f 117 118 119
f 34 120 35
f 35 120 118
f 34 45 120
f 120 45 121
f 125 126 124
f 124 126 127
f 128 129 14
f 14 129 130
f 33 131 46
f 46 131 132
f 133 94 63
f 63 94 64
f 134 135 137
f 137 135 136
f 139 140 138
f 138 140 141
f 77 142 78
f 78 142 143
f 144 145 20
f 20 145 146
f 148 149 147
f 147 149 72
f 151 152 150
f 150 152 153
f 82 101 83
f 83 101 104
f 101 82 155
f 155 82 154
f 156 157 58
f 58 157 59
f 158 68 147
f 147 68 67
f 159 146 15
f 15 146 16
f 68 158 96
f 96 158 160
f 129 66 130
f 130 66 65
f 162 163 161
f 161 163 164
f 166 167 165
f 165 167 168
f 170 171 169
f 169 171 172
f 174 171 173
f 173 171 170
f 176 177 175
f 175 177 178
f 180 181 179
f 179 181 24
f 182 183 21
f 21 183 184
f 81 185 82
f 82 185 154
f 186 187 188
f 188 187 144
f 158 71 160
f 160 71 189
f 190 135 157
f 157 135 59
f 169 172 139
f 139 172 140
f 147 72 158
f 158 72 71
f 192 193 191
f 191 193 194
f 167 166 49
f 49 166 195
f 196 190 50
f 50 190 157
f 197 198 200
f 200 198 199
f 21 24 182
f 182 24 181
f 146 159 20
f 20 159 17
f 182 181 81
f 81 181 185
f 201 185 180
f 180 185 181
f 202 203 83
f 83 203 84
f 205 206 204
f 204 206 85
f 207 22 184
f 184 22 21
f 179 24 208
f 208 24 23
f 208 209 179
f 179 209 205
f 209 210 205
f 205 210 206
f 212 206 211
f 211 206 210
f 179 205 180
f 180 205 204
f 213 176 88
f 88 176 214
f 86 85 212
f 212 85 206
f 193 217 218
f 217 219 218
f 218 219 220
f 219 18 220
f 220 18 17
f 19 221 20
f 20 221 144
f 222 223 225
f 225 223 224
f 175 226 176
f 176 226 214
f 227 87 214
f 214 87 88
f 220 17 228
f 228 17 159
f 134 213 60
f 60 213 88
f 138 229 151
f 151 229 152
f 193 192 210
f 210 192 211
f 230 194 218
f 218 194 193
f 231 232 228
f 228 232 230
f 233 234 91
f 91 234 89
f 235 236 93
f 93 236 92
f 230 232 234
f 234 232 237
f 47 238 48
f 48 238 239
f 240 191 235
f 235 191 236
f 5 8 116
f 116 8 241
f 242 243 189
f 189 243 160
f 244 245 98
f 98 245 99
f 156 246 47
f 47 246 238
f 76 247 77
f 77 247 248
f 250 125 249
f 249 125 124
f 252 253 251
f 251 253 254
f 111 110 36
f 36 110 255
f 256 33 255
f 255 33 36
f 257 258 154
f 154 258 155
f 63 169 133
f 133 169 139
f 66 170 63
f 63 170 169
f 173 170 129
f 129 170 66
f 129 128 173
f 173 128 259
f 128 260 259
f 259 260 261
f 213 134 262
f 262 134 137
f 263 264 186
f 186 264 187
f 112 265 113
f 113 265 266
f 11 267 268
f 234 233 230
f 230 233 194
f 153 269 70
f 70 269 67
f 175 178 165
f 165 178 141
f 150 153 94
f 94 153 70
f 271 221 270
f 270 221 207
f 269 153 272
f 272 153 152
f 121 45 109
f 109 45 108
f 47 50 156
f 156 50 157
f 57 273 58
f 58 273 274
f 145 275 260
f 260 275 261
f 276 149 143
f 143 149 78
f 148 269 75
f 75 269 272
f 207 277 270
f 270 277 278
f 195 196 49
f 49 196 50
f 59 135 60
f 60 135 134
f 83 104 202
f 202 104 279
f 149 148 78
f 78 148 75
f 247 278 248
f 248 278 277
f 183 182 84
f 84 182 81
f 48 239 281
f 281 239 282
f 227 223 283
f 283 223 222
f 223 226 224
f 224 226 168
f 281 282 224
f 224 282 225
f 165 168 175
f 175 168 226
f 264 263 138
f 138 263 229
f 14 16 128
f 128 16 260
f 220 228 218
f 218 228 230
f 87 227 284
f 284 227 283
f 260 16 145
f 145 16 146
f 244 98 258
f 258 98 155
f 58 274 156
f 156 274 246
f 107 285 51
f 51 285 55
f 243 286 160
f 160 286 96
f 234 237 89
f 89 237 90
f 46 132 107
f 107 132 285
f 253 252 249
f 249 252 250
f 286 26 96
f 96 26 25
f 106 105 287
f 287 105 288
f 272 152 289
f 289 152 229
f 138 151 139
f 139 151 133
f 183 290 161
f 161 290 162
f 291 292 277
f 277 292 293
f 151 150 133
f 133 150 94
f 262 275 177
f 177 275 187
f 144 187 145
f 145 187 275
f 273 57 284
f 284 57 87
f 174 136 190
f 190 136 135
f 111 117 112
f 112 117 38
f 117 119 38
f 38 119 123
f 112 38 265
f 265 38 37
f 287 288 254
f 254 288 251
f 228 159 231
f 231 159 15
f 223 227 226
f 226 227 214
f 147 67 148
f 148 67 269
f 224 168 281
f 281 168 167
f 199 163 200
f 200 163 162
f 45 46 108
f 108 46 107
f 281 167 48
f 48 167 49
f 161 164 291
f 291 164 292
f 38 123 39
f 293 294 277
f 277 294 248
f 284 283 296
f 296 283 295
f 284 296 273
f 273 296 297
f 274 273 298
f 298 273 297
f 246 274 299
f 299 274 298
f 283 222 295
f 295 222 300
f 222 225 300
f 300 225 301
f 301 225 302
f 302 225 282
f 303 304 300
f 300 304 295
f 306 307 305
f 305 307 308
f 309 310 308
f 308 310 305
f 308 307 312
f 312 307 311
f 313 314 312
f 312 314 315
f 311 316 312
f 312 316 313
f 317 304 311
f 311 304 316
f 315 309 312
f 312 309 308
f 318 319 321
f 321 319 320
f 319 318 309
f 309 318 310
f 311 307 317
f 317 307 306
f 306 297 317
f 317 297 296
f 306 322 297
f 297 322 298
f 305 323 306
f 306 323 322
f 323 305 324
f 324 305 310
f 304 317 295
f 295 317 296
f 318 325 310
f 310 325 324
f 323 324 326
f 326 324 327
f 324 325 327
f 327 325 328
f 326 327 329
f 329 327 330
f 329 331 326
f 326 331 332
f 333 330 328
f 328 330 327
f 323 326 322
f 322 326 332
f 322 332 298
f 298 332 299
f 325 318 334
f 334 318 321
f 313 316 335
f 335 316 304
f 335 336 313
f 313 336 314
f 304 303 335
f 335 303 337
f 336 335 338
f 338 335 337
f 336 339 314
f 314 339 340
f 246 299 238
f 238 299 341
f 239 342 282
f 282 342 302
f 342 239 341
f 341 239 238
f 341 331 342
f 342 331 343
f 331 329 343
f 343 329 344
f 342 343 302
f 302 343 345
f 341 299 331
f 331 299 332
f 346 301 345
f 345 301 302
f 346 303 301
f 301 303 300
f 347 337 346
f 346 337 303
f 347 346 348
f 348 346 345
f 349 347 350
f 350 347 348
f 343 344 345
f 345 344 348
f 344 351 348
f 348 351 350
f 337 347 338
f 338 347 349
f 353 338 352
f 352 338 349
f 352 355 354
f 354 355 356
f 352 349 355
f 355 349 350
f 352 354 353
f 353 354 334
f 353 334 339
f 339 334 321
f 339 336 353
f 353 336 338
f 329 330 344
f 344 330 351
f 356 351 333
f 333 351 330
f 356 355 351
f 351 355 350
f 354 356 328
f 328 356 333
f 328 325 354
f 354 325 334
f 309 315 319
f 319 315 320
f 320 340 321
f 321 340 339
f 320 315 340
f 340 315 314
f 137 136 261
f 261 136 259
f 140 166 141
f 141 166 165
f 172 171 195
f 195 171 196
f 171 174 196
f 196 174 190
f 178 177 264
f 264 177 187
f 172 195 140
f 140 195 166
f 137 261 262
f 262 261 275
f 178 264 141
f 141 264 138
f 262 177 213
f 213 177 176
f 136 174 259
f 259 174 173
f 358 359 357
f 357 359 360
f 362 363 361
f 361 363 364
f 361 364 365
f 365 364 366
f 367 368 370
f 370 368 369
f 76 371 247
f 247 371 372
f 373 374 362
f 362 374 363
f 376 377 375
f 375 377 378
f 289 229 380
f 380 229 379
f 381 379 263
f 263 379 229
f 383 384 382
f 382 384 385
f 386 368 374
f 374 368 363
f 76 289 371
f 371 289 380
f 377 376 359
f 359 376 387
f 388 386 360
f 360 386 374
f 389 383 366
f 366 383 390
f 392 393 391
f 391 393 394
f 383 382 390
f 390 382 395
f 396 365 390
f 390 365 366
f 389 366 367
f 367 366 364
f 357 397 358
f 358 397 398
f 373 399 357
f 357 399 397
f 389 367 400
f 400 367 370
f 382 385 375
f 375 385 372
f 357 360 373
f 373 360 374
f 361 401 362
f 362 401 402
f 387 388 359
f 359 388 360
f 363 368 364
f 364 368 367
f 358 398 403
f 403 398 404
f 396 392 405
f 405 392 391
f 392 395 393
f 393 395 378
f 393 403 394
f 394 403 404
f 375 378 382
f 382 378 395
f 365 396 406
f 406 396 405
f 362 402 373
f 373 402 399
f 271 270 400
f 400 270 384
f 401 361 406
f 406 361 365
f 381 369 386
f 386 369 368
f 392 396 395
f 395 396 390
f 393 378 403
f 403 378 377
f 403 377 358
f 358 377 359
f 406 405 408
f 408 405 407
f 406 408 401
f 401 408 409
f 401 409 402
f 402 409 410
f 402 410 399
f 399 410 411
f 405 391 407
f 407 391 412
f 391 394 412
f 412 394 413
f 394 404 413
f 413 404 414
f 415 416 412
f 412 416 407
f 418 419 417
f 417 419 420
f 421 422 418
f 418 422 419
f 419 422 424
f 424 422 423
f 425 426 424
f 424 426 427
f 423 428 424
f 424 428 425
f 427 420 424
f 424 420 419
f 420 429 417
f 417 429 430
f 423 422 431
f 431 422 421
f 421 409 431
f 431 409 408
f 421 432 409
f 409 432 410
f 418 433 421
f 421 433 432
f 434 433 417
f 417 433 418
f 431 416 423
f 423 416 428
f 416 431 407
f 407 431 408
f 435 434 430
f 430 434 417
f 433 434 436
f 436 434 437
f 434 435 437
f 437 435 438
f 436 437 439
f 439 437 440
f 439 441 436
f 436 441 442
f 438 443 437
f 437 443 440
f 436 442 433
f 433 442 432
f 432 442 410
f 410 442 411
f 435 430 445
f 445 430 444
f 430 429 444
f 444 429 446
f 425 428 447
f 447 428 416
f 426 425 448
f 448 425 447
f 416 415 447
f 447 415 449
f 447 449 448
f 448 449 450
f 451 452 448
f 448 452 426
f 446 452 444
f 444 452 451
f 399 411 397
f 397 411 453
f 398 454 404
f 404 454 414
f 454 398 453
f 453 398 397
f 453 441 454
f 454 441 455
f 441 439 455
f 455 439 456
f 454 455 414
f 414 455 457
f 441 453 442
f 442 453 411
f 458 413 457
f 457 413 414
f 458 415 413
f 413 415 412
f 458 459 415
f 415 459 449
f 459 458 460
f 460 458 457
f 461 459 462
f 462 459 460
f 455 456 457
f 457 456 460
f 456 463 460
f 460 463 462
f 459 461 449
f 449 461 450
f 465 450 464
f 464 450 461
f 464 467 466
f 466 467 468
f 464 461 467
f 467 461 462
f 464 466 465
f 465 466 445
f 465 445 451
f 451 445 444
f 451 448 465
f 465 448 450
f 439 440 456
f 456 440 463
f 468 463 443
f 443 463 440
f 468 467 463
f 463 467 462
f 466 468 438
f 438 468 443
f 438 435 466
f 466 435 445
f 420 427 429
f 429 427 446
f 446 427 452
f 452 427 426
f 370 369 188
f 188 369 186
f 371 376 372
f 372 376 375
f 380 379 387
f 387 379 388
f 379 381 388
f 388 381 386
f 385 384 278
f 278 384 270
f 380 387 371
f 371 387 376
f 400 370 271
f 271 370 188
f 385 278 372
f 372 278 247
f 400 384 389
f 389 384 383
f 369 381 186
f 186 381 263
f 221 271 144
f 144 271 188
f 221 19 207
f 207 19 22
f 19 18 22
f 22 18 23
f 18 219 23
f 23 219 208
f 469 470 472
f 472 470 471
f 474 475 473
f 473 475 476
f 473 476 477
f 477 476 478
f 480 481 479
f 479 481 482
f 483 484 474
f 474 484 475
f 486 487 485
f 485 487 488
f 489 490 77
f 77 490 142
f 491 489 248
f 248 489 77
f 493 494 492
f 492 494 495
f 496 480 484
f 484 480 475
f 486 497 487
f 487 497 471
f 498 496 472
f 472 496 484
f 499 493 478
f 478 493 500
f 501 502 504
f 504 502 503
f 493 492 500
f 500 492 505
f 506 477 500
f 500 477 478
f 499 478 479
f 479 478 476
f 469 507 470
f 470 507 508
f 483 509 469
f 469 509 507
f 479 482 499
f 499 482 510
f 492 495 485
f 485 495 511
f 483 469 484
f 484 469 472
f 473 512 474
f 474 512 513
f 497 498 471
f 471 498 472
f 475 480 476
f 476 480 479
f 470 508 514
f 514 508 515
f 506 502 516
f 516 502 501
f 503 502 488
f 488 502 505
f 514 515 503
f 503 515 504
f 485 488 492
f 492 488 505
f 477 506 517
f 517 506 516
f 474 513 483
f 483 513 509
f 510 292 494
f 494 292 164
f 512 473 517
f 517 473 477
f 491 481 496
f 496 481 480
f 502 506 505
f 505 506 500
f 503 488 514
f 514 488 487
f 514 487 470
f 470 487 471
f 517 516 519
f 519 516 518
f 517 519 512
f 512 519 520
f 512 520 513
f 513 520 521
f 513 521 509
f 509 521 522
f 516 501 518
f 518 501 523
f 501 504 523
f 523 504 524
f 524 504 525
f 525 504 515
f 526 527 523
f 523 527 518
f 529 530 528
f 528 530 531
f 532 533 529
f 529 533 530
f 530 533 535
f 535 533 534
f 536 537 535
f 535 537 538
f 534 539 535
f 535 539 536
f 538 531 535
f 535 531 530
f 540 541 531
f 531 541 528
f 533 532 534
f 534 532 542
f 532 520 542
f 542 520 519
f 532 543 520
f 520 543 521
f 529 544 532
f 532 544 543
f 544 529 545
f 545 529 528
f 534 542 539
f 539 542 527
f 527 542 518
f 518 542 519
f 541 546 528
f 528 546 545
f 547 544 548
f 548 544 545
f 546 549 545
f 545 549 548
f 550 547 551
f 551 547 548
f 547 550 553
f 553 550 552
f 549 554 548
f 548 554 551
f 544 547 543
f 543 547 553
f 543 553 521
f 521 553 522
f 546 541 556
f 556 541 555
f 541 540 555
f 555 540 557
f 536 539 558
f 558 539 527
f 537 536 559
f 559 536 558
f 527 526 558
f 558 526 560
f 559 558 561
f 561 558 560
f 559 562 537
f 537 562 563
f 557 563 555
f 555 563 562
f 509 522 507
f 507 522 564
f 508 565 515
f 515 565 525
f 565 508 564
f 564 508 507
f 564 552 565
f 565 552 566
f 552 550 566
f 566 550 567
f 565 566 525
f 525 566 568
f 564 522 552
f 552 522 553
f 569 524 568
f 568 524 525
f 569 526 524
f 524 526 523
f 570 560 569
f 569 560 526
f 570 569 571
f 571 569 568
f 572 570 573
f 573 570 571
f 566 567 568
f 568 567 571
f 567 574 571
f 571 574 573
f 570 572 560
f 560 572 561
f 576 561 575
f 575 561 572
f 575 578 577
f 577 578 579
f 575 572 578
f 578 572 573
f 575 577 576
f 576 577 556
f 576 556 562
f 562 556 555
f 562 559 576
f 576 559 561
f 550 551 567
f 567 551 574
f 579 574 554
f 554 574 551
f 579 578 574
f 574 578 573
f 579 554 577
f 577 554 549
f 549 546 577
f 577 546 556
f 531 538 540
f 540 538 557
f 557 538 563
f 563 538 537
f 481 294 482
f 482 294 293
f 580 486 511
f 511 486 485
f 490 489 497
f 497 489 498
f 489 491 498
f 498 491 496
f 163 495 164
f 164 495 494
f 580 490 486
f 486 490 497
f 482 293 510
f 510 293 292
f 495 163 511
f 511 163 199
f 494 493 510
f 510 493 499
f 481 491 294
f 294 491 248
f 582 583 581
f 581 583 584
f 586 587 585
f 585 587 588
f 585 588 589
f 589 588 590
f 592 593 591
f 591 593 594
f 595 596 598
f 598 596 597
f 599 600 586
f 586 600 587
f 601 602 604
f 604 602 603
f 605 606 608
f 608 606 607
f 609 607 200
f 200 607 606
f 610 611 613
f 613 611 612
f 600 614 587
f 587 614 592
f 596 605 597
f 597 605 608
f 602 615 603
f 603 615 583
f 616 614 584
f 584 614 600
f 611 618 617
f 617 618 590
f 620 621 619
f 619 621 622
f 610 623 611
f 611 623 618
f 624 589 618
f 618 589 590
f 617 590 591
f 591 590 588
f 581 625 582
f 582 625 626
f 599 627 581
f 581 627 625
f 591 594 617
f 617 594 628
f 601 610 598
f 598 610 613
f 581 584 599
f 599 584 600
f 585 629 586
f 586 629 630
f 615 616 583
f 583 616 584
f 587 592 588
f 588 592 591
f 582 626 631
f 631 626 632
f 624 620 633
f 633 620 619
f 621 620 604
f 604 620 623
f 631 632 621
f 621 632 622
f 610 601 623
f 623 601 604
f 589 624 634
f 634 624 633
f 586 630 599
f 599 630 627
f 203 202 628
f 628 202 612
f 629 585 634
f 634 585 589
f 609 593 614
f 614 593 592
f 620 624 623
f 623 624 618
f 631 621 603
f 603 621 604
f 582 631 583
f 583 631 603
f 634 633 636
f 636 633 635
f 634 636 629
f 629 636 637
f 629 637 630
f 630 637 638
f 630 638 627
f 627 638 639
f 633 619 635
f 635 619 640
f 619 622 640
f 640 622 641
f 641 622 642
f 642 622 632
f 644 635 643
f 643 635 640
f 645 646 648
f 648 646 647
f 649 650 646
f 646 650 647
f 647 650 652
f 652 650 651
f 652 653 655
f 655 653 654
f 651 656 652
f 652 656 653
f 655 648 652
f 652 648 647
f 648 657 645
f 645 657 658
f 650 649 651
f 651 649 659
f 649 637 659
f 659 637 636
f 649 660 637
f 637 660 638
f 661 660 646
f 646 660 649
f 662 661 645
f 645 661 646
f 651 659 656
f 656 659 644
f 644 659 635
f 635 659 636
f 663 662 658
f 658 662 645
f 664 661 665
f 665 661 662
f 663 666 662
f 662 666 665
f 667 664 668
f 668 664 665
f 664 667 670
f 670 667 669
f 666 671 665
f 665 671 668
f 661 664 660
f 660 664 670
f 660 670 638
f 638 670 639
f 658 672 663
f 663 672 673
f 658 657 672
f 672 657 674
f 653 656 675
f 675 656 644
f 653 675 654
f 654 675 676
f 675 644 677
f 677 644 643
f 676 675 678
f 678 675 677
f 679 680 676
f 676 680 654
f 674 680 672
f 672 680 679
f 627 639 625
f 625 639 681
f 626 682 632
f 632 682 642
f 681 682 625
f 625 682 626
f 669 683 681
f 681 683 682
f 667 684 669
f 669 684 683
f 682 683 642
f 642 683 685
f 681 639 669
f 669 639 670
f 686 641 685
f 685 641 642
f 641 686 640
f 640 686 643
f 686 687 643
f 643 687 677
f 687 686 688
f 688 686 685
f 689 687 690
f 690 687 688
f 683 684 685
f 685 684 688
f 684 691 688
f 688 691 690
f 687 689 677
f 677 689 678
f 693 678 692
f 692 678 689
f 692 695 694
f 694 695 696
f 692 689 695
f 695 689 690
f 692 694 693
f 693 694 673
f 693 673 679
f 679 673 672
f 679 676 693
f 693 676 678
f 684 667 691
f 691 667 668
f 696 691 671
f 671 691 668
f 696 695 691
f 691 695 690
f 694 696 666
f 666 696 671
f 666 663 694
f 694 663 673
f 648 655 657
f 657 655 674
f 674 655 680
f 680 655 654
f 593 162 594
f 594 162 290
f 598 597 601
f 601 597 602
f 615 608 616
f 616 608 607
f 607 609 616
f 616 609 614
f 697 595 613
f 613 595 598
f 597 608 602
f 602 608 615
f 594 290 628
f 628 290 203
f 628 612 617
f 617 612 611
f 593 609 162
f 162 609 200
f 105 29 698
f 698 29 699
f 268 126 701
f 701 126 700
f 126 125 700
f 700 125 702
f 252 703 250
f 250 703 704
f 32 268 705
f 705 268 701
f 288 105 706
f 706 105 698
f 29 32 699
f 699 32 705
f 707 251 706
f 706 251 288
f 250 704 125
f 125 704 702
f 703 252 707
f 707 252 251
f 706 708 707
f 707 708 709
f 707 709 703
f 703 709 710
f 703 710 704
f 704 710 711
f 704 711 702
f 702 711 712
f 706 698 708
f 708 698 713
f 698 699 713
f 713 699 714
f 699 705 714
f 714 705 715
f 717 708 716
f 716 708 713
f 719 720 718
f 718 720 721
f 722 723 719
f 719 723 720
f 724 725 723
f 723 725 720
f 724 726 725
f 725 726 727
f 728 721 725
f 725 721 720
f 721 728 729
f 729 728 730
f 729 731 721
f 721 731 718
f 724 723 732
f 732 723 722
f 722 710 732
f 732 710 709
f 722 733 710
f 710 733 711
f 719 734 722
f 722 734 733
f 734 719 735
f 735 719 718
f 724 732 726
f 726 732 717
f 717 732 708
f 708 732 709
f 731 736 718
f 718 736 735
f 737 734 738
f 738 734 735
f 736 739 735
f 735 739 738
f 740 737 741
f 741 737 738
f 737 740 743
f 743 740 742
f 739 744 738
f 738 744 741
f 734 737 733
f 733 737 743
f 733 743 711
f 711 743 712
f 736 731 746
f 746 731 745
f 731 729 745
f 745 729 730
f 727 726 747
f 747 726 717
f 748 727 749
f 749 727 747
f 747 717 750
f 750 717 716
f 749 747 751
f 751 747 750
f 749 752 748
f 748 752 753
f 730 753 745
f 745 753 752
f 728 725 748
f 748 725 727
f 730 728 753
f 753 728 748
f 700 702 754
f 754 702 712
f 705 701 715
f 715 701 755
f 754 755 700
f 700 755 701
f 742 756 754
f 754 756 755
f 740 757 742
f 742 757 756
f 755 756 715
f 715 756 758
f 754 712 742
f 742 712 743
f 759 714 758
f 758 714 715
f 714 759 713
f 713 759 716
f 759 760 716
f 716 760 750
f 760 759 761
f 761 759 758
f 762 760 763
f 763 760 761
f 756 757 758
f 758 757 761
f 757 764 761
f 761 764 763
f 760 762 750
f 750 762 751
f 766 751 765
f 765 751 762
f 767 765 769
f 769 765 768
f 765 762 768
f 768 762 763
f 765 767 766
f 766 767 746
f 766 746 752
f 752 746 745
f 752 749 766
f 766 749 751
f 757 740 764
f 764 740 741
f 769 764 744
f 744 764 741
f 769 768 764
f 764 768 763
f 767 769 739
f 739 769 744
f 739 736 767
f 767 736 746
f 219 217 208
f 208 217 209
f 209 217 210
f 210 217 193
f 198 580 199
f 199 580 511
f 76 75 289
f 289 75 272
f 277 207 291
f 291 207 184
f 290 183 203
f 203 183 84
f 490 580 142
f 142 580 198
f 142 198 143
f 143 198 197
f 149 276 72
f 72 276 73
f 104 103 279
f 279 103 770
f 770 596 279
f 279 596 595
f 605 596 771
f 771 596 770
f 771 770 772
f 772 770 103
f 772 103 773
f 773 103 102
f 155 774 101
f 101 774 102
f 773 102 97
f 97 102 774
f 775 773 100
f 100 773 97
f 773 775 772
f 772 775 776
f 772 776 771
f 771 776 777
f 200 606 197
f 197 606 777
f 189 71 778
f 778 71 74
f 97 774 98
f 98 774 155
f 183 161 184
f 184 161 291
f 777 276 197
f 197 276 143
f 777 606 771
f 771 606 605
f 613 612 697
f 697 612 202
f 595 697 279
f 279 697 202
f 73 276 776
f 776 276 777
f 776 775 73
f 73 775 74
f 100 778 775
f 775 778 74
f 778 100 189
f 189 100 99
f 245 242 99
f 99 242 189
f 131 33 256
f 28 1 95
f 95 1 62
f 27 2 28
f 28 2 1
f 265 115 266
f 266 115 114
f 95 62 69
f 69 62 64
f 62 61 64
f 64 61 65
f 61 13 65
f 65 13 130
f 13 12 130
f 130 12 14
f 31 11 32
f 32 11 268
f 15 12 31
f 31 12 11
f 31 30 15
f 15 30 231
f 30 106 231
f 231 106 232
f 287 237 106
f 106 237 232
f 254 90 287
f 287 90 237
f 253 44 254
f 254 44 90
f 253 249 44
f 44 249 7
f 267 127 268
f 268 127 126
f 10 3 241
f 241 3 116
f 3 2 116
f 116 2 114
f 2 27 114
f 114 27 266
f 27 26 266
f 266 26 113
f 26 286 113
f 113 286 110
f 286 243 110
f 110 243 255
f 243 242 255
f 255 242 256
f 242 245 256
f 256 245 131
f 245 244 131
f 131 244 132
f 265 37 115
f 115 37 41
f 41 37 42
f 42 37 40
f 92 91 40
f 40 91 42
f 236 233 92
f 92 233 91
f 191 194 236
f 236 194 233
f 258 285 244
f 244 285 132
f 257 55 258
f 258 55 285
f 257 154 201
f 201 154 185
f 56 201 204
f 204 201 180
f 55 257 56
f 56 257 201
f 204 85 56
f 56 85 52
f 86 122 53
f 53 122 79
f 212 215 86
f 86 215 122
f 211 216 212
f 212 216 215
f 192 280 211
f 211 280 216
f 191 240 192
f 192 240 280
f 249 124 7
f 7 124 8
f 124 127 8
f 8 127 241
f 127 267 241
f 241 267 10
f 10 267 9
f 9 267 11
