o left
v -0.130173 0.199248 0.647048
v -0.132475 0.215925 0.647065
v -0.128427 0.207438 0.651996
v -0.123464 0.191433 0.646249
v -0.119169 0.236040 0.664910
v -0.106416 0.241348 0.660392
v -0.106762 0.215723 0.675949
v -0.117104 0.212889 0.682520
v -0.120265 0.183468 0.650740
v -0.123427 0.196669 0.662518
v -0.122586 0.177907 0.653629
v -0.120196 0.169904 0.631920
v -0.113473 0.170207 0.639250
v -0.122801 0.160252 0.627740
v -0.128691 0.178535 0.627806
v -0.135155 0.162001 0.624429
v -0.161230 0.189335 0.633011
v -0.173737 0.195931 0.647305
v -0.174245 0.171623 0.653679
v -0.158779 0.170046 0.638589
v -0.174979 0.192588 0.671247
v -0.171984 0.182677 0.661409
v -0.176447 0.202615 0.653908
v -0.181035 0.209829 0.660923
v -0.142917 0.213836 0.656180
v -0.143668 0.229248 0.656256
v -0.138563 0.223853 0.649721
v -0.137544 0.209699 0.650775
v -0.113677 0.180234 0.659797
v -0.118838 0.190687 0.643686
v -0.120856 0.182240 0.644201
v -0.117176 0.174111 0.663625
v -0.151931 0.265565 0.668064
v -0.154278 0.283623 0.662915
v -0.149418 0.281633 0.657058
v -0.147526 0.267194 0.663495
v -0.115881 0.262202 0.643825
v -0.126292 0.277261 0.641316
v -0.128439 0.278800 0.623487
v -0.114999 0.264636 0.626113
v -0.108684 0.252458 0.650613
v -0.103032 0.252628 0.637330
v -0.099350 0.238916 0.649506
v -0.102315 0.215208 0.665779
v -0.166683 0.287049 0.674111
v -0.166098 0.274006 0.680629
v -0.106614 0.117906 0.663606
v -0.107994 0.120879 0.670040
v -0.111400 0.122762 0.668066
v -0.109058 0.119475 0.662567
v -0.187459 0.271435 0.675181
v -0.197361 0.265813 0.668477
v -0.198675 0.275222 0.667206
v -0.189186 0.280736 0.671422
v -0.184528 0.259620 0.678681
v -0.193896 0.252536 0.667549
v -0.112428 0.103431 0.660970
v -0.108357 0.108085 0.659868
v -0.113249 0.108355 0.657125
v -0.118324 0.105038 0.657798
v -0.115645 0.177833 0.643063
v -0.125315 0.186562 0.647802
v -0.118061 0.153882 0.642336
v -0.121706 0.167570 0.644262
v -0.114228 0.164729 0.638291
v -0.115317 0.153455 0.636093
v -0.140296 0.185284 0.663022
v -0.143888 0.201169 0.660170
v -0.140130 0.194697 0.654135
v -0.135201 0.177394 0.655949
v -0.147163 0.211809 0.675880
v -0.142982 0.195631 0.676534
v -0.143290 0.202714 0.685317
v -0.147739 0.212730 0.683854
v -0.145341 0.164810 0.671879
v -0.140810 0.158088 0.670314
v -0.139555 0.164770 0.674874
v -0.143156 0.169723 0.676228
v -0.200817 0.283856 0.664418
v -0.189176 0.288316 0.666018
v -0.176321 0.208765 0.687999
v -0.172970 0.217814 0.696404
v -0.167174 0.203266 0.704822
v -0.170106 0.200646 0.694613
v -0.200337 0.258846 0.657024
v -0.203520 0.268559 0.658033
v -0.117276 0.102406 0.666153
v -0.123770 0.103428 0.663329
v -0.104436 0.234584 0.631589
v -0.101929 0.213379 0.651923
v -0.113390 0.251736 0.620057
v -0.127145 0.264048 0.616252
v -0.136857 0.273787 0.612549
v -0.128513 0.163815 0.648467
v -0.134433 0.195852 0.650687
v -0.145534 0.218649 0.661431
v -0.153290 0.230312 0.697113
v -0.157241 0.244425 0.694987
v -0.150172 0.235714 0.686654
v -0.149753 0.226318 0.689233
v -0.164399 0.221167 0.704573
v -0.156837 0.218740 0.702680
v -0.152130 0.205770 0.707471
v -0.160046 0.206754 0.709006
v -0.107648 0.183584 0.658668
v -0.113902 0.198748 0.642305
v -0.176894 0.276561 0.681080
v -0.176511 0.286074 0.675073
v -0.178907 0.291948 0.666691
v -0.144237 0.248599 0.661831
v -0.143820 0.267304 0.658977
v -0.135129 0.264233 0.654640
v -0.140341 0.246456 0.656666
v -0.131621 0.234488 0.650635
v -0.121763 0.249699 0.653290
v -0.129062 0.222970 0.662585
v -0.139510 0.282068 0.649147
v -0.151503 0.293134 0.650890
v -0.143663 0.291027 0.642316
v -0.161034 0.294921 0.658928
v -0.170421 0.295275 0.665184
v -0.209089 0.277919 0.655332
v -0.137827 0.287064 0.634011
v -0.110886 0.196057 0.684513
v -0.107587 0.184819 0.682111
v -0.115562 0.180446 0.680131
v -0.119919 0.191063 0.683422
v -0.125840 0.148255 0.627809
v -0.117169 0.149589 0.631145
v -0.115079 0.163215 0.631497
v -0.152772 0.255338 0.677315
v -0.160873 0.261646 0.686101
v -0.124180 0.150963 0.647600
v -0.121334 0.108585 0.655088
v -0.115820 0.111983 0.654092
v -0.121334 0.130833 0.640390
v -0.128672 0.127926 0.641200
v -0.128450 0.140563 0.657765
v -0.122931 0.145781 0.652826
v -0.122924 0.142756 0.656426
v -0.128407 0.139442 0.660779
v -0.142798 0.175487 0.683441
v -0.144039 0.178363 0.685154
v -0.151195 0.152540 0.646428
v -0.147485 0.150613 0.629092
v -0.149264 0.166918 0.625837
v -0.143429 0.191831 0.669776
v -0.142109 0.177339 0.672303
v -0.142134 0.181276 0.677256
v -0.132201 0.160015 0.651437
v -0.130588 0.149990 0.651637
v -0.135994 0.154557 0.654525
v -0.135866 0.164509 0.656327
v -0.178777 0.232080 0.688839
v -0.168603 0.238408 0.700707
v -0.106396 0.113322 0.660249
v -0.109801 0.114147 0.658665
v -0.146175 0.207465 0.667541
v -0.150498 0.185576 0.628877
v -0.148439 0.223033 0.667355
v -0.158253 0.176730 0.693141
v -0.151881 0.179719 0.696815
v -0.146474 0.177777 0.698226
v -0.151030 0.174132 0.696283
v -0.124103 0.123901 0.671270
v -0.118643 0.124793 0.671082
v -0.115685 0.124602 0.673797
v -0.121038 0.121033 0.675925
v -0.117980 0.146269 0.647315
v -0.114826 0.144759 0.640413
v -0.114103 0.138731 0.646602
v -0.117933 0.140724 0.652284
v -0.116489 0.141117 0.635646
v -0.116741 0.134504 0.642189
v -0.129545 0.119233 0.670043
v -0.131200 0.110981 0.665035
v -0.137294 0.128905 0.651052
v -0.134156 0.132037 0.658349
v -0.186930 0.226777 0.654347
v -0.187909 0.233361 0.664635
v -0.180447 0.216953 0.672175
v -0.173952 0.202034 0.682018
v -0.165927 0.188157 0.690082
v -0.171070 0.175488 0.680241
v -0.181928 0.222808 0.679041
v -0.136921 0.139556 0.654878
v -0.141762 0.141579 0.645245
v -0.144503 0.143641 0.654443
v -0.151296 0.226481 0.676428
v -0.112264 0.116003 0.655804
v -0.160543 0.255434 0.614972
v -0.174742 0.257312 0.625613
v -0.170261 0.246103 0.626400
v -0.153077 0.243899 0.617527
v -0.112559 0.123197 0.665771
v -0.110329 0.120932 0.660371
v -0.144763 0.181267 0.692734
v -0.143325 0.177878 0.690602
v -0.143556 0.180551 0.693684
v -0.142861 0.180747 0.697258
v -0.189202 0.238619 0.669632
v -0.163282 0.191595 0.707675
v -0.166506 0.192975 0.700555
v -0.195707 0.247280 0.658338
v -0.192016 0.241729 0.648925
v -0.195922 0.252493 0.645356
v -0.159768 0.164686 0.671629
v -0.179812 0.220711 0.647923
v -0.185363 0.236919 0.643015
v -0.189677 0.250234 0.639606
v -0.194695 0.258340 0.635229
v -0.200566 0.260545 0.642630
v -0.126919 0.108647 0.659579
v -0.127170 0.105966 0.671565
v -0.204882 0.270425 0.639085
v -0.199188 0.266191 0.630215
v -0.173924 0.232423 0.635839
v -0.166404 0.226436 0.628536
v -0.173830 0.215718 0.640908
v -0.164971 0.209243 0.633072
v -0.170511 0.154868 0.658069
v -0.104680 0.108002 0.682671
v -0.118219 0.111564 0.678983
v -0.115144 0.117468 0.678503
v -0.102904 0.111385 0.684543
v -0.125322 0.114457 0.676066
v -0.119992 0.106561 0.674342
v -0.147893 0.204180 0.625215
v -0.132794 0.144253 0.655646
v -0.142219 0.223679 0.621462
v -0.131287 0.195502 0.627854
v -0.123461 0.210949 0.628102
v -0.133642 0.245741 0.617167
v -0.117591 0.228378 0.621741
v -0.150800 0.268123 0.610908
v -0.144407 0.257569 0.614775
v -0.109083 0.215243 0.636777
v -0.095568 0.114721 0.672974
v -0.097651 0.117492 0.678229
v -0.165961 0.264767 0.612070
v -0.123991 0.206550 0.676784
v -0.149288 0.239035 0.673492
v -0.147804 0.235936 0.666467
v -0.159154 0.252137 0.693543
v -0.151277 0.244545 0.683502
v -0.095582 0.110550 0.668856
v -0.136033 0.158677 0.672306
v -0.137442 0.165166 0.673428
v -0.104716 0.199628 0.678872
v -0.101340 0.189143 0.678736
v -0.096536 0.184214 0.666170
v -0.096755 0.186167 0.673181
v -0.101524 0.199410 0.669055
v -0.099643 0.197398 0.659749
v -0.146037 0.250224 0.665836
v -0.149800 0.251485 0.670552
v -0.181404 0.247141 0.683436
v -0.170904 0.252222 0.695985
v -0.123860 0.138959 0.633326
v -0.135611 0.146589 0.626618
v -0.132268 0.136881 0.633325
v -0.135805 0.128760 0.643069
v -0.130365 0.138681 0.656694
v -0.134859 0.138541 0.655844
v -0.124841 0.256873 0.654284
v -0.133618 0.241484 0.650514
v -0.121333 0.187296 0.672532
v -0.118991 0.176949 0.673762
v -0.138103 0.173236 0.663057
v -0.149672 0.154875 0.670849
v -0.156931 0.148331 0.664262
v -0.140419 0.160154 0.663169
v -0.099465 0.103156 0.668995
v -0.096657 0.106913 0.668049
v -0.140056 0.137941 0.635378
v -0.143770 0.188585 0.686056
v -0.150063 0.163991 0.675274
v -0.140572 0.157576 0.671997
v -0.157474 0.196378 0.710925
v -0.180294 0.266338 0.621529
v -0.110918 0.122248 0.676557
v -0.100483 0.117124 0.682268
v -0.106093 0.105082 0.679033
v -0.104813 0.101955 0.672725
v -0.173740 0.264000 0.689793
v -0.147250 0.232790 0.662300
v -0.106581 0.200768 0.650915
v -0.101978 0.183506 0.659405
v -0.138601 0.152040 0.661934
v -0.161607 0.184853 0.695111
v -0.159781 0.167734 0.686464
v -0.149605 0.164544 0.691246
v -0.144353 0.161209 0.684502
v -0.137984 0.163579 0.678321
v -0.099048 0.104462 0.682592
v -0.098451 0.101864 0.677059
v -0.093140 0.102256 0.672719
v -0.090684 0.105136 0.672041
v -0.090757 0.109836 0.672686
v -0.097402 0.106394 0.686620
v -0.095645 0.108937 0.688915
v -0.095525 0.115272 0.685841
v -0.091344 0.103223 0.690038
v -0.089227 0.097875 0.686910
v -0.076052 0.094844 0.678425
v -0.083386 0.095889 0.676433
v -0.081951 0.093867 0.678800
v -0.076136 0.092174 0.681616
v -0.070947 0.089920 0.685647
v -0.070094 0.092247 0.682241
v -0.086617 0.095220 0.681668
v -0.079448 0.091857 0.685371
v -0.081312 0.093370 0.690017
v -0.075041 0.090540 0.692695
v -0.073673 0.088399 0.688980
v -0.086001 0.095365 0.686855
v -0.088873 0.097243 0.681044
v -0.066478 0.089989 0.686763
v -0.067918 0.087623 0.687949
v -0.069736 0.087034 0.691171
v -0.065540 0.088337 0.693031
v -0.084818 0.102597 0.673397
v -0.075085 0.097744 0.677730
v -0.069398 0.095635 0.682904
v -0.065908 0.093230 0.687500
v -0.073905 0.101372 0.680446
v -0.069859 0.098490 0.684788
v -0.067182 0.096969 0.689312
v -0.074494 0.103952 0.684591
v -0.070627 0.100814 0.687939
v -0.087194 0.112214 0.677404
v -0.086673 0.108408 0.673693
v -0.067706 0.099468 0.689975
v -0.065042 0.091109 0.694320
v -0.083338 0.096996 0.692228
v -0.074635 0.094306 0.694533
v -0.083052 0.099732 0.693557
v -0.074496 0.096978 0.696271
v -0.069492 0.090855 0.696357
v -0.071477 0.089008 0.693644
v -0.092346 0.114023 0.675729
v -0.094261 0.116236 0.681528
v -0.089548 0.114981 0.683985
v -0.075885 0.106479 0.689568
v -0.090329 0.113638 0.688571
v -0.089520 0.106368 0.691488
v -0.080976 0.102304 0.695032
v -0.079045 0.105227 0.694230
v -0.074505 0.099383 0.697032
v -0.073602 0.101491 0.695289
v -0.071131 0.102534 0.691778
v -0.069241 0.097045 0.696502
v -0.068899 0.093521 0.696934
v -0.066300 0.095732 0.693810
v -0.070094 0.099359 0.695900
v -0.068178 0.098878 0.693145
v -0.124185 0.133602 0.673142
v -0.123806 0.138657 0.679740
v -0.113872 0.137182 0.674203
v -0.114725 0.131835 0.669565
v -0.109421 0.126567 0.676497
v -0.114809 0.128423 0.672085
v -0.112854 0.123751 0.672524
v -0.113085 0.122062 0.680390
v -0.107608 0.128829 0.683450
v -0.114583 0.125163 0.688144
v -0.119372 0.121879 0.680731
v -0.116725 0.125460 0.672867
v -0.132307 0.136385 0.660060
v -0.138969 0.136984 0.666235
v -0.129909 0.154369 0.665791
v -0.131406 0.155497 0.669915
v -0.120656 0.130576 0.670875
v -0.113919 0.127380 0.668212
v -0.115953 0.146126 0.679339
v -0.114051 0.143763 0.674567
v -0.114428 0.140666 0.679236
v -0.113716 0.142393 0.685029
v -0.126290 0.142060 0.654019
v -0.129780 0.148604 0.660162
v -0.128122 0.136847 0.656198
v -0.118162 0.143760 0.685907
v -0.120500 0.137539 0.691317
v -0.140726 0.146633 0.677564
v -0.135669 0.151332 0.675963
v -0.115079 0.129330 0.669380
v -0.112334 0.139263 0.671146
v -0.113004 0.133963 0.668098
v -0.122350 0.128465 0.687586
v -0.111934 0.136079 0.692260
v -0.113201 0.152247 0.680249
v -0.115123 0.140895 0.690608
v -0.119615 0.142815 0.688920
v -0.117916 0.155158 0.679024
v -0.112676 0.138956 0.690118
v -0.109917 0.136723 0.690027
v -0.123035 0.151253 0.665461
v -0.123624 0.155323 0.671451
v -0.120063 0.148791 0.663303
v -0.143621 0.140289 0.672709
v -0.110010 0.142431 0.668306
v -0.116037 0.145659 0.664226
v -0.123690 0.141907 0.685597
v -0.121849 0.157200 0.675965
v -0.110136 0.148914 0.679590
v -0.108125 0.142422 0.675446
v -0.108941 0.155997 0.673224
v -0.106169 0.151384 0.669061
v -0.108454 0.150020 0.662661
v -0.114174 0.150706 0.660449
v -0.118793 0.151804 0.660694
v -0.111980 0.158940 0.674366
v -0.116037 0.161178 0.674372
v -0.120642 0.159739 0.673050
v -0.115264 0.166932 0.668549
v -0.112184 0.166280 0.664997
v -0.120694 0.167437 0.645107
v -0.117013 0.162498 0.649408
v -0.115329 0.165236 0.650470
v -0.118864 0.170126 0.646606
v -0.111970 0.159008 0.654323
v -0.112213 0.162121 0.654159
v -0.111014 0.164307 0.658757
v -0.114190 0.169509 0.653848
v -0.115363 0.171710 0.658743
v -0.118208 0.176825 0.654075
v -0.116784 0.174792 0.649215
v -0.112505 0.167679 0.661032
v -0.120730 0.173971 0.644471
v -0.123191 0.173596 0.643531
v -0.109021 0.161597 0.660785
v -0.114770 0.153543 0.656969
v -0.120107 0.160951 0.649508
v -0.124028 0.166741 0.645395
v -0.126148 0.174027 0.644740
v -0.123763 0.161723 0.651277
v -0.126662 0.167687 0.647476
v -0.127690 0.173798 0.647271
v -0.126987 0.163761 0.654766
v -0.129188 0.169862 0.651120
v -0.121582 0.154361 0.663086
v -0.119133 0.152586 0.659145
v -0.128857 0.172840 0.649769
v -0.122482 0.179675 0.644574
v -0.126158 0.178662 0.646485
v -0.120689 0.178176 0.645832
v -0.116932 0.172380 0.660847
v -0.120740 0.177127 0.655230
v -0.119730 0.172510 0.662716
v -0.123788 0.177391 0.656160
v -0.122834 0.180363 0.650128
v -0.121389 0.179450 0.649618
v -0.121043 0.153825 0.664014
v -0.122240 0.157387 0.669677
v -0.122697 0.157750 0.668398
v -0.127875 0.167287 0.659582
v -0.121357 0.161296 0.671474
v -0.118606 0.165554 0.670315
v -0.122343 0.171991 0.663956
v -0.126073 0.170531 0.662759
v -0.125565 0.178080 0.657742
v -0.127556 0.175268 0.658627
v -0.130143 0.172200 0.655336
v -0.127107 0.180192 0.652343
v -0.124832 0.180552 0.650776
v -0.127728 0.177777 0.648345
v -0.128582 0.178217 0.654700
v -0.129234 0.175631 0.651360
v -0.112490 0.182132 0.681091
v -0.116319 0.185679 0.685977
v -0.117553 0.182863 0.686630
v -0.114419 0.178359 0.682452
v -0.102293 0.171776 0.692698
v -0.103577 0.175303 0.686570
v -0.106166 0.168515 0.686877
v -0.105088 0.162564 0.693466
v -0.103829 0.174572 0.699827
v -0.108212 0.163112 0.702638
v -0.112868 0.158399 0.693290
v -0.111695 0.163939 0.686991
v -0.131131 0.162609 0.682483
v -0.133463 0.158334 0.688599
v -0.107783 0.179135 0.683160
v -0.110351 0.173994 0.683782
v -0.123075 0.183777 0.696366
v -0.121261 0.184759 0.691587
v -0.119921 0.185982 0.692886
v -0.120692 0.184228 0.697808
v -0.136180 0.175563 0.675035
v -0.138903 0.180849 0.680865
v -0.132187 0.169065 0.676705
v -0.122595 0.177979 0.702984
v -0.120103 0.168079 0.706979
v -0.140328 0.171204 0.700262
v -0.140573 0.177902 0.698375
v -0.114006 0.170275 0.684312
v -0.119196 0.181780 0.684751
v -0.116537 0.176604 0.681963
v -0.117378 0.160378 0.700997
v -0.112983 0.172733 0.708040
v -0.103081 0.202393 0.698662
v -0.114898 0.184072 0.703133
v -0.119291 0.187382 0.697261
v -0.105983 0.204951 0.695486
v -0.117714 0.180460 0.704464
v -0.110353 0.179092 0.704912
v -0.101740 0.202162 0.680174
v -0.106004 0.203853 0.684448
v -0.098614 0.198234 0.681086
v -0.137834 0.161251 0.695356
v -0.140777 0.183476 0.692478
v -0.094322 0.195190 0.688508
v -0.095901 0.196435 0.683429
v -0.119146 0.187899 0.692169
v -0.107650 0.205819 0.690607
v -0.100342 0.198584 0.698104
v -0.096127 0.194524 0.695044
v -0.097867 0.207192 0.698012
v -0.092897 0.203190 0.694693
v -0.089719 0.203595 0.689196
v -0.089767 0.204048 0.683916
v -0.092666 0.205613 0.680712
v -0.100010 0.210976 0.697485
v -0.101813 0.213133 0.693816
v -0.104654 0.209967 0.689134
v -0.097882 0.217993 0.696635
v -0.092036 0.216521 0.698773
v -0.074282 0.226234 0.689327
v -0.078684 0.219740 0.689045
v -0.078206 0.220083 0.690758
v -0.074284 0.226231 0.691680
v -0.083496 0.212497 0.691344
v -0.082229 0.214658 0.692623
v -0.085662 0.214852 0.696369
v -0.080163 0.221942 0.697277
v -0.087986 0.225259 0.698390
v -0.083727 0.229861 0.697558
v -0.076499 0.227297 0.697324
v -0.089588 0.218240 0.698752
v -0.073087 0.230188 0.692968
v -0.071046 0.230691 0.690754
v -0.087785 0.212187 0.695607
v -0.084033 0.210599 0.684981
v -0.078849 0.219943 0.684777
v -0.074844 0.226842 0.684572
v -0.073793 0.232303 0.686392
v -0.082050 0.221277 0.681624
v -0.078000 0.227963 0.682361
v -0.077176 0.232830 0.684223
v -0.085288 0.222553 0.680879
v -0.081816 0.228831 0.682291
v -0.093734 0.210209 0.680152
v -0.087973 0.209736 0.681315
v -0.080088 0.232636 0.683868
v -0.073581 0.234441 0.695124
v -0.077321 0.236863 0.690935
v -0.075000 0.232061 0.695584
v -0.090825 0.225660 0.698398
v -0.085897 0.232578 0.697340
v -0.093505 0.226343 0.695948
v -0.089030 0.234054 0.696327
v -0.080864 0.235258 0.697216
v -0.080138 0.233615 0.696961
v -0.098315 0.206367 0.680682
v -0.103169 0.208383 0.684004
v -0.098647 0.212419 0.682532
v -0.089216 0.225555 0.683064
v -0.101053 0.214521 0.687196
v -0.098645 0.219260 0.692726
v -0.094223 0.226897 0.691990
v -0.092721 0.227432 0.687544
v -0.090323 0.234253 0.692836
v -0.089812 0.232610 0.689008
v -0.086243 0.231695 0.683698
v -0.085083 0.236685 0.691890
v -0.083264 0.236905 0.695368
v -0.080075 0.236674 0.687880
v -0.086135 0.235319 0.688923
v -0.082488 0.234959 0.685993
v -0.140256 0.182550 0.687366
v -0.143188 0.149784 0.697506
v -0.142654 0.153082 0.701582
v -0.143687 0.154190 0.701569
v -0.143872 0.152252 0.696854
v -0.157195 0.145971 0.698772
v -0.151306 0.146178 0.696648
v -0.155247 0.149309 0.692852
v -0.162154 0.148402 0.694734
v -0.160063 0.147704 0.703476
v -0.164007 0.150187 0.700306
v -0.161530 0.153831 0.692265
v -0.154580 0.155261 0.690575
v -0.155069 0.177168 0.694175
v -0.161207 0.177986 0.695012
v -0.154505 0.188683 0.710732
v -0.148787 0.188205 0.709238
v -0.145263 0.178370 0.707788
v -0.151160 0.178502 0.711553
v -0.146385 0.147574 0.696251
v -0.148365 0.151528 0.693472
v -0.149956 0.156292 0.710726
v -0.145200 0.156584 0.706251
v -0.144121 0.156333 0.705219
v -0.147042 0.157022 0.709364
v -0.143770 0.186273 0.704925
v -0.143326 0.184331 0.701354
v -0.139871 0.179350 0.699105
v -0.141843 0.177356 0.703185
v -0.143262 0.177386 0.694744
v -0.156480 0.155082 0.711316
v -0.163915 0.154307 0.707162
v -0.162298 0.181381 0.710223
v -0.157595 0.180742 0.712509
v -0.146611 0.154468 0.692020
v -0.144819 0.156548 0.701612
v -0.142703 0.154649 0.696743
v -0.164841 0.153104 0.698565
v -0.161027 0.153372 0.708172
v -0.142130 0.146480 0.716239
v -0.150135 0.156383 0.711529
v -0.144398 0.156863 0.709108
v -0.139250 0.147003 0.715299
v -0.153113 0.154638 0.711163
v -0.155958 0.152831 0.709942
v -0.136478 0.139722 0.703591
v -0.135715 0.144628 0.707771
v -0.139341 0.137606 0.702534
v -0.165437 0.180426 0.701413
v -0.147031 0.136923 0.706800
v -0.142689 0.135743 0.703892
v -0.142345 0.155435 0.705353
v -0.136932 0.146851 0.712136
v -0.145876 0.144154 0.715638
v -0.148925 0.140248 0.711175
v -0.142885 0.138989 0.720560
v -0.145719 0.135503 0.715385
v -0.142956 0.131293 0.710516
v -0.139699 0.132068 0.707510
v -0.136824 0.133831 0.705913
v -0.138552 0.142066 0.720486
v -0.135705 0.143092 0.718541
v -0.133520 0.143625 0.714206
v -0.135532 0.137098 0.724318
v -0.138264 0.131844 0.725207
v -0.127416 0.118355 0.719480
v -0.131446 0.121634 0.716579
v -0.132487 0.121147 0.718118
v -0.128434 0.117703 0.720337
v -0.137638 0.125549 0.714976
v -0.137100 0.124417 0.717113
v -0.139295 0.127373 0.720019
v -0.134344 0.122367 0.722994
v -0.132084 0.126916 0.727274
v -0.128142 0.122454 0.728919
v -0.130840 0.119115 0.725077
v -0.137405 0.129012 0.724839
v -0.126642 0.115577 0.722867
v -0.124596 0.114230 0.723210
v -0.141392 0.129036 0.718967
v -0.135316 0.128020 0.710385
v -0.128819 0.121864 0.714642
v -0.124294 0.117585 0.718806
v -0.121830 0.114972 0.723744
v -0.127490 0.124678 0.713371
v -0.122322 0.119178 0.718114
v -0.120328 0.117563 0.722493
v -0.125808 0.128397 0.713794
v -0.121694 0.122678 0.718526
v -0.131858 0.134980 0.709095
v -0.133288 0.131147 0.708905
v -0.120588 0.119986 0.721980
v -0.124725 0.114326 0.728587
v -0.121309 0.116116 0.728125
v -0.127159 0.116235 0.727019
v -0.131586 0.128467 0.728228
v -0.126537 0.123359 0.730560
v -0.129806 0.131135 0.728359
v -0.124705 0.125244 0.730419
v -0.124388 0.118539 0.731218
v -0.126711 0.118710 0.729337
v -0.133845 0.136746 0.706806
v -0.133234 0.141208 0.709400
v -0.131449 0.138731 0.712361
v -0.125641 0.131923 0.716912
v -0.131873 0.140972 0.717324
v -0.133676 0.139802 0.721528
v -0.128065 0.133006 0.726054
v -0.126427 0.133394 0.722427
v -0.123003 0.126183 0.728697
v -0.122074 0.127004 0.725109
v -0.121213 0.125901 0.720917
v -0.120873 0.121011 0.728313
v -0.121916 0.119717 0.730326
v -0.120360 0.118733 0.726275
v -0.120502 0.122419 0.726096
v -0.120470 0.121408 0.724118
v -0.158111 0.186857 0.710814
v -0.101449 0.163316 0.672110
v -0.106780 0.162736 0.672054
v -0.108770 0.167423 0.689251
v -0.111760 0.163204 0.682109
v -0.100761 0.169914 0.690906
v -0.090483 0.168771 0.684223
v -0.094619 0.171364 0.687557
v -0.109805 0.161570 0.675998
v -0.096866 0.163556 0.673537
v -0.090121 0.166852 0.677979
v -0.089662 0.151836 0.682302
v -0.086205 0.157758 0.686881
v -0.090348 0.163663 0.692908
v -0.096431 0.166301 0.693534
v -0.101883 0.166466 0.693733
v -0.099051 0.155094 0.677972
v -0.104653 0.155599 0.677783
v -0.109519 0.157632 0.680894
v -0.101061 0.146150 0.687511
v -0.106598 0.146378 0.701077
v -0.122098 0.158581 0.720863
v -0.114593 0.161289 0.714622
v -0.114134 0.158013 0.714664
v -0.120898 0.155892 0.721001
v -0.108026 0.161251 0.710315
v -0.108269 0.158378 0.710520
v -0.105831 0.153105 0.705899
v -0.112523 0.150473 0.713253
v -0.108976 0.148486 0.703747
v -0.114982 0.145907 0.707557
v -0.120021 0.148379 0.719318
v -0.124278 0.152274 0.725165
v -0.126270 0.147146 0.724782
v -0.126743 0.154789 0.725705
v -0.100457 0.151379 0.707041
v -0.105882 0.166448 0.703952
v -0.115861 0.164957 0.712259
v -0.123747 0.161857 0.718741
v -0.128945 0.156402 0.722716
v -0.118806 0.165548 0.707780
v -0.125395 0.161775 0.713575
v -0.129476 0.155910 0.715937
v -0.120409 0.162424 0.702806
v -0.125835 0.158515 0.708765
v -0.110763 0.166296 0.691133
v -0.107578 0.168499 0.696938
v -0.128382 0.155161 0.712166
v -0.128734 0.146569 0.726562
v -0.131249 0.148298 0.721986
v -0.114880 0.144717 0.703039
v -0.121393 0.143746 0.713599
v -0.122425 0.143192 0.710184
v -0.115867 0.144659 0.698345
v -0.124274 0.141993 0.707144
v -0.127604 0.142595 0.718677
v -0.124790 0.143828 0.719742
v -0.108182 0.165501 0.691576
v -0.110971 0.161481 0.685906
v -0.112564 0.160953 0.685568
v -0.119981 0.157012 0.696937
v -0.111625 0.154781 0.683315
v -0.106288 0.149916 0.684313
v -0.118038 0.146402 0.695363
v -0.119687 0.150826 0.694377
v -0.125985 0.144875 0.704104
v -0.126506 0.148344 0.703071
v -0.126733 0.153609 0.705275
v -0.129607 0.145953 0.710860
v -0.129380 0.143044 0.714767
v -0.131118 0.150201 0.715277
v -0.128585 0.148171 0.708175
v -0.129237 0.151399 0.710656
v -0.151068 0.198497 0.708864
v -0.145142 0.195981 0.703681
v -0.146762 0.205636 0.703226
v -0.152501 0.217454 0.698890
v -0.158942 0.230395 0.702091
v -0.150570 0.215100 0.691663
v -0.142985 0.202937 0.695083
v -0.144671 0.190233 0.695476
v -0.151791 0.222221 0.682190
f 4 3 1
f 1 3 2
f 5 8 6
f 6 8 7
f 9 10 4
f 4 10 3
f 9 13 11
f 11 13 12
f 14 16 12
f 12 16 15
f 20 19 17
f 17 19 18
f 24 23 21
f 21 23 22
f 28 27 25
f 25 27 26
f 32 31 29
f 29 31 30
f 33 36 34
f 34 36 35
f 37 40 38
f 38 40 39
f 41 6 42
f 42 6 43
f 6 7 43
f 43 7 44
f 45 46 34
f 34 46 33
f 50 49 47
f 47 49 48
f 54 53 51
f 51 53 52
f 51 52 55
f 55 52 56
f 60 59 57
f 57 59 58
f 1 62 4
f 4 62 61
f 66 65 63
f 63 65 64
f 70 69 67
f 67 69 68
f 74 73 71
f 71 73 72
f 78 77 75
f 75 77 76
f 80 79 54
f 54 79 53
f 84 83 81
f 81 83 82
f 85 52 86
f 86 52 53
f 88 60 87
f 87 60 57
f 44 90 43
f 43 90 89
f 91 42 89
f 89 42 43
f 93 39 92
f 92 39 40
f 69 70 64
f 64 70 94
f 4 61 9
f 9 61 13
f 25 69 28
f 28 69 95
f 69 25 68
f 68 25 96
f 100 99 97
f 97 99 98
f 101 104 102
f 102 104 103
f 29 30 105
f 105 30 106
f 108 54 107
f 107 54 51
f 109 80 108
f 108 80 54
f 113 112 110
f 110 112 111
f 116 5 114
f 114 5 115
f 115 5 41
f 41 5 6
f 36 111 35
f 35 111 117
f 35 117 118
f 118 117 119
f 34 35 120
f 120 35 118
f 34 120 45
f 45 120 121
f 127 126 124
f 124 126 125
f 130 129 14
f 14 129 128
f 132 131 46
f 46 131 33
f 64 94 63
f 63 94 133
f 134 137 135
f 135 137 136
f 141 140 138
f 138 140 139
f 143 142 78
f 78 142 77
f 144 20 145
f 145 20 146
f 72 149 147
f 147 149 148
f 153 152 150
f 150 152 151
f 104 101 83
f 83 101 82
f 101 155 82
f 82 155 154
f 59 157 58
f 58 157 156
f 67 68 147
f 147 68 158
f 159 15 146
f 146 15 16
f 160 158 96
f 96 158 68
f 65 66 130
f 130 66 129
f 164 163 161
f 161 163 162
f 168 167 165
f 165 167 166
f 172 171 169
f 169 171 170
f 170 171 173
f 173 171 174
f 178 177 175
f 175 177 176
f 24 181 179
f 179 181 180
f 184 183 21
f 21 183 182
f 154 185 82
f 82 185 81
f 186 188 187
f 187 188 144
f 189 71 160
f 160 71 158
f 59 135 157
f 157 135 190
f 140 172 139
f 139 172 169
f 71 72 158
f 158 72 147
f 194 193 191
f 191 193 192
f 167 49 166
f 166 49 195
f 157 190 50
f 50 190 196
f 197 200 198
f 198 200 199
f 181 24 182
f 182 24 21
f 17 159 20
f 20 159 146
f 185 181 81
f 81 181 182
f 181 185 180
f 180 185 201
f 84 203 83
f 83 203 202
f 85 206 204
f 204 206 205
f 21 22 184
f 184 22 207
f 23 24 208
f 208 24 179
f 205 209 179
f 179 209 208
f 206 210 205
f 205 210 209
f 210 206 211
f 211 206 212
f 204 205 180
f 180 205 179
f 213 88 176
f 176 88 214
f 206 85 212
f 212 85 86
f 193 218 217
f 220 219 218
f 218 219 217
f 17 18 220
f 220 18 219
f 144 221 20
f 20 221 19
f 222 225 223
f 223 225 224
f 214 226 176
f 176 226 175
f 88 87 214
f 214 87 227
f 159 17 228
f 228 17 220
f 134 60 213
f 213 60 88
f 152 229 151
f 151 229 138
f 211 192 210
f 210 192 193
f 193 194 218
f 218 194 230
f 230 232 228
f 228 232 231
f 89 234 91
f 91 234 233
f 235 93 236
f 236 93 92
f 237 232 234
f 234 232 230
f 239 238 48
f 48 238 47
f 236 191 235
f 235 191 240
f 241 8 116
f 116 8 5
f 160 243 189
f 189 243 242
f 99 245 98
f 98 245 244
f 238 246 47
f 47 246 156
f 248 247 77
f 77 247 76
f 124 125 249
f 249 125 250
f 254 253 251
f 251 253 252
f 111 36 110
f 110 36 255
f 256 255 33
f 33 255 36
f 257 154 258
f 258 154 155
f 139 169 133
f 133 169 63
f 66 63 170
f 170 63 169
f 66 170 129
f 129 170 173
f 259 128 173
f 173 128 129
f 261 260 259
f 259 260 128
f 213 262 134
f 134 262 137
f 187 264 186
f 186 264 263
f 266 265 113
f 113 265 112
f 11 268 267
f 194 233 230
f 230 233 234
f 67 269 70
f 70 269 153
f 141 178 165
f 165 178 175
f 70 153 94
f 94 153 150
f 207 221 270
f 270 221 271
f 152 153 272
f 272 153 269
f 108 45 109
f 109 45 121
f 157 50 156
f 156 50 47
f 274 273 58
f 58 273 57
f 261 275 260
f 260 275 145
f 78 149 143
f 143 149 276
f 272 269 75
f 75 269 148
f 278 277 270
f 270 277 207
f 50 196 49
f 49 196 195
f 59 60 135
f 135 60 134
f 83 202 104
f 104 202 279
f 75 148 78
f 78 148 149
f 277 278 248
f 248 278 247
f 81 182 84
f 84 182 183
f 282 239 281
f 281 239 48
f 222 223 283
f 283 223 227
f 168 226 224
f 224 226 223
f 225 282 224
f 224 282 281
f 226 168 175
f 175 168 165
f 229 263 138
f 138 263 264
f 260 16 128
f 128 16 14
f 220 218 228
f 228 218 230
f 283 227 284
f 284 227 87
f 146 16 145
f 145 16 260
f 155 98 258
f 258 98 244
f 246 274 156
f 156 274 58
f 55 285 51
f 51 285 107
f 96 286 160
f 160 286 243
f 90 237 89
f 89 237 234
f 285 132 107
f 107 132 46
f 253 249 252
f 252 249 250
f 25 26 96
f 96 26 286
f 288 105 287
f 287 105 106
f 229 152 289
f 289 152 272
f 138 139 151
f 151 139 133
f 162 290 161
f 161 290 183
f 293 292 277
f 277 292 291
f 94 150 133
f 133 150 151
f 262 177 275
f 275 177 187
f 275 187 145
f 145 187 144
f 273 284 57
f 57 284 87
f 135 136 190
f 190 136 174
f 111 112 117
f 117 112 38
f 117 38 119
f 119 38 123
f 37 38 265
f 265 38 112
f 251 288 254
f 254 288 287
f 15 159 231
f 231 159 228
f 214 227 226
f 226 227 223
f 269 67 148
f 148 67 147
f 167 168 281
f 281 168 224
f 162 163 200
f 200 163 199
f 107 46 108
f 108 46 45
f 49 167 48
f 48 167 281
f 292 164 291
f 291 164 161
f 38 39 123
f 248 294 277
f 277 294 293
f 284 296 283
f 283 296 295
f 297 296 273
f 273 296 284
f 274 298 273
f 273 298 297
f 246 299 274
f 274 299 298
f 283 295 222
f 222 295 300
f 222 300 225
f 225 300 301
f 301 302 225
f 225 302 282
f 303 300 304
f 304 300 295
f 308 307 305
f 305 307 306
f 305 310 308
f 308 310 309
f 308 312 307
f 307 312 311
f 315 314 312
f 312 314 313
f 313 316 312
f 312 316 311
f 316 304 311
f 311 304 317
f 315 312 309
f 309 312 308
f 318 321 319
f 319 321 320
f 319 309 318
f 318 309 310
f 311 317 307
f 307 317 306
f 296 297 317
f 317 297 306
f 306 297 322
f 322 297 298
f 305 306 323
f 323 306 322
f 310 305 324
f 324 305 323
f 296 317 295
f 295 317 304
f 318 310 325
f 325 310 324
f 327 324 326
f 326 324 323
f 324 327 325
f 325 327 328
f 330 327 329
f 329 327 326
f 332 331 326
f 326 331 329
f 327 330 328
f 328 330 333
f 323 322 326
f 326 322 332
f 299 332 298
f 298 332 322
f 325 334 318
f 318 334 321
f 304 316 335
f 335 316 313
f 335 313 336
f 336 313 314
f 337 303 335
f 335 303 304
f 336 338 335
f 335 338 337
f 336 314 339
f 339 314 340
f 341 299 238
f 238 299 246
f 302 342 282
f 282 342 239
f 238 239 341
f 341 239 342
f 341 342 331
f 331 342 343
f 331 343 329
f 329 343 344
f 345 343 302
f 302 343 342
f 332 299 331
f 331 299 341
f 346 345 301
f 301 345 302
f 300 303 301
f 301 303 346
f 303 337 346
f 346 337 347
f 347 348 346
f 346 348 345
f 349 350 347
f 347 350 348
f 348 344 345
f 345 344 343
f 344 348 351
f 351 348 350
f 337 338 347
f 347 338 349
f 349 338 352
f 352 338 353
f 356 355 354
f 354 355 352
f 350 349 355
f 355 349 352
f 352 353 354
f 354 353 334
f 321 334 339
f 339 334 353
f 338 336 353
f 353 336 339
f 351 330 344
f 344 330 329
f 356 333 351
f 351 333 330
f 356 351 355
f 355 351 350
f 354 328 356
f 356 328 333
f 334 325 354
f 354 325 328
f 320 315 319
f 319 315 309
f 320 321 340
f 340 321 339
f 314 315 340
f 340 315 320
f 137 261 136
f 136 261 259
f 165 166 141
f 141 166 140
f 196 171 195
f 195 171 172
f 190 174 196
f 196 174 171
f 187 177 264
f 264 177 178
f 166 195 140
f 140 195 172
f 275 261 262
f 262 261 137
f 138 264 141
f 141 264 178
f 262 213 177
f 177 213 176
f 173 174 259
f 259 174 136
f 360 359 357
f 357 359 358
f 364 363 361
f 361 363 362
f 366 364 365
f 365 364 361
f 367 370 368
f 368 370 369
f 372 371 247
f 247 371 76
f 363 374 362
f 362 374 373
f 378 377 375
f 375 377 376
f 289 380 229
f 229 380 379
f 229 379 263
f 263 379 381
f 385 384 382
f 382 384 383
f 363 368 374
f 374 368 386
f 76 371 289
f 289 371 380
f 377 359 376
f 376 359 387
f 374 386 360
f 360 386 388
f 389 366 383
f 383 366 390
f 394 393 391
f 391 393 392
f 383 390 382
f 382 390 395
f 366 365 390
f 390 365 396
f 364 366 367
f 367 366 389
f 398 397 358
f 358 397 357
f 397 399 357
f 357 399 373
f 389 400 367
f 367 400 370
f 372 385 375
f 375 385 382
f 374 360 373
f 373 360 357
f 402 401 362
f 362 401 361
f 360 388 359
f 359 388 387
f 363 364 368
f 368 364 367
f 404 398 403
f 403 398 358
f 391 392 405
f 405 392 396
f 378 395 393
f 393 395 392
f 393 394 403
f 403 394 404
f 395 378 382
f 382 378 375
f 405 396 406
f 406 396 365
f 399 402 373
f 373 402 362
f 384 270 400
f 400 270 271
f 401 406 361
f 361 406 365
f 368 369 386
f 386 369 381
f 390 396 395
f 395 396 392
f 377 378 403
f 403 378 393
f 359 377 358
f 358 377 403
f 406 408 405
f 405 408 407
f 409 408 401
f 401 408 406
f 410 409 402
f 402 409 401
f 411 410 399
f 399 410 402
f 405 407 391
f 391 407 412
f 391 412 394
f 394 412 413
f 414 404 413
f 413 404 394
f 415 412 416
f 416 412 407
f 420 419 417
f 417 419 418
f 419 422 418
f 418 422 421
f 419 424 422
f 422 424 423
f 427 426 424
f 424 426 425
f 425 428 424
f 424 428 423
f 427 424 420
f 420 424 419
f 420 417 429
f 429 417 430
f 423 431 422
f 422 431 421
f 408 409 431
f 431 409 421
f 421 409 432
f 432 409 410
f 418 421 433
f 433 421 432
f 434 417 433
f 433 417 418
f 428 416 423
f 423 416 431
f 408 431 407
f 407 431 416
f 417 434 430
f 430 434 435
f 437 434 436
f 436 434 433
f 434 437 435
f 435 437 438
f 440 437 439
f 439 437 436
f 442 441 436
f 436 441 439
f 438 437 443
f 443 437 440
f 432 442 433
f 433 442 436
f 411 442 410
f 410 442 432
f 435 445 430
f 430 445 444
f 430 444 429
f 429 444 446
f 416 428 447
f 447 428 425
f 426 448 425
f 425 448 447
f 449 415 447
f 447 415 416
f 450 449 448
f 448 449 447
f 426 452 448
f 448 452 451
f 446 444 452
f 452 444 451
f 453 411 397
f 397 411 399
f 414 454 404
f 404 454 398
f 397 398 453
f 453 398 454
f 453 454 441
f 441 454 455
f 441 455 439
f 439 455 456
f 457 455 414
f 414 455 454
f 441 442 453
f 453 442 411
f 458 457 413
f 413 457 414
f 412 415 413
f 413 415 458
f 458 415 459
f 459 415 449
f 459 460 458
f 458 460 457
f 461 462 459
f 459 462 460
f 460 456 457
f 457 456 455
f 456 460 463
f 463 460 462
f 450 461 449
f 449 461 459
f 461 450 464
f 464 450 465
f 468 467 466
f 466 467 464
f 462 461 467
f 467 461 464
f 464 465 466
f 466 465 445
f 444 445 451
f 451 445 465
f 450 448 465
f 465 448 451
f 463 440 456
f 456 440 439
f 468 443 463
f 463 443 440
f 468 463 467
f 467 463 462
f 466 438 468
f 468 438 443
f 445 435 466
f 466 435 438
f 446 427 429
f 429 427 420
f 426 427 452
f 452 427 446
f 370 188 369
f 369 188 186
f 375 376 372
f 372 376 371
f 388 379 387
f 387 379 380
f 386 381 388
f 388 381 379
f 270 384 278
f 278 384 385
f 376 387 371
f 371 387 380
f 400 271 370
f 370 271 188
f 247 278 372
f 372 278 385
f 400 389 384
f 384 389 383
f 263 381 186
f 186 381 369
f 221 144 271
f 271 144 188
f 22 19 207
f 207 19 221
f 23 18 22
f 22 18 19
f 208 219 23
f 23 219 18
f 469 472 470
f 470 472 471
f 476 475 473
f 473 475 474
f 478 476 477
f 477 476 473
f 482 481 479
f 479 481 480
f 475 484 474
f 474 484 483
f 488 487 485
f 485 487 486
f 142 490 77
f 77 490 489
f 77 489 248
f 248 489 491
f 495 494 492
f 492 494 493
f 475 480 484
f 484 480 496
f 471 497 487
f 487 497 486
f 484 496 472
f 472 496 498
f 499 478 493
f 493 478 500
f 501 504 502
f 502 504 503
f 493 500 492
f 492 500 505
f 478 477 500
f 500 477 506
f 476 478 479
f 479 478 499
f 508 507 470
f 470 507 469
f 507 509 469
f 469 509 483
f 510 482 499
f 499 482 479
f 511 495 485
f 485 495 492
f 483 484 469
f 469 484 472
f 513 512 474
f 474 512 473
f 472 498 471
f 471 498 497
f 475 476 480
f 480 476 479
f 515 508 514
f 514 508 470
f 501 502 516
f 516 502 506
f 503 488 502
f 502 488 505
f 504 515 503
f 503 515 514
f 505 488 492
f 492 488 485
f 516 506 517
f 517 506 477
f 509 513 483
f 483 513 474
f 510 494 292
f 292 494 164
f 512 517 473
f 473 517 477
f 480 481 496
f 496 481 491
f 500 506 505
f 505 506 502
f 487 488 514
f 514 488 503
f 471 487 470
f 470 487 514
f 517 519 516
f 516 519 518
f 520 519 512
f 512 519 517
f 521 520 513
f 513 520 512
f 522 521 509
f 509 521 513
f 516 518 501
f 501 518 523
f 501 523 504
f 504 523 524
f 524 525 504
f 504 525 515
f 526 523 527
f 527 523 518
f 531 530 528
f 528 530 529
f 530 533 529
f 529 533 532
f 530 535 533
f 533 535 534
f 538 537 535
f 535 537 536
f 536 539 535
f 535 539 534
f 538 535 531
f 531 535 530
f 528 541 531
f 531 541 540
f 542 532 534
f 534 532 533
f 519 520 542
f 542 520 532
f 532 520 543
f 543 520 521
f 529 532 544
f 544 532 543
f 528 529 545
f 545 529 544
f 534 539 542
f 542 539 527
f 519 542 518
f 518 542 527
f 541 528 546
f 546 528 545
f 547 548 544
f 544 548 545
f 548 549 545
f 545 549 546
f 550 551 547
f 547 551 548
f 547 553 550
f 550 553 552
f 549 548 554
f 554 548 551
f 544 543 547
f 547 543 553
f 522 553 521
f 521 553 543
f 546 556 541
f 541 556 555
f 541 555 540
f 540 555 557
f 527 539 558
f 558 539 536
f 537 559 536
f 536 559 558
f 560 526 558
f 558 526 527
f 559 561 558
f 558 561 560
f 559 537 562
f 562 537 563
f 557 555 563
f 563 555 562
f 564 522 507
f 507 522 509
f 525 565 515
f 515 565 508
f 507 508 564
f 564 508 565
f 564 565 552
f 552 565 566
f 552 566 550
f 550 566 567
f 568 566 525
f 525 566 565
f 553 522 552
f 552 522 564
f 569 568 524
f 524 568 525
f 523 526 524
f 524 526 569
f 526 560 569
f 569 560 570
f 570 571 569
f 569 571 568
f 572 573 570
f 570 573 571
f 571 567 568
f 568 567 566
f 567 571 574
f 574 571 573
f 561 572 560
f 560 572 570
f 572 561 575
f 575 561 576
f 579 578 577
f 577 578 575
f 573 572 578
f 578 572 575
f 575 576 577
f 577 576 556
f 555 556 562
f 562 556 576
f 561 559 576
f 576 559 562
f 574 551 567
f 567 551 550
f 579 554 574
f 574 554 551
f 579 574 578
f 578 574 573
f 549 554 577
f 577 554 579
f 556 546 577
f 577 546 549
f 557 538 540
f 540 538 531
f 537 538 563
f 563 538 557
f 293 294 482
f 482 294 481
f 485 486 511
f 511 486 580
f 498 489 497
f 497 489 490
f 496 491 498
f 498 491 489
f 163 164 495
f 495 164 494
f 580 486 490
f 490 486 497
f 292 293 510
f 510 293 482
f 199 163 511
f 511 163 495
f 499 493 510
f 510 493 494
f 248 491 294
f 294 491 481
f 584 583 581
f 581 583 582
f 588 587 585
f 585 587 586
f 590 588 589
f 589 588 585
f 594 593 591
f 591 593 592
f 595 598 596
f 596 598 597
f 587 600 586
f 586 600 599
f 601 604 602
f 602 604 603
f 605 608 606
f 606 608 607
f 606 607 200
f 200 607 609
f 610 613 611
f 611 613 612
f 600 587 614
f 614 587 592
f 596 597 605
f 605 597 608
f 583 615 603
f 603 615 602
f 600 614 584
f 584 614 616
f 590 618 617
f 617 618 611
f 622 621 619
f 619 621 620
f 618 623 611
f 611 623 610
f 590 589 618
f 618 589 624
f 588 590 591
f 591 590 617
f 626 625 582
f 582 625 581
f 625 627 581
f 581 627 599
f 628 594 617
f 617 594 591
f 601 598 610
f 610 598 613
f 600 584 599
f 599 584 581
f 630 629 586
f 586 629 585
f 584 616 583
f 583 616 615
f 587 588 592
f 592 588 591
f 632 626 631
f 631 626 582
f 619 620 633
f 633 620 624
f 621 604 620
f 620 604 623
f 622 632 621
f 621 632 631
f 610 623 601
f 601 623 604
f 633 624 634
f 634 624 589
f 627 630 599
f 599 630 586
f 612 202 628
f 628 202 203
f 629 634 585
f 585 634 589
f 592 593 614
f 614 593 609
f 618 624 623
f 623 624 620
f 631 603 621
f 621 603 604
f 582 583 631
f 631 583 603
f 634 636 633
f 633 636 635
f 637 636 629
f 629 636 634
f 638 637 630
f 630 637 629
f 639 638 627
f 627 638 630
f 633 635 619
f 619 635 640
f 619 640 622
f 622 640 641
f 641 642 622
f 622 642 632
f 640 635 643
f 643 635 644
f 645 648 646
f 646 648 647
f 647 650 646
f 646 650 649
f 647 652 650
f 650 652 651
f 652 655 653
f 653 655 654
f 653 656 652
f 652 656 651
f 655 652 648
f 648 652 647
f 648 645 657
f 657 645 658
f 659 649 651
f 651 649 650
f 636 637 659
f 659 637 649
f 649 637 660
f 660 637 638
f 649 660 646
f 646 660 661
f 662 645 661
f 661 645 646
f 651 656 659
f 659 656 644
f 636 659 635
f 635 659 644
f 645 662 658
f 658 662 663
f 664 665 661
f 661 665 662
f 665 666 662
f 662 666 663
f 667 668 664
f 664 668 665
f 664 670 667
f 667 670 669
f 666 665 671
f 671 665 668
f 661 660 664
f 664 660 670
f 639 670 638
f 638 670 660
f 673 672 663
f 663 672 658
f 658 672 657
f 657 672 674
f 644 656 675
f 675 656 653
f 676 675 654
f 654 675 653
f 675 677 644
f 644 677 643
f 676 678 675
f 675 678 677
f 654 680 676
f 676 680 679
f 674 672 680
f 680 672 679
f 681 639 625
f 625 639 627
f 642 682 632
f 632 682 626
f 681 625 682
f 682 625 626
f 682 683 681
f 681 683 669
f 683 684 669
f 669 684 667
f 685 683 642
f 642 683 682
f 670 639 669
f 669 639 681
f 686 685 641
f 641 685 642
f 641 640 686
f 686 640 643
f 686 643 687
f 687 643 677
f 687 688 686
f 686 688 685
f 689 690 687
f 687 690 688
f 688 684 685
f 685 684 683
f 684 688 691
f 691 688 690
f 678 689 677
f 677 689 687
f 689 678 692
f 692 678 693
f 696 695 694
f 694 695 692
f 690 689 695
f 695 689 692
f 692 693 694
f 694 693 673
f 672 673 679
f 679 673 693
f 678 676 693
f 693 676 679
f 684 691 667
f 667 691 668
f 696 671 691
f 691 671 668
f 696 691 695
f 695 691 690
f 694 666 696
f 696 666 671
f 673 663 694
f 694 663 666
f 674 655 657
f 657 655 648
f 654 655 680
f 680 655 674
f 290 162 594
f 594 162 593
f 598 601 597
f 597 601 602
f 615 616 608
f 608 616 607
f 614 609 616
f 616 609 607
f 598 595 613
f 613 595 697
f 597 602 608
f 608 602 615
f 203 290 628
f 628 290 594
f 628 617 612
f 612 617 611
f 200 609 162
f 162 609 593
f 699 29 698
f 698 29 105
f 268 701 126
f 126 701 700
f 126 700 125
f 125 700 702
f 704 703 250
f 250 703 252
f 32 705 268
f 268 705 701
f 698 105 706
f 706 105 288
f 29 699 32
f 32 699 705
f 707 706 251
f 251 706 288
f 702 704 125
f 125 704 250
f 703 707 252
f 252 707 251
f 709 708 707
f 707 708 706
f 710 709 703
f 703 709 707
f 711 710 704
f 704 710 703
f 712 711 702
f 702 711 704
f 706 708 698
f 698 708 713
f 698 713 699
f 699 713 714
f 715 705 714
f 714 705 699
f 713 708 716
f 716 708 717
f 721 720 718
f 718 720 719
f 720 723 719
f 719 723 722
f 720 725 723
f 723 725 724
f 727 726 725
f 725 726 724
f 728 725 721
f 721 725 720
f 730 728 729
f 729 728 721
f 718 731 721
f 721 731 729
f 724 732 723
f 723 732 722
f 709 710 732
f 732 710 722
f 722 710 733
f 733 710 711
f 719 722 734
f 734 722 733
f 718 719 735
f 735 719 734
f 724 726 732
f 732 726 717
f 709 732 708
f 708 732 717
f 731 718 736
f 736 718 735
f 737 738 734
f 734 738 735
f 738 739 735
f 735 739 736
f 740 741 737
f 737 741 738
f 737 743 740
f 740 743 742
f 739 738 744
f 744 738 741
f 734 733 737
f 737 733 743
f 712 743 711
f 711 743 733
f 736 746 731
f 731 746 745
f 731 745 729
f 729 745 730
f 717 726 747
f 747 726 727
f 748 749 727
f 727 749 747
f 747 750 717
f 717 750 716
f 749 751 747
f 747 751 750
f 749 748 752
f 752 748 753
f 730 745 753
f 753 745 752
f 727 725 748
f 748 725 728
f 748 728 753
f 753 728 730
f 700 754 702
f 702 754 712
f 705 715 701
f 701 715 755
f 754 700 755
f 755 700 701
f 755 756 754
f 754 756 742
f 756 757 742
f 742 757 740
f 758 756 715
f 715 756 755
f 743 712 742
f 742 712 754
f 759 758 714
f 714 758 715
f 714 713 759
f 759 713 716
f 759 716 760
f 760 716 750
f 760 761 759
f 759 761 758
f 762 763 760
f 760 763 761
f 761 757 758
f 758 757 756
f 757 761 764
f 764 761 763
f 751 762 750
f 750 762 760
f 762 751 765
f 765 751 766
f 767 769 765
f 765 769 768
f 763 762 768
f 768 762 765
f 765 766 767
f 767 766 746
f 745 746 752
f 752 746 766
f 751 749 766
f 766 749 752
f 757 764 740
f 740 764 741
f 769 744 764
f 764 744 741
f 769 764 768
f 768 764 763
f 767 739 769
f 769 739 744
f 746 736 767
f 767 736 739
f 209 217 208
f 208 217 219
f 209 210 217
f 217 210 193
f 511 580 199
f 199 580 198
f 76 289 75
f 75 289 272
f 184 207 291
f 291 207 277
f 84 183 203
f 203 183 290
f 198 580 142
f 142 580 490
f 142 143 198
f 198 143 197
f 73 276 72
f 72 276 149
f 104 279 103
f 103 279 770
f 770 279 596
f 596 279 595
f 605 771 596
f 596 771 770
f 771 772 770
f 770 772 103
f 772 773 103
f 103 773 102
f 102 774 101
f 101 774 155
f 773 97 102
f 102 97 774
f 97 773 100
f 100 773 775
f 773 772 775
f 775 772 776
f 772 771 776
f 776 771 777
f 200 197 606
f 606 197 777
f 74 71 778
f 778 71 189
f 155 774 98
f 98 774 97
f 291 161 184
f 184 161 183
f 143 276 197
f 197 276 777
f 605 606 771
f 771 606 777
f 202 612 697
f 697 612 613
f 595 279 697
f 697 279 202
f 73 776 276
f 276 776 777
f 776 73 775
f 775 73 74
f 74 778 775
f 775 778 100
f 778 189 100
f 100 189 99
f 189 242 99
f 99 242 245
f 131 256 33
f 62 1 95
f 95 1 28
f 1 2 28
f 28 2 27
f 114 115 266
f 266 115 265
f 95 69 62
f 62 69 64
f 65 61 64
f 64 61 62
f 130 13 65
f 65 13 61
f 14 12 130
f 130 12 13
f 268 11 32
f 32 11 31
f 15 31 12
f 12 31 11
f 231 30 15
f 15 30 31
f 232 106 231
f 231 106 30
f 232 237 106
f 106 237 287
f 237 90 287
f 287 90 254
f 90 44 254
f 254 44 253
f 7 249 44
f 44 249 253
f 126 127 268
f 268 127 267
f 116 3 241
f 241 3 10
f 114 2 116
f 116 2 3
f 266 27 114
f 114 27 2
f 113 26 266
f 266 26 27
f 110 286 113
f 113 286 26
f 255 243 110
f 110 243 286
f 256 242 255
f 255 242 243
f 131 245 256
f 256 245 242
f 132 244 131
f 131 244 245
f 41 37 115
f 115 37 265
f 41 42 37
f 37 42 40
f 42 91 40
f 40 91 92
f 91 233 92
f 92 233 236
f 233 194 236
f 236 194 191
f 132 285 244
f 244 285 258
f 285 55 258
f 258 55 257
f 185 154 201
f 201 154 257
f 180 201 204
f 204 201 56
f 55 56 257
f 257 56 201
f 204 56 85
f 85 56 52
f 79 122 53
f 53 122 86
f 122 215 86
f 86 215 212
f 215 216 212
f 212 216 211
f 216 280 211
f 211 280 192
f 191 192 240
f 240 192 280
f 8 124 7
f 7 124 249
f 241 127 8
f 8 127 124
f 10 267 241
f 241 267 127
f 10 9 267
f 267 9 11
