o right
v 0.260163 0.010007 0.542276
v 0.263276 0.025096 0.548202
v 0.259236 0.015691 0.550108
v 0.253349 0.003313 0.539411
v 0.251827 0.037340 0.573127
v 0.239199 0.044351 0.571741
v 0.239601 0.015090 0.576727
v 0.249941 0.009847 0.581012
v 0.250227 -0.005355 0.540901
v 0.254581 0.002339 0.556410
v 0.252727 -0.011030 0.541629
v 0.248917 -0.010964 0.518853
v 0.242852 -0.013059 0.525821
v 0.250834 -0.018592 0.511320
v 0.256905 -0.001763 0.517720
v 0.262851 -0.016171 0.508549
v 0.289250 0.005362 0.524974
v 0.301949 0.005830 0.539773
v 0.301544 -0.018562 0.536831
v 0.286274 -0.014314 0.523275
v 0.304207 -0.006468 0.559834
v 0.300309 -0.011544 0.547655
v 0.305171 0.009303 0.547878
v 0.310178 0.012987 0.556694
v 0.273509 0.019478 0.555100
v 0.274998 0.033598 0.560685
v 0.269651 0.031222 0.553093
v 0.267976 0.017857 0.548987
v 0.244376 -0.011207 0.548454
v 0.248347 0.004241 0.537682
v 0.250538 -0.003537 0.535063
v 0.247714 -0.017969 0.549653
v 0.284728 0.062036 0.584608
v 0.287978 0.080077 0.586241
v 0.283025 0.080622 0.580395
v 0.280435 0.065303 0.581208
v 0.248686 0.069163 0.563464
v 0.259798 0.083258 0.565773
v 0.261305 0.091330 0.549974
v 0.247446 0.077861 0.547866
v 0.241334 0.058061 0.566566
v 0.235308 0.063258 0.554706
v 0.231706 0.046395 0.561289
v 0.234839 0.018517 0.567455
v 0.300504 0.078737 0.597281
v 0.299424 0.064653 0.598384
v 0.234835 -0.070268 0.529062
v 0.236678 -0.069790 0.535870
v 0.239835 -0.067725 0.534796
v 0.237108 -0.068774 0.528738
v 0.320083 0.063749 0.591478
v 0.329315 0.060833 0.582931
v 0.330992 0.069951 0.585206
v 0.322064 0.073613 0.591402
v 0.316636 0.051580 0.590290
v 0.325150 0.049126 0.577412
v 0.239156 -0.083262 0.521585
v 0.235515 -0.078299 0.522334
v 0.240234 -0.077443 0.519704
v 0.244996 -0.081053 0.518817
v 0.245145 -0.007728 0.531720
v 0.254816 -0.001948 0.538625
v 0.245704 -0.029764 0.522461
v 0.249955 -0.018103 0.528931
v 0.242804 -0.018051 0.522792
v 0.243078 -0.027784 0.516626
v 0.269447 -0.009686 0.551640
v 0.273929 0.006014 0.554361
v 0.269590 0.002587 0.546672
v 0.263748 -0.014040 0.542550
v 0.278218 0.009488 0.572448
v 0.273223 -0.005630 0.567525
v 0.274297 -0.002548 0.578093
v 0.278966 0.007275 0.580067
v 0.273658 -0.032364 0.552305
v 0.269044 -0.037973 0.548713
v 0.268368 -0.034124 0.555306
v 0.272289 -0.029655 0.558074
v 0.333479 0.078840 0.585709
v 0.322339 0.082523 0.589119
v 0.306579 0.001555 0.581164
v 0.303875 0.006844 0.592223
v 0.298072 -0.009944 0.594925
v 0.300901 -0.008728 0.584517
v 0.331353 0.058757 0.569881
v 0.335050 0.067259 0.574239
v 0.244125 -0.086358 0.525717
v 0.250385 -0.084898 0.522995
v 0.235690 0.048859 0.542847
v 0.233569 0.022001 0.554093
v 0.244819 0.068566 0.537805
v 0.258852 0.080672 0.538047
v 0.268833 0.090734 0.537832
v 0.256281 -0.023402 0.531168
v 0.264148 0.005274 0.544091
v 0.276598 0.021618 0.561618
v 0.285659 0.018490 0.598066
v 0.289929 0.032313 0.600889
v 0.282577 0.027616 0.590527
v 0.281837 0.017802 0.589622
v 0.296219 0.006984 0.601054
v 0.288650 0.005521 0.598872
v 0.283569 -0.008260 0.599017
v 0.291327 -0.008006 0.600354
v 0.238307 -0.007837 0.548727
v 0.243980 0.011975 0.539489
v 0.310095 0.066584 0.599343
v 0.310020 0.077411 0.597464
v 0.312569 0.085784 0.591789
v 0.276563 0.049121 0.572974
v 0.276744 0.067254 0.577325
v 0.268122 0.066402 0.572841
v 0.272488 0.049293 0.567681
v 0.263269 0.040823 0.558490
v 0.254174 0.054176 0.567109
v 0.260986 0.025990 0.565526
v 0.273251 0.084264 0.573909
v 0.285448 0.093394 0.579032
v 0.277534 0.094905 0.570808
v 0.295164 0.091685 0.586513
v 0.304359 0.089474 0.592091
v 0.341099 0.076580 0.574928
v 0.271475 0.094613 0.562092
v 0.243487 -0.006111 0.576961
v 0.239723 -0.015364 0.570733
v 0.247193 -0.018565 0.566859
v 0.252131 -0.010237 0.573518
v 0.253177 -0.029943 0.506912
v 0.244814 -0.029643 0.510786
v 0.243494 -0.016944 0.516132
v 0.285560 0.049195 0.588936
v 0.294007 0.051427 0.598906
v 0.251598 -0.034778 0.525965
v 0.247905 -0.076789 0.517404
v 0.242718 -0.073044 0.518029
v 0.248275 -0.050755 0.512231
v 0.255318 -0.053823 0.511510
v 0.256262 -0.048342 0.530797
v 0.250662 -0.041662 0.528831
v 0.250923 -0.045965 0.530730
v 0.256277 -0.050672 0.533234
v 0.272064 -0.027497 0.566634
v 0.273940 -0.025058 0.569151
v 0.278498 -0.033158 0.524279
v 0.274562 -0.028672 0.507957
v 0.276861 -0.012555 0.511039
v 0.273263 -0.006438 0.559973
v 0.271239 -0.020793 0.557243
v 0.271755 -0.019171 0.563104
v 0.259735 -0.028206 0.532352
v 0.257908 -0.037458 0.528968
v 0.263235 -0.034609 0.533010
v 0.263646 -0.026054 0.538222
v 0.309903 0.022856 0.590255
v 0.301037 0.024254 0.603397
v 0.234061 -0.073386 0.524483
v 0.237300 -0.072435 0.523297
v 0.276859 0.008779 0.563242
v 0.278855 0.003576 0.520110
v 0.279864 0.023186 0.568500
v 0.288705 -0.029587 0.574683
v 0.282494 -0.028173 0.579431
v 0.276643 -0.030973 0.579989
v 0.281043 -0.033723 0.576722
v 0.252164 -0.068483 0.537508
v 0.246799 -0.067358 0.537989
v 0.244497 -0.068335 0.540381
v 0.249609 -0.072667 0.540808
v 0.245662 -0.039013 0.524284
v 0.242427 -0.037680 0.517537
v 0.241883 -0.045732 0.521162
v 0.245870 -0.046148 0.526657
v 0.243864 -0.039358 0.511950
v 0.244109 -0.047947 0.515486
v 0.257247 -0.072605 0.534475
v 0.258070 -0.078453 0.526899
v 0.264215 -0.056657 0.520302
v 0.261580 -0.056526 0.528102
v 0.316461 0.030811 0.556431
v 0.318128 0.032893 0.568190
v 0.310251 0.015215 0.569537
v 0.303912 -0.002113 0.573243
v 0.296220 -0.018192 0.575880
v 0.300526 -0.025737 0.561941
v 0.312192 0.017887 0.577760
v 0.264346 -0.047986 0.527643
v 0.268955 -0.042615 0.519369
v 0.271851 -0.044134 0.528202
v 0.282958 0.022881 0.577913
v 0.239418 -0.069730 0.521310
v 0.291263 0.072359 0.532349
v 0.305642 0.069695 0.542214
v 0.300624 0.059334 0.539079
v 0.283432 0.061199 0.530793
v 0.240436 -0.066694 0.533018
v 0.237902 -0.066780 0.527377
v 0.275024 -0.025420 0.576984
v 0.273065 -0.027943 0.573760
v 0.273278 -0.027084 0.577222
v 0.273241 -0.027718 0.580999
v 0.319962 0.035684 0.574451
v 0.293662 -0.021928 0.593759
v 0.297089 -0.018163 0.587395
v 0.326286 0.047803 0.567049
v 0.322197 0.046370 0.556666
v 0.326331 0.057539 0.557204
v 0.288400 -0.032012 0.550877
v 0.309096 0.027947 0.548812
v 0.315396 0.044340 0.549926
v 0.320235 0.057665 0.551504
v 0.325365 0.066709 0.550219
v 0.331121 0.065873 0.557537
v 0.253501 -0.078539 0.521264
v 0.254284 -0.085559 0.531325
v 0.335973 0.076007 0.557674
v 0.330039 0.075640 0.548308
v 0.303843 0.043186 0.542262
v 0.296039 0.040708 0.533826
v 0.303010 0.026185 0.540833
v 0.293882 0.023391 0.531775
v 0.297695 -0.035887 0.534435
v 0.232480 -0.085464 0.543921
v 0.246226 -0.082128 0.540628
v 0.243719 -0.076218 0.542206
v 0.231163 -0.082616 0.546778
v 0.253303 -0.079000 0.538475
v 0.247415 -0.085474 0.534609
v 0.276894 0.022087 0.523734
v 0.260116 -0.044340 0.530429
v 0.272063 0.041563 0.527601
v 0.260139 0.013737 0.523634
v 0.253188 0.028127 0.530127
v 0.264452 0.063511 0.531912
v 0.247769 0.046547 0.530731
v 0.282266 0.085787 0.533683
v 0.275586 0.074802 0.533525
v 0.239630 0.029191 0.540363
v 0.223973 -0.075093 0.537338
v 0.226504 -0.074364 0.543002
v 0.296999 0.081825 0.532920
v 0.256216 0.006016 0.572991
v 0.281683 0.035670 0.579777
v 0.279820 0.035487 0.572338
v 0.292145 0.040009 0.602209
v 0.283984 0.036994 0.590636
v 0.223439 -0.077747 0.532222
v 0.264552 -0.038593 0.550869
v 0.266200 -0.033399 0.554013
v 0.237331 -0.000734 0.573520
v 0.233590 -0.010054 0.569691
v 0.227914 -0.009655 0.556615
v 0.228694 -0.010529 0.563782
v 0.233636 0.002849 0.564608
v 0.231107 0.004596 0.555500
v 0.278535 0.048899 0.577083
v 0.282352 0.048222 0.581558
v 0.313146 0.038504 0.590388
v 0.303663 0.038757 0.603794
v 0.250901 -0.040646 0.508686
v 0.262498 -0.031187 0.504835
v 0.258992 -0.042627 0.507523
v 0.262423 -0.053775 0.513134
v 0.257997 -0.049742 0.529454
v 0.262255 -0.049409 0.528035
v 0.257622 0.060225 0.570452
v 0.265470 0.047203 0.560635
v 0.252893 -0.009634 0.562317
v 0.250147 -0.019282 0.559666
v 0.266585 -0.020864 0.547509
v 0.277910 -0.040963 0.547014
v 0.284490 -0.044220 0.538181
v 0.268144 -0.032968 0.542767
v 0.226438 -0.085183 0.529878
v 0.224048 -0.081056 0.530316
v 0.266805 -0.042491 0.509359
v 0.273941 -0.016000 0.573705
v 0.279183 -0.034257 0.554211
v 0.268988 -0.039292 0.549799
v 0.288360 -0.018329 0.598565
v 0.311411 0.079365 0.541390
v 0.239936 -0.070883 0.542184
v 0.229384 -0.076232 0.546541
v 0.233505 -0.087216 0.539531
v 0.231757 -0.087939 0.532694
v 0.306667 0.051814 0.602241
v 0.278932 0.034333 0.567420
v 0.237473 0.010864 0.548302
v 0.232727 -0.007907 0.549802
v 0.266087 -0.039853 0.538900
v 0.292123 -0.023266 0.579384
v 0.289738 -0.035349 0.565260
v 0.279762 -0.040717 0.568542
v 0.274348 -0.041173 0.561534
v 0.267420 -0.036967 0.557375
v 0.226239 -0.088410 0.543237
v 0.225213 -0.089037 0.537293
v 0.219909 -0.086827 0.533748
v 0.217934 -0.083488 0.533910
v 0.218633 -0.079160 0.535818
v 0.224903 -0.087527 0.547669
v 0.223551 -0.085491 0.550608
v 0.224345 -0.078553 0.549565
v 0.218374 -0.090502 0.550540
v 0.215292 -0.094453 0.546385
v 0.201639 -0.092526 0.538441
v 0.209057 -0.092293 0.536350
v 0.207210 -0.094609 0.538146
v 0.201182 -0.095829 0.540786
v 0.195701 -0.098177 0.544376
v 0.195234 -0.094971 0.541719
v 0.212127 -0.094976 0.540908
v 0.204402 -0.097830 0.544041
v 0.206595 -0.098065 0.548660
v 0.199859 -0.100302 0.550898
v 0.198066 -0.101000 0.546933
v 0.211602 -0.096236 0.545889
v 0.214839 -0.093345 0.540623
v 0.191228 -0.097716 0.545639
v 0.192292 -0.100485 0.546121
v 0.193976 -0.102141 0.548892
v 0.190060 -0.100845 0.551218
v 0.211630 -0.085482 0.535117
v 0.201212 -0.089487 0.538539
v 0.195202 -0.091868 0.543239
v 0.191281 -0.094750 0.547195
v 0.200764 -0.086680 0.542151
v 0.196175 -0.089778 0.545721
v 0.193274 -0.091952 0.549784
v 0.201815 -0.085510 0.546647
v 0.197406 -0.088608 0.549239
v 0.215622 -0.078015 0.541255
v 0.214447 -0.080382 0.536761
v 0.194252 -0.089838 0.551059
v 0.190086 -0.098460 0.553185
v 0.209345 -0.095602 0.551583
v 0.200246 -0.097151 0.553613
v 0.209600 -0.093281 0.553523
v 0.200684 -0.095113 0.555964
v 0.194504 -0.100041 0.554828
v 0.196021 -0.101309 0.551627
v 0.220806 -0.076275 0.539853
v 0.223129 -0.076150 0.545883
v 0.218515 -0.077651 0.548025
v 0.203701 -0.084755 0.551900
v 0.219095 -0.080263 0.551917
v 0.217094 -0.087598 0.552816
v 0.208002 -0.090899 0.555670
v 0.206632 -0.087674 0.555744
v 0.201116 -0.093052 0.557252
v 0.200600 -0.090479 0.556173
v 0.198293 -0.088146 0.553308
v 0.195464 -0.094191 0.556543
v 0.194477 -0.097555 0.556072
v 0.192249 -0.094178 0.553810
v 0.196722 -0.092009 0.556504
v 0.194700 -0.091397 0.553847
v 0.251780 -0.061574 0.542938
v 0.251958 -0.059619 0.550868
v 0.242134 -0.059138 0.546209
v 0.242499 -0.062089 0.539918
v 0.237482 -0.069688 0.544221
v 0.242460 -0.066057 0.540692
v 0.240607 -0.070687 0.539483
v 0.241256 -0.075458 0.545693
v 0.236189 -0.070530 0.551471
v 0.243290 -0.075921 0.553776
v 0.247544 -0.075517 0.545428
v 0.244656 -0.068966 0.540087
v 0.259885 -0.053416 0.531602
v 0.266691 -0.055371 0.536790
v 0.258052 -0.039963 0.544070
v 0.259702 -0.040748 0.547924
v 0.248096 -0.063485 0.540027
v 0.241454 -0.065609 0.537067
v 0.244683 -0.053294 0.554110
v 0.242505 -0.053227 0.549092
v 0.243055 -0.057959 0.552069
v 0.242696 -0.058859 0.557903
v 0.253988 -0.046128 0.529147
v 0.257606 -0.042663 0.536790
v 0.255739 -0.051461 0.528855
v 0.247162 -0.058220 0.558968
v 0.249674 -0.065991 0.561067
v 0.269132 -0.051518 0.550601
v 0.264159 -0.046886 0.551460
v 0.242925 -0.064045 0.538639
v 0.240595 -0.055835 0.544270
v 0.240931 -0.059328 0.539436
v 0.251050 -0.072399 0.553843
v 0.241214 -0.067726 0.562075
v 0.241985 -0.047376 0.557318
v 0.244282 -0.061911 0.562032
v 0.248591 -0.059452 0.560887
v 0.246593 -0.044287 0.557023
v 0.241905 -0.064016 0.561252
v 0.239079 -0.065726 0.560255
v 0.250658 -0.042556 0.543001
v 0.251773 -0.041244 0.550007
v 0.247546 -0.043915 0.540297
v 0.271674 -0.055105 0.543625
v 0.237813 -0.051638 0.542993
v 0.243560 -0.047095 0.540186
v 0.252356 -0.058905 0.557329
v 0.250319 -0.041288 0.554916
v 0.238872 -0.050158 0.555612
v 0.236514 -0.054489 0.549468
v 0.237385 -0.041055 0.552732
v 0.234360 -0.043601 0.547385
v 0.236136 -0.042248 0.540989
v 0.241757 -0.040844 0.538974
v 0.246296 -0.040073 0.539307
v 0.240581 -0.038858 0.554746
v 0.244689 -0.036910 0.555345
v 0.249095 -0.037820 0.553386
v 0.244010 -0.029250 0.552338
v 0.240673 -0.028369 0.549110
v 0.248946 -0.019566 0.531113
v 0.245087 -0.025714 0.533383
v 0.243634 -0.023552 0.535415
v 0.247418 -0.017689 0.533619
v 0.239907 -0.030693 0.536697
v 0.240319 -0.027767 0.537707
v 0.239314 -0.027589 0.542770
v 0.242821 -0.020924 0.540143
v 0.244117 -0.020902 0.545361
v 0.247221 -0.014417 0.542926
v 0.245634 -0.014326 0.537837
v 0.241019 -0.025417 0.546055
v 0.249386 -0.013322 0.533033
v 0.251758 -0.013245 0.531769
v 0.237136 -0.030882 0.543674
v 0.242480 -0.036780 0.536915
v 0.248013 -0.027208 0.532732
v 0.252192 -0.020355 0.530833
v 0.254809 -0.013391 0.532848
v 0.251695 -0.027259 0.534409
v 0.254950 -0.020393 0.532942
v 0.256387 -0.014694 0.535019
v 0.255100 -0.026885 0.538119
v 0.257680 -0.019942 0.536958
v 0.249420 -0.038616 0.542339
v 0.246796 -0.038626 0.538238
v 0.257556 -0.016622 0.536876
v 0.251393 -0.008099 0.535154
v 0.255124 -0.009816 0.536261
v 0.249585 -0.009982 0.535843
v 0.245761 -0.021241 0.547441
v 0.249799 -0.014708 0.543935
v 0.248688 -0.021890 0.548960
v 0.252890 -0.014948 0.544657
v 0.251929 -0.009707 0.540450
v 0.250412 -0.010299 0.539699
v 0.248734 -0.039595 0.542965
v 0.250372 -0.038632 0.549373
v 0.250890 -0.037686 0.548359
v 0.256264 -0.025634 0.543755
v 0.249839 -0.035651 0.552524
v 0.247319 -0.031283 0.553200
v 0.251248 -0.022987 0.549745
v 0.254782 -0.023931 0.547929
v 0.254715 -0.014991 0.546341
v 0.256542 -0.017955 0.545949
v 0.258861 -0.019520 0.541659
v 0.256304 -0.010810 0.542211
v 0.253983 -0.009823 0.541021
v 0.256696 -0.011467 0.537543
v 0.257711 -0.013682 0.543492
v 0.258139 -0.014704 0.539397
v 0.241569 -0.023524 0.567853
v 0.245453 -0.022068 0.573504
v 0.246760 -0.024859 0.572996
v 0.243589 -0.027455 0.567621
v 0.232396 -0.037683 0.574470
v 0.233292 -0.032077 0.570277
v 0.236107 -0.038386 0.567797
v 0.235611 -0.046371 0.571417
v 0.234232 -0.037807 0.581896
v 0.238997 -0.049422 0.579715
v 0.243602 -0.049455 0.569274
v 0.241846 -0.042095 0.565933
v 0.261067 -0.039975 0.560854
v 0.263940 -0.046045 0.564411
v 0.237123 -0.027113 0.568609
v 0.239827 -0.032008 0.567147
v 0.252412 -0.027471 0.581828
v 0.250475 -0.024826 0.578028
v 0.249158 -0.024355 0.579673
v 0.250080 -0.027829 0.583369
v 0.264976 -0.025521 0.559403
v 0.267852 -0.022990 0.566277
v 0.261351 -0.032126 0.558422
v 0.252389 -0.035408 0.585318
v 0.250528 -0.045940 0.585112
v 0.270399 -0.039094 0.579421
v 0.270244 -0.032326 0.580318
v 0.243693 -0.035274 0.566069
v 0.248392 -0.024975 0.570920
v 0.245843 -0.028615 0.566502
v 0.248200 -0.050427 0.576746
v 0.243458 -0.042583 0.588211
v 0.232925 -0.011748 0.591785
v 0.244824 -0.030149 0.588183
v 0.248816 -0.024754 0.584138
v 0.235778 -0.008191 0.589848
v 0.247589 -0.033966 0.587841
v 0.240680 -0.035528 0.587994
v 0.231128 -0.004959 0.575060
v 0.235482 -0.005049 0.579443
v 0.228013 -0.008900 0.574494
v 0.268412 -0.046036 0.571192
v 0.269961 -0.024963 0.577115
v 0.223947 -0.014556 0.580078
v 0.225363 -0.011431 0.575956
v 0.248470 -0.022372 0.579784
v 0.237281 -0.005569 0.585741
v 0.230204 -0.015064 0.589897
v 0.226059 -0.017655 0.585660
v 0.227603 -0.006972 0.593264
v 0.222650 -0.009186 0.588869
v 0.219378 -0.006621 0.584159
v 0.219421 -0.004246 0.579603
v 0.222275 -0.001738 0.577195
v 0.229928 -0.003330 0.594069
v 0.231824 -0.000068 0.591479
v 0.234318 -0.001297 0.585991
v 0.228330 0.003556 0.595948
v 0.222451 0.001725 0.597599
v 0.205860 0.015640 0.593341
v 0.209695 0.009415 0.590494
v 0.209221 0.009166 0.592176
v 0.205828 0.014768 0.595454
v 0.213774 0.001471 0.589660
v 0.212678 0.003130 0.591696
v 0.216097 0.001602 0.595038
v 0.211328 0.008319 0.598680
v 0.219236 0.010354 0.600555
v 0.215438 0.015270 0.601597
v 0.208180 0.013522 0.600853
v 0.220230 0.003563 0.598291
v 0.204938 0.017993 0.598143
v 0.202838 0.019491 0.596363
v 0.217936 -0.000822 0.593258
v 0.214145 0.002024 0.583153
v 0.209791 0.011145 0.586686
v 0.206267 0.017952 0.589111
v 0.205611 0.022447 0.592866
v 0.212960 0.013279 0.584185
v 0.209457 0.019558 0.587366
v 0.209005 0.023505 0.590874
v 0.216165 0.014470 0.583826
v 0.213236 0.020057 0.587477
v 0.223549 0.002758 0.578321
v 0.217941 0.002295 0.579461
v 0.211859 0.023212 0.590353
v 0.205719 0.021108 0.601650
v 0.209501 0.024713 0.598589
v 0.207038 0.018556 0.601099
v 0.222041 0.010500 0.600531
v 0.217738 0.017650 0.602349
v 0.224666 0.011856 0.598426
v 0.220902 0.019167 0.601849
v 0.212965 0.020562 0.603536
v 0.212156 0.019156 0.602686
v 0.227823 -0.001288 0.577233
v 0.232717 -0.000764 0.580801
v 0.228501 0.003657 0.581096
v 0.220217 0.016174 0.586718
v 0.231071 0.003706 0.585992
v 0.229133 0.006146 0.592787
v 0.225369 0.013766 0.595035
v 0.223850 0.015999 0.591283
v 0.222153 0.020553 0.598687
v 0.221414 0.020484 0.594603
v 0.217813 0.021883 0.589604
v 0.217150 0.023558 0.598976
v 0.215446 0.022640 0.602353
v 0.212186 0.025475 0.595543
v 0.218033 0.023302 0.595709
v 0.214428 0.024415 0.593066
v 0.269379 -0.023767 0.572489
v 0.271469 -0.057039 0.570738
v 0.271468 -0.055358 0.575663
v 0.272754 -0.054685 0.575710
v 0.272634 -0.054819 0.570664
v 0.284634 -0.062698 0.569533
v 0.278844 -0.061094 0.568047
v 0.283383 -0.057191 0.565240
v 0.290068 -0.059322 0.566261
v 0.287833 -0.062913 0.574372
v 0.292179 -0.059748 0.572061
v 0.290050 -0.053072 0.566040
v 0.283352 -0.050721 0.565191
v 0.285279 -0.030792 0.576293
v 0.291399 -0.030485 0.577170
v 0.285175 -0.025593 0.595726
v 0.279558 -0.025242 0.594447
v 0.275942 -0.034094 0.589595
v 0.281717 -0.035406 0.592785
v 0.274222 -0.059076 0.568605
v 0.276847 -0.054749 0.567041
v 0.279324 -0.056229 0.584432
v 0.274597 -0.054101 0.580588
v 0.273514 -0.053955 0.579736
v 0.276512 -0.055017 0.583649
v 0.274613 -0.025447 0.589987
v 0.274056 -0.025929 0.586033
v 0.270755 -0.029878 0.582262
v 0.272645 -0.033402 0.585133
v 0.273909 -0.030357 0.577463
v 0.285648 -0.057894 0.584235
v 0.292806 -0.057832 0.579787
v 0.292538 -0.032879 0.592277
v 0.287990 -0.033903 0.594210
v 0.275638 -0.051488 0.566696
v 0.274122 -0.052521 0.576299
v 0.271944 -0.052687 0.571211
v 0.293398 -0.055949 0.571561
v 0.289671 -0.059333 0.580538
v 0.269986 -0.066257 0.587194
v 0.279367 -0.056770 0.585485
v 0.273794 -0.054689 0.583853
v 0.267332 -0.064916 0.586677
v 0.282228 -0.058329 0.584126
v 0.284470 -0.060159 0.582420
v 0.263176 -0.067110 0.573537
v 0.263428 -0.063941 0.579116
v 0.265516 -0.069156 0.571639
v 0.295606 -0.030794 0.583831
v 0.272847 -0.072529 0.574751
v 0.268385 -0.071947 0.571998
v 0.271546 -0.054449 0.579966
v 0.265090 -0.063550 0.583833
v 0.273153 -0.068789 0.585540
v 0.275379 -0.071228 0.579786
v 0.268997 -0.074669 0.588519
v 0.270961 -0.076733 0.582358
v 0.267461 -0.078351 0.576712
v 0.264586 -0.075945 0.574401
v 0.262265 -0.073230 0.573717
v 0.265572 -0.070891 0.589765
v 0.263092 -0.068748 0.588497
v 0.261207 -0.066414 0.584834
v 0.261284 -0.075906 0.591926
v 0.262527 -0.081504 0.590971
v 0.248812 -0.089177 0.582192
v 0.253667 -0.086211 0.580208
v 0.254492 -0.087449 0.581429
v 0.249655 -0.090335 0.582688
v 0.260735 -0.083710 0.579468
v 0.259821 -0.085302 0.581191
v 0.262593 -0.084046 0.584640
v 0.256387 -0.088289 0.586227
v 0.255251 -0.085080 0.591840
v 0.250289 -0.088725 0.592267
v 0.252092 -0.091072 0.587408
v 0.261013 -0.083730 0.589845
v 0.247252 -0.092654 0.584554
v 0.244910 -0.093592 0.584502
v 0.265167 -0.082716 0.583998
v 0.259205 -0.079478 0.576144
v 0.251241 -0.084799 0.578670
v 0.245595 -0.088998 0.581473
v 0.242323 -0.092476 0.585438
v 0.250667 -0.081534 0.578481
v 0.244040 -0.086832 0.581405
v 0.241495 -0.089271 0.585133
v 0.249946 -0.077969 0.580164
v 0.244314 -0.083602 0.582964
v 0.257549 -0.072050 0.577463
v 0.258050 -0.075711 0.575961
v 0.242383 -0.086890 0.585424
v 0.244915 -0.095218 0.589552
v 0.241973 -0.092711 0.589959
v 0.247734 -0.093465 0.588570
v 0.255121 -0.083925 0.593214
v 0.248903 -0.088093 0.594198
v 0.254051 -0.081161 0.594267
v 0.247564 -0.085927 0.594762
v 0.245543 -0.092211 0.593490
v 0.247950 -0.091933 0.591549
v 0.259985 -0.070181 0.575703
v 0.260476 -0.066990 0.579629
v 0.258070 -0.069711 0.581700
v 0.250617 -0.075824 0.584194
v 0.258865 -0.069373 0.586996
v 0.260219 -0.072182 0.590346
v 0.252931 -0.078326 0.592829
v 0.251569 -0.076425 0.589710
v 0.246149 -0.084093 0.593583
v 0.245515 -0.081950 0.590536
v 0.244569 -0.081374 0.586298
v 0.242756 -0.088143 0.591775
v 0.243432 -0.090241 0.593177
v 0.241734 -0.089450 0.589141
v 0.242765 -0.086038 0.590133
v 0.242555 -0.086295 0.587930
v 0.288603 -0.027531 0.595022
v 0.232392 -0.030936 0.554007
v 0.237654 -0.031530 0.553482
v 0.240606 -0.034096 0.570602
v 0.243031 -0.035061 0.562465
v 0.232936 -0.032413 0.573489
v 0.222642 -0.030552 0.567620
v 0.226873 -0.029655 0.571341
v 0.240696 -0.034104 0.556515
v 0.227963 -0.031179 0.555596
v 0.221808 -0.029829 0.561283
v 0.220692 -0.044919 0.559179
v 0.217883 -0.041574 0.566017
v 0.222399 -0.038976 0.573587
v 0.228541 -0.036977 0.575056
v 0.233893 -0.037011 0.575078
v 0.229941 -0.040516 0.556282
v 0.235437 -0.040190 0.556113
v 0.240492 -0.039711 0.559453
v 0.231671 -0.052555 0.560847
v 0.236841 -0.058806 0.572994
v 0.252544 -0.057631 0.595967
v 0.245577 -0.051983 0.591475
v 0.244845 -0.054915 0.590201
v 0.251091 -0.060010 0.594968
v 0.239140 -0.049707 0.587653
v 0.239182 -0.052375 0.586640
v 0.236455 -0.054967 0.580277
v 0.242617 -0.060929 0.585720
v 0.239240 -0.058320 0.576326
v 0.244918 -0.062672 0.578664
v 0.249613 -0.065939 0.590256
v 0.253980 -0.065316 0.597183
v 0.255471 -0.069833 0.594564
v 0.256705 -0.063465 0.598638
v 0.231130 -0.056568 0.580628
v 0.237479 -0.042110 0.584213
v 0.247053 -0.047725 0.590784
v 0.254459 -0.053911 0.595227
v 0.259122 -0.060912 0.596542
v 0.249960 -0.045437 0.586924
v 0.256145 -0.051816 0.590441
v 0.259749 -0.058368 0.590141
v 0.251363 -0.046142 0.581139
v 0.256439 -0.052583 0.584756
v 0.242241 -0.036817 0.572398
v 0.239340 -0.037297 0.578774
v 0.258675 -0.057252 0.586420
v 0.257949 -0.071284 0.595876
v 0.260776 -0.068005 0.592477
v 0.244834 -0.061702 0.574070
v 0.250817 -0.067695 0.583089
v 0.251943 -0.066685 0.579772
v 0.245857 -0.059712 0.569789
v 0.253776 -0.066526 0.576481
v 0.256754 -0.071337 0.587104
v 0.253973 -0.070547 0.588666
v 0.239992 -0.037007 0.572292
v 0.242352 -0.038266 0.565341
v 0.243748 -0.039152 0.565086
v 0.250540 -0.048299 0.573584
v 0.242431 -0.043608 0.560540
v 0.236978 -0.048151 0.559534
v 0.248122 -0.056934 0.567757
v 0.249967 -0.052651 0.568708
v 0.255727 -0.062749 0.574930
v 0.256484 -0.059246 0.575445
v 0.257034 -0.055476 0.579593
v 0.259238 -0.065057 0.581411
v 0.258704 -0.069340 0.583700
v 0.260958 -0.063344 0.587186
v 0.258445 -0.061776 0.579935
v 0.259267 -0.060051 0.583519
v 0.282272 -0.015578 0.597558
v 0.276289 -0.015960 0.592284
v 0.278302 -0.006717 0.595271
v 0.284333 0.005834 0.595191
v 0.291230 0.016574 0.602274
v 0.282056 0.006409 0.587913
v 0.274290 -0.006127 0.587134
v 0.275261 -0.018218 0.582836
v 0.283294 0.016628 0.581684
f 2 3 1
f 1 3 4
f 5 6 8
f 8 6 7
f 9 4 10
f 10 4 3
f 12 13 11
f 11 13 9
f 14 12 16
f 16 12 15
f 18 19 17
f 17 19 20
f 22 23 21
f 21 23 24
f 26 27 25
f 25 27 28
f 30 31 29
f 29 31 32
f 33 34 36
f 36 34 35
f 37 38 40
f 40 38 39
f 41 42 6
f 6 42 43
f 6 43 7
f 7 43 44
f 45 34 46
f 46 34 33
f 48 49 47
f 47 49 50
f 52 53 51
f 51 53 54
f 56 52 55
f 55 52 51
f 58 59 57
f 57 59 60
f 61 62 4
f 4 62 1
f 64 65 63
f 63 65 66
f 68 69 67
f 67 69 70
f 72 73 71
f 71 73 74
f 76 77 75
f 75 77 78
f 53 79 54
f 54 79 80
f 82 83 81
f 81 83 84
f 85 86 52
f 52 86 53
f 57 60 87
f 87 60 88
f 89 90 43
f 43 90 44
f 43 42 89
f 89 42 91
f 40 39 92
f 92 39 93
f 94 70 64
f 64 70 69
f 13 61 9
f 9 61 4
f 25 28 69
f 69 28 95
f 96 25 68
f 68 25 69
f 98 99 97
f 97 99 100
f 101 102 104
f 104 102 103
f 106 30 105
f 105 30 29
f 51 54 107
f 107 54 108
f 54 80 108
f 108 80 109
f 111 112 110
f 110 112 113
f 115 5 114
f 114 5 116
f 115 41 5
f 5 41 6
f 36 35 111
f 111 35 117
f 35 118 117
f 117 118 119
f 34 120 35
f 35 120 118
f 34 45 120
f 120 45 121
f 125 126 124
f 124 126 127
f 128 129 14
f 14 129 130
f 33 131 46
f 46 131 132
f 133 94 63
f 63 94 64
f 134 135 137
f 137 135 136
f 139 140 138
f 138 140 141
f 77 142 78
f 78 142 143
f 144 145 20
f 20 145 146
f 148 149 147
f 147 149 72
f 151 152 150
f 150 152 153
f 82 101 83
f 83 101 104
f 101 82 155
f 155 82 154
f 156 157 58
f 58 157 59
f 158 68 147
f 147 68 67
f 159 146 15
f 15 146 16
f 68 158 96
f 96 158 160
f 129 66 130
f 130 66 65
f 162 163 161
f 161 163 164
f 166 167 165
f 165 167 168
f 170 171 169
f 169 171 172
f 174 171 173
f 173 171 170
f 176 177 175
f 175 177 178
f 180 181 179
f 179 181 24
f 182 183 21
f 21 183 184
f 81 185 82
f 82 185 154
f 186 187 188
f 188 187 144
f 158 71 160
f 160 71 189
f 190 135 157
f 157 135 59
f 169 172 139
f 139 172 140
f 147 72 158
f 158 72 71
f 192 193 191
f 191 193 194
f 167 166 49
f 49 166 195
f 196 190 50
f 50 190 157
f 197 198 200
f 200 198 199
f 21 24 182
f 182 24 181
f 146 159 20
f 20 159 17
f 182 181 81
f 81 181 185
f 201 185 180
f 180 185 181
f 202 203 83
f 83 203 84
f 205 206 204
f 204 206 85
f 207 22 184
f 184 22 21
f 179 24 208
f 208 24 23
f 208 209 179
f 179 209 205
f 209 210 205
f 205 210 206
f 212 206 211
f 211 206 210
f 179 205 180
f 180 205 204
f 213 176 88
f 88 176 214
f 86 85 212
f 212 85 206
f 193 217 218
f 217 219 218
f 218 219 220
f 219 18 220
f 220 18 17
f 19 221 20
f 20 221 144
f 222 223 225
f 225 223 224
f 175 226 176
f 176 226 214
f 227 87 214
f 214 87 88
f 220 17 228
f 228 17 159
f 134 213 60
f 60 213 88
f 138 229 151
f 151 229 152
f 193 192 210
f 210 192 211
f 230 194 218
f 218 194 193
f 231 232 228
f 228 232 230
f 233 234 91
f 91 234 89
f 235 236 93
f 93 236 92
f 230 232 234
f 234 232 237
f 47 238 48
f 48 238 239
f 240 191 235
f 235 191 236
f 5 8 116
f 116 8 241
f 242 243 189
f 189 243 160
f 244 245 98
f 98 245 99
f 156 246 47
f 47 246 238
f 76 247 77
f 77 247 248
f 250 125 249
f 249 125 124
f 252 253 251
f 251 253 254
f 111 110 36
f 36 110 255
f 256 33 255
f 255 33 36
f 257 258 154
f 154 258 155
f 63 169 133
f 133 169 139
f 66 170 63
f 63 170 169
f 173 170 129
f 129 170 66
f 129 128 173
f 173 128 259
f 128 260 259
f 259 260 261
f 213 134 262
f 262 134 137
f 263 264 186
f 186 264 187
f 112 265 113
f 113 265 266
f 11 267 268
f 234 233 230
f 230 233 194
f 153 269 70
f 70 269 67
f 175 178 165
f 165 178 141
f 150 153 94
f 94 153 70
f 271 221 270
f 270 221 207
f 269 153 272
f 272 153 152
f 121 45 109
f 109 45 108
f 47 50 156
f 156 50 157
f 57 273 58
f 58 273 274
f 145 275 260
f 260 275 261
f 276 149 143
f 143 149 78
f 148 269 75
f 75 269 272
f 207 277 270
f 270 277 278
f 195 196 49
f 49 196 50
f 59 135 60
f 60 135 134
f 83 104 202
f 202 104 279
f 149 148 78
f 78 148 75
f 247 278 248
f 248 278 277
f 183 182 84
f 84 182 81
f 48 239 281
f 281 239 282
f 227 223 283
f 283 223 222
f 223 226 224
f 224 226 168
f 281 282 224
f 224 282 225
f 165 168 175
f 175 168 226
f 264 263 138
f 138 263 229
f 14 16 128
f 128 16 260
f 220 228 218
f 218 228 230
f 87 227 284
f 284 227 283
f 260 16 145
f 145 16 146
f 244 98 258
f 258 98 155
f 58 274 156
f 156 274 246
f 107 285 51
f 51 285 55
f 243 286 160
f 160 286 96
f 234 237 89
f 89 237 90
f 46 132 107
f 107 132 285
f 253 252 249
f 249 252 250
f 286 26 96
f 96 26 25
f 106 105 287
f 287 105 288
f 272 152 289
f 289 152 229
f 138 151 139
f 139 151 133
f 183 290 161
f 161 290 162
f 291 292 277
f 277 292 293
f 151 150 133
f 133 150 94
f 262 275 177
f 177 275 187
f 144 187 145
f 145 187 275
f 273 57 284
f 284 57 87
f 174 136 190
f 190 136 135
f 111 117 112
f 112 117 38
f 117 119 38
f 38 119 123
f 112 38 265
f 265 38 37
f 287 288 254
f 254 288 251
f 228 159 231
f 231 159 15
f 223 227 226
f 226 227 214
f 147 67 148
f 148 67 269
f 224 168 281
f 281 168 167
f 199 163 200
f 200 163 162
f 45 46 108
f 108 46 107
f 281 167 48
f 48 167 49
f 161 164 291
f 291 164 292
f 38 123 39
f 293 294 277
f 277 294 248
f 284 283 296
f 296 283 295
f 284 296 273
f 273 296 297
f 274 273 298
f 298 273 297
f 246 274 299
f 299 274 298
f 283 222 295
f 295 222 300
f 222 225 300
f 300 225 301
f 301 225 302
f 302 225 282
f 303 304 300
f 300 304 295
f 306 307 305
f 305 307 308
f 309 310 308
f 308 310 305
f 308 307 312
f 312 307 311
f 313 314 312
f 312 314 315
f 311 316 312
f 312 316 313
f 317 304 311
f 311 304 316
f 315 309 312
f 312 309 308
f 318 319 321
f 321 319 320
f 319 318 309
f 309 318 310
f 311 307 317
f 317 307 306
f 306 297 317
f 317 297 296
f 306 322 297
f 297 322 298
f 305 323 306
f 306 323 322
f 323 305 324
f 324 305 310
f 304 317 295
f 295 317 296
f 318 325 310
f 310 325 324
f 323 324 326
f 326 324 327
f 324 325 327
f 327 325 328
f 326 327 329
f 329 327 330
f 329 331 326
f 326 331 332
f 333 330 328
f 328 330 327
f 323 326 322
f 322 326 332
f 322 332 298
f 298 332 299
f 325 318 334
f 334 318 321
f 313 316 335
f 335 316 304
f 335 336 313
f 313 336 314
f 304 303 335
f 335 303 337
f 336 335 338
f 338 335 337
f 336 339 314
f 314 339 340
f 246 299 238
f 238 299 341
f 239 342 282
f 282 342 302
f 342 239 341
f 341 239 238
f 341 331 342
f 342 331 343
f 331 329 343
f 343 329 344
f 342 343 302
f 302 343 345
f 341 299 331
f 331 299 332
f 346 301 345
f 345 301 302
f 346 303 301
f 301 303 300
f 347 337 346
f 346 337 303
f 347 346 348
f 348 346 345
f 349 347 350
f 350 347 348
f 343 344 345
f 345 344 348
f 344 351 348
f 348 351 350
f 337 347 338
f 338 347 349
f 353 338 352
f 352 338 349
f 352 355 354
f 354 355 356
f 352 349 355
f 355 349 350
f 352 354 353
f 353 354 334
f 353 334 339
f 339 334 321
f 339 336 353
f 353 336 338
f 329 330 344
f 344 330 351
f 356 351 333
f 333 351 330
f 356 355 351
f 351 355 350
f 354 356 328
f 328 356 333
f 328 325 354
f 354 325 334
f 309 315 319
f 319 315 320
f 320 340 321
f 321 340 339
f 320 315 340
f 340 315 314
f 137 136 261
f 261 136 259
f 140 166 141
f 141 166 165
f 172 171 195
f 195 171 196
f 171 174 196
f 196 174 190
f 178 177 264
f 264 177 187
f 172 195 140
f 140 195 166
f 137 261 262
f 262 261 275
f 178 264 141
f 141 264 138
f 262 177 213
f 213 177 176
f 136 174 259
f 259 174 173
f 358 359 357
f 357 359 360
f 362 363 361
f 361 363 364
f 361 364 365
f 365 364 366
f 367 368 370
f 370 368 369
f 76 371 247
f 247 371 372
f 373 374 362
f 362 374 363
f 376 377 375
f 375 377 378
f 289 229 380
f 380 229 379
f 381 379 263
f 263 379 229
f 383 384 382
f 382 384 385
f 386 368 374
f 374 368 363
f 76 289 371
f 371 289 380
f 377 376 359
f 359 376 387
f 388 386 360
f 360 386 374
f 389 383 366
f 366 383 390
f 392 393 391
f 391 393 394
f 383 382 390
f 390 382 395
f 396 365 390
f 390 365 366
f 389 366 367
f 367 366 364
f 357 397 358
f 358 397 398
f 373 399 357
f 357 399 397
f 389 367 400
f 400 367 370
f 382 385 375
f 375 385 372
f 357 360 373
f 373 360 374
f 361 401 362
f 362 401 402
f 387 388 359
f 359 388 360
f 363 368 364
f 364 368 367
f 358 398 403
f 403 398 404
f 396 392 405
f 405 392 391
f 392 395 393
f 393 395 378
f 393 403 394
f 394 403 404
f 375 378 382
f 382 378 395
f 365 396 406
f 406 396 405
f 362 402 373
f 373 402 399
f 271 270 400
f 400 270 384
f 401 361 406
f 406 361 365
f 381 369 386
f 386 369 368
f 392 396 395
f 395 396 390
f 393 378 403
f 403 378 377
f 403 377 358
f 358 377 359
f 406 405 408
f 408 405 407
f 406 408 401
f 401 408 409
f 401 409 402
f 402 409 410
f 402 410 399
f 399 410 411
f 405 391 407
f 407 391 412
f 391 394 412
f 412 394 413
f 394 404 413
f 413 404 414
f 415 416 412
f 412 416 407
f 418 419 417
f 417 419 420
f 421 422 418
f 418 422 419
f 419 422 424
f 424 422 423
f 425 426 424
f 424 426 427
f 423 428 424
f 424 428 425
f 427 420 424
f 424 420 419
f 420 429 417
f 417 429 430
f 423 422 431
f 431 422 421
f 421 409 431
f 431 409 408
f 421 432 409
f 409 432 410
f 418 433 421
f 421 433 432
f 434 433 417
f 417 433 418
f 431 416 423
f 423 416 428
f 416 431 407
f 407 431 408
f 435 434 430
f 430 434 417
f 433 434 436
f 436 434 437
f 434 435 437
f 437 435 438
f 436 437 439
f 439 437 440
f 439 441 436
f 436 441 442
f 438 443 437
f 437 443 440
f 436 442 433
f 433 442 432
f 432 442 410
f 410 442 411
f 435 430 445
f 445 430 444
f 430 429 444
f 444 429 446
f 425 428 447
f 447 428 416
f 426 425 448
f 448 425 447
f 416 415 447
f 447 415 449
f 447 449 448
f 448 449 450
f 451 452 448
f 448 452 426
f 446 452 444
f 444 452 451
f 399 411 397
f 397 411 453
f 398 454 404
f 404 454 414
f 454 398 453
f 453 398 397
f 453 441 454
f 454 441 455
f 441 439 455
f 455 439 456
f 454 455 414
f 414 455 457
f 441 453 442
f 442 453 411
f 458 413 457
f 457 413 414
f 458 415 413
f 413 415 412
f 458 459 415
f 415 459 449
f 459 458 460
f 460 458 457
f 461 459 462
f 462 459 460
f 455 456 457
f 457 456 460
f 456 463 460
f 460 463 462
f 459 461 449
f 449 461 450
f 465 450 464
f 464 450 461
f 464 467 466
f 466 467 468
f 464 461 467
f 467 461 462
f 464 466 465
f 465 466 445
f 465 445 451
f 451 445 444
f 451 448 465
f 465 448 450
f 439 440 456
f 456 440 463
f 468 463 443
f 443 463 440
f 468 467 463
f 463 467 462
f 466 468 438
f 438 468 443
f 438 435 466
f 466 435 445
f 420 427 429
f 429 427 446
f 446 427 452
f 452 427 426
f 370 369 188
f 188 369 186
f 371 376 372
f 372 376 375
f 380 379 387
f 387 379 388
f 379 381 388
f 388 381 386
f 385 384 278
f 278 384 270
f 380 387 371
f 371 387 376
f 400 370 271
f 271 370 188
f 385 278 372
f 372 278 247
f 400 384 389
f 389 384 383
f 369 381 186
f 186 381 263
f 221 271 144
f 144 271 188
f 221 19 207
f 207 19 22
f 19 18 22
f 22 18 23
f 18 219 23
f 23 219 208
f 469 470 472
f 472 470 471
f 474 475 473
f 473 475 476
f 473 476 477
f 477 476 478
f 480 481 479
f 479 481 482
f 483 484 474
f 474 484 475
f 486 487 485
f 485 487 488
f 489 490 77
f 77 490 142
f 491 489 248
f 248 489 77
f 493 494 492
f 492 494 495
f 496 480 484
f 484 480 475
f 486 497 487
f 487 497 471
f 498 496 472
f 472 496 484
f 499 493 478
f 478 493 500
f 501 502 504
f 504 502 503
f 493 492 500
f 500 492 505
f 506 477 500
f 500 477 478
f 499 478 479
f 479 478 476
f 469 507 470
f 470 507 508
f 483 509 469
f 469 509 507
f 479 482 499
f 499 482 510
f 492 495 485
f 485 495 511
f 483 469 484
f 484 469 472
f 473 512 474
f 474 512 513
f 497 498 471
f 471 498 472
f 475 480 476
f 476 480 479
f 470 508 514
f 514 508 515
f 506 502 516
f 516 502 501
f 503 502 488
f 488 502 505
f 514 515 503
f 503 515 504
f 485 488 492
f 492 488 505
f 477 506 517
f 517 506 516
f 474 513 483
f 483 513 509
f 510 292 494
f 494 292 164
f 512 473 517
f 517 473 477
f 491 481 496
f 496 481 480
f 502 506 505
f 505 506 500
f 503 488 514
f 514 488 487
f 514 487 470
f 470 487 471
f 517 516 519
f 519 516 518
f 517 519 512
f 512 519 520
f 512 520 513
f 513 520 521
f 513 521 509
f 509 521 522
f 516 501 518
f 518 501 523
f 501 504 523
f 523 504 524
f 524 504 525
f 525 504 515
f 526 527 523
f 523 527 518
f 529 530 528
f 528 530 531
f 532 533 529
f 529 533 530
f 530 533 535
f 535 533 534
f 536 537 535
f 535 537 538
f 534 539 535
f 535 539 536
f 538 531 535
f 535 531 530
f 540 541 531
f 531 541 528
f 533 532 534
f 534 532 542
f 532 520 542
f 542 520 519
f 532 543 520
f 520 543 521
f 529 544 532
f 532 544 543
f 544 529 545
f 545 529 528
f 534 542 539
f 539 542 527
f 527 542 518
f 518 542 519
f 541 546 528
f 528 546 545
f 547 544 548
f 548 544 545
f 546 549 545
f 545 549 548
f 550 547 551
f 551 547 548
f 547 550 553
f 553 550 552
f 549 554 548
f 548 554 551
f 544 547 543
f 543 547 553
f 543 553 521
f 521 553 522
f 546 541 556
f 556 541 555
f 541 540 555
f 555 540 557
f 536 539 558
f 558 539 527
f 537 536 559
f 559 536 558
f 527 526 558
f 558 526 560
f 559 558 561
f 561 558 560
f 559 562 537
f 537 562 563
f 557 563 555
f 555 563 562
f 509 522 507
f 507 522 564
f 508 565 515
f 515 565 525
f 565 508 564
f 564 508 507
f 564 552 565
f 565 552 566
f 552 550 566
f 566 550 567
f 565 566 525
f 525 566 568
f 564 522 552
f 552 522 553
f 569 524 568
f 568 524 525
f 569 526 524
f 524 526 523
f 570 560 569
f 569 560 526
f 570 569 571
f 571 569 568
f 572 570 573
f 573 570 571
f 566 567 568
f 568 567 571
f 567 574 571
f 571 574 573
f 570 572 560
f 560 572 561
f 576 561 575
f 575 561 572
f 575 578 577
f 577 578 579
f 575 572 578
f 578 572 573
f 575 577 576
f 576 577 556
f 576 556 562
f 562 556 555
f 562 559 576
f 576 559 561
f 550 551 567
f 567 551 574
f 579 574 554
f 554 574 551
f 579 578 574
f 574 578 573
f 579 554 577
f 577 554 549
f 549 546 577
f 577 546 556
f 531 538 540
f 540 538 557
f 557 538 563
f 563 538 537
f 481 294 482
f 482 294 293
f 580 486 511
f 511 486 485
f 490 489 497
f 497 489 498
f 489 491 498
f 498 491 496
f 163 495 164
f 164 495 494
f 580 490 486
f 486 490 497
f 482 293 510
f 510 293 292
f 495 163 511
f 511 163 199
f 494 493 510
f 510 493 499
f 481 491 294
f 294 491 248
f 582 583 581
f 581 583 584
f 586 587 585
f 585 587 588
f 585 588 589
f 589 588 590
f 592 593 591
f 591 593 594
f 595 596 598
f 598 596 597
f 599 600 586
f 586 600 587
f 601 602 604
f 604 602 603
f 605 606 608
f 608 606 607
f 609 607 200
f 200 607 606
f 610 611 613
f 613 611 612
f 600 614 587
f 587 614 592
f 596 605 597
f 597 605 608
f 602 615 603
f 603 615 583
f 616 614 584
f 584 614 600
f 611 618 617
f 617 618 590
f 620 621 619
f 619 621 622
f 610 623 611
f 611 623 618
f 624 589 618
f 618 589 590
f 617 590 591
f 591 590 588
f 581 625 582
f 582 625 626
f 599 627 581
f 581 627 625
f 591 594 617
f 617 594 628
f 601 610 598
f 598 610 613
f 581 584 599
f 599 584 600
f 585 629 586
f 586 629 630
f 615 616 583
f 583 616 584
f 587 592 588
f 588 592 591
f 582 626 631
f 631 626 632
f 624 620 633
f 633 620 619
f 621 620 604
f 604 620 623
f 631 632 621
f 621 632 622
f 610 601 623
f 623 601 604
f 589 624 634
f 634 624 633
f 586 630 599
f 599 630 627
f 203 202 628
f 628 202 612
f 629 585 634
f 634 585 589
f 609 593 614
f 614 593 592
f 620 624 623
f 623 624 618
f 631 621 603
f 603 621 604
f 582 631 583
f 583 631 603
f 634 633 636
f 636 633 635
f 634 636 629
f 629 636 637
f 629 637 630
f 630 637 638
f 630 638 627
f 627 638 639
f 633 619 635
f 635 619 640
f 619 622 640
f 640 622 641
f 641 622 642
f 642 622 632
f 644 635 643
f 643 635 640
f 645 646 648
f 648 646 647
f 649 650 646
f 646 650 647
f 647 650 652
f 652 650 651
f 652 653 655
f 655 653 654
f 651 656 652
f 652 656 653
f 655 648 652
f 652 648 647
f 648 657 645
f 645 657 658
f 650 649 651
f 651 649 659
f 649 637 659
f 659 637 636
f 649 660 637
f 637 660 638
f 661 660 646
f 646 660 649
f 662 661 645
f 645 661 646
f 651 659 656
f 656 659 644
f 644 659 635
f 635 659 636
f 663 662 658
f 658 662 645
f 664 661 665
f 665 661 662
f 663 666 662
f 662 666 665
f 667 664 668
f 668 664 665
f 664 667 670
f 670 667 669
f 666 671 665
f 665 671 668
f 661 664 660
f 660 664 670
f 660 670 638
f 638 670 639
f 658 672 663
f 663 672 673
f 658 657 672
f 672 657 674
f 653 656 675
f 675 656 644
f 653 675 654
f 654 675 676
f 675 644 677
f 677 644 643
f 676 675 678
f 678 675 677
f 679 680 676
f 676 680 654
f 674 680 672
f 672 680 679
f 627 639 625
f 625 639 681
f 626 682 632
f 632 682 642
f 681 682 625
f 625 682 626
f 669 683 681
f 681 683 682
f 667 684 669
f 669 684 683
f 682 683 642
f 642 683 685
f 681 639 669
f 669 639 670
f 686 641 685
f 685 641 642
f 641 686 640
f 640 686 643
f 686 687 643
f 643 687 677
f 687 686 688
f 688 686 685
f 689 687 690
f 690 687 688
f 683 684 685
f 685 684 688
f 684 691 688
f 688 691 690
f 687 689 677
f 677 689 678
f 693 678 692
f 692 678 689
f 692 695 694
f 694 695 696
f 692 689 695
f 695 689 690
f 692 694 693
f 693 694 673
f 693 673 679
f 679 673 672
f 679 676 693
f 693 676 678
f 684 667 691
f 691 667 668
f 696 691 671
f 671 691 668
f 696 695 691
f 691 695 690
f 694 696 666
f 666 696 671
f 666 663 694
f 694 663 673
f 648 655 657
f 657 655 674
f 674 655 680
f 680 655 654
f 593 162 594
f 594 162 290
f 598 597 601
f 601 597 602
f 615 608 616
f 616 608 607
f 607 609 616
f 616 609 614
f 697 595 613
f 613 595 598
f 597 608 602
f 602 608 615
f 594 290 628
f 628 290 203
f 628 612 617
f 617 612 611
f 593 609 162
f 162 609 200
f 105 29 698
f 698 29 699
f 268 126 701
f 701 126 700
f 126 125 700
f 700 125 702
f 252 703 250
f 250 703 704
f 32 268 705
f 705 268 701
f 288 105 706
f 706 105 698
f 29 32 699
f 699 32 705
f 707 251 706
f 706 251 288
f 250 704 125
f 125 704 702
f 703 252 707
f 707 252 251
f 706 708 707
f 707 708 709
f 707 709 703
f 703 709 710
f 703 710 704
f 704 710 711
f 704 711 702
f 702 711 712
f 706 698 708
f 708 698 713
f 698 699 713
f 713 699 714
f 699 705 714
f 714 705 715
f 717 708 716
f 716 708 713
f 719 720 718
f 718 720 721
f 722 723 719
f 719 723 720
f 724 725 723
f 723 725 720
f 724 726 725
f 725 726 727
f 728 721 725
f 725 721 720
f 721 728 729
f 729 728 730
f 729 731 721
f 721 731 718
f 724 723 732
f 732 723 722
f 722 710 732
f 732 710 709
f 722 733 710
f 710 733 711
f 719 734 722
f 722 734 733
f 734 719 735
f 735 719 718
f 724 732 726
f 726 732 717
f 717 732 708
f 708 732 709
f 731 736 718
f 718 736 735
f 737 734 738
f 738 734 735
f 736 739 735
f 735 739 738
f 740 737 741
f 741 737 738
f 737 740 743
f 743 740 742
f 739 744 738
f 738 744 741
f 734 737 733
f 733 737 743
f 733 743 711
f 711 743 712
f 736 731 746
f 746 731 745
f 731 729 745
f 745 729 730
f 727 726 747
f 747 726 717
f 748 727 749
f 749 727 747
f 747 717 750
f 750 717 716
f 749 747 751
f 751 747 750
f 749 752 748
f 748 752 753
f 730 753 745
f 745 753 752
f 728 725 748
f 748 725 727
f 730 728 753
f 753 728 748
f 700 702 754
f 754 702 712
f 705 701 715
f 715 701 755
f 754 755 700
f 700 755 701
f 742 756 754
f 754 756 755
f 740 757 742
f 742 757 756
f 755 756 715
f 715 756 758
f 754 712 742
f 742 712 743
f 759 714 758
f 758 714 715
f 714 759 713
f 713 759 716
f 759 760 716
f 716 760 750
f 760 759 761
f 761 759 758
f 762 760 763
f 763 760 761
f 756 757 758
f 758 757 761
f 757 764 761
f 761 764 763
f 760 762 750
f 750 762 751
f 766 751 765
f 765 751 762
f 767 765 769
f 769 765 768
f 765 762 768
f 768 762 763
f 765 767 766
f 766 767 746
f 766 746 752
f 752 746 745
f 752 749 766
f 766 749 751
f 757 740 764
f 764 740 741
f 769 764 744
f 744 764 741
f 769 768 764
f 764 768 763
f 767 769 739
f 739 769 744
f 739 736 767
f 767 736 746
f 219 217 208
f 208 217 209
f 209 217 210
f 210 217 193
f 198 580 199
f 199 580 511
f 76 75 289
f 289 75 272
f 277 207 291
f 291 207 184
f 290 183 203
f 203 183 84
f 490 580 142
f 142 580 198
f 142 198 143
f 143 198 197
f 149 276 72
f 72 276 73
f 104 103 279
f 279 103 770
f 770 596 279
f 279 596 595
f 605 596 771
f 771 596 770
f 771 770 772
f 772 770 103
f 772 103 773
f 773 103 102
f 155 774 101
f 101 774 102
f 773 102 97
f 97 102 774
f 775 773 100
f 100 773 97
f 773 775 772
f 772 775 776
f 772 776 771
f 771 776 777
f 200 606 197
f 197 606 777
f 189 71 778
f 778 71 74
f 97 774 98
f 98 774 155
f 183 161 184
f 184 161 291
f 777 276 197
f 197 276 143
f 777 606 771
f 771 606 605
f 613 612 697
f 697 612 202
f 595 697 279
f 279 697 202
f 73 276 776
f 776 276 777
f 776 775 73
f 73 775 74
f 100 778 775
f 775 778 74
f 778 100 189
f 189 100 99
f 245 242 99
f 99 242 189
f 131 33 256
f 28 1 95
f 95 1 62
f 27 2 28
f 28 2 1
f 265 115 266
f 266 115 114
f 95 62 69
f 69 62 64
f 62 61 64
f 64 61 65
f 61 13 65
f 65 13 130
f 13 12 130
f 130 12 14
f 31 11 32
f 32 11 268
f 15 12 31
f 31 12 11
f 31 30 15
f 15 30 231
f 30 106 231
f 231 106 232
f 287 237 106
f 106 237 232
f 254 90 287
f 287 90 237
f 253 44 254
f 254 44 90
f 253 249 44
f 44 249 7
f 267 127 268
f 268 127 126
f 10 3 241
f 241 3 116
f 3 2 116
f 116 2 114
f 2 27 114
f 114 27 266
f 27 26 266
f 266 26 113
f 26 286 113
f 113 286 110
f 286 243 110
f 110 243 255
f 243 242 255
f 255 242 256
f 242 245 256
f 256 245 131
f 245 244 131
f 131 244 132
f 265 37 115
f 115 37 41
f 41 37 42
f 42 37 40
f 92 91 40
f 40 91 42
f 236 233 92
f 92 233 91
f 191 194 236
f 236 194 233
f 258 285 244
f 244 285 132
f 257 55 258
f 258 55 285
f 257 154 201
f 201 154 185
f 56 201 204
f 204 201 180
f 55 257 56
f 56 257 201
f 204 85 56
f 56 85 52
f 86 122 53
f 53 122 79
f 212 215 86
f 86 215 122
f 211 216 212
f 212 216 215
f 192 280 211
f 211 280 216
f 191 240 192
f 192 240 280
f 249 124 7
f 7 124 8
f 124 127 8
f 8 127 241
f 127 267 241
f 241 267 10
f 10 267 9
f 9 267 11
