o left
v -0.127789 0.201143 0.642180
v -0.130587 0.217750 0.642449
v -0.126417 0.209305 0.647344
v -0.120826 0.193547 0.641430
v -0.118400 0.237964 0.661013
v -0.105692 0.243744 0.656929
v -0.105671 0.217857 0.672024
v -0.116104 0.214587 0.678261
v -0.117510 0.185604 0.645858
v -0.121383 0.198503 0.657803
v -0.119734 0.179958 0.648566
v -0.116532 0.172395 0.626770
v -0.110030 0.172752 0.634295
v -0.118745 0.162737 0.622329
v -0.125176 0.180845 0.622571
v -0.131060 0.164148 0.618701
v -0.158178 0.190570 0.627091
v -0.171265 0.196529 0.641162
v -0.171230 0.172080 0.647066
v -0.155318 0.171232 0.632375
v -0.173056 0.192711 0.665015
v -0.169516 0.183059 0.655074
v -0.174353 0.203012 0.647823
v -0.179333 0.209968 0.654853
v -0.141217 0.215180 0.651231
v -0.142422 0.230562 0.651575
v -0.136985 0.225442 0.645080
v -0.135576 0.211304 0.645896
v -0.111056 0.182454 0.655057
v -0.116095 0.193027 0.638958
v -0.117872 0.184508 0.639264
v -0.114474 0.176170 0.658680
v -0.152066 0.266423 0.663820
v -0.154817 0.284504 0.658932
v -0.149744 0.282765 0.653170
v -0.147594 0.268261 0.659398
v -0.115311 0.264586 0.640499
v -0.126088 0.279369 0.637977
v -0.127797 0.281180 0.620123
v -0.114018 0.267375 0.622861
v -0.108025 0.254945 0.647292
v -0.102014 0.255523 0.634173
v -0.098253 0.241726 0.646195
v -0.100920 0.217653 0.661970
v -0.167620 0.287351 0.669854
v -0.166821 0.274206 0.676153
v -0.101940 0.120476 0.657902
v -0.103584 0.123290 0.664357
v -0.107018 0.125085 0.662317
v -0.104423 0.121977 0.656819
v -0.187959 0.271112 0.670075
v -0.197509 0.265326 0.662991
v -0.199063 0.274717 0.661858
v -0.189856 0.280432 0.666437
v -0.184785 0.259319 0.673445
v -0.193639 0.252172 0.661922
v -0.107170 0.105832 0.654878
v -0.103241 0.110655 0.653953
v -0.108078 0.110801 0.651088
v -0.113053 0.107289 0.651579
v -0.112537 0.180234 0.638192
v -0.122587 0.188585 0.642823
v -0.114220 0.156281 0.636928
v -0.118330 0.169774 0.639022
v -0.110614 0.167277 0.633200
v -0.111292 0.156058 0.630754
v -0.137947 0.186570 0.657611
v -0.141923 0.202406 0.654957
v -0.137811 0.196164 0.648901
v -0.132425 0.178971 0.650527
v -0.145934 0.212641 0.670779
v -0.141295 0.196571 0.671250
v -0.142046 0.203472 0.680164
v -0.146742 0.213390 0.678759
v -0.142615 0.165778 0.665962
v -0.137858 0.159223 0.664405
v -0.136886 0.165847 0.669139
v -0.140695 0.170673 0.670461
v -0.201388 0.283336 0.659172
v -0.189930 0.288110 0.661174
v -0.175309 0.208537 0.682038
v -0.172458 0.217520 0.690718
v -0.166482 0.202992 0.699024
v -0.169047 0.200481 0.688672
v -0.199973 0.258487 0.651329
v -0.203463 0.268083 0.652431
v -0.112108 0.104542 0.659928
v -0.118570 0.105389 0.656947
v -0.102708 0.237562 0.628070
v -0.100093 0.216074 0.648094
v -0.111865 0.254641 0.616609
v -0.125874 0.266603 0.612650
v -0.135769 0.276119 0.608861
v -0.125137 0.165740 0.642973
v -0.132053 0.197552 0.645631
v -0.144117 0.219813 0.656499
v -0.153163 0.230559 0.692191
v -0.157474 0.244600 0.690211
v -0.149924 0.236256 0.681911
v -0.149292 0.226819 0.684335
v -0.164206 0.220955 0.699183
v -0.156514 0.218774 0.697457
v -0.151562 0.205831 0.702149
v -0.159559 0.206581 0.703480
v -0.105095 0.186001 0.654165
v -0.111368 0.201249 0.637868
v -0.177707 0.276435 0.676356
v -0.177444 0.286072 0.670533
v -0.179794 0.292028 0.662188
v -0.143709 0.249787 0.657484
v -0.143775 0.268561 0.654982
v -0.134887 0.265827 0.650828
v -0.139619 0.247853 0.652389
v -0.130401 0.236272 0.646373
v -0.121083 0.251732 0.649562
v -0.127820 0.224632 0.658195
v -0.139650 0.283634 0.645535
v -0.152013 0.294317 0.647153
v -0.143886 0.292600 0.638755
v -0.161806 0.295671 0.654964
v -0.171370 0.295627 0.660969
v -0.209235 0.277324 0.649751
v -0.137707 0.288969 0.630537
v -0.109448 0.197936 0.680136
v -0.105750 0.186859 0.677661
v -0.113534 0.182273 0.675373
v -0.118288 0.192681 0.678699
v -0.121402 0.150672 0.622094
v -0.112873 0.152236 0.625685
v -0.111226 0.165866 0.626357
v -0.152851 0.255985 0.672857
v -0.161382 0.261891 0.681542
v -0.120376 0.153076 0.641981
v -0.116128 0.110757 0.648842
v -0.110713 0.114372 0.648034
v -0.116591 0.133239 0.634461
v -0.123850 0.130047 0.635051
v -0.124542 0.142391 0.651845
v -0.119064 0.147888 0.647138
v -0.119022 0.144831 0.650683
v -0.124495 0.141243 0.654856
v -0.140652 0.176300 0.677831
v -0.142076 0.179110 0.679528
v -0.147424 0.153794 0.640111
v -0.143195 0.152266 0.622834
v -0.145355 0.168614 0.619810
v -0.141453 0.192893 0.664404
v -0.139773 0.178390 0.666700
v -0.140044 0.182228 0.671729
v -0.128782 0.161776 0.645777
v -0.126862 0.151809 0.645837
v -0.132487 0.156151 0.648664
v -0.132712 0.166064 0.650650
v -0.178487 0.231756 0.683256
v -0.168821 0.238143 0.695512
v -0.101478 0.115958 0.654472
v -0.104879 0.116690 0.652810
v -0.144596 0.208489 0.662385
v -0.147217 0.187201 0.623163
v -0.147308 0.223997 0.662426
v -0.156492 0.176892 0.687075
v -0.150312 0.179977 0.690991
v -0.144835 0.178107 0.692553
v -0.149235 0.174380 0.690403
v -0.119852 0.125700 0.665223
v -0.114409 0.126797 0.665179
v -0.111508 0.126675 0.667977
v -0.116785 0.122876 0.669919
v -0.113983 0.148654 0.641759
v -0.110599 0.147371 0.634911
v -0.109800 0.141301 0.641001
v -0.113849 0.143059 0.646632
v -0.112005 0.143767 0.630024
v -0.112171 0.137052 0.636441
v -0.125096 0.120852 0.663786
v -0.126319 0.112630 0.658599
v -0.132763 0.130547 0.644733
v -0.129917 0.133670 0.652179
v -0.185550 0.226866 0.648428
v -0.187008 0.233226 0.658817
v -0.179258 0.216898 0.666257
v -0.172593 0.201989 0.675993
v -0.164389 0.188192 0.684018
v -0.168904 0.175555 0.673791
v -0.181098 0.222581 0.673195
v -0.132956 0.141149 0.648689
v -0.137585 0.143150 0.638995
v -0.140658 0.144981 0.648127
v -0.150504 0.227188 0.671482
v -0.107339 0.118492 0.649897
v -0.158967 0.257021 0.610292
v -0.173508 0.258277 0.620577
v -0.168720 0.247197 0.621288
v -0.151227 0.245666 0.612842
v -0.108138 0.125514 0.659984
v -0.105692 0.123417 0.654594
v -0.143104 0.181818 0.687148
v -0.141457 0.178508 0.685023
v -0.141835 0.181057 0.688176
v -0.141322 0.181230 0.691730
v -0.188593 0.238353 0.663880
v -0.162395 0.191384 0.701762
v -0.165432 0.192805 0.694564
v -0.195044 0.247035 0.652561
v -0.190932 0.241770 0.643143
v -0.195054 0.252486 0.639664
v -0.157055 0.165223 0.665291
v -0.178091 0.221125 0.642082
v -0.183983 0.237265 0.637321
v -0.188595 0.250513 0.634034
v -0.193725 0.258552 0.629672
v -0.199857 0.260447 0.636958
v -0.121822 0.110542 0.653197
v -0.122262 0.107664 0.665154
v -0.204371 0.270257 0.633479
v -0.198315 0.266358 0.624685
v -0.172235 0.233235 0.630374
v -0.164325 0.227610 0.623166
v -0.171776 0.216439 0.635137
v -0.162505 0.210371 0.627420
v -0.167119 0.155332 0.651255
v -0.100117 0.110307 0.676866
v -0.113693 0.113449 0.672904
v -0.110818 0.119477 0.672596
v -0.098505 0.113725 0.678838
v -0.120834 0.116143 0.669848
v -0.115175 0.108457 0.668130
v -0.145070 0.205957 0.619927
v -0.129000 0.145948 0.649670
v -0.139873 0.225695 0.616701
v -0.128269 0.197733 0.622865
v -0.120915 0.213404 0.623619
v -0.131843 0.248090 0.613046
v -0.115404 0.231131 0.617746
v -0.149491 0.270074 0.606732
v -0.142891 0.259638 0.610579
v -0.106894 0.217984 0.632779
v -0.091002 0.117529 0.667490
v -0.093313 0.120134 0.672745
v -0.164583 0.266245 0.607412
v -0.122637 0.208126 0.672230
v -0.148787 0.239859 0.668834
v -0.147022 0.236936 0.661793
v -0.159576 0.252281 0.688849
v -0.151206 0.245118 0.678888
v -0.090768 0.113423 0.663299
v -0.133162 0.159911 0.666546
v -0.134737 0.166306 0.667774
v -0.103221 0.201793 0.674733
v -0.099530 0.191425 0.674535
v -0.094205 0.186846 0.662026
v -0.094689 0.188679 0.669066
v -0.099730 0.201838 0.665004
v -0.097521 0.200038 0.655718
v -0.145661 0.251286 0.661471
v -0.149583 0.252350 0.666107
v -0.181422 0.246838 0.678056
v -0.171409 0.251979 0.690974
v -0.119242 0.141386 0.627472
v -0.131097 0.148691 0.620610
v -0.127588 0.139011 0.627223
v -0.131069 0.130590 0.636767
v -0.126417 0.140458 0.650662
v -0.130834 0.140183 0.649734
v -0.124385 0.258781 0.650612
v -0.132596 0.243196 0.646326
v -0.119278 0.189041 0.667698
v -0.116667 0.178773 0.668825
v -0.135399 0.174586 0.657483
v -0.146624 0.155723 0.664622
v -0.153483 0.149088 0.657701
v -0.137320 0.161440 0.657292
v -0.094397 0.105878 0.663221
v -0.091697 0.109756 0.662404
v -0.135476 0.139756 0.629107
v -0.142126 0.189309 0.680630
v -0.147414 0.164753 0.669206
v -0.137661 0.158676 0.666089
v -0.156782 0.196228 0.705276
v -0.179213 0.267216 0.616508
v -0.106716 0.124440 0.670827
v -0.096231 0.119592 0.676712
v -0.101339 0.107396 0.673140
v -0.099793 0.104420 0.666805
v -0.174425 0.263795 0.684922
v -0.146265 0.233885 0.657584
v -0.104322 0.203338 0.646731
v -0.099425 0.186081 0.655080
v -0.135230 0.153416 0.655959
v -0.160136 0.184919 0.689103
v -0.157585 0.167983 0.680172
v -0.147426 0.164923 0.685195
v -0.141890 0.161881 0.678531
v -0.135392 0.164554 0.672605
v -0.094364 0.106973 0.676862
v -0.093543 0.104488 0.671294
v -0.088145 0.105151 0.667080
v -0.085769 0.108129 0.666509
v -0.086019 0.112818 0.667233
v -0.092882 0.108895 0.680966
v -0.091267 0.111463 0.683345
v -0.091294 0.117857 0.680375
v -0.086798 0.105876 0.684471
v -0.084424 0.100654 0.681297
v -0.070944 0.098228 0.673066
v -0.078266 0.099059 0.670915
v -0.076818 0.097041 0.673284
v -0.071011 0.095495 0.676210
v -0.065837 0.093345 0.680328
v -0.064985 0.095767 0.676982
v -0.081599 0.098181 0.676067
v -0.074399 0.095001 0.679887
v -0.076425 0.096368 0.684518
v -0.070119 0.093703 0.687300
v -0.068590 0.091675 0.683578
v -0.081109 0.098257 0.681276
v -0.083908 0.100139 0.675423
v -0.061396 0.093550 0.681555
v -0.062785 0.091111 0.682666
v -0.064657 0.090402 0.685840
v -0.060549 0.091816 0.687823
v -0.079855 0.105776 0.667960
v -0.070060 0.101177 0.672444
v -0.064421 0.099172 0.677722
v -0.060954 0.096801 0.682363
v -0.069066 0.104803 0.675253
v -0.065023 0.101980 0.679646
v -0.062399 0.100467 0.684211
v -0.069840 0.107292 0.679433
v -0.065943 0.104223 0.682822
v -0.082656 0.115244 0.672079
v -0.081917 0.111520 0.668314
v -0.063026 0.102936 0.684906
v -0.060174 0.094584 0.689173
v -0.078628 0.099884 0.686745
v -0.069886 0.097448 0.689216
v -0.078468 0.102606 0.688130
v -0.069880 0.100095 0.691004
v -0.064667 0.094138 0.691104
v -0.066524 0.092273 0.688309
v -0.087827 0.116900 0.670310
v -0.089959 0.118944 0.676105
v -0.085260 0.117812 0.678657
v -0.071436 0.109679 0.684425
v -0.086105 0.116357 0.683205
v -0.085115 0.109061 0.686020
v -0.076514 0.105225 0.689701
v -0.074664 0.108233 0.688995
v -0.069988 0.102491 0.691806
v -0.069116 0.104663 0.690120
v -0.066598 0.105853 0.686682
v -0.064630 0.100340 0.691363
v -0.064177 0.096817 0.691743
v -0.061580 0.099176 0.688713
v -0.065549 0.102637 0.690777
v -0.063551 0.102271 0.688056
v -0.120505 0.135248 0.667142
v -0.120469 0.140176 0.673856
v -0.110358 0.139143 0.668569
v -0.110908 0.133867 0.663795
v -0.105595 0.128619 0.670745
v -0.110930 0.130395 0.666226
v -0.108832 0.125771 0.666629
v -0.109202 0.123901 0.674453
v -0.104037 0.130789 0.677796
v -0.111003 0.126779 0.682239
v -0.115496 0.123500 0.674618
v -0.112769 0.127339 0.666896
v -0.128378 0.138028 0.653902
v -0.135223 0.138273 0.659913
v -0.126751 0.155960 0.660099
v -0.128389 0.156949 0.664209
v -0.116816 0.132385 0.664905
v -0.109913 0.129465 0.662369
v -0.112872 0.147895 0.673844
v -0.110765 0.145706 0.669067
v -0.111162 0.142500 0.673660
v -0.110656 0.144120 0.679510
v -0.122395 0.144040 0.648156
v -0.126274 0.150324 0.654353
v -0.124104 0.138721 0.650164
v -0.115169 0.145308 0.680307
v -0.117434 0.138886 0.685518
v -0.137607 0.147619 0.671413
v -0.132671 0.152518 0.670058
v -0.111164 0.131344 0.663534
v -0.108803 0.141341 0.665588
v -0.109213 0.136081 0.662409
v -0.118878 0.129833 0.681538
v -0.108837 0.137694 0.686654
v -0.110321 0.154095 0.674923
v -0.112134 0.142464 0.685002
v -0.116649 0.144275 0.683234
v -0.115103 0.156878 0.673632
v -0.109627 0.140606 0.684552
v -0.106778 0.138470 0.684473
v -0.119749 0.153092 0.659848
v -0.120627 0.157017 0.665909
v -0.116638 0.150770 0.657715
v -0.140155 0.141290 0.666335
v -0.106498 0.144634 0.662853
v -0.112531 0.147749 0.658677
v -0.120609 0.143304 0.679784
v -0.119026 0.158857 0.670510
v -0.107126 0.150877 0.674271
v -0.104791 0.144539 0.670045
v -0.106010 0.158131 0.668083
v -0.102975 0.153696 0.663900
v -0.105047 0.152393 0.657412
v -0.110732 0.152940 0.655058
v -0.115394 0.153884 0.655202
v -0.109174 0.160952 0.669203
v -0.113305 0.163061 0.669145
v -0.117829 0.161501 0.667673
v -0.112564 0.168965 0.663454
v -0.109365 0.168485 0.659971
v -0.117358 0.169782 0.639861
v -0.113638 0.164870 0.644170
v -0.112072 0.167640 0.645334
v -0.115656 0.172497 0.641469
v -0.108621 0.161440 0.649157
v -0.108958 0.164548 0.649049
v -0.107956 0.166678 0.653726
v -0.111166 0.171880 0.648833
v -0.112545 0.173943 0.653740
v -0.115422 0.179067 0.649095
v -0.113799 0.177177 0.644233
v -0.109620 0.169957 0.656027
v -0.117586 0.176328 0.639358
v -0.120010 0.175896 0.638338
v -0.105938 0.163991 0.655754
v -0.111320 0.155829 0.651617
v -0.116687 0.163222 0.644152
v -0.120680 0.168976 0.640043
v -0.123015 0.176208 0.639474
v -0.120421 0.163841 0.645834
v -0.123404 0.169794 0.642070
v -0.124621 0.175878 0.641958
v -0.123809 0.165705 0.649274
v -0.126102 0.171814 0.645687
v -0.118330 0.156302 0.657566
v -0.115714 0.154687 0.653654
v -0.125827 0.174832 0.644404
v -0.119525 0.181976 0.639527
v -0.123222 0.180809 0.641313
v -0.117717 0.180508 0.640807
v -0.114194 0.174520 0.655813
v -0.117997 0.179264 0.650184
v -0.117047 0.174525 0.657608
v -0.121079 0.179415 0.651034
v -0.120052 0.182541 0.645087
v -0.118562 0.181684 0.644599
v -0.117798 0.155763 0.658505
v -0.119263 0.159168 0.664210
v -0.119698 0.159546 0.662916
v -0.124942 0.169104 0.654138
v -0.118556 0.163072 0.666100
v -0.115910 0.167443 0.665101
v -0.119680 0.173896 0.658764
v -0.123331 0.172341 0.657433
v -0.122924 0.180014 0.652580
v -0.124849 0.177119 0.653351
v -0.127247 0.174034 0.649924
v -0.124382 0.182189 0.647178
v -0.122075 0.182654 0.645683
v -0.124816 0.179835 0.643112
v -0.125860 0.180115 0.649453
v -0.126337 0.177578 0.646041
v -0.110376 0.183593 0.676567
v -0.114425 0.186948 0.681423
v -0.115627 0.184088 0.681975
v -0.112268 0.179746 0.677784
v -0.100306 0.173160 0.688228
v -0.101484 0.176807 0.682146
v -0.103941 0.169962 0.682218
v -0.102934 0.163877 0.688695
v -0.102104 0.175755 0.695374
v -0.106336 0.164141 0.697783
v -0.110615 0.159552 0.688187
v -0.109373 0.165269 0.682059
v -0.128649 0.163633 0.676935
v -0.131064 0.159151 0.682877
v -0.105668 0.180637 0.678702
v -0.108146 0.175431 0.679128
v -0.121467 0.184642 0.691567
v -0.119540 0.185781 0.686863
v -0.118244 0.187005 0.688231
v -0.119115 0.185119 0.693090
v -0.133769 0.176665 0.669656
v -0.136795 0.181747 0.675525
v -0.129678 0.170212 0.671288
v -0.121049 0.178696 0.698062
v -0.118464 0.168750 0.701890
v -0.138564 0.171576 0.694646
v -0.138913 0.178317 0.692910
v -0.111740 0.171625 0.679462
v -0.117207 0.183014 0.680022
v -0.114343 0.177959 0.677190
v -0.115393 0.161250 0.695805
v -0.111465 0.173532 0.703270
v -0.101882 0.203618 0.694887
v -0.113466 0.184956 0.698578
v -0.117754 0.188321 0.692655
v -0.104742 0.206200 0.691685
v -0.116251 0.181252 0.699742
v -0.108867 0.180022 0.700371
v -0.099996 0.203854 0.676434
v -0.104424 0.205363 0.680622
v -0.096818 0.199962 0.677346
v -0.135696 0.161799 0.689577
v -0.139078 0.184032 0.687131
v -0.092679 0.196822 0.684825
v -0.094135 0.198159 0.679728
v -0.117476 0.188962 0.687581
v -0.106286 0.207151 0.686778
v -0.099048 0.199874 0.694319
v -0.094660 0.195966 0.691291
v -0.096745 0.208533 0.694502
v -0.091596 0.204701 0.691240
v -0.088261 0.205295 0.685853
v -0.088163 0.205874 0.680582
v -0.090998 0.207461 0.677327
v -0.098949 0.212292 0.693997
v -0.100685 0.214503 0.690322
v -0.103322 0.211394 0.685485
v -0.096933 0.219371 0.693372
v -0.091122 0.217954 0.695660
v -0.073267 0.228215 0.686997
v -0.077535 0.221647 0.686427
v -0.077116 0.221957 0.688163
v -0.073340 0.228155 0.689349
v -0.082276 0.214261 0.688407
v -0.081090 0.216414 0.689777
v -0.084641 0.216457 0.693419
v -0.079311 0.223627 0.694663
v -0.087229 0.226774 0.695607
v -0.083033 0.231476 0.695015
v -0.075749 0.229050 0.694948
v -0.088707 0.219718 0.695756
v -0.072258 0.232104 0.690766
v -0.070159 0.232697 0.688626
v -0.086688 0.213772 0.692526
v -0.082581 0.212502 0.681983
v -0.077570 0.221945 0.682159
v -0.073691 0.228924 0.682236
v -0.072801 0.234362 0.684217
v -0.080700 0.223295 0.678934
v -0.076802 0.230038 0.679954
v -0.076129 0.234878 0.681954
v -0.083942 0.224530 0.678117
v -0.080635 0.230840 0.679783
v -0.092133 0.212049 0.676843
v -0.086394 0.211653 0.678173
v -0.079027 0.234639 0.681502
v -0.072901 0.236299 0.693004
v -0.076557 0.238752 0.688754
v -0.074287 0.233880 0.693366
v -0.090077 0.227124 0.695534
v -0.085247 0.234158 0.694793
v -0.092696 0.227817 0.693015
v -0.088378 0.235602 0.693712
v -0.080261 0.236934 0.694888
v -0.079496 0.235309 0.694618
v -0.096664 0.208112 0.677145
v -0.101656 0.209960 0.680366
v -0.097161 0.214112 0.679119
v -0.087996 0.227410 0.680246
v -0.099749 0.216062 0.683756
v -0.097603 0.220716 0.689469
v -0.093304 0.228451 0.689048
v -0.091675 0.229118 0.684660
v -0.089568 0.235859 0.690185
v -0.088908 0.234314 0.686336
v -0.085159 0.233590 0.681116
v -0.084345 0.238408 0.689461
v -0.082637 0.238581 0.693002
v -0.079215 0.238584 0.685609
v -0.085280 0.237092 0.686429
v -0.081537 0.236869 0.683605
v -0.138384 0.183255 0.682019
v -0.141158 0.150161 0.691357
v -0.140791 0.153384 0.695513
v -0.141844 0.154501 0.695501
v -0.141860 0.152656 0.690749
v -0.155148 0.146113 0.692129
v -0.149199 0.146453 0.690183
v -0.153067 0.149611 0.686346
v -0.160017 0.148559 0.688005
v -0.158181 0.147703 0.696788
v -0.162061 0.150195 0.693559
v -0.159412 0.154020 0.685672
v -0.152436 0.155608 0.684226
v -0.153414 0.177407 0.688235
v -0.159598 0.178075 0.688894
v -0.153651 0.188616 0.705023
v -0.147854 0.188289 0.703675
v -0.144101 0.178565 0.702159
v -0.150118 0.178502 0.705750
v -0.144286 0.147930 0.689962
v -0.146239 0.151925 0.687216
v -0.148445 0.156347 0.704522
v -0.143559 0.156807 0.700204
v -0.142419 0.156562 0.699181
v -0.145474 0.157117 0.703251
v -0.142660 0.186561 0.699465
v -0.142038 0.184717 0.695867
v -0.138423 0.179832 0.693648
v -0.140509 0.177713 0.697643
v -0.141613 0.177869 0.689162
v -0.154958 0.155005 0.704887
v -0.162249 0.154173 0.700494
v -0.161268 0.181163 0.704132
v -0.156625 0.180589 0.706551
v -0.144491 0.154933 0.685904
v -0.143034 0.156864 0.695578
v -0.140734 0.155102 0.690749
v -0.162898 0.153101 0.691852
v -0.159367 0.153270 0.701573
v -0.140619 0.146460 0.710051
v -0.148621 0.156365 0.705301
v -0.142819 0.156976 0.703062
v -0.137716 0.147042 0.709210
v -0.151558 0.154599 0.704826
v -0.154350 0.152760 0.703472
v -0.134489 0.140045 0.697436
v -0.133916 0.144875 0.701739
v -0.137293 0.137912 0.696249
v -0.164105 0.180293 0.695206
v -0.145104 0.137033 0.700268
v -0.140657 0.135975 0.697467
v -0.140630 0.155661 0.699342
v -0.135298 0.146989 0.706114
v -0.144317 0.144096 0.709290
v -0.147178 0.140236 0.704656
v -0.141403 0.138868 0.714197
v -0.144038 0.135451 0.708861
v -0.141071 0.131377 0.703989
v -0.137729 0.132258 0.701098
v -0.134825 0.134092 0.699624
v -0.137108 0.142001 0.714319
v -0.134213 0.143104 0.712480
v -0.131902 0.143757 0.708224
v -0.134140 0.136985 0.718139
v -0.136839 0.131675 0.718837
v -0.125652 0.118419 0.713162
v -0.129631 0.121716 0.710207
v -0.130714 0.121186 0.711702
v -0.126688 0.117739 0.713974
v -0.135821 0.125596 0.708495
v -0.135337 0.124425 0.710624
v -0.137657 0.127295 0.713525
v -0.132738 0.122282 0.716547
v -0.130663 0.126770 0.720992
v -0.126719 0.122317 0.722666
v -0.129260 0.119024 0.718671
v -0.135935 0.128858 0.718435
v -0.124950 0.115577 0.716515
v -0.122898 0.114248 0.716892
v -0.139740 0.128956 0.712445
v -0.133385 0.128192 0.704026
v -0.126946 0.122016 0.708355
v -0.122500 0.117700 0.712568
v -0.120157 0.115011 0.717525
v -0.125610 0.124874 0.707182
v -0.120524 0.119333 0.711970
v -0.118647 0.117648 0.716376
v -0.123984 0.128606 0.707732
v -0.119949 0.122832 0.712473
v -0.129972 0.135226 0.702982
v -0.131349 0.131377 0.702671
v -0.118918 0.120080 0.715905
v -0.123195 0.114231 0.722266
v -0.119785 0.116070 0.721946
v -0.125604 0.116143 0.720667
v -0.130212 0.128309 0.721995
v -0.125174 0.123206 0.724374
v -0.128467 0.130997 0.722233
v -0.123359 0.125116 0.724328
v -0.122988 0.118394 0.724995
v -0.125257 0.118578 0.723050
v -0.131910 0.137026 0.700671
v -0.131437 0.141446 0.703377
v -0.129708 0.138920 0.706339
v -0.123954 0.132073 0.710927
v -0.130313 0.141050 0.711335
v -0.132230 0.139769 0.715460
v -0.126675 0.132936 0.720018
v -0.124928 0.133419 0.716448
v -0.121613 0.126111 0.722676
v -0.120583 0.127018 0.719133
v -0.119579 0.126013 0.714944
v -0.119412 0.120968 0.722250
v -0.120503 0.119619 0.724204
v -0.118809 0.118738 0.720180
v -0.118988 0.122427 0.720074
v -0.118883 0.121459 0.718075
v -0.157220 0.186706 0.704965
v -0.098682 0.165704 0.667488
v -0.103993 0.164961 0.667264
v -0.106636 0.169318 0.684497
v -0.109290 0.165118 0.677197
v -0.098752 0.172027 0.686430
v -0.088239 0.171307 0.680029
v -0.092552 0.173719 0.683288
v -0.107102 0.163637 0.671110
v -0.094148 0.166065 0.669058
v -0.087636 0.169496 0.673759
v -0.086832 0.154457 0.677846
v -0.083696 0.160399 0.682629
v -0.088194 0.166081 0.688623
v -0.094380 0.168516 0.689125
v -0.099847 0.168508 0.689165
v -0.096196 0.157479 0.673293
v -0.101814 0.157808 0.672953
v -0.106840 0.159637 0.675956
v -0.098203 0.148327 0.682630
v -0.104109 0.148161 0.696051
v -0.120526 0.159565 0.715600
v -0.112946 0.162612 0.709612
v -0.112383 0.159346 0.709614
v -0.119241 0.156911 0.715730
v -0.106268 0.162850 0.705484
v -0.106425 0.159961 0.705636
v -0.103694 0.154837 0.701004
v -0.110493 0.151878 0.708130
v -0.106628 0.150148 0.698690
v -0.112648 0.147317 0.702292
v -0.118076 0.149450 0.713953
v -0.122614 0.153122 0.719745
v -0.124427 0.147933 0.719224
v -0.125178 0.155548 0.720252
v -0.098305 0.153267 0.702270
v -0.104126 0.168216 0.699261
v -0.114275 0.166278 0.707265
v -0.122228 0.162821 0.713478
v -0.127353 0.157135 0.717225
v -0.117126 0.166845 0.702712
v -0.123740 0.162766 0.708262
v -0.127692 0.156730 0.710421
v -0.118498 0.163743 0.697643
v -0.123951 0.159564 0.703390
v -0.108654 0.168104 0.686292
v -0.105700 0.170321 0.692230
v -0.126477 0.156075 0.706669
v -0.126927 0.147248 0.720928
v -0.129375 0.148967 0.716308
v -0.112384 0.146195 0.697756
v -0.119146 0.144858 0.708123
v -0.120069 0.144316 0.704668
v -0.113244 0.146179 0.693030
v -0.121802 0.143108 0.701560
v -0.125456 0.143427 0.713011
v -0.122708 0.144736 0.714173
v -0.106058 0.167377 0.686802
v -0.108557 0.163361 0.680988
v -0.110126 0.162793 0.680590
v -0.117736 0.158428 0.691696
v -0.108927 0.156687 0.678267
v -0.103461 0.151974 0.679342
v -0.115394 0.147903 0.690013
v -0.117167 0.152291 0.689049
v -0.123528 0.145985 0.698515
v -0.124138 0.149455 0.697520
v -0.124596 0.154681 0.699800
v -0.127364 0.146845 0.705189
v -0.127144 0.143881 0.709059
v -0.129130 0.150978 0.709630
v -0.126348 0.149138 0.702565
v -0.127170 0.152307 0.705078
v -0.150353 0.198544 0.703437
v -0.144214 0.196290 0.698369
v -0.146072 0.205929 0.698049
v -0.152037 0.217684 0.693761
v -0.158949 0.230382 0.697016
v -0.149842 0.215526 0.686540
v -0.142003 0.203504 0.689953
v -0.143351 0.190724 0.690065
v -0.151019 0.222798 0.677157
f 4 3 1
f 1 3 2
f 5 8 6
f 6 8 7
f 9 10 4
f 4 10 3
f 9 13 11
f 11 13 12
f 14 16 12
f 12 16 15
f 20 19 17
f 17 19 18
f 24 23 21
f 21 23 22
f 28 27 25
f 25 27 26
f 32 31 29
f 29 31 30
f 33 36 34
f 34 36 35
f 37 40 38
f 38 40 39
f 41 6 42
f 42 6 43
f 6 7 43
f 43 7 44
f 45 46 34
f 34 46 33
f 50 49 47
f 47 49 48
f 54 53 51
f 51 53 52
f 51 52 55
f 55 52 56
f 60 59 57
f 57 59 58
f 1 62 4
f 4 62 61
f 66 65 63
f 63 65 64
f 70 69 67
f 67 69 68
f 74 73 71
f 71 73 72
f 78 77 75
f 75 77 76
f 80 79 54
f 54 79 53
f 84 83 81
f 81 83 82
f 85 52 86
f 86 52 53
f 88 60 87
f 87 60 57
f 44 90 43
f 43 90 89
f 91 42 89
f 89 42 43
f 93 39 92
f 92 39 40
f 69 70 64
f 64 70 94
f 4 61 9
f 9 61 13
f 25 69 28
f 28 69 95
f 69 25 68
f 68 25 96
f 100 99 97
f 97 99 98
f 101 104 102
f 102 104 103
f 29 30 105
f 105 30 106
f 108 54 107
f 107 54 51
f 109 80 108
f 108 80 54
f 113 112 110
f 110 112 111
f 116 5 114
f 114 5 115
f 115 5 41
f 41 5 6
f 36 111 35
f 35 111 117
f 35 117 118
f 118 117 119
f 34 35 120
f 120 35 118
f 34 120 45
f 45 120 121
f 127 126 124
f 124 126 125
f 130 129 14
f 14 129 128
f 132 131 46
f 46 131 33
f 64 94 63
f 63 94 133
f 134 137 135
f 135 137 136
f 141 140 138
f 138 140 139
f 143 142 78
f 78 142 77
f 144 20 145
f 145 20 146
f 72 149 147
f 147 149 148
f 153 152 150
f 150 152 151
f 104 101 83
f 83 101 82
f 101 155 82
f 82 155 154
f 59 157 58
f 58 157 156
f 67 68 147
f 147 68 158
f 159 15 146
f 146 15 16
f 160 158 96
f 96 158 68
f 65 66 130
f 130 66 129
f 164 163 161
f 161 163 162
f 168 167 165
f 165 167 166
f 172 171 169
f 169 171 170
f 170 171 173
f 173 171 174
f 178 177 175
f 175 177 176
f 24 181 179
f 179 181 180
f 184 183 21
f 21 183 182
f 154 185 82
f 82 185 81
f 186 188 187
f 187 188 144
f 189 71 160
f 160 71 158
f 59 135 157
f 157 135 190
f 140 172 139
f 139 172 169
f 71 72 158
f 158 72 147
f 194 193 191
f 191 193 192
f 167 49 166
f 166 49 195
f 157 190 50
f 50 190 196
f 197 200 198
f 198 200 199
f 181 24 182
f 182 24 21
f 17 159 20
f 20 159 146
f 185 181 81
f 81 181 182
f 181 185 180
f 180 185 201
f 84 203 83
f 83 203 202
f 85 206 204
f 204 206 205
f 21 22 184
f 184 22 207
f 23 24 208
f 208 24 179
f 205 209 179
f 179 209 208
f 206 210 205
f 205 210 209
f 210 206 211
f 211 206 212
f 204 205 180
f 180 205 179
f 213 88 176
f 176 88 214
f 206 85 212
f 212 85 86
f 193 218 217
f 220 219 218
f 218 219 217
f 17 18 220
f 220 18 219
f 144 221 20
f 20 221 19
f 222 225 223
f 223 225 224
f 214 226 176
f 176 226 175
f 88 87 214
f 214 87 227
f 159 17 228
f 228 17 220
f 134 60 213
f 213 60 88
f 152 229 151
f 151 229 138
f 211 192 210
f 210 192 193
f 193 194 218
f 218 194 230
f 230 232 228
f 228 232 231
f 89 234 91
f 91 234 233
f 235 93 236
f 236 93 92
f 237 232 234
f 234 232 230
f 239 238 48
f 48 238 47
f 236 191 235
f 235 191 240
f 241 8 116
f 116 8 5
f 160 243 189
f 189 243 242
f 99 245 98
f 98 245 244
f 238 246 47
f 47 246 156
f 248 247 77
f 77 247 76
f 124 125 249
f 249 125 250
f 254 253 251
f 251 253 252
f 111 36 110
f 110 36 255
f 256 255 33
f 33 255 36
f 257 154 258
f 258 154 155
f 139 169 133
f 133 169 63
f 66 63 170
f 170 63 169
f 66 170 129
f 129 170 173
f 259 128 173
f 173 128 129
f 261 260 259
f 259 260 128
f 213 262 134
f 134 262 137
f 187 264 186
f 186 264 263
f 266 265 113
f 113 265 112
f 11 268 267
f 194 233 230
f 230 233 234
f 67 269 70
f 70 269 153
f 141 178 165
f 165 178 175
f 70 153 94
f 94 153 150
f 207 221 270
f 270 221 271
f 152 153 272
f 272 153 269
f 108 45 109
f 109 45 121
f 157 50 156
f 156 50 47
f 274 273 58
f 58 273 57
f 261 275 260
f 260 275 145
f 78 149 143
f 143 149 276
f 272 269 75
f 75 269 148
f 278 277 270
f 270 277 207
f 50 196 49
f 49 196 195
f 59 60 135
f 135 60 134
f 83 202 104
f 104 202 279
f 75 148 78
f 78 148 149
f 277 278 248
f 248 278 247
f 81 182 84
f 84 182 183
f 282 239 281
f 281 239 48
f 222 223 283
f 283 223 227
f 168 226 224
f 224 226 223
f 225 282 224
f 224 282 281
f 226 168 175
f 175 168 165
f 229 263 138
f 138 263 264
f 260 16 128
f 128 16 14
f 220 218 228
f 228 218 230
f 283 227 284
f 284 227 87
f 146 16 145
f 145 16 260
f 155 98 258
f 258 98 244
f 246 274 156
f 156 274 58
f 55 285 51
f 51 285 107
f 96 286 160
f 160 286 243
f 90 237 89
f 89 237 234
f 285 132 107
f 107 132 46
f 253 249 252
f 252 249 250
f 25 26 96
f 96 26 286
f 288 105 287
f 287 105 106
f 229 152 289
f 289 152 272
f 138 139 151
f 151 139 133
f 162 290 161
f 161 290 183
f 293 292 277
f 277 292 291
f 94 150 133
f 133 150 151
f 262 177 275
f 275 177 187
f 275 187 145
f 145 187 144
f 273 284 57
f 57 284 87
f 135 136 190
f 190 136 174
f 111 112 117
f 117 112 38
f 117 38 119
f 119 38 123
f 37 38 265
f 265 38 112
f 251 288 254
f 254 288 287
f 15 159 231
f 231 159 228
f 214 227 226
f 226 227 223
f 269 67 148
f 148 67 147
f 167 168 281
f 281 168 224
f 162 163 200
f 200 163 199
f 107 46 108
f 108 46 45
f 49 167 48
f 48 167 281
f 292 164 291
f 291 164 161
f 38 39 123
f 248 294 277
f 277 294 293
f 284 296 283
f 283 296 295
f 297 296 273
f 273 296 284
f 274 298 273
f 273 298 297
f 246 299 274
f 274 299 298
f 283 295 222
f 222 295 300
f 222 300 225
f 225 300 301
f 301 302 225
f 225 302 282
f 303 300 304
f 304 300 295
f 308 307 305
f 305 307 306
f 305 310 308
f 308 310 309
f 308 312 307
f 307 312 311
f 315 314 312
f 312 314 313
f 313 316 312
f 312 316 311
f 316 304 311
f 311 304 317
f 315 312 309
f 309 312 308
f 318 321 319
f 319 321 320
f 319 309 318
f 318 309 310
f 311 317 307
f 307 317 306
f 296 297 317
f 317 297 306
f 306 297 322
f 322 297 298
f 305 306 323
f 323 306 322
f 310 305 324
f 324 305 323
f 296 317 295
f 295 317 304
f 318 310 325
f 325 310 324
f 327 324 326
f 326 324 323
f 324 327 325
f 325 327 328
f 330 327 329
f 329 327 326
f 332 331 326
f 326 331 329
f 327 330 328
f 328 330 333
f 323 322 326
f 326 322 332
f 299 332 298
f 298 332 322
f 325 334 318
f 318 334 321
f 304 316 335
f 335 316 313
f 335 313 336
f 336 313 314
f 337 303 335
f 335 303 304
f 336 338 335
f 335 338 337
f 336 314 339
f 339 314 340
f 341 299 238
f 238 299 246
f 302 342 282
f 282 342 239
f 238 239 341
f 341 239 342
f 341 342 331
f 331 342 343
f 331 343 329
f 329 343 344
f 345 343 302
f 302 343 342
f 332 299 331
f 331 299 341
f 346 345 301
f 301 345 302
f 300 303 301
f 301 303 346
f 303 337 346
f 346 337 347
f 347 348 346
f 346 348 345
f 349 350 347
f 347 350 348
f 348 344 345
f 345 344 343
f 344 348 351
f 351 348 350
f 337 338 347
f 347 338 349
f 349 338 352
f 352 338 353
f 356 355 354
f 354 355 352
f 350 349 355
f 355 349 352
f 352 353 354
f 354 353 334
f 321 334 339
f 339 334 353
f 338 336 353
f 353 336 339
f 351 330 344
f 344 330 329
f 356 333 351
f 351 333 330
f 356 351 355
f 355 351 350
f 354 328 356
f 356 328 333
f 334 325 354
f 354 325 328
f 320 315 319
f 319 315 309
f 320 321 340
f 340 321 339
f 314 315 340
f 340 315 320
f 137 261 136
f 136 261 259
f 165 166 141
f 141 166 140
f 196 171 195
f 195 171 172
f 190 174 196
f 196 174 171
f 187 177 264
f 264 177 178
f 166 195 140
f 140 195 172
f 275 261 262
f 262 261 137
f 138 264 141
f 141 264 178
f 262 213 177
f 177 213 176
f 173 174 259
f 259 174 136
f 360 359 357
f 357 359 358
f 364 363 361
f 361 363 362
f 366 364 365
f 365 364 361
f 367 370 368
f 368 370 369
f 372 371 247
f 247 371 76
f 363 374 362
f 362 374 373
f 378 377 375
f 375 377 376
f 289 380 229
f 229 380 379
f 229 379 263
f 263 379 381
f 385 384 382
f 382 384 383
f 363 368 374
f 374 368 386
f 76 371 289
f 289 371 380
f 377 359 376
f 376 359 387
f 374 386 360
f 360 386 388
f 389 366 383
f 383 366 390
f 394 393 391
f 391 393 392
f 383 390 382
f 382 390 395
f 366 365 390
f 390 365 396
f 364 366 367
f 367 366 389
f 398 397 358
f 358 397 357
f 397 399 357
f 357 399 373
f 389 400 367
f 367 400 370
f 372 385 375
f 375 385 382
f 374 360 373
f 373 360 357
f 402 401 362
f 362 401 361
f 360 388 359
f 359 388 387
f 363 364 368
f 368 364 367
f 404 398 403
f 403 398 358
f 391 392 405
f 405 392 396
f 378 395 393
f 393 395 392
f 393 394 403
f 403 394 404
f 395 378 382
f 382 378 375
f 405 396 406
f 406 396 365
f 399 402 373
f 373 402 362
f 384 270 400
f 400 270 271
f 401 406 361
f 361 406 365
f 368 369 386
f 386 369 381
f 390 396 395
f 395 396 392
f 377 378 403
f 403 378 393
f 359 377 358
f 358 377 403
f 406 408 405
f 405 408 407
f 409 408 401
f 401 408 406
f 410 409 402
f 402 409 401
f 411 410 399
f 399 410 402
f 405 407 391
f 391 407 412
f 391 412 394
f 394 412 413
f 414 404 413
f 413 404 394
f 415 412 416
f 416 412 407
f 420 419 417
f 417 419 418
f 419 422 418
f 418 422 421
f 419 424 422
f 422 424 423
f 427 426 424
f 424 426 425
f 425 428 424
f 424 428 423
f 427 424 420
f 420 424 419
f 420 417 429
f 429 417 430
f 423 431 422
f 422 431 421
f 408 409 431
f 431 409 421
f 421 409 432
f 432 409 410
f 418 421 433
f 433 421 432
f 434 417 433
f 433 417 418
f 428 416 423
f 423 416 431
f 408 431 407
f 407 431 416
f 417 434 430
f 430 434 435
f 437 434 436
f 436 434 433
f 434 437 435
f 435 437 438
f 440 437 439
f 439 437 436
f 442 441 436
f 436 441 439
f 438 437 443
f 443 437 440
f 432 442 433
f 433 442 436
f 411 442 410
f 410 442 432
f 435 445 430
f 430 445 444
f 430 444 429
f 429 444 446
f 416 428 447
f 447 428 425
f 426 448 425
f 425 448 447
f 449 415 447
f 447 415 416
f 450 449 448
f 448 449 447
f 426 452 448
f 448 452 451
f 446 444 452
f 452 444 451
f 453 411 397
f 397 411 399
f 414 454 404
f 404 454 398
f 397 398 453
f 453 398 454
f 453 454 441
f 441 454 455
f 441 455 439
f 439 455 456
f 457 455 414
f 414 455 454
f 441 442 453
f 453 442 411
f 458 457 413
f 413 457 414
f 412 415 413
f 413 415 458
f 458 415 459
f 459 415 449
f 459 460 458
f 458 460 457
f 461 462 459
f 459 462 460
f 460 456 457
f 457 456 455
f 456 460 463
f 463 460 462
f 450 461 449
f 449 461 459
f 461 450 464
f 464 450 465
f 468 467 466
f 466 467 464
f 462 461 467
f 467 461 464
f 464 465 466
f 466 465 445
f 444 445 451
f 451 445 465
f 450 448 465
f 465 448 451
f 463 440 456
f 456 440 439
f 468 443 463
f 463 443 440
f 468 463 467
f 467 463 462
f 466 438 468
f 468 438 443
f 445 435 466
f 466 435 438
f 446 427 429
f 429 427 420
f 426 427 452
f 452 427 446
f 370 188 369
f 369 188 186
f 375 376 372
f 372 376 371
f 388 379 387
f 387 379 380
f 386 381 388
f 388 381 379
f 270 384 278
f 278 384 385
f 376 387 371
f 371 387 380
f 400 271 370
f 370 271 188
f 247 278 372
f 372 278 385
f 400 389 384
f 384 389 383
f 263 381 186
f 186 381 369
f 221 144 271
f 271 144 188
f 22 19 207
f 207 19 221
f 23 18 22
f 22 18 19
f 208 219 23
f 23 219 18
f 469 472 470
f 470 472 471
f 476 475 473
f 473 475 474
f 478 476 477
f 477 476 473
f 482 481 479
f 479 481 480
f 475 484 474
f 474 484 483
f 488 487 485
f 485 487 486
f 142 490 77
f 77 490 489
f 77 489 248
f 248 489 491
f 495 494 492
f 492 494 493
f 475 480 484
f 484 480 496
f 471 497 487
f 487 497 486
f 484 496 472
f 472 496 498
f 499 478 493
f 493 478 500
f 501 504 502
f 502 504 503
f 493 500 492
f 492 500 505
f 478 477 500
f 500 477 506
f 476 478 479
f 479 478 499
f 508 507 470
f 470 507 469
f 507 509 469
f 469 509 483
f 510 482 499
f 499 482 479
f 511 495 485
f 485 495 492
f 483 484 469
f 469 484 472
f 513 512 474
f 474 512 473
f 472 498 471
f 471 498 497
f 475 476 480
f 480 476 479
f 515 508 514
f 514 508 470
f 501 502 516
f 516 502 506
f 503 488 502
f 502 488 505
f 504 515 503
f 503 515 514
f 505 488 492
f 492 488 485
f 516 506 517
f 517 506 477
f 509 513 483
f 483 513 474
f 510 494 292
f 292 494 164
f 512 517 473
f 473 517 477
f 480 481 496
f 496 481 491
f 500 506 505
f 505 506 502
f 487 488 514
f 514 488 503
f 471 487 470
f 470 487 514
f 517 519 516
f 516 519 518
f 520 519 512
f 512 519 517
f 521 520 513
f 513 520 512
f 522 521 509
f 509 521 513
f 516 518 501
f 501 518 523
f 501 523 504
f 504 523 524
f 524 525 504
f 504 525 515
f 526 523 527
f 527 523 518
f 531 530 528
f 528 530 529
f 530 533 529
f 529 533 532
f 530 535 533
f 533 535 534
f 538 537 535
f 535 537 536
f 536 539 535
f 535 539 534
f 538 535 531
f 531 535 530
f 528 541 531
f 531 541 540
f 542 532 534
f 534 532 533
f 519 520 542
f 542 520 532
f 532 520 543
f 543 520 521
f 529 532 544
f 544 532 543
f 528 529 545
f 545 529 544
f 534 539 542
f 542 539 527
f 519 542 518
f 518 542 527
f 541 528 546
f 546 528 545
f 547 548 544
f 544 548 545
f 548 549 545
f 545 549 546
f 550 551 547
f 547 551 548
f 547 553 550
f 550 553 552
f 549 548 554
f 554 548 551
f 544 543 547
f 547 543 553
f 522 553 521
f 521 553 543
f 546 556 541
f 541 556 555
f 541 555 540
f 540 555 557
f 527 539 558
f 558 539 536
f 537 559 536
f 536 559 558
f 560 526 558
f 558 526 527
f 559 561 558
f 558 561 560
f 559 537 562
f 562 537 563
f 557 555 563
f 563 555 562
f 564 522 507
f 507 522 509
f 525 565 515
f 515 565 508
f 507 508 564
f 564 508 565
f 564 565 552
f 552 565 566
f 552 566 550
f 550 566 567
f 568 566 525
f 525 566 565
f 553 522 552
f 552 522 564
f 569 568 524
f 524 568 525
f 523 526 524
f 524 526 569
f 526 560 569
f 569 560 570
f 570 571 569
f 569 571 568
f 572 573 570
f 570 573 571
f 571 567 568
f 568 567 566
f 567 571 574
f 574 571 573
f 561 572 560
f 560 572 570
f 572 561 575
f 575 561 576
f 579 578 577
f 577 578 575
f 573 572 578
f 578 572 575
f 575 576 577
f 577 576 556
f 555 556 562
f 562 556 576
f 561 559 576
f 576 559 562
f 574 551 567
f 567 551 550
f 579 554 574
f 574 554 551
f 579 574 578
f 578 574 573
f 549 554 577
f 577 554 579
f 556 546 577
f 577 546 549
f 557 538 540
f 540 538 531
f 537 538 563
f 563 538 557
f 293 294 482
f 482 294 481
f 485 486 511
f 511 486 580
f 498 489 497
f 497 489 490
f 496 491 498
f 498 491 489
f 163 164 495
f 495 164 494
f 580 486 490
f 490 486 497
f 292 293 510
f 510 293 482
f 199 163 511
f 511 163 495
f 499 493 510
f 510 493 494
f 248 491 294
f 294 491 481
f 584 583 581
f 581 583 582
f 588 587 585
f 585 587 586
f 590 588 589
f 589 588 585
f 594 593 591
f 591 593 592
f 595 598 596
f 596 598 597
f 587 600 586
f 586 600 599
f 601 604 602
f 602 604 603
f 605 608 606
f 606 608 607
f 606 607 200
f 200 607 609
f 610 613 611
f 611 613 612
f 600 587 614
f 614 587 592
f 596 597 605
f 605 597 608
f 583 615 603
f 603 615 602
f 600 614 584
f 584 614 616
f 590 618 617
f 617 618 611
f 622 621 619
f 619 621 620
f 618 623 611
f 611 623 610
f 590 589 618
f 618 589 624
f 588 590 591
f 591 590 617
f 626 625 582
f 582 625 581
f 625 627 581
f 581 627 599
f 628 594 617
f 617 594 591
f 601 598 610
f 610 598 613
f 600 584 599
f 599 584 581
f 630 629 586
f 586 629 585
f 584 616 583
f 583 616 615
f 587 588 592
f 592 588 591
f 632 626 631
f 631 626 582
f 619 620 633
f 633 620 624
f 621 604 620
f 620 604 623
f 622 632 621
f 621 632 631
f 610 623 601
f 601 623 604
f 633 624 634
f 634 624 589
f 627 630 599
f 599 630 586
f 612 202 628
f 628 202 203
f 629 634 585
f 585 634 589
f 592 593 614
f 614 593 609
f 618 624 623
f 623 624 620
f 631 603 621
f 621 603 604
f 582 583 631
f 631 583 603
f 634 636 633
f 633 636 635
f 637 636 629
f 629 636 634
f 638 637 630
f 630 637 629
f 639 638 627
f 627 638 630
f 633 635 619
f 619 635 640
f 619 640 622
f 622 640 641
f 641 642 622
f 622 642 632
f 640 635 643
f 643 635 644
f 645 648 646
f 646 648 647
f 647 650 646
f 646 650 649
f 647 652 650
f 650 652 651
f 652 655 653
f 653 655 654
f 653 656 652
f 652 656 651
f 655 652 648
f 648 652 647
f 648 645 657
f 657 645 658
f 659 649 651
f 651 649 650
f 636 637 659
f 659 637 649
f 649 637 660
f 660 637 638
f 649 660 646
f 646 660 661
f 662 645 661
f 661 645 646
f 651 656 659
f 659 656 644
f 636 659 635
f 635 659 644
f 645 662 658
f 658 662 663
f 664 665 661
f 661 665 662
f 665 666 662
f 662 666 663
f 667 668 664
f 664 668 665
f 664 670 667
f 667 670 669
f 666 665 671
f 671 665 668
f 661 660 664
f 664 660 670
f 639 670 638
f 638 670 660
f 673 672 663
f 663 672 658
f 658 672 657
f 657 672 674
f 644 656 675
f 675 656 653
f 676 675 654
f 654 675 653
f 675 677 644
f 644 677 643
f 676 678 675
f 675 678 677
f 654 680 676
f 676 680 679
f 674 672 680
f 680 672 679
f 681 639 625
f 625 639 627
f 642 682 632
f 632 682 626
f 681 625 682
f 682 625 626
f 682 683 681
f 681 683 669
f 683 684 669
f 669 684 667
f 685 683 642
f 642 683 682
f 670 639 669
f 669 639 681
f 686 685 641
f 641 685 642
f 641 640 686
f 686 640 643
f 686 643 687
f 687 643 677
f 687 688 686
f 686 688 685
f 689 690 687
f 687 690 688
f 688 684 685
f 685 684 683
f 684 688 691
f 691 688 690
f 678 689 677
f 677 689 687
f 689 678 692
f 692 678 693
f 696 695 694
f 694 695 692
f 690 689 695
f 695 689 692
f 692 693 694
f 694 693 673
f 672 673 679
f 679 673 693
f 678 676 693
f 693 676 679
f 684 691 667
f 667 691 668
f 696 671 691
f 691 671 668
f 696 691 695
f 695 691 690
f 694 666 696
f 696 666 671
f 673 663 694
f 694 663 666
f 674 655 657
f 657 655 648
f 654 655 680
f 680 655 674
f 290 162 594
f 594 162 593
f 598 601 597
f 597 601 602
f 615 616 608
f 608 616 607
f 614 609 616
f 616 609 607
f 598 595 613
f 613 595 697
f 597 602 608
f 608 602 615
f 203 290 628
f 628 290 594
f 628 617 612
f 612 617 611
f 200 609 162
f 162 609 593
f 699 29 698
f 698 29 105
f 268 701 126
f 126 701 700
f 126 700 125
f 125 700 702
f 704 703 250
f 250 703 252
f 32 705 268
f 268 705 701
f 698 105 706
f 706 105 288
f 29 699 32
f 32 699 705
f 707 706 251
f 251 706 288
f 702 704 125
f 125 704 250
f 703 707 252
f 252 707 251
f 709 708 707
f 707 708 706
f 710 709 703
f 703 709 707
f 711 710 704
f 704 710 703
f 712 711 702
f 702 711 704
f 706 708 698
f 698 708 713
f 698 713 699
f 699 713 714
f 715 705 714
f 714 705 699
f 713 708 716
f 716 708 717
f 721 720 718
f 718 720 719
f 720 723 719
f 719 723 722
f 720 725 723
f 723 725 724
f 727 726 725
f 725 726 724
f 728 725 721
f 721 725 720
f 730 728 729
f 729 728 721
f 718 731 721
f 721 731 729
f 724 732 723
f 723 732 722
f 709 710 732
f 732 710 722
f 722 710 733
f 733 710 711
f 719 722 734
f 734 722 733
f 718 719 735
f 735 719 734
f 724 726 732
f 732 726 717
f 709 732 708
f 708 732 717
f 731 718 736
f 736 718 735
f 737 738 734
f 734 738 735
f 738 739 735
f 735 739 736
f 740 741 737
f 737 741 738
f 737 743 740
f 740 743 742
f 739 738 744
f 744 738 741
f 734 733 737
f 737 733 743
f 712 743 711
f 711 743 733
f 736 746 731
f 731 746 745
f 731 745 729
f 729 745 730
f 717 726 747
f 747 726 727
f 748 749 727
f 727 749 747
f 747 750 717
f 717 750 716
f 749 751 747
f 747 751 750
f 749 748 752
f 752 748 753
f 730 745 753
f 753 745 752
f 727 725 748
f 748 725 728
f 748 728 753
f 753 728 730
f 700 754 702
f 702 754 712
f 705 715 701
f 701 715 755
f 754 700 755
f 755 700 701
f 755 756 754
f 754 756 742
f 756 757 742
f 742 757 740
f 758 756 715
f 715 756 755
f 743 712 742
f 742 712 754
f 759 758 714
f 714 758 715
f 714 713 759
f 759 713 716
f 759 716 760
f 760 716 750
f 760 761 759
f 759 761 758
f 762 763 760
f 760 763 761
f 761 757 758
f 758 757 756
f 757 761 764
f 764 761 763
f 751 762 750
f 750 762 760
f 762 751 765
f 765 751 766
f 767 769 765
f 765 769 768
f 763 762 768
f 768 762 765
f 765 766 767
f 767 766 746
f 745 746 752
f 752 746 766
f 751 749 766
f 766 749 752
f 757 764 740
f 740 764 741
f 769 744 764
f 764 744 741
f 769 764 768
f 768 764 763
f 767 739 769
f 769 739 744
f 746 736 767
f 767 736 739
f 209 217 208
f 208 217 219
f 209 210 217
f 217 210 193
f 511 580 199
f 199 580 198
f 76 289 75
f 75 289 272
f 184 207 291
f 291 207 277
f 84 183 203
f 203 183 290
f 198 580 142
f 142 580 490
f 142 143 198
f 198 143 197
f 73 276 72
f 72 276 149
f 104 279 103
f 103 279 770
f 770 279 596
f 596 279 595
f 605 771 596
f 596 771 770
f 771 772 770
f 770 772 103
f 772 773 103
f 103 773 102
f 102 774 101
f 101 774 155
f 773 97 102
f 102 97 774
f 97 773 100
f 100 773 775
f 773 772 775
f 775 772 776
f 772 771 776
f 776 771 777
f 200 197 606
f 606 197 777
f 74 71 778
f 778 71 189
f 155 774 98
f 98 774 97
f 291 161 184
f 184 161 183
f 143 276 197
f 197 276 777
f 605 606 771
f 771 606 777
f 202 612 697
f 697 612 613
f 595 279 697
f 697 279 202
f 73 776 276
f 276 776 777
f 776 73 775
f 775 73 74
f 74 778 775
f 775 778 100
f 778 189 100
f 100 189 99
f 189 242 99
f 99 242 245
f 131 256 33
f 62 1 95
f 95 1 28
f 1 2 28
f 28 2 27
f 114 115 266
f 266 115 265
f 95 69 62
f 62 69 64
f 65 61 64
f 64 61 62
f 130 13 65
f 65 13 61
f 14 12 130
f 130 12 13
f 268 11 32
f 32 11 31
f 15 31 12
f 12 31 11
f 231 30 15
f 15 30 31
f 232 106 231
f 231 106 30
f 232 237 106
f 106 237 287
f 237 90 287
f 287 90 254
f 90 44 254
f 254 44 253
f 7 249 44
f 44 249 253
f 126 127 268
f 268 127 267
f 116 3 241
f 241 3 10
f 114 2 116
f 116 2 3
f 266 27 114
f 114 27 2
f 113 26 266
f 266 26 27
f 110 286 113
f 113 286 26
f 255 243 110
f 110 243 286
f 256 242 255
f 255 242 243
f 131 245 256
f 256 245 242
f 132 244 131
f 131 244 245
f 41 37 115
f 115 37 265
f 41 42 37
f 37 42 40
f 42 91 40
f 40 91 92
f 91 233 92
f 92 233 236
f 233 194 236
f 236 194 191
f 132 285 244
f 244 285 258
f 285 55 258
f 258 55 257
f 185 154 201
f 201 154 257
f 180 201 204
f 204 201 56
f 55 56 257
f 257 56 201
f 204 56 85
f 85 56 52
f 79 122 53
f 53 122 86
f 122 215 86
f 86 215 212
f 215 216 212
f 212 216 211
f 216 280 211
f 211 280 192
f 191 192 240
f 240 192 280
f 8 124 7
f 7 124 249
f 241 127 8
f 8 127 124
f 10 267 241
f 241 267 127
f 10 9 267
f 267 9 11
